G04 #@! TF.GenerationSoftware,KiCad,Pcbnew,(5.1.9)-1*
G04 #@! TF.CreationDate,2021-03-02T14:07:55-05:00*
G04 #@! TF.ProjectId,Canary,43616e61-7279-42e6-9b69-6361645f7063,A.1*
G04 #@! TF.SameCoordinates,Original*
G04 #@! TF.FileFunction,Profile,NP*
%FSLAX46Y46*%
G04 Gerber Fmt 4.6, Leading zero omitted, Abs format (unit mm)*
G04 Created by KiCad (PCBNEW (5.1.9)-1) date 2021-03-02 14:07:55*
%MOMM*%
%LPD*%
G01*
G04 APERTURE LIST*
G04 #@! TA.AperFunction,Profile*
%ADD10C,0.050000*%
G04 #@! TD*
G04 #@! TA.AperFunction,Profile*
%ADD11C,0.120000*%
G04 #@! TD*
%ADD12C,0.150000*%
G04 APERTURE END LIST*
D10*
X118000000Y-104307107D02*
X118000000Y-116000000D01*
X118000000Y-78000000D02*
X118000000Y-89692893D01*
X117707107Y-90400000D02*
G75*
G03*
X118000000Y-89692893I-707107J707107D01*
G01*
X116292893Y-91802893D02*
G75*
G03*
X116000000Y-92510000I707107J-707107D01*
G01*
X117707107Y-90400000D02*
X116292893Y-91802893D01*
X117707107Y-103600000D02*
X116292893Y-102197107D01*
X116292893Y-102197107D02*
G75*
G02*
X116000000Y-101490000I707107J707107D01*
G01*
X117707107Y-103600000D02*
G75*
G02*
X118000000Y-104307107I-707107J-707107D01*
G01*
X116000000Y-92510000D02*
X116000000Y-101490000D01*
X172000000Y-78000000D02*
X118000000Y-78000000D01*
X172000000Y-116000000D02*
X172000000Y-78000000D01*
X118000000Y-116000000D02*
X172000000Y-116000000D01*
D11*
X167725000Y-98550000D02*
X167725000Y-96135000D01*
X162265000Y-90675000D02*
X159850000Y-90675000D01*
X159850000Y-90675000D02*
X157435000Y-90675000D01*
X151975000Y-96135000D02*
X151975000Y-98550000D01*
X151975000Y-98550000D02*
X151975000Y-100965000D01*
X157435000Y-106425000D02*
X159850000Y-106425000D01*
X159850000Y-106425000D02*
X162265000Y-106425000D01*
X167725000Y-100965000D02*
X167725000Y-98550000D01*
X164085000Y-104605000D02*
G75*
G02*
X162265000Y-106425000I-1820000J0D01*
G01*
X165905000Y-102785000D02*
G75*
G03*
X164085000Y-104605000I0J-1820000D01*
G01*
X167725000Y-100965000D02*
G75*
G02*
X165905000Y-102785000I-1820000J0D01*
G01*
X153795000Y-102785000D02*
G75*
G02*
X151975000Y-100965000I0J1820000D01*
G01*
X155615000Y-104605000D02*
G75*
G03*
X153795000Y-102785000I-1820000J0D01*
G01*
X157435000Y-106425000D02*
G75*
G02*
X155615000Y-104605000I0J1820000D01*
G01*
X155615000Y-92495000D02*
G75*
G02*
X157435000Y-90675000I1820000J0D01*
G01*
X153795000Y-94315000D02*
G75*
G03*
X155615000Y-92495000I0J1820000D01*
G01*
X151975000Y-96135000D02*
G75*
G02*
X153795000Y-94315000I1820000J0D01*
G01*
X162265000Y-90675000D02*
G75*
G02*
X164085000Y-92495000I0J-1820000D01*
G01*
X164085000Y-92495000D02*
G75*
G03*
X165905000Y-94315000I1820000J0D01*
G01*
X165905000Y-94315000D02*
G75*
G02*
X167725000Y-96135000I0J-1820000D01*
G01*
D12*
X157540476Y-104907142D02*
X157492857Y-104954761D01*
X157350000Y-105002380D01*
X157254761Y-105002380D01*
X157111904Y-104954761D01*
X157016666Y-104859523D01*
X156969047Y-104764285D01*
X156921428Y-104573809D01*
X156921428Y-104430952D01*
X156969047Y-104240476D01*
X157016666Y-104145238D01*
X157111904Y-104050000D01*
X157254761Y-104002380D01*
X157350000Y-104002380D01*
X157492857Y-104050000D01*
X157540476Y-104097619D01*
X158397619Y-104335714D02*
X158397619Y-105002380D01*
X157969047Y-104335714D02*
X157969047Y-104859523D01*
X158016666Y-104954761D01*
X158111904Y-105002380D01*
X158254761Y-105002380D01*
X158350000Y-104954761D01*
X158397619Y-104907142D01*
X158730952Y-104335714D02*
X159111904Y-104335714D01*
X158873809Y-104002380D02*
X158873809Y-104859523D01*
X158921428Y-104954761D01*
X159016666Y-105002380D01*
X159111904Y-105002380D01*
X159445238Y-104621428D02*
X160207142Y-104621428D01*
X160873809Y-104002380D02*
X161064285Y-104002380D01*
X161159523Y-104050000D01*
X161254761Y-104145238D01*
X161302380Y-104335714D01*
X161302380Y-104669047D01*
X161254761Y-104859523D01*
X161159523Y-104954761D01*
X161064285Y-105002380D01*
X160873809Y-105002380D01*
X160778571Y-104954761D01*
X160683333Y-104859523D01*
X160635714Y-104669047D01*
X160635714Y-104335714D01*
X160683333Y-104145238D01*
X160778571Y-104050000D01*
X160873809Y-104002380D01*
X162159523Y-104335714D02*
X162159523Y-105002380D01*
X161730952Y-104335714D02*
X161730952Y-104859523D01*
X161778571Y-104954761D01*
X161873809Y-105002380D01*
X162016666Y-105002380D01*
X162111904Y-104954761D01*
X162159523Y-104907142D01*
X162492857Y-104335714D02*
X162873809Y-104335714D01*
X162635714Y-104002380D02*
X162635714Y-104859523D01*
X162683333Y-104954761D01*
X162778571Y-105002380D01*
X162873809Y-105002380D01*
M02*
