G04 #@! TF.GenerationSoftware,KiCad,Pcbnew,(5.1.9)-1*
G04 #@! TF.CreationDate,2021-03-02T14:07:55-05:00*
G04 #@! TF.ProjectId,Canary,43616e61-7279-42e6-9b69-6361645f7063,A.1*
G04 #@! TF.SameCoordinates,Original*
G04 #@! TF.FileFunction,Legend,Bot*
G04 #@! TF.FilePolarity,Positive*
%FSLAX46Y46*%
G04 Gerber Fmt 4.6, Leading zero omitted, Abs format (unit mm)*
G04 Created by KiCad (PCBNEW (5.1.9)-1) date 2021-03-02 14:07:55*
%MOMM*%
%LPD*%
G01*
G04 APERTURE LIST*
%ADD10C,0.150000*%
%ADD11C,0.200000*%
%ADD12C,0.300000*%
%ADD13C,0.152400*%
G04 APERTURE END LIST*
D10*
X169219047Y-82961904D02*
X169485714Y-82580952D01*
X169676190Y-82961904D02*
X169676190Y-82161904D01*
X169371428Y-82161904D01*
X169295238Y-82200000D01*
X169257142Y-82238095D01*
X169219047Y-82314285D01*
X169219047Y-82428571D01*
X169257142Y-82504761D01*
X169295238Y-82542857D01*
X169371428Y-82580952D01*
X169676190Y-82580952D01*
X168571428Y-82923809D02*
X168647619Y-82961904D01*
X168800000Y-82961904D01*
X168876190Y-82923809D01*
X168914285Y-82847619D01*
X168914285Y-82542857D01*
X168876190Y-82466666D01*
X168800000Y-82428571D01*
X168647619Y-82428571D01*
X168571428Y-82466666D01*
X168533333Y-82542857D01*
X168533333Y-82619047D01*
X168914285Y-82695238D01*
X168266666Y-82428571D02*
X168076190Y-82961904D01*
X167885714Y-82428571D01*
X167009523Y-82733333D02*
X166628571Y-82733333D01*
X167085714Y-82961904D02*
X166819047Y-82161904D01*
X166552380Y-82961904D01*
X166285714Y-82885714D02*
X166247619Y-82923809D01*
X166285714Y-82961904D01*
X166323809Y-82923809D01*
X166285714Y-82885714D01*
X166285714Y-82961904D01*
X165485714Y-82961904D02*
X165942857Y-82961904D01*
X165714285Y-82961904D02*
X165714285Y-82161904D01*
X165790476Y-82276190D01*
X165866666Y-82352380D01*
X165942857Y-82390476D01*
X165546666Y-114283333D02*
X165165714Y-114283333D01*
X165622857Y-114511904D02*
X165356190Y-113711904D01*
X165089523Y-114511904D01*
X164708571Y-114511904D02*
X164784761Y-114473809D01*
X164822857Y-114397619D01*
X164822857Y-113711904D01*
X164099047Y-114473809D02*
X164175238Y-114511904D01*
X164327619Y-114511904D01*
X164403809Y-114473809D01*
X164441904Y-114397619D01*
X164441904Y-114092857D01*
X164403809Y-114016666D01*
X164327619Y-113978571D01*
X164175238Y-113978571D01*
X164099047Y-114016666D01*
X164060952Y-114092857D01*
X164060952Y-114169047D01*
X164441904Y-114245238D01*
X163794285Y-114511904D02*
X163375238Y-113978571D01*
X163794285Y-113978571D02*
X163375238Y-114511904D01*
X162460952Y-114511904D02*
X162460952Y-113711904D01*
X162156190Y-113711904D01*
X162080000Y-113750000D01*
X162041904Y-113788095D01*
X162003809Y-113864285D01*
X162003809Y-113978571D01*
X162041904Y-114054761D01*
X162080000Y-114092857D01*
X162156190Y-114130952D01*
X162460952Y-114130952D01*
X161356190Y-114473809D02*
X161432380Y-114511904D01*
X161584761Y-114511904D01*
X161660952Y-114473809D01*
X161699047Y-114397619D01*
X161699047Y-114092857D01*
X161660952Y-114016666D01*
X161584761Y-113978571D01*
X161432380Y-113978571D01*
X161356190Y-114016666D01*
X161318095Y-114092857D01*
X161318095Y-114169047D01*
X161699047Y-114245238D01*
X161089523Y-113978571D02*
X160784761Y-113978571D01*
X160975238Y-113711904D02*
X160975238Y-114397619D01*
X160937142Y-114473809D01*
X160860952Y-114511904D01*
X160784761Y-114511904D01*
X160518095Y-114511904D02*
X160518095Y-113711904D01*
X160441904Y-114207142D02*
X160213333Y-114511904D01*
X160213333Y-113978571D02*
X160518095Y-114283333D01*
X159756190Y-114511904D02*
X159832380Y-114473809D01*
X159870476Y-114435714D01*
X159908571Y-114359523D01*
X159908571Y-114130952D01*
X159870476Y-114054761D01*
X159832380Y-114016666D01*
X159756190Y-113978571D01*
X159641904Y-113978571D01*
X159565714Y-114016666D01*
X159527619Y-114054761D01*
X159489523Y-114130952D01*
X159489523Y-114359523D01*
X159527619Y-114435714D01*
X159565714Y-114473809D01*
X159641904Y-114511904D01*
X159756190Y-114511904D01*
X159222857Y-113978571D02*
X159032380Y-114511904D01*
X158841904Y-113978571D01*
X158537142Y-114511904D02*
X158537142Y-113978571D01*
X158537142Y-113711904D02*
X158575238Y-113750000D01*
X158537142Y-113788095D01*
X158499047Y-113750000D01*
X158537142Y-113711904D01*
X158537142Y-113788095D01*
X157813333Y-114473809D02*
X157889523Y-114511904D01*
X158041904Y-114511904D01*
X158118095Y-114473809D01*
X158156190Y-114435714D01*
X158194285Y-114359523D01*
X158194285Y-114130952D01*
X158156190Y-114054761D01*
X158118095Y-114016666D01*
X158041904Y-113978571D01*
X157889523Y-113978571D01*
X157813333Y-114016666D01*
D11*
X169628571Y-81542857D02*
X169628571Y-80342857D01*
X169171428Y-80342857D01*
X169057142Y-80400000D01*
X169000000Y-80457142D01*
X168942857Y-80571428D01*
X168942857Y-80742857D01*
X169000000Y-80857142D01*
X169057142Y-80914285D01*
X169171428Y-80971428D01*
X169628571Y-80971428D01*
X167742857Y-81542857D02*
X168142857Y-80971428D01*
X168428571Y-81542857D02*
X168428571Y-80342857D01*
X167971428Y-80342857D01*
X167857142Y-80400000D01*
X167800000Y-80457142D01*
X167742857Y-80571428D01*
X167742857Y-80742857D01*
X167800000Y-80857142D01*
X167857142Y-80914285D01*
X167971428Y-80971428D01*
X168428571Y-80971428D01*
X167000000Y-80342857D02*
X166771428Y-80342857D01*
X166657142Y-80400000D01*
X166542857Y-80514285D01*
X166485714Y-80742857D01*
X166485714Y-81142857D01*
X166542857Y-81371428D01*
X166657142Y-81485714D01*
X166771428Y-81542857D01*
X167000000Y-81542857D01*
X167114285Y-81485714D01*
X167228571Y-81371428D01*
X167285714Y-81142857D01*
X167285714Y-80742857D01*
X167228571Y-80514285D01*
X167114285Y-80400000D01*
X167000000Y-80342857D01*
X165628571Y-80342857D02*
X165628571Y-81200000D01*
X165685714Y-81371428D01*
X165800000Y-81485714D01*
X165971428Y-81542857D01*
X166085714Y-81542857D01*
X165057142Y-80914285D02*
X164657142Y-80914285D01*
X164485714Y-81542857D02*
X165057142Y-81542857D01*
X165057142Y-80342857D01*
X164485714Y-80342857D01*
X163285714Y-81428571D02*
X163342857Y-81485714D01*
X163514285Y-81542857D01*
X163628571Y-81542857D01*
X163800000Y-81485714D01*
X163914285Y-81371428D01*
X163971428Y-81257142D01*
X164028571Y-81028571D01*
X164028571Y-80857142D01*
X163971428Y-80628571D01*
X163914285Y-80514285D01*
X163800000Y-80400000D01*
X163628571Y-80342857D01*
X163514285Y-80342857D01*
X163342857Y-80400000D01*
X163285714Y-80457142D01*
X162942857Y-80342857D02*
X162257142Y-80342857D01*
X162600000Y-81542857D02*
X162600000Y-80342857D01*
X160257142Y-81428571D02*
X160314285Y-81485714D01*
X160485714Y-81542857D01*
X160600000Y-81542857D01*
X160771428Y-81485714D01*
X160885714Y-81371428D01*
X160942857Y-81257142D01*
X161000000Y-81028571D01*
X161000000Y-80857142D01*
X160942857Y-80628571D01*
X160885714Y-80514285D01*
X160771428Y-80400000D01*
X160600000Y-80342857D01*
X160485714Y-80342857D01*
X160314285Y-80400000D01*
X160257142Y-80457142D01*
X159800000Y-81200000D02*
X159228571Y-81200000D01*
X159914285Y-81542857D02*
X159514285Y-80342857D01*
X159114285Y-81542857D01*
X158714285Y-81542857D02*
X158714285Y-80342857D01*
X158028571Y-81542857D01*
X158028571Y-80342857D01*
X157514285Y-81200000D02*
X156942857Y-81200000D01*
X157628571Y-81542857D02*
X157228571Y-80342857D01*
X156828571Y-81542857D01*
X155742857Y-81542857D02*
X156142857Y-80971428D01*
X156428571Y-81542857D02*
X156428571Y-80342857D01*
X155971428Y-80342857D01*
X155857142Y-80400000D01*
X155800000Y-80457142D01*
X155742857Y-80571428D01*
X155742857Y-80742857D01*
X155800000Y-80857142D01*
X155857142Y-80914285D01*
X155971428Y-80971428D01*
X156428571Y-80971428D01*
X155000000Y-80971428D02*
X155000000Y-81542857D01*
X155400000Y-80342857D02*
X155000000Y-80971428D01*
X154600000Y-80342857D01*
D12*
X116591421Y-99258579D02*
G75*
G03*
X116591421Y-99258579I-141421J0D01*
G01*
D10*
X120250000Y-94700000D02*
X121650000Y-94700000D01*
X121650000Y-99300000D02*
X120250000Y-99300000D01*
D13*
X129639400Y-90010600D02*
X129639400Y-82949400D01*
X129639400Y-82949400D02*
X132890600Y-82949400D01*
X132890600Y-82949400D02*
X132890600Y-90010600D01*
X132890600Y-90010600D02*
X129639400Y-90010600D01*
D12*
X130674400Y-82314400D02*
G75*
G03*
X130674400Y-82314400I-74400J0D01*
G01*
D10*
X130130000Y-82980000D02*
X129680000Y-83410000D01*
D11*
X119240000Y-85090000D02*
G75*
G03*
X119240000Y-85090000I-100000J0D01*
G01*
D10*
X123365000Y-84915000D02*
X119935000Y-84915000D01*
X119935000Y-78565000D02*
X123365000Y-78565000D01*
X125632142Y-111921904D02*
X125289285Y-111921904D01*
X125460714Y-112721904D02*
X125460714Y-111921904D01*
X125089285Y-112721904D02*
X125089285Y-111921904D01*
X124860714Y-111921904D01*
X124803571Y-111960000D01*
X124775000Y-111998095D01*
X124746428Y-112074285D01*
X124746428Y-112188571D01*
X124775000Y-112264761D01*
X124803571Y-112302857D01*
X124860714Y-112340952D01*
X125089285Y-112340952D01*
X124175000Y-112721904D02*
X124517857Y-112721904D01*
X124346428Y-112721904D02*
X124346428Y-111921904D01*
X124403571Y-112036190D01*
X124460714Y-112112380D01*
X124517857Y-112150476D01*
X125910000Y-97303809D02*
X125824285Y-97341904D01*
X125681428Y-97341904D01*
X125624285Y-97303809D01*
X125595714Y-97265714D01*
X125567142Y-97189523D01*
X125567142Y-97113333D01*
X125595714Y-97037142D01*
X125624285Y-96999047D01*
X125681428Y-96960952D01*
X125795714Y-96922857D01*
X125852857Y-96884761D01*
X125881428Y-96846666D01*
X125910000Y-96770476D01*
X125910000Y-96694285D01*
X125881428Y-96618095D01*
X125852857Y-96580000D01*
X125795714Y-96541904D01*
X125652857Y-96541904D01*
X125567142Y-96580000D01*
X125367142Y-96541904D02*
X125224285Y-97341904D01*
X125110000Y-96770476D01*
X124995714Y-97341904D01*
X124852857Y-96541904D01*
X124310000Y-97341904D02*
X124652857Y-97341904D01*
X124481428Y-97341904D02*
X124481428Y-96541904D01*
X124538571Y-96656190D01*
X124595714Y-96732380D01*
X124652857Y-96770476D01*
X131500000Y-90361904D02*
X131500000Y-90933333D01*
X131528571Y-91047619D01*
X131585714Y-91123809D01*
X131671428Y-91161904D01*
X131728571Y-91161904D01*
X131242857Y-90438095D02*
X131214285Y-90400000D01*
X131157142Y-90361904D01*
X131014285Y-90361904D01*
X130957142Y-90400000D01*
X130928571Y-90438095D01*
X130900000Y-90514285D01*
X130900000Y-90590476D01*
X130928571Y-90704761D01*
X131271428Y-91161904D01*
X130900000Y-91161904D01*
X121750000Y-85401904D02*
X121750000Y-85973333D01*
X121778571Y-86087619D01*
X121835714Y-86163809D01*
X121921428Y-86201904D01*
X121978571Y-86201904D01*
X121150000Y-86201904D02*
X121492857Y-86201904D01*
X121321428Y-86201904D02*
X121321428Y-85401904D01*
X121378571Y-85516190D01*
X121435714Y-85592380D01*
X121492857Y-85630476D01*
M02*
