M48
; DRILL file {KiCad (5.1.9)-1} date 03/02/21 14:08:23
; FORMAT={-:-/ absolute / inch / decimal}
; #@! TF.CreationDate,2021-03-02T14:08:23-05:00
; #@! TF.GenerationSoftware,Kicad,Pcbnew,(5.1.9)-1
; #@! TF.FileFunction,Plated,1,4,PTH
FMAT,2
INCH
T1C0.0118
T2C0.0157
T3C0.0236
T4C0.0256
%
G90
G05
T1
X4.6654Y-3.8543
X4.7252Y-3.3555
X4.7882Y-3.1957
X4.8469Y-3.3594
X4.8484Y-4.0807
X4.8524Y-4.25
X4.8524Y-4.3228
X4.8524Y-4.3819
X4.8524Y-4.4547
X4.8583Y-3.6654
X4.8787Y-4.1449
X4.8898Y-3.5335
X4.8898Y-4.4547
X4.8951Y-4.2474
X4.9209Y-4.2898
X4.9272Y-4.4547
X4.9449Y-3.1823
X4.9528Y-4.3169
X4.9606Y-4.0374
X4.9606Y-4.0709
X4.9705Y-3.2035
X4.9705Y-4.1024
X4.9783Y-4.1496
X5.002Y-4.2461
X5.0079Y-4.3632
X5.0276Y-4.1496
X5.0344Y-4.3858
X5.0512Y-4.0492
X5.0551Y-4.0827
X5.06Y-4.4094
X5.06Y-4.4537
X5.0736Y-3.5354
X5.1043Y-3.9106
X5.1102Y-4.4134
X5.126Y-4.248
X5.126Y-4.3307
X5.126Y-4.3839
X5.128Y-4.4587
X5.1575Y-3.1614
X5.1575Y-3.2047
X5.185Y-4.1437
X5.2008Y-3.1614
X5.2035Y-3.2512
X5.2185Y-3.6039
X5.2224Y-4.4646
X5.2244Y-4.5266
X5.2264Y-4.1663
X5.2264Y-4.1998
X5.2398Y-3.6327
X5.2461Y-4.4409
X5.2618Y-4.3366
X5.2657Y-3.8524
X5.2677Y-4.2756
X5.2933Y-4.3366
X5.2933Y-4.5453
X5.3071Y-4.2244
X5.3346Y-3.1693
X5.3602Y-4.1339
X5.3701Y-3.3228
X5.3701Y-3.3543
X5.3701Y-3.3858
X5.3701Y-4.2028
X5.3701Y-4.2441
X5.3776Y-3.6941
X5.378Y-3.7677
X5.3799Y-3.5531
X5.3957Y-4.0039
X5.4035Y-4.3209
X5.4035Y-4.4587
X5.4094Y-3.748
X5.4134Y-3.5413
X5.4173Y-3.6457
X5.4323Y-4.0661
X5.4323Y-4.1
X5.4488Y-3.6457
X5.4488Y-3.6772
X5.4488Y-3.7087
X5.4902Y-4.1299
X5.4961Y-4.5394
X5.5236Y-3.5433
X5.5236Y-3.5748
X5.5236Y-3.7126
X5.5236Y-3.7441
X5.5256Y-4.1299
X5.5413Y-4.3268
X5.5531Y-4.2579
X5.5551Y-3.5591
X5.5551Y-3.5906
X5.5551Y-3.6969
X5.5551Y-3.7283
X5.5689Y-3.8622
X5.5768Y-4.3268
X5.5787Y-3.1831
X5.5866Y-3.9646
X5.5866Y-4.122
X5.5886Y-3.4232
X5.5896Y-3.7392
X5.5925Y-3.7894
X5.5925Y-3.8228
X5.5984Y-4.5098
X5.6181Y-3.9646
X5.6181Y-4.122
X5.6358Y-4.2579
X5.6398Y-3.2874
X5.6535Y-3.7579
X5.6772Y-3.2874
X5.7146Y-3.7579
X5.7165Y-3.8941
X5.7244Y-3.435
X5.748Y-4.0445
X5.7515Y-3.8901
X5.752Y-3.1516
X5.752Y-3.1841
X5.752Y-3.7579
X5.7815Y-4.3445
X5.7854Y-4.4173
X5.7874Y-3.9425
X5.8228Y-4.4449
X5.8307Y-3.1634
X5.8307Y-3.1949
X5.8327Y-4.3445
X5.8602Y-3.1476
X5.8898Y-4.5394
X5.8917Y-3.1476
X5.9272Y-3.2638
X5.9272Y-3.3091
X5.9291Y-3.1516
X5.9291Y-3.4232
X5.9685Y-3.1516
X5.9685Y-3.188
X5.9921Y-4.5079
X5.998Y-3.1693
X6.0315Y-3.1339
X6.0315Y-3.3878
X6.0531Y-4.3898
X6.063Y-3.3228
X6.0669Y-3.248
X6.0925Y-4.4173
X6.2835Y-4.5394
X6.3012Y-4.3583
X6.3012Y-4.3898
X6.3169Y-4.4449
X6.3622Y-3.1181
X6.4547Y-3.3228
X6.4606Y-4.437
X6.4823Y-4.372
X6.4823Y-4.4094
X6.4961Y-3.3228
X6.5512Y-3.1181
X6.5827Y-3.2913
X6.5827Y-3.3386
X6.5913Y-3.5335
X6.5984Y-4.3937
X6.5984Y-4.4646
X6.5984Y-4.5354
X6.6063Y-3.374
X6.6299Y-3.3386
X6.6535Y-3.374
X6.6693Y-4.3937
X6.6772Y-3.3386
X6.7008Y-3.374
X6.7244Y-3.3386
X6.7402Y-4.3937
T2
X5.1673Y-3.9193
X5.1673Y-4.0413
T4
X5.1429Y-3.3047
X5.1429Y-3.3547
X5.1429Y-3.4047
X5.1429Y-3.4547
X5.1429Y-3.5047
X5.1929Y-3.3047
X5.1929Y-3.3547
X5.1929Y-3.4047
X5.1929Y-3.4547
X5.1929Y-3.5047
T3
G00X4.6476Y-3.6488
M15
G01X4.624Y-3.6488
M16
G05
G00X4.6476Y-3.989
M15
G01X4.624Y-3.989
M16
G05
G00X4.7972Y-3.6488
M15
G01X4.7736Y-3.6488
M16
G05
G00X4.7972Y-3.989
M15
G01X4.7736Y-3.989
M16
G05
T0
M30
