M48
INCH,TZ
T1C0.0118
T2C0.0157
T3C0.0236
T4C0.0256
%
G90
G05
T1
X46654Y-38543
X47252Y-33555
X47882Y-31957
X48469Y-33594
X48484Y-40807
X48524Y-42500
X48524Y-43228
X48524Y-43819
X48524Y-44547
X48583Y-36654
X48787Y-41449
X48898Y-35335
X48898Y-44547
X48951Y-42474
X49209Y-42898
X49272Y-44547
X49449Y-31823
X49528Y-43169
X49606Y-40374
X49606Y-40709
X49705Y-32035
X49705Y-41024
X49783Y-41496
X50020Y-42461
X50079Y-43632
X50276Y-41496
X50344Y-43858
X50512Y-40492
X50551Y-40827
X50600Y-44094
X50600Y-44537
X50736Y-35354
X51043Y-39106
X51102Y-44134
X51260Y-42480
X51260Y-43307
X51260Y-43839
X51280Y-44587
X51575Y-31614
X51575Y-32047
X51850Y-41437
X52008Y-31614
X52035Y-32512
X52185Y-36039
X52224Y-44646
X52244Y-45266
X52264Y-41663
X52264Y-41998
X52398Y-36327
X52461Y-44409
X52618Y-43366
X52657Y-38524
X52677Y-42756
X52933Y-43366
X52933Y-45453
X53071Y-42244
X53346Y-31693
X53602Y-41339
X53701Y-33228
X53701Y-33543
X53701Y-33858
X53701Y-42028
X53701Y-42441
X53776Y-36941
X53780Y-37677
X53799Y-35531
X53957Y-40039
X54035Y-43209
X54035Y-44587
X54094Y-37480
X54134Y-35413
X54173Y-36457
X54323Y-40661
X54323Y-41000
X54488Y-36457
X54488Y-36772
X54488Y-37087
X54902Y-41299
X54961Y-45394
X55236Y-35433
X55236Y-35748
X55236Y-37126
X55236Y-37441
X55256Y-41299
X55413Y-43268
X55531Y-42579
X55551Y-35591
X55551Y-35906
X55551Y-36969
X55551Y-37283
X55689Y-38622
X55768Y-43268
X55787Y-31831
X55866Y-39646
X55866Y-41220
X55886Y-34232
X55896Y-37392
X55925Y-37894
X55925Y-38228
X55984Y-45098
X56181Y-39646
X56181Y-41220
X56358Y-42579
X56398Y-32874
X56535Y-37579
X56772Y-32874
X57146Y-37579
X57165Y-38941
X57244Y-34350
X57480Y-40445
X57515Y-38901
X57520Y-31516
X57520Y-31841
X57520Y-37579
X57815Y-43445
X57854Y-44173
X57874Y-39425
X58228Y-44449
X58307Y-31634
X58307Y-31949
X58327Y-43445
X58602Y-31476
X58898Y-45394
X58917Y-31476
X59272Y-32638
X59272Y-33091
X59291Y-31516
X59291Y-34232
X59685Y-31516
X59685Y-31880
X59921Y-45079
X59980Y-31693
X60315Y-31339
X60315Y-33878
X60531Y-43898
X60630Y-33228
X60669Y-32480
X60925Y-44173
X62835Y-45394
X63012Y-43583
X63012Y-43898
X63169Y-44449
X63622Y-31181
X64547Y-33228
X64606Y-44370
X64823Y-43720
X64823Y-44094
X64961Y-33228
X65512Y-31181
X65827Y-32913
X65827Y-33386
X65913Y-35335
X65984Y-43937
X65984Y-44646
X65984Y-45354
X66063Y-33740
X66299Y-33386
X66535Y-33740
X66693Y-43937
X66772Y-33386
X67008Y-33740
X67244Y-33386
X67402Y-43937
T2
X51673Y-39193
X51673Y-40413
T4
X51429Y-33047
X51429Y-33547
X51429Y-34047
X51429Y-34547
X51429Y-35047
X51929Y-33047
X51929Y-33547
X51929Y-34047
X51929Y-34547
X51929Y-35047
T3
G00X46476Y-36488
M15
G01X46240Y-36488
M16
G05
G00X46476Y-39890
M15
G01X46240Y-39890
M16
G05
G00X47972Y-36488
M15
G01X47736Y-36488
M16
G05
G00X47972Y-39890
M15
G01X47736Y-39890
M16
G05
T0
M30
