G04 #@! TF.GenerationSoftware,KiCad,Pcbnew,(5.1.9)-1*
G04 #@! TF.CreationDate,2021-03-02T14:01:06-05:00*
G04 #@! TF.ProjectId,Canary,43616e61-7279-42e6-9b69-6361645f7063,A.1*
G04 #@! TF.SameCoordinates,Original*
G04 #@! TF.FileFunction,Copper,L2,Inr*
G04 #@! TF.FilePolarity,Positive*
%FSLAX46Y46*%
G04 Gerber Fmt 4.6, Leading zero omitted, Abs format (unit mm)*
G04 Created by KiCad (PCBNEW (5.1.9)-1) date 2021-03-02 14:01:06*
%MOMM*%
%LPD*%
G01*
G04 APERTURE LIST*
G04 #@! TA.AperFunction,ComponentPad*
%ADD10O,2.200000X1.100000*%
G04 #@! TD*
G04 #@! TA.AperFunction,ComponentPad*
%ADD11C,1.050000*%
G04 #@! TD*
G04 #@! TA.AperFunction,ViaPad*
%ADD12C,0.600000*%
G04 #@! TD*
G04 #@! TA.AperFunction,ViaPad*
%ADD13C,0.800000*%
G04 #@! TD*
G04 #@! TA.AperFunction,Conductor*
%ADD14C,0.203200*%
G04 #@! TD*
G04 #@! TA.AperFunction,Conductor*
%ADD15C,0.100000*%
G04 #@! TD*
G04 APERTURE END LIST*
D10*
X121550000Y-92680000D03*
X121550000Y-101320000D03*
X117750000Y-92680000D03*
X117750000Y-101320000D03*
D11*
X131900000Y-83940000D03*
X130630000Y-83940000D03*
X131900000Y-85210000D03*
X130630000Y-85210000D03*
X131900000Y-86480000D03*
X130630000Y-86480000D03*
X131900000Y-87750000D03*
X130630000Y-87750000D03*
X131900000Y-89020000D03*
X130630000Y-89020000D03*
D12*
X129800000Y-112100000D03*
X134800000Y-107300000D03*
X137500000Y-89950000D03*
X134450000Y-110150000D03*
X141050000Y-108150000D03*
X143150000Y-108150000D03*
X150550000Y-84050000D03*
X123250000Y-107950000D03*
X123250000Y-109800000D03*
X123250000Y-111300000D03*
X123250000Y-113150000D03*
X124200000Y-113150000D03*
X125150000Y-113150000D03*
X130250000Y-113250000D03*
X150600000Y-80050000D03*
X151600000Y-80975000D03*
X151600000Y-80050000D03*
X153200000Y-86050000D03*
X143250000Y-83500000D03*
X144200000Y-83500000D03*
X150550000Y-82900000D03*
X150600000Y-86950000D03*
X146100000Y-80875000D03*
X141700000Y-80850000D03*
X166400000Y-79200000D03*
X161600000Y-79200000D03*
X167200000Y-83600000D03*
X167200000Y-84800000D03*
X168400000Y-84800000D03*
X169600000Y-84800000D03*
X170800000Y-84800000D03*
X165000000Y-84400000D03*
X163950000Y-84400000D03*
X154100000Y-82500000D03*
X131000000Y-81400000D03*
X132100000Y-80300000D03*
X131000000Y-80300000D03*
X146100000Y-80050000D03*
X145400000Y-87250000D03*
X136400000Y-84400000D03*
X136400000Y-85200000D03*
X136400000Y-86000000D03*
X138400000Y-92600000D03*
X137600000Y-92600000D03*
X138400000Y-93400000D03*
X138400000Y-94200000D03*
X132750000Y-106675000D03*
X132750000Y-105825000D03*
X146100000Y-95450000D03*
X145150000Y-95450000D03*
X143600000Y-95450000D03*
X141450000Y-98100000D03*
X139600000Y-115300000D03*
X149600000Y-115300000D03*
X159600000Y-115300000D03*
X133650000Y-110150000D03*
X137400000Y-95200000D03*
X137980000Y-104140000D03*
X137980000Y-103280000D03*
X141900000Y-104700000D03*
X142700000Y-104700000D03*
X141900000Y-100700000D03*
X142700000Y-100700000D03*
X121620000Y-81170000D03*
X123110000Y-85330000D03*
X124200000Y-89750000D03*
D13*
X131250000Y-102650000D03*
D12*
X123150000Y-103650000D03*
X132700000Y-114975000D03*
X136150000Y-105000000D03*
X160050000Y-110700000D03*
X137250000Y-109750000D03*
X137250000Y-113250000D03*
X167600000Y-111600000D03*
X169400000Y-111600000D03*
X167600000Y-113400000D03*
X128870000Y-89800000D03*
X170200000Y-85700000D03*
X169000000Y-85700000D03*
X167800000Y-85700000D03*
X136590000Y-93830000D03*
X136600000Y-95700000D03*
X167600000Y-115200000D03*
X171200000Y-111600000D03*
D13*
X131250000Y-99550000D03*
D12*
X120020000Y-85230000D03*
X133250000Y-112800000D03*
X132650000Y-113400000D03*
X140300000Y-90000000D03*
X140300000Y-90800000D03*
X141100000Y-90400000D03*
X141100000Y-91200000D03*
X152350000Y-80500000D03*
X148100000Y-81150000D03*
X148100000Y-80350000D03*
X148850000Y-79950000D03*
X149650000Y-79950000D03*
X153200000Y-79600000D03*
X118500000Y-97900000D03*
X164100000Y-112700000D03*
X164650000Y-112000000D03*
X153750000Y-111500000D03*
X146850000Y-110350000D03*
X148150000Y-110350000D03*
X142050000Y-97100000D03*
X142050000Y-96250000D03*
X141100000Y-93900000D03*
X140300000Y-95100000D03*
X141100000Y-94700000D03*
X140300000Y-94300000D03*
X140750000Y-109900000D03*
X141650000Y-109900000D03*
X139450000Y-104900000D03*
X140350000Y-104900000D03*
X160050000Y-111500000D03*
X146000000Y-102730000D03*
X146087500Y-98807500D03*
X145200000Y-98910000D03*
X132170000Y-82580000D03*
X125600000Y-80830000D03*
X126250000Y-81370000D03*
X135500000Y-80500000D03*
X130200000Y-110000000D03*
X134450000Y-115450000D03*
X142200000Y-114550000D03*
X133800000Y-108600000D03*
X130200000Y-111350000D03*
X152200000Y-114500000D03*
X126450000Y-105400000D03*
X124335000Y-107885000D03*
X124990000Y-108960000D03*
X123920000Y-105280000D03*
X127200000Y-110825000D03*
X133750000Y-97850000D03*
X127875000Y-111400000D03*
X141975000Y-94975000D03*
X128525000Y-112000000D03*
X137050000Y-101700000D03*
X128300000Y-102850000D03*
X128525000Y-113125000D03*
X133090000Y-92270000D03*
X132550000Y-91540000D03*
X130200000Y-107900000D03*
X136400000Y-107800000D03*
X147900000Y-112900000D03*
X160450000Y-112900000D03*
X131700000Y-105250000D03*
X136400000Y-106750000D03*
X146950000Y-112200000D03*
X154750000Y-112200000D03*
X164650000Y-111050000D03*
X141950000Y-86950000D03*
X126250000Y-104200000D03*
X154000000Y-84400000D03*
X126000000Y-103400000D03*
X136650000Y-90250000D03*
X126000000Y-102550000D03*
X127700000Y-105400000D03*
X128400000Y-103700000D03*
X127050000Y-107850000D03*
X129650000Y-99330000D03*
X147000000Y-100140000D03*
X167420000Y-89750000D03*
X123400000Y-93100000D03*
X125800000Y-109650000D03*
D14*
X171670200Y-115670200D02*
X135013421Y-115670200D01*
X135031558Y-115626414D01*
X135054800Y-115509568D01*
X135054800Y-115390432D01*
X135031558Y-115273586D01*
X134985966Y-115163520D01*
X134919779Y-115064463D01*
X134835537Y-114980221D01*
X134736480Y-114914034D01*
X134626414Y-114868442D01*
X134509568Y-114845200D01*
X134390432Y-114845200D01*
X134273586Y-114868442D01*
X134163520Y-114914034D01*
X134064463Y-114980221D01*
X133980221Y-115064463D01*
X133914034Y-115163520D01*
X133868442Y-115273586D01*
X133845200Y-115390432D01*
X133845200Y-115509568D01*
X133868442Y-115626414D01*
X133886579Y-115670200D01*
X122951600Y-115670200D01*
X122951600Y-114490432D01*
X141595200Y-114490432D01*
X141595200Y-114609568D01*
X141618442Y-114726414D01*
X141664034Y-114836480D01*
X141730221Y-114935537D01*
X141814463Y-115019779D01*
X141913520Y-115085966D01*
X142023586Y-115131558D01*
X142140432Y-115154800D01*
X142259568Y-115154800D01*
X142376414Y-115131558D01*
X142486480Y-115085966D01*
X142585537Y-115019779D01*
X142669779Y-114935537D01*
X142735966Y-114836480D01*
X142781558Y-114726414D01*
X142804800Y-114609568D01*
X142804800Y-114490432D01*
X142794855Y-114440432D01*
X151595200Y-114440432D01*
X151595200Y-114559568D01*
X151618442Y-114676414D01*
X151664034Y-114786480D01*
X151730221Y-114885537D01*
X151814463Y-114969779D01*
X151913520Y-115035966D01*
X152023586Y-115081558D01*
X152140432Y-115104800D01*
X152259568Y-115104800D01*
X152376414Y-115081558D01*
X152486480Y-115035966D01*
X152585537Y-114969779D01*
X152669779Y-114885537D01*
X152735966Y-114786480D01*
X152781558Y-114676414D01*
X152804800Y-114559568D01*
X152804800Y-114440432D01*
X152781558Y-114323586D01*
X152735966Y-114213520D01*
X152669779Y-114114463D01*
X152585537Y-114030221D01*
X152486480Y-113964034D01*
X152376414Y-113918442D01*
X152259568Y-113895200D01*
X152140432Y-113895200D01*
X152023586Y-113918442D01*
X151913520Y-113964034D01*
X151814463Y-114030221D01*
X151730221Y-114114463D01*
X151664034Y-114213520D01*
X151618442Y-114323586D01*
X151595200Y-114440432D01*
X142794855Y-114440432D01*
X142781558Y-114373586D01*
X142735966Y-114263520D01*
X142669779Y-114164463D01*
X142585537Y-114080221D01*
X142486480Y-114014034D01*
X142376414Y-113968442D01*
X142259568Y-113945200D01*
X142140432Y-113945200D01*
X142023586Y-113968442D01*
X141913520Y-114014034D01*
X141814463Y-114080221D01*
X141730221Y-114164463D01*
X141664034Y-114263520D01*
X141618442Y-114373586D01*
X141595200Y-114490432D01*
X122951600Y-114490432D01*
X122951600Y-110765432D01*
X126595200Y-110765432D01*
X126595200Y-110884568D01*
X126618442Y-111001414D01*
X126664034Y-111111480D01*
X126730221Y-111210537D01*
X126814463Y-111294779D01*
X126913520Y-111360966D01*
X127023586Y-111406558D01*
X127140432Y-111429800D01*
X127259568Y-111429800D01*
X127270200Y-111427685D01*
X127270200Y-111459568D01*
X127293442Y-111576414D01*
X127339034Y-111686480D01*
X127405221Y-111785537D01*
X127489463Y-111869779D01*
X127588520Y-111935966D01*
X127698586Y-111981558D01*
X127815432Y-112004800D01*
X127920200Y-112004800D01*
X127920200Y-112059568D01*
X127943442Y-112176414D01*
X127989034Y-112286480D01*
X128055221Y-112385537D01*
X128139463Y-112469779D01*
X128238520Y-112535966D01*
X128302577Y-112562500D01*
X128238520Y-112589034D01*
X128139463Y-112655221D01*
X128055221Y-112739463D01*
X127989034Y-112838520D01*
X127943442Y-112948586D01*
X127920200Y-113065432D01*
X127920200Y-113184568D01*
X127943442Y-113301414D01*
X127989034Y-113411480D01*
X128055221Y-113510537D01*
X128139463Y-113594779D01*
X128238520Y-113660966D01*
X128348586Y-113706558D01*
X128465432Y-113729800D01*
X128584568Y-113729800D01*
X128701414Y-113706558D01*
X128811480Y-113660966D01*
X128910537Y-113594779D01*
X128994779Y-113510537D01*
X129060966Y-113411480D01*
X129090395Y-113340432D01*
X132045200Y-113340432D01*
X132045200Y-113459568D01*
X132068442Y-113576414D01*
X132114034Y-113686480D01*
X132180221Y-113785537D01*
X132264463Y-113869779D01*
X132363520Y-113935966D01*
X132473586Y-113981558D01*
X132590432Y-114004800D01*
X132709568Y-114004800D01*
X132826414Y-113981558D01*
X132936480Y-113935966D01*
X133035537Y-113869779D01*
X133119779Y-113785537D01*
X133185966Y-113686480D01*
X133231558Y-113576414D01*
X133254800Y-113459568D01*
X133254800Y-113404800D01*
X133309568Y-113404800D01*
X133426414Y-113381558D01*
X133536480Y-113335966D01*
X133635537Y-113269779D01*
X133719779Y-113185537D01*
X133785966Y-113086480D01*
X133831558Y-112976414D01*
X133854800Y-112859568D01*
X133854800Y-112740432D01*
X133831558Y-112623586D01*
X133785966Y-112513520D01*
X133719779Y-112414463D01*
X133635537Y-112330221D01*
X133536480Y-112264034D01*
X133426414Y-112218442D01*
X133309568Y-112195200D01*
X133190432Y-112195200D01*
X133073586Y-112218442D01*
X132963520Y-112264034D01*
X132864463Y-112330221D01*
X132780221Y-112414463D01*
X132714034Y-112513520D01*
X132668442Y-112623586D01*
X132645200Y-112740432D01*
X132645200Y-112795200D01*
X132590432Y-112795200D01*
X132473586Y-112818442D01*
X132363520Y-112864034D01*
X132264463Y-112930221D01*
X132180221Y-113014463D01*
X132114034Y-113113520D01*
X132068442Y-113223586D01*
X132045200Y-113340432D01*
X129090395Y-113340432D01*
X129106558Y-113301414D01*
X129129800Y-113184568D01*
X129129800Y-113065432D01*
X129106558Y-112948586D01*
X129060966Y-112838520D01*
X128994779Y-112739463D01*
X128910537Y-112655221D01*
X128811480Y-112589034D01*
X128747423Y-112562500D01*
X128811480Y-112535966D01*
X128910537Y-112469779D01*
X128994779Y-112385537D01*
X129060966Y-112286480D01*
X129106558Y-112176414D01*
X129129800Y-112059568D01*
X129129800Y-112040432D01*
X129195200Y-112040432D01*
X129195200Y-112159568D01*
X129218442Y-112276414D01*
X129264034Y-112386480D01*
X129330221Y-112485537D01*
X129414463Y-112569779D01*
X129513520Y-112635966D01*
X129623586Y-112681558D01*
X129740432Y-112704800D01*
X129859568Y-112704800D01*
X129976414Y-112681558D01*
X130086480Y-112635966D01*
X130185537Y-112569779D01*
X130269779Y-112485537D01*
X130335966Y-112386480D01*
X130381558Y-112276414D01*
X130404800Y-112159568D01*
X130404800Y-112140432D01*
X146345200Y-112140432D01*
X146345200Y-112259568D01*
X146368442Y-112376414D01*
X146414034Y-112486480D01*
X146480221Y-112585537D01*
X146564463Y-112669779D01*
X146663520Y-112735966D01*
X146773586Y-112781558D01*
X146890432Y-112804800D01*
X147009568Y-112804800D01*
X147126414Y-112781558D01*
X147236480Y-112735966D01*
X147335537Y-112669779D01*
X147344402Y-112660914D01*
X147318442Y-112723586D01*
X147295200Y-112840432D01*
X147295200Y-112959568D01*
X147318442Y-113076414D01*
X147364034Y-113186480D01*
X147430221Y-113285537D01*
X147514463Y-113369779D01*
X147613520Y-113435966D01*
X147723586Y-113481558D01*
X147840432Y-113504800D01*
X147959568Y-113504800D01*
X148076414Y-113481558D01*
X148186480Y-113435966D01*
X148285537Y-113369779D01*
X148369779Y-113285537D01*
X148435966Y-113186480D01*
X148481558Y-113076414D01*
X148504800Y-112959568D01*
X148504800Y-112840432D01*
X159845200Y-112840432D01*
X159845200Y-112959568D01*
X159868442Y-113076414D01*
X159914034Y-113186480D01*
X159980221Y-113285537D01*
X160064463Y-113369779D01*
X160163520Y-113435966D01*
X160273586Y-113481558D01*
X160390432Y-113504800D01*
X160509568Y-113504800D01*
X160626414Y-113481558D01*
X160736480Y-113435966D01*
X160835537Y-113369779D01*
X160843677Y-113361639D01*
X168095200Y-113361639D01*
X168095200Y-113638361D01*
X168149186Y-113909765D01*
X168255083Y-114165422D01*
X168408821Y-114395508D01*
X168604492Y-114591179D01*
X168834578Y-114744917D01*
X169090235Y-114850814D01*
X169361639Y-114904800D01*
X169638361Y-114904800D01*
X169909765Y-114850814D01*
X170165422Y-114744917D01*
X170395508Y-114591179D01*
X170591179Y-114395508D01*
X170744917Y-114165422D01*
X170850814Y-113909765D01*
X170904800Y-113638361D01*
X170904800Y-113361639D01*
X170850814Y-113090235D01*
X170744917Y-112834578D01*
X170591179Y-112604492D01*
X170395508Y-112408821D01*
X170165422Y-112255083D01*
X169909765Y-112149186D01*
X169638361Y-112095200D01*
X169361639Y-112095200D01*
X169090235Y-112149186D01*
X168834578Y-112255083D01*
X168604492Y-112408821D01*
X168408821Y-112604492D01*
X168255083Y-112834578D01*
X168149186Y-113090235D01*
X168095200Y-113361639D01*
X160843677Y-113361639D01*
X160919779Y-113285537D01*
X160985966Y-113186480D01*
X161031558Y-113076414D01*
X161054800Y-112959568D01*
X161054800Y-112840432D01*
X161031558Y-112723586D01*
X160997114Y-112640432D01*
X163495200Y-112640432D01*
X163495200Y-112759568D01*
X163518442Y-112876414D01*
X163564034Y-112986480D01*
X163630221Y-113085537D01*
X163714463Y-113169779D01*
X163813520Y-113235966D01*
X163923586Y-113281558D01*
X164040432Y-113304800D01*
X164159568Y-113304800D01*
X164276414Y-113281558D01*
X164386480Y-113235966D01*
X164485537Y-113169779D01*
X164569779Y-113085537D01*
X164635966Y-112986480D01*
X164681558Y-112876414D01*
X164704800Y-112759568D01*
X164704800Y-112640432D01*
X164697712Y-112604800D01*
X164709568Y-112604800D01*
X164826414Y-112581558D01*
X164936480Y-112535966D01*
X165035537Y-112469779D01*
X165119779Y-112385537D01*
X165185966Y-112286480D01*
X165231558Y-112176414D01*
X165254800Y-112059568D01*
X165254800Y-111940432D01*
X165231558Y-111823586D01*
X165185966Y-111713520D01*
X165119779Y-111614463D01*
X165035537Y-111530221D01*
X165027723Y-111525000D01*
X165035537Y-111519779D01*
X165119779Y-111435537D01*
X165185966Y-111336480D01*
X165231558Y-111226414D01*
X165254800Y-111109568D01*
X165254800Y-110990432D01*
X165231558Y-110873586D01*
X165185966Y-110763520D01*
X165119779Y-110664463D01*
X165035537Y-110580221D01*
X164936480Y-110514034D01*
X164826414Y-110468442D01*
X164709568Y-110445200D01*
X164590432Y-110445200D01*
X164473586Y-110468442D01*
X164363520Y-110514034D01*
X164264463Y-110580221D01*
X164180221Y-110664463D01*
X164114034Y-110763520D01*
X164068442Y-110873586D01*
X164045200Y-110990432D01*
X164045200Y-111109568D01*
X164068442Y-111226414D01*
X164114034Y-111336480D01*
X164180221Y-111435537D01*
X164264463Y-111519779D01*
X164272277Y-111525000D01*
X164264463Y-111530221D01*
X164180221Y-111614463D01*
X164114034Y-111713520D01*
X164068442Y-111823586D01*
X164045200Y-111940432D01*
X164045200Y-112059568D01*
X164052288Y-112095200D01*
X164040432Y-112095200D01*
X163923586Y-112118442D01*
X163813520Y-112164034D01*
X163714463Y-112230221D01*
X163630221Y-112314463D01*
X163564034Y-112413520D01*
X163518442Y-112523586D01*
X163495200Y-112640432D01*
X160997114Y-112640432D01*
X160985966Y-112613520D01*
X160919779Y-112514463D01*
X160835537Y-112430221D01*
X160736480Y-112364034D01*
X160626414Y-112318442D01*
X160509568Y-112295200D01*
X160390432Y-112295200D01*
X160273586Y-112318442D01*
X160163520Y-112364034D01*
X160064463Y-112430221D01*
X159980221Y-112514463D01*
X159914034Y-112613520D01*
X159868442Y-112723586D01*
X159845200Y-112840432D01*
X148504800Y-112840432D01*
X148481558Y-112723586D01*
X148435966Y-112613520D01*
X148369779Y-112514463D01*
X148285537Y-112430221D01*
X148186480Y-112364034D01*
X148076414Y-112318442D01*
X147959568Y-112295200D01*
X147840432Y-112295200D01*
X147723586Y-112318442D01*
X147613520Y-112364034D01*
X147514463Y-112430221D01*
X147505598Y-112439086D01*
X147531558Y-112376414D01*
X147554800Y-112259568D01*
X147554800Y-112140432D01*
X154145200Y-112140432D01*
X154145200Y-112259568D01*
X154168442Y-112376414D01*
X154214034Y-112486480D01*
X154280221Y-112585537D01*
X154364463Y-112669779D01*
X154463520Y-112735966D01*
X154573586Y-112781558D01*
X154690432Y-112804800D01*
X154809568Y-112804800D01*
X154926414Y-112781558D01*
X155036480Y-112735966D01*
X155135537Y-112669779D01*
X155219779Y-112585537D01*
X155285966Y-112486480D01*
X155331558Y-112376414D01*
X155354800Y-112259568D01*
X155354800Y-112140432D01*
X155331558Y-112023586D01*
X155285966Y-111913520D01*
X155219779Y-111814463D01*
X155135537Y-111730221D01*
X155036480Y-111664034D01*
X154926414Y-111618442D01*
X154809568Y-111595200D01*
X154690432Y-111595200D01*
X154573586Y-111618442D01*
X154463520Y-111664034D01*
X154364463Y-111730221D01*
X154280221Y-111814463D01*
X154214034Y-111913520D01*
X154168442Y-112023586D01*
X154145200Y-112140432D01*
X147554800Y-112140432D01*
X147531558Y-112023586D01*
X147485966Y-111913520D01*
X147419779Y-111814463D01*
X147335537Y-111730221D01*
X147236480Y-111664034D01*
X147126414Y-111618442D01*
X147009568Y-111595200D01*
X146890432Y-111595200D01*
X146773586Y-111618442D01*
X146663520Y-111664034D01*
X146564463Y-111730221D01*
X146480221Y-111814463D01*
X146414034Y-111913520D01*
X146368442Y-112023586D01*
X146345200Y-112140432D01*
X130404800Y-112140432D01*
X130404800Y-112040432D01*
X130382631Y-111928983D01*
X130486480Y-111885966D01*
X130585537Y-111819779D01*
X130669779Y-111735537D01*
X130735966Y-111636480D01*
X130781558Y-111526414D01*
X130798660Y-111440432D01*
X153145200Y-111440432D01*
X153145200Y-111559568D01*
X153168442Y-111676414D01*
X153214034Y-111786480D01*
X153280221Y-111885537D01*
X153364463Y-111969779D01*
X153463520Y-112035966D01*
X153573586Y-112081558D01*
X153690432Y-112104800D01*
X153809568Y-112104800D01*
X153926414Y-112081558D01*
X154036480Y-112035966D01*
X154135537Y-111969779D01*
X154219779Y-111885537D01*
X154285966Y-111786480D01*
X154331558Y-111676414D01*
X154354800Y-111559568D01*
X154354800Y-111440432D01*
X159445200Y-111440432D01*
X159445200Y-111559568D01*
X159468442Y-111676414D01*
X159514034Y-111786480D01*
X159580221Y-111885537D01*
X159664463Y-111969779D01*
X159763520Y-112035966D01*
X159873586Y-112081558D01*
X159990432Y-112104800D01*
X160109568Y-112104800D01*
X160226414Y-112081558D01*
X160336480Y-112035966D01*
X160435537Y-111969779D01*
X160519779Y-111885537D01*
X160585966Y-111786480D01*
X160631558Y-111676414D01*
X160654800Y-111559568D01*
X160654800Y-111440432D01*
X160631558Y-111323586D01*
X160585966Y-111213520D01*
X160519779Y-111114463D01*
X160435537Y-111030221D01*
X160336480Y-110964034D01*
X160226414Y-110918442D01*
X160109568Y-110895200D01*
X159990432Y-110895200D01*
X159873586Y-110918442D01*
X159763520Y-110964034D01*
X159664463Y-111030221D01*
X159580221Y-111114463D01*
X159514034Y-111213520D01*
X159468442Y-111323586D01*
X159445200Y-111440432D01*
X154354800Y-111440432D01*
X154331558Y-111323586D01*
X154285966Y-111213520D01*
X154219779Y-111114463D01*
X154135537Y-111030221D01*
X154036480Y-110964034D01*
X153926414Y-110918442D01*
X153809568Y-110895200D01*
X153690432Y-110895200D01*
X153573586Y-110918442D01*
X153463520Y-110964034D01*
X153364463Y-111030221D01*
X153280221Y-111114463D01*
X153214034Y-111213520D01*
X153168442Y-111323586D01*
X153145200Y-111440432D01*
X130798660Y-111440432D01*
X130804800Y-111409568D01*
X130804800Y-111290432D01*
X130781558Y-111173586D01*
X130735966Y-111063520D01*
X130669779Y-110964463D01*
X130585537Y-110880221D01*
X130486480Y-110814034D01*
X130376414Y-110768442D01*
X130259568Y-110745200D01*
X130140432Y-110745200D01*
X130023586Y-110768442D01*
X129913520Y-110814034D01*
X129814463Y-110880221D01*
X129730221Y-110964463D01*
X129664034Y-111063520D01*
X129618442Y-111173586D01*
X129595200Y-111290432D01*
X129595200Y-111409568D01*
X129617369Y-111521017D01*
X129513520Y-111564034D01*
X129414463Y-111630221D01*
X129330221Y-111714463D01*
X129264034Y-111813520D01*
X129218442Y-111923586D01*
X129195200Y-112040432D01*
X129129800Y-112040432D01*
X129129800Y-111940432D01*
X129106558Y-111823586D01*
X129060966Y-111713520D01*
X128994779Y-111614463D01*
X128910537Y-111530221D01*
X128811480Y-111464034D01*
X128701414Y-111418442D01*
X128584568Y-111395200D01*
X128479800Y-111395200D01*
X128479800Y-111340432D01*
X128456558Y-111223586D01*
X128410966Y-111113520D01*
X128344779Y-111014463D01*
X128260537Y-110930221D01*
X128161480Y-110864034D01*
X128051414Y-110818442D01*
X127934568Y-110795200D01*
X127815432Y-110795200D01*
X127804800Y-110797315D01*
X127804800Y-110765432D01*
X127781558Y-110648586D01*
X127735966Y-110538520D01*
X127669779Y-110439463D01*
X127585537Y-110355221D01*
X127486480Y-110289034D01*
X127376414Y-110243442D01*
X127259568Y-110220200D01*
X127140432Y-110220200D01*
X127023586Y-110243442D01*
X126913520Y-110289034D01*
X126814463Y-110355221D01*
X126730221Y-110439463D01*
X126664034Y-110538520D01*
X126618442Y-110648586D01*
X126595200Y-110765432D01*
X122951600Y-110765432D01*
X122951600Y-108900432D01*
X124385200Y-108900432D01*
X124385200Y-109019568D01*
X124408442Y-109136414D01*
X124454034Y-109246480D01*
X124520221Y-109345537D01*
X124604463Y-109429779D01*
X124703520Y-109495966D01*
X124813586Y-109541558D01*
X124930432Y-109564800D01*
X125049568Y-109564800D01*
X125166414Y-109541558D01*
X125208379Y-109524175D01*
X125195200Y-109590432D01*
X125195200Y-109709568D01*
X125218442Y-109826414D01*
X125264034Y-109936480D01*
X125330221Y-110035537D01*
X125414463Y-110119779D01*
X125513520Y-110185966D01*
X125623586Y-110231558D01*
X125740432Y-110254800D01*
X125859568Y-110254800D01*
X125976414Y-110231558D01*
X126086480Y-110185966D01*
X126185537Y-110119779D01*
X126269779Y-110035537D01*
X126333325Y-109940432D01*
X129595200Y-109940432D01*
X129595200Y-110059568D01*
X129618442Y-110176414D01*
X129664034Y-110286480D01*
X129730221Y-110385537D01*
X129814463Y-110469779D01*
X129913520Y-110535966D01*
X130023586Y-110581558D01*
X130140432Y-110604800D01*
X130259568Y-110604800D01*
X130376414Y-110581558D01*
X130486480Y-110535966D01*
X130585537Y-110469779D01*
X130669779Y-110385537D01*
X130735966Y-110286480D01*
X130781558Y-110176414D01*
X130804800Y-110059568D01*
X130804800Y-109940432D01*
X130784909Y-109840432D01*
X140145200Y-109840432D01*
X140145200Y-109959568D01*
X140168442Y-110076414D01*
X140214034Y-110186480D01*
X140280221Y-110285537D01*
X140364463Y-110369779D01*
X140463520Y-110435966D01*
X140573586Y-110481558D01*
X140690432Y-110504800D01*
X140809568Y-110504800D01*
X140926414Y-110481558D01*
X141036480Y-110435966D01*
X141135537Y-110369779D01*
X141200000Y-110305316D01*
X141264463Y-110369779D01*
X141363520Y-110435966D01*
X141473586Y-110481558D01*
X141590432Y-110504800D01*
X141709568Y-110504800D01*
X141826414Y-110481558D01*
X141936480Y-110435966D01*
X142035537Y-110369779D01*
X142114884Y-110290432D01*
X146245200Y-110290432D01*
X146245200Y-110409568D01*
X146268442Y-110526414D01*
X146314034Y-110636480D01*
X146380221Y-110735537D01*
X146464463Y-110819779D01*
X146563520Y-110885966D01*
X146673586Y-110931558D01*
X146790432Y-110954800D01*
X146909568Y-110954800D01*
X147026414Y-110931558D01*
X147136480Y-110885966D01*
X147235537Y-110819779D01*
X147319779Y-110735537D01*
X147385966Y-110636480D01*
X147431558Y-110526414D01*
X147454800Y-110409568D01*
X147454800Y-110290432D01*
X147545200Y-110290432D01*
X147545200Y-110409568D01*
X147568442Y-110526414D01*
X147614034Y-110636480D01*
X147680221Y-110735537D01*
X147764463Y-110819779D01*
X147863520Y-110885966D01*
X147973586Y-110931558D01*
X148090432Y-110954800D01*
X148209568Y-110954800D01*
X148326414Y-110931558D01*
X148436480Y-110885966D01*
X148535537Y-110819779D01*
X148619779Y-110735537D01*
X148685966Y-110636480D01*
X148731558Y-110526414D01*
X148754800Y-110409568D01*
X148754800Y-110290432D01*
X148731558Y-110173586D01*
X148685966Y-110063520D01*
X148619779Y-109964463D01*
X148535537Y-109880221D01*
X148436480Y-109814034D01*
X148326414Y-109768442D01*
X148209568Y-109745200D01*
X148090432Y-109745200D01*
X147973586Y-109768442D01*
X147863520Y-109814034D01*
X147764463Y-109880221D01*
X147680221Y-109964463D01*
X147614034Y-110063520D01*
X147568442Y-110173586D01*
X147545200Y-110290432D01*
X147454800Y-110290432D01*
X147431558Y-110173586D01*
X147385966Y-110063520D01*
X147319779Y-109964463D01*
X147235537Y-109880221D01*
X147136480Y-109814034D01*
X147026414Y-109768442D01*
X146909568Y-109745200D01*
X146790432Y-109745200D01*
X146673586Y-109768442D01*
X146563520Y-109814034D01*
X146464463Y-109880221D01*
X146380221Y-109964463D01*
X146314034Y-110063520D01*
X146268442Y-110173586D01*
X146245200Y-110290432D01*
X142114884Y-110290432D01*
X142119779Y-110285537D01*
X142185966Y-110186480D01*
X142231558Y-110076414D01*
X142254800Y-109959568D01*
X142254800Y-109840432D01*
X142231558Y-109723586D01*
X142185966Y-109613520D01*
X142119779Y-109514463D01*
X142035537Y-109430221D01*
X141936480Y-109364034D01*
X141826414Y-109318442D01*
X141709568Y-109295200D01*
X141590432Y-109295200D01*
X141473586Y-109318442D01*
X141363520Y-109364034D01*
X141264463Y-109430221D01*
X141200000Y-109494684D01*
X141135537Y-109430221D01*
X141036480Y-109364034D01*
X140926414Y-109318442D01*
X140809568Y-109295200D01*
X140690432Y-109295200D01*
X140573586Y-109318442D01*
X140463520Y-109364034D01*
X140364463Y-109430221D01*
X140280221Y-109514463D01*
X140214034Y-109613520D01*
X140168442Y-109723586D01*
X140145200Y-109840432D01*
X130784909Y-109840432D01*
X130781558Y-109823586D01*
X130735966Y-109713520D01*
X130669779Y-109614463D01*
X130585537Y-109530221D01*
X130486480Y-109464034D01*
X130376414Y-109418442D01*
X130259568Y-109395200D01*
X130140432Y-109395200D01*
X130023586Y-109418442D01*
X129913520Y-109464034D01*
X129814463Y-109530221D01*
X129730221Y-109614463D01*
X129664034Y-109713520D01*
X129618442Y-109823586D01*
X129595200Y-109940432D01*
X126333325Y-109940432D01*
X126335966Y-109936480D01*
X126381558Y-109826414D01*
X126404800Y-109709568D01*
X126404800Y-109590432D01*
X126381558Y-109473586D01*
X126335966Y-109363520D01*
X126269779Y-109264463D01*
X126185537Y-109180221D01*
X126086480Y-109114034D01*
X125976414Y-109068442D01*
X125859568Y-109045200D01*
X125740432Y-109045200D01*
X125623586Y-109068442D01*
X125581621Y-109085825D01*
X125594800Y-109019568D01*
X125594800Y-108900432D01*
X125571558Y-108783586D01*
X125525966Y-108673520D01*
X125459779Y-108574463D01*
X125425748Y-108540432D01*
X133195200Y-108540432D01*
X133195200Y-108659568D01*
X133218442Y-108776414D01*
X133264034Y-108886480D01*
X133330221Y-108985537D01*
X133414463Y-109069779D01*
X133513520Y-109135966D01*
X133623586Y-109181558D01*
X133740432Y-109204800D01*
X133859568Y-109204800D01*
X133976414Y-109181558D01*
X134086480Y-109135966D01*
X134185537Y-109069779D01*
X134269779Y-108985537D01*
X134335966Y-108886480D01*
X134381558Y-108776414D01*
X134404800Y-108659568D01*
X134404800Y-108540432D01*
X134381558Y-108423586D01*
X134335966Y-108313520D01*
X134269779Y-108214463D01*
X134185537Y-108130221D01*
X134086480Y-108064034D01*
X133976414Y-108018442D01*
X133859568Y-107995200D01*
X133740432Y-107995200D01*
X133623586Y-108018442D01*
X133513520Y-108064034D01*
X133414463Y-108130221D01*
X133330221Y-108214463D01*
X133264034Y-108313520D01*
X133218442Y-108423586D01*
X133195200Y-108540432D01*
X125425748Y-108540432D01*
X125375537Y-108490221D01*
X125276480Y-108424034D01*
X125166414Y-108378442D01*
X125049568Y-108355200D01*
X124930432Y-108355200D01*
X124813586Y-108378442D01*
X124703520Y-108424034D01*
X124604463Y-108490221D01*
X124520221Y-108574463D01*
X124454034Y-108673520D01*
X124408442Y-108783586D01*
X124385200Y-108900432D01*
X122951600Y-108900432D01*
X122951600Y-107825432D01*
X123730200Y-107825432D01*
X123730200Y-107944568D01*
X123753442Y-108061414D01*
X123799034Y-108171480D01*
X123865221Y-108270537D01*
X123949463Y-108354779D01*
X124048520Y-108420966D01*
X124158586Y-108466558D01*
X124275432Y-108489800D01*
X124394568Y-108489800D01*
X124511414Y-108466558D01*
X124621480Y-108420966D01*
X124720537Y-108354779D01*
X124804779Y-108270537D01*
X124870966Y-108171480D01*
X124916558Y-108061414D01*
X124939800Y-107944568D01*
X124939800Y-107825432D01*
X124932839Y-107790432D01*
X126445200Y-107790432D01*
X126445200Y-107909568D01*
X126468442Y-108026414D01*
X126514034Y-108136480D01*
X126580221Y-108235537D01*
X126664463Y-108319779D01*
X126763520Y-108385966D01*
X126873586Y-108431558D01*
X126990432Y-108454800D01*
X127109568Y-108454800D01*
X127226414Y-108431558D01*
X127336480Y-108385966D01*
X127435537Y-108319779D01*
X127519779Y-108235537D01*
X127585966Y-108136480D01*
X127631558Y-108026414D01*
X127654800Y-107909568D01*
X127654800Y-107840432D01*
X129595200Y-107840432D01*
X129595200Y-107959568D01*
X129618442Y-108076414D01*
X129664034Y-108186480D01*
X129730221Y-108285537D01*
X129814463Y-108369779D01*
X129913520Y-108435966D01*
X130023586Y-108481558D01*
X130140432Y-108504800D01*
X130259568Y-108504800D01*
X130376414Y-108481558D01*
X130486480Y-108435966D01*
X130585537Y-108369779D01*
X130669779Y-108285537D01*
X130735966Y-108186480D01*
X130781558Y-108076414D01*
X130804800Y-107959568D01*
X130804800Y-107840432D01*
X130781558Y-107723586D01*
X130735966Y-107613520D01*
X130669779Y-107514463D01*
X130585537Y-107430221D01*
X130486480Y-107364034D01*
X130376414Y-107318442D01*
X130259568Y-107295200D01*
X130140432Y-107295200D01*
X130023586Y-107318442D01*
X129913520Y-107364034D01*
X129814463Y-107430221D01*
X129730221Y-107514463D01*
X129664034Y-107613520D01*
X129618442Y-107723586D01*
X129595200Y-107840432D01*
X127654800Y-107840432D01*
X127654800Y-107790432D01*
X127631558Y-107673586D01*
X127585966Y-107563520D01*
X127519779Y-107464463D01*
X127435537Y-107380221D01*
X127336480Y-107314034D01*
X127226414Y-107268442D01*
X127109568Y-107245200D01*
X126990432Y-107245200D01*
X126873586Y-107268442D01*
X126763520Y-107314034D01*
X126664463Y-107380221D01*
X126580221Y-107464463D01*
X126514034Y-107563520D01*
X126468442Y-107673586D01*
X126445200Y-107790432D01*
X124932839Y-107790432D01*
X124916558Y-107708586D01*
X124870966Y-107598520D01*
X124804779Y-107499463D01*
X124720537Y-107415221D01*
X124621480Y-107349034D01*
X124511414Y-107303442D01*
X124394568Y-107280200D01*
X124275432Y-107280200D01*
X124158586Y-107303442D01*
X124048520Y-107349034D01*
X123949463Y-107415221D01*
X123865221Y-107499463D01*
X123799034Y-107598520D01*
X123753442Y-107708586D01*
X123730200Y-107825432D01*
X122951600Y-107825432D01*
X122951600Y-107240432D01*
X134195200Y-107240432D01*
X134195200Y-107359568D01*
X134218442Y-107476414D01*
X134264034Y-107586480D01*
X134330221Y-107685537D01*
X134414463Y-107769779D01*
X134513520Y-107835966D01*
X134623586Y-107881558D01*
X134740432Y-107904800D01*
X134859568Y-107904800D01*
X134976414Y-107881558D01*
X135086480Y-107835966D01*
X135185537Y-107769779D01*
X135269779Y-107685537D01*
X135335966Y-107586480D01*
X135381558Y-107476414D01*
X135404800Y-107359568D01*
X135404800Y-107240432D01*
X135381558Y-107123586D01*
X135335966Y-107013520D01*
X135269779Y-106914463D01*
X135185537Y-106830221D01*
X135086480Y-106764034D01*
X134976414Y-106718442D01*
X134859568Y-106695200D01*
X134740432Y-106695200D01*
X134623586Y-106718442D01*
X134513520Y-106764034D01*
X134414463Y-106830221D01*
X134330221Y-106914463D01*
X134264034Y-107013520D01*
X134218442Y-107123586D01*
X134195200Y-107240432D01*
X122951600Y-107240432D01*
X122951600Y-106690432D01*
X135795200Y-106690432D01*
X135795200Y-106809568D01*
X135818442Y-106926414D01*
X135864034Y-107036480D01*
X135930221Y-107135537D01*
X136014463Y-107219779D01*
X136097108Y-107275000D01*
X136014463Y-107330221D01*
X135930221Y-107414463D01*
X135864034Y-107513520D01*
X135818442Y-107623586D01*
X135795200Y-107740432D01*
X135795200Y-107859568D01*
X135818442Y-107976414D01*
X135864034Y-108086480D01*
X135930221Y-108185537D01*
X136014463Y-108269779D01*
X136113520Y-108335966D01*
X136223586Y-108381558D01*
X136340432Y-108404800D01*
X136459568Y-108404800D01*
X136576414Y-108381558D01*
X136686480Y-108335966D01*
X136785537Y-108269779D01*
X136869779Y-108185537D01*
X136935966Y-108086480D01*
X136981558Y-107976414D01*
X137004800Y-107859568D01*
X137004800Y-107740432D01*
X136981558Y-107623586D01*
X136935966Y-107513520D01*
X136869779Y-107414463D01*
X136785537Y-107330221D01*
X136702892Y-107275000D01*
X136785537Y-107219779D01*
X136869779Y-107135537D01*
X136935966Y-107036480D01*
X136981558Y-106926414D01*
X137004800Y-106809568D01*
X137004800Y-106690432D01*
X136981558Y-106573586D01*
X136935966Y-106463520D01*
X136869779Y-106364463D01*
X136785537Y-106280221D01*
X136686480Y-106214034D01*
X136576414Y-106168442D01*
X136459568Y-106145200D01*
X136340432Y-106145200D01*
X136223586Y-106168442D01*
X136113520Y-106214034D01*
X136014463Y-106280221D01*
X135930221Y-106364463D01*
X135864034Y-106463520D01*
X135818442Y-106573586D01*
X135795200Y-106690432D01*
X122951600Y-106690432D01*
X122951600Y-105220432D01*
X123315200Y-105220432D01*
X123315200Y-105339568D01*
X123338442Y-105456414D01*
X123384034Y-105566480D01*
X123450221Y-105665537D01*
X123534463Y-105749779D01*
X123633520Y-105815966D01*
X123743586Y-105861558D01*
X123860432Y-105884800D01*
X123979568Y-105884800D01*
X124096414Y-105861558D01*
X124206480Y-105815966D01*
X124305537Y-105749779D01*
X124389779Y-105665537D01*
X124455966Y-105566480D01*
X124501558Y-105456414D01*
X124524628Y-105340432D01*
X125845200Y-105340432D01*
X125845200Y-105459568D01*
X125868442Y-105576414D01*
X125914034Y-105686480D01*
X125980221Y-105785537D01*
X126064463Y-105869779D01*
X126163520Y-105935966D01*
X126273586Y-105981558D01*
X126390432Y-106004800D01*
X126509568Y-106004800D01*
X126626414Y-105981558D01*
X126736480Y-105935966D01*
X126835537Y-105869779D01*
X126919779Y-105785537D01*
X126985966Y-105686480D01*
X127031558Y-105576414D01*
X127054800Y-105459568D01*
X127054800Y-105340432D01*
X127095200Y-105340432D01*
X127095200Y-105459568D01*
X127118442Y-105576414D01*
X127164034Y-105686480D01*
X127230221Y-105785537D01*
X127314463Y-105869779D01*
X127413520Y-105935966D01*
X127523586Y-105981558D01*
X127640432Y-106004800D01*
X127759568Y-106004800D01*
X127876414Y-105981558D01*
X127986480Y-105935966D01*
X128085537Y-105869779D01*
X128169779Y-105785537D01*
X128235966Y-105686480D01*
X128281558Y-105576414D01*
X128304800Y-105459568D01*
X128304800Y-105340432D01*
X128281558Y-105223586D01*
X128267825Y-105190432D01*
X131095200Y-105190432D01*
X131095200Y-105309568D01*
X131118442Y-105426414D01*
X131164034Y-105536480D01*
X131230221Y-105635537D01*
X131314463Y-105719779D01*
X131413520Y-105785966D01*
X131523586Y-105831558D01*
X131640432Y-105854800D01*
X131759568Y-105854800D01*
X131876414Y-105831558D01*
X131986480Y-105785966D01*
X132085537Y-105719779D01*
X132169779Y-105635537D01*
X132235966Y-105536480D01*
X132281558Y-105426414D01*
X132304800Y-105309568D01*
X132304800Y-105190432D01*
X132281558Y-105073586D01*
X132235966Y-104963520D01*
X132169779Y-104864463D01*
X132145748Y-104840432D01*
X138845200Y-104840432D01*
X138845200Y-104959568D01*
X138868442Y-105076414D01*
X138914034Y-105186480D01*
X138980221Y-105285537D01*
X139064463Y-105369779D01*
X139163520Y-105435966D01*
X139273586Y-105481558D01*
X139390432Y-105504800D01*
X139509568Y-105504800D01*
X139626414Y-105481558D01*
X139736480Y-105435966D01*
X139835537Y-105369779D01*
X139900000Y-105305316D01*
X139964463Y-105369779D01*
X140063520Y-105435966D01*
X140173586Y-105481558D01*
X140290432Y-105504800D01*
X140409568Y-105504800D01*
X140526414Y-105481558D01*
X140636480Y-105435966D01*
X140735537Y-105369779D01*
X140819779Y-105285537D01*
X140885966Y-105186480D01*
X140931558Y-105076414D01*
X140954800Y-104959568D01*
X140954800Y-104840432D01*
X140931558Y-104723586D01*
X140885966Y-104613520D01*
X140819779Y-104514463D01*
X140735537Y-104430221D01*
X140636480Y-104364034D01*
X140526414Y-104318442D01*
X140409568Y-104295200D01*
X140290432Y-104295200D01*
X140173586Y-104318442D01*
X140063520Y-104364034D01*
X139964463Y-104430221D01*
X139900000Y-104494684D01*
X139835537Y-104430221D01*
X139736480Y-104364034D01*
X139626414Y-104318442D01*
X139509568Y-104295200D01*
X139390432Y-104295200D01*
X139273586Y-104318442D01*
X139163520Y-104364034D01*
X139064463Y-104430221D01*
X138980221Y-104514463D01*
X138914034Y-104613520D01*
X138868442Y-104723586D01*
X138845200Y-104840432D01*
X132145748Y-104840432D01*
X132085537Y-104780221D01*
X131986480Y-104714034D01*
X131876414Y-104668442D01*
X131759568Y-104645200D01*
X131640432Y-104645200D01*
X131523586Y-104668442D01*
X131413520Y-104714034D01*
X131314463Y-104780221D01*
X131230221Y-104864463D01*
X131164034Y-104963520D01*
X131118442Y-105073586D01*
X131095200Y-105190432D01*
X128267825Y-105190432D01*
X128235966Y-105113520D01*
X128169779Y-105014463D01*
X128085537Y-104930221D01*
X127986480Y-104864034D01*
X127876414Y-104818442D01*
X127759568Y-104795200D01*
X127640432Y-104795200D01*
X127523586Y-104818442D01*
X127413520Y-104864034D01*
X127314463Y-104930221D01*
X127230221Y-105014463D01*
X127164034Y-105113520D01*
X127118442Y-105223586D01*
X127095200Y-105340432D01*
X127054800Y-105340432D01*
X127031558Y-105223586D01*
X126985966Y-105113520D01*
X126919779Y-105014463D01*
X126835537Y-104930221D01*
X126736480Y-104864034D01*
X126626414Y-104818442D01*
X126509568Y-104795200D01*
X126390432Y-104795200D01*
X126273586Y-104818442D01*
X126163520Y-104864034D01*
X126064463Y-104930221D01*
X125980221Y-105014463D01*
X125914034Y-105113520D01*
X125868442Y-105223586D01*
X125845200Y-105340432D01*
X124524628Y-105340432D01*
X124524800Y-105339568D01*
X124524800Y-105220432D01*
X124501558Y-105103586D01*
X124455966Y-104993520D01*
X124389779Y-104894463D01*
X124305537Y-104810221D01*
X124206480Y-104744034D01*
X124096414Y-104698442D01*
X123979568Y-104675200D01*
X123860432Y-104675200D01*
X123743586Y-104698442D01*
X123633520Y-104744034D01*
X123534463Y-104810221D01*
X123450221Y-104894463D01*
X123384034Y-104993520D01*
X123338442Y-105103586D01*
X123315200Y-105220432D01*
X122951600Y-105220432D01*
X122951600Y-102490432D01*
X125395200Y-102490432D01*
X125395200Y-102609568D01*
X125418442Y-102726414D01*
X125464034Y-102836480D01*
X125530221Y-102935537D01*
X125569684Y-102975000D01*
X125530221Y-103014463D01*
X125464034Y-103113520D01*
X125418442Y-103223586D01*
X125395200Y-103340432D01*
X125395200Y-103459568D01*
X125418442Y-103576414D01*
X125464034Y-103686480D01*
X125530221Y-103785537D01*
X125614463Y-103869779D01*
X125706640Y-103931369D01*
X125668442Y-104023586D01*
X125645200Y-104140432D01*
X125645200Y-104259568D01*
X125668442Y-104376414D01*
X125714034Y-104486480D01*
X125780221Y-104585537D01*
X125864463Y-104669779D01*
X125963520Y-104735966D01*
X126073586Y-104781558D01*
X126190432Y-104804800D01*
X126309568Y-104804800D01*
X126426414Y-104781558D01*
X126536480Y-104735966D01*
X126635537Y-104669779D01*
X126719779Y-104585537D01*
X126785966Y-104486480D01*
X126831558Y-104376414D01*
X126854800Y-104259568D01*
X126854800Y-104140432D01*
X126831558Y-104023586D01*
X126785966Y-103913520D01*
X126719779Y-103814463D01*
X126635537Y-103730221D01*
X126543360Y-103668631D01*
X126581558Y-103576414D01*
X126604800Y-103459568D01*
X126604800Y-103340432D01*
X126581558Y-103223586D01*
X126535966Y-103113520D01*
X126469779Y-103014463D01*
X126430316Y-102975000D01*
X126469779Y-102935537D01*
X126535966Y-102836480D01*
X126555040Y-102790432D01*
X127695200Y-102790432D01*
X127695200Y-102909568D01*
X127718442Y-103026414D01*
X127764034Y-103136480D01*
X127830221Y-103235537D01*
X127914463Y-103319779D01*
X127922902Y-103325417D01*
X127864034Y-103413520D01*
X127818442Y-103523586D01*
X127795200Y-103640432D01*
X127795200Y-103759568D01*
X127818442Y-103876414D01*
X127864034Y-103986480D01*
X127930221Y-104085537D01*
X128014463Y-104169779D01*
X128113520Y-104235966D01*
X128223586Y-104281558D01*
X128340432Y-104304800D01*
X128459568Y-104304800D01*
X128576414Y-104281558D01*
X128686480Y-104235966D01*
X128785537Y-104169779D01*
X128869779Y-104085537D01*
X128935966Y-103986480D01*
X128981558Y-103876414D01*
X129004800Y-103759568D01*
X129004800Y-103640432D01*
X128981558Y-103523586D01*
X128935966Y-103413520D01*
X128869779Y-103314463D01*
X128785537Y-103230221D01*
X128777098Y-103224583D01*
X128835966Y-103136480D01*
X128881558Y-103026414D01*
X128904800Y-102909568D01*
X128904800Y-102790432D01*
X128881558Y-102673586D01*
X128880252Y-102670432D01*
X145395200Y-102670432D01*
X145395200Y-102789568D01*
X145418442Y-102906414D01*
X145464034Y-103016480D01*
X145530221Y-103115537D01*
X145614463Y-103199779D01*
X145713520Y-103265966D01*
X145823586Y-103311558D01*
X145940432Y-103334800D01*
X146059568Y-103334800D01*
X146176414Y-103311558D01*
X146286480Y-103265966D01*
X146385537Y-103199779D01*
X146469779Y-103115537D01*
X146535966Y-103016480D01*
X146581558Y-102906414D01*
X146604800Y-102789568D01*
X146604800Y-102670432D01*
X146581558Y-102553586D01*
X146535966Y-102443520D01*
X146469779Y-102344463D01*
X146385537Y-102260221D01*
X146286480Y-102194034D01*
X146176414Y-102148442D01*
X146059568Y-102125200D01*
X145940432Y-102125200D01*
X145823586Y-102148442D01*
X145713520Y-102194034D01*
X145614463Y-102260221D01*
X145530221Y-102344463D01*
X145464034Y-102443520D01*
X145418442Y-102553586D01*
X145395200Y-102670432D01*
X128880252Y-102670432D01*
X128835966Y-102563520D01*
X128769779Y-102464463D01*
X128685537Y-102380221D01*
X128586480Y-102314034D01*
X128476414Y-102268442D01*
X128359568Y-102245200D01*
X128240432Y-102245200D01*
X128123586Y-102268442D01*
X128013520Y-102314034D01*
X127914463Y-102380221D01*
X127830221Y-102464463D01*
X127764034Y-102563520D01*
X127718442Y-102673586D01*
X127695200Y-102790432D01*
X126555040Y-102790432D01*
X126581558Y-102726414D01*
X126604800Y-102609568D01*
X126604800Y-102490432D01*
X126581558Y-102373586D01*
X126535966Y-102263520D01*
X126469779Y-102164463D01*
X126385537Y-102080221D01*
X126286480Y-102014034D01*
X126176414Y-101968442D01*
X126059568Y-101945200D01*
X125940432Y-101945200D01*
X125823586Y-101968442D01*
X125713520Y-102014034D01*
X125614463Y-102080221D01*
X125530221Y-102164463D01*
X125464034Y-102263520D01*
X125418442Y-102373586D01*
X125395200Y-102490432D01*
X122951600Y-102490432D01*
X122951600Y-102150000D01*
X122949648Y-102130179D01*
X122943866Y-102111119D01*
X122934477Y-102093554D01*
X122921842Y-102078158D01*
X122906446Y-102065523D01*
X122888881Y-102056134D01*
X122869821Y-102050352D01*
X122850000Y-102048400D01*
X122571739Y-102048400D01*
X122701617Y-101946071D01*
X122812197Y-101816672D01*
X122895408Y-101668186D01*
X122900238Y-101640432D01*
X136445200Y-101640432D01*
X136445200Y-101759568D01*
X136468442Y-101876414D01*
X136514034Y-101986480D01*
X136580221Y-102085537D01*
X136664463Y-102169779D01*
X136763520Y-102235966D01*
X136873586Y-102281558D01*
X136990432Y-102304800D01*
X137109568Y-102304800D01*
X137226414Y-102281558D01*
X137336480Y-102235966D01*
X137435537Y-102169779D01*
X137519779Y-102085537D01*
X137585966Y-101986480D01*
X137631558Y-101876414D01*
X137654800Y-101759568D01*
X137654800Y-101640432D01*
X137631558Y-101523586D01*
X137585966Y-101413520D01*
X137519779Y-101314463D01*
X137435537Y-101230221D01*
X137336480Y-101164034D01*
X137226414Y-101118442D01*
X137109568Y-101095200D01*
X136990432Y-101095200D01*
X136873586Y-101118442D01*
X136763520Y-101164034D01*
X136664463Y-101230221D01*
X136580221Y-101314463D01*
X136514034Y-101413520D01*
X136468442Y-101523586D01*
X136445200Y-101640432D01*
X122900238Y-101640432D01*
X122906909Y-101602102D01*
X122863539Y-101472400D01*
X121702400Y-101472400D01*
X121702400Y-101492400D01*
X121397600Y-101492400D01*
X121397600Y-101472400D01*
X120236461Y-101472400D01*
X120193091Y-101602102D01*
X120204592Y-101668186D01*
X120287803Y-101816672D01*
X120398383Y-101946071D01*
X120528261Y-102048400D01*
X118771739Y-102048400D01*
X118901617Y-101946071D01*
X119012197Y-101816672D01*
X119095408Y-101668186D01*
X119106909Y-101602102D01*
X119063539Y-101472400D01*
X117902400Y-101472400D01*
X117902400Y-101492400D01*
X117597600Y-101492400D01*
X117597600Y-101472400D01*
X116436461Y-101472400D01*
X116393091Y-101602102D01*
X116404592Y-101668186D01*
X116487803Y-101816672D01*
X116598383Y-101946071D01*
X116728261Y-102048400D01*
X116611279Y-102048400D01*
X116537081Y-101974797D01*
X116444388Y-101861949D01*
X116382724Y-101746948D01*
X116344573Y-101622158D01*
X116329800Y-101476721D01*
X116329800Y-101037898D01*
X116393091Y-101037898D01*
X116436461Y-101167600D01*
X117597600Y-101167600D01*
X117597600Y-100465200D01*
X117902400Y-100465200D01*
X117902400Y-101167600D01*
X119063539Y-101167600D01*
X119106909Y-101037898D01*
X120193091Y-101037898D01*
X120236461Y-101167600D01*
X121397600Y-101167600D01*
X121397600Y-100465200D01*
X121702400Y-100465200D01*
X121702400Y-101167600D01*
X122863539Y-101167600D01*
X122906909Y-101037898D01*
X122895408Y-100971814D01*
X122812197Y-100823328D01*
X122701617Y-100693929D01*
X122567917Y-100588589D01*
X122416235Y-100511357D01*
X122252400Y-100465200D01*
X121702400Y-100465200D01*
X121397600Y-100465200D01*
X120847600Y-100465200D01*
X120683765Y-100511357D01*
X120532083Y-100588589D01*
X120398383Y-100693929D01*
X120287803Y-100823328D01*
X120204592Y-100971814D01*
X120193091Y-101037898D01*
X119106909Y-101037898D01*
X119095408Y-100971814D01*
X119012197Y-100823328D01*
X118901617Y-100693929D01*
X118767917Y-100588589D01*
X118616235Y-100511357D01*
X118452400Y-100465200D01*
X117902400Y-100465200D01*
X117597600Y-100465200D01*
X117047600Y-100465200D01*
X116883765Y-100511357D01*
X116732083Y-100588589D01*
X116598383Y-100693929D01*
X116487803Y-100823328D01*
X116404592Y-100971814D01*
X116393091Y-101037898D01*
X116329800Y-101037898D01*
X116329800Y-99270432D01*
X129045200Y-99270432D01*
X129045200Y-99389568D01*
X129068442Y-99506414D01*
X129114034Y-99616480D01*
X129180221Y-99715537D01*
X129264463Y-99799779D01*
X129363520Y-99865966D01*
X129473586Y-99911558D01*
X129590432Y-99934800D01*
X129709568Y-99934800D01*
X129826414Y-99911558D01*
X129936480Y-99865966D01*
X130035537Y-99799779D01*
X130119779Y-99715537D01*
X130185966Y-99616480D01*
X130231558Y-99506414D01*
X130236696Y-99480583D01*
X130545200Y-99480583D01*
X130545200Y-99619417D01*
X130572285Y-99755583D01*
X130625415Y-99883848D01*
X130702546Y-99999284D01*
X130800716Y-100097454D01*
X130916152Y-100174585D01*
X131044417Y-100227715D01*
X131180583Y-100254800D01*
X131319417Y-100254800D01*
X131455583Y-100227715D01*
X131583848Y-100174585D01*
X131699284Y-100097454D01*
X131716306Y-100080432D01*
X146395200Y-100080432D01*
X146395200Y-100199568D01*
X146418442Y-100316414D01*
X146464034Y-100426480D01*
X146530221Y-100525537D01*
X146614463Y-100609779D01*
X146713520Y-100675966D01*
X146823586Y-100721558D01*
X146940432Y-100744800D01*
X147059568Y-100744800D01*
X147176414Y-100721558D01*
X147286480Y-100675966D01*
X147385537Y-100609779D01*
X147469779Y-100525537D01*
X147535966Y-100426480D01*
X147581558Y-100316414D01*
X147604800Y-100199568D01*
X147604800Y-100080432D01*
X147581558Y-99963586D01*
X147535966Y-99853520D01*
X147469779Y-99754463D01*
X147385537Y-99670221D01*
X147286480Y-99604034D01*
X147176414Y-99558442D01*
X147059568Y-99535200D01*
X146940432Y-99535200D01*
X146823586Y-99558442D01*
X146713520Y-99604034D01*
X146614463Y-99670221D01*
X146530221Y-99754463D01*
X146464034Y-99853520D01*
X146418442Y-99963586D01*
X146395200Y-100080432D01*
X131716306Y-100080432D01*
X131797454Y-99999284D01*
X131874585Y-99883848D01*
X131927715Y-99755583D01*
X131954800Y-99619417D01*
X131954800Y-99480583D01*
X131927715Y-99344417D01*
X131874585Y-99216152D01*
X131797454Y-99100716D01*
X131699284Y-99002546D01*
X131583848Y-98925415D01*
X131455583Y-98872285D01*
X131345721Y-98850432D01*
X144595200Y-98850432D01*
X144595200Y-98969568D01*
X144618442Y-99086414D01*
X144664034Y-99196480D01*
X144730221Y-99295537D01*
X144814463Y-99379779D01*
X144913520Y-99445966D01*
X145023586Y-99491558D01*
X145140432Y-99514800D01*
X145259568Y-99514800D01*
X145376414Y-99491558D01*
X145486480Y-99445966D01*
X145585537Y-99379779D01*
X145669779Y-99295537D01*
X145689983Y-99265299D01*
X145701963Y-99277279D01*
X145801020Y-99343466D01*
X145911086Y-99389058D01*
X146027932Y-99412300D01*
X146147068Y-99412300D01*
X146263914Y-99389058D01*
X146373980Y-99343466D01*
X146473037Y-99277279D01*
X146557279Y-99193037D01*
X146623466Y-99093980D01*
X146669058Y-98983914D01*
X146692300Y-98867068D01*
X146692300Y-98747932D01*
X146669058Y-98631086D01*
X146623466Y-98521020D01*
X146557279Y-98421963D01*
X146473037Y-98337721D01*
X146373980Y-98271534D01*
X146263914Y-98225942D01*
X146147068Y-98202700D01*
X146027932Y-98202700D01*
X145911086Y-98225942D01*
X145801020Y-98271534D01*
X145701963Y-98337721D01*
X145617721Y-98421963D01*
X145597517Y-98452201D01*
X145585537Y-98440221D01*
X145486480Y-98374034D01*
X145376414Y-98328442D01*
X145259568Y-98305200D01*
X145140432Y-98305200D01*
X145023586Y-98328442D01*
X144913520Y-98374034D01*
X144814463Y-98440221D01*
X144730221Y-98524463D01*
X144664034Y-98623520D01*
X144618442Y-98733586D01*
X144595200Y-98850432D01*
X131345721Y-98850432D01*
X131319417Y-98845200D01*
X131180583Y-98845200D01*
X131044417Y-98872285D01*
X130916152Y-98925415D01*
X130800716Y-99002546D01*
X130702546Y-99100716D01*
X130625415Y-99216152D01*
X130572285Y-99344417D01*
X130545200Y-99480583D01*
X130236696Y-99480583D01*
X130254800Y-99389568D01*
X130254800Y-99270432D01*
X130231558Y-99153586D01*
X130185966Y-99043520D01*
X130119779Y-98944463D01*
X130035537Y-98860221D01*
X129936480Y-98794034D01*
X129826414Y-98748442D01*
X129709568Y-98725200D01*
X129590432Y-98725200D01*
X129473586Y-98748442D01*
X129363520Y-98794034D01*
X129264463Y-98860221D01*
X129180221Y-98944463D01*
X129114034Y-99043520D01*
X129068442Y-99153586D01*
X129045200Y-99270432D01*
X116329800Y-99270432D01*
X116329800Y-97840432D01*
X117895200Y-97840432D01*
X117895200Y-97959568D01*
X117918442Y-98076414D01*
X117964034Y-98186480D01*
X118030221Y-98285537D01*
X118114463Y-98369779D01*
X118213520Y-98435966D01*
X118323586Y-98481558D01*
X118440432Y-98504800D01*
X118559568Y-98504800D01*
X118676414Y-98481558D01*
X118786480Y-98435966D01*
X118885537Y-98369779D01*
X118969779Y-98285537D01*
X119035966Y-98186480D01*
X119081558Y-98076414D01*
X119104800Y-97959568D01*
X119104800Y-97840432D01*
X119094855Y-97790432D01*
X133145200Y-97790432D01*
X133145200Y-97909568D01*
X133168442Y-98026414D01*
X133214034Y-98136480D01*
X133280221Y-98235537D01*
X133364463Y-98319779D01*
X133463520Y-98385966D01*
X133573586Y-98431558D01*
X133690432Y-98454800D01*
X133809568Y-98454800D01*
X133926414Y-98431558D01*
X134036480Y-98385966D01*
X134135537Y-98319779D01*
X134219779Y-98235537D01*
X134285966Y-98136480D01*
X134331558Y-98026414D01*
X134354800Y-97909568D01*
X134354800Y-97790432D01*
X134331558Y-97673586D01*
X134285966Y-97563520D01*
X134219779Y-97464463D01*
X134135537Y-97380221D01*
X134036480Y-97314034D01*
X133926414Y-97268442D01*
X133809568Y-97245200D01*
X133690432Y-97245200D01*
X133573586Y-97268442D01*
X133463520Y-97314034D01*
X133364463Y-97380221D01*
X133280221Y-97464463D01*
X133214034Y-97563520D01*
X133168442Y-97673586D01*
X133145200Y-97790432D01*
X119094855Y-97790432D01*
X119081558Y-97723586D01*
X119035966Y-97613520D01*
X118969779Y-97514463D01*
X118885537Y-97430221D01*
X118786480Y-97364034D01*
X118676414Y-97318442D01*
X118559568Y-97295200D01*
X118440432Y-97295200D01*
X118323586Y-97318442D01*
X118213520Y-97364034D01*
X118114463Y-97430221D01*
X118030221Y-97514463D01*
X117964034Y-97613520D01*
X117918442Y-97723586D01*
X117895200Y-97840432D01*
X116329800Y-97840432D01*
X116329800Y-96190432D01*
X141445200Y-96190432D01*
X141445200Y-96309568D01*
X141468442Y-96426414D01*
X141514034Y-96536480D01*
X141580221Y-96635537D01*
X141619684Y-96675000D01*
X141580221Y-96714463D01*
X141514034Y-96813520D01*
X141468442Y-96923586D01*
X141445200Y-97040432D01*
X141445200Y-97159568D01*
X141468442Y-97276414D01*
X141514034Y-97386480D01*
X141580221Y-97485537D01*
X141664463Y-97569779D01*
X141763520Y-97635966D01*
X141873586Y-97681558D01*
X141990432Y-97704800D01*
X142109568Y-97704800D01*
X142226414Y-97681558D01*
X142336480Y-97635966D01*
X142435537Y-97569779D01*
X142519779Y-97485537D01*
X142585966Y-97386480D01*
X142631558Y-97276414D01*
X142654800Y-97159568D01*
X142654800Y-97040432D01*
X142631558Y-96923586D01*
X142585966Y-96813520D01*
X142519779Y-96714463D01*
X142480316Y-96675000D01*
X142519779Y-96635537D01*
X142585966Y-96536480D01*
X142631558Y-96426414D01*
X142654800Y-96309568D01*
X142654800Y-96190432D01*
X142640210Y-96117080D01*
X151610200Y-96117080D01*
X151610201Y-98532070D01*
X151610200Y-98532080D01*
X151610201Y-100982921D01*
X151611825Y-100999414D01*
X151611746Y-101010769D01*
X151612242Y-101015838D01*
X151649371Y-101369094D01*
X151656028Y-101401525D01*
X151662216Y-101433961D01*
X151663687Y-101438836D01*
X151768723Y-101778152D01*
X151781554Y-101808674D01*
X151793923Y-101839289D01*
X151796313Y-101843786D01*
X151798400Y-101847646D01*
X151798400Y-105200000D01*
X151800352Y-105219821D01*
X151806134Y-105238881D01*
X151815523Y-105256446D01*
X151828158Y-105271842D01*
X153128158Y-106571842D01*
X153143554Y-106584477D01*
X153161119Y-106593866D01*
X153180179Y-106599648D01*
X153200000Y-106601600D01*
X156554818Y-106601600D01*
X156570189Y-106609773D01*
X156600738Y-106622364D01*
X156631148Y-106635398D01*
X156636014Y-106636904D01*
X156976055Y-106739568D01*
X157008484Y-106745989D01*
X157040829Y-106752864D01*
X157045894Y-106753397D01*
X157399401Y-106788059D01*
X157417079Y-106789800D01*
X162282921Y-106789800D01*
X162299423Y-106788175D01*
X162310769Y-106788254D01*
X162315838Y-106787758D01*
X162669094Y-106750629D01*
X162701525Y-106743972D01*
X162733961Y-106737784D01*
X162738836Y-106736313D01*
X163078152Y-106631277D01*
X163108674Y-106618446D01*
X163139289Y-106606077D01*
X163143786Y-106603687D01*
X163147646Y-106601600D01*
X166500000Y-106601600D01*
X166519821Y-106599648D01*
X166538881Y-106593866D01*
X166556446Y-106584477D01*
X166571842Y-106571842D01*
X167871842Y-105271842D01*
X167884477Y-105256446D01*
X167893866Y-105238881D01*
X167899648Y-105219821D01*
X167901600Y-105200000D01*
X167901600Y-101845182D01*
X167909773Y-101829811D01*
X167922364Y-101799262D01*
X167935398Y-101768852D01*
X167936904Y-101763986D01*
X168039568Y-101423945D01*
X168045989Y-101391516D01*
X168052864Y-101359171D01*
X168053397Y-101354106D01*
X168088059Y-101000599D01*
X168089800Y-100982921D01*
X168089800Y-96117079D01*
X168088175Y-96100577D01*
X168088254Y-96089231D01*
X168087758Y-96084162D01*
X168050629Y-95730906D01*
X168043972Y-95698475D01*
X168037784Y-95666039D01*
X168036312Y-95661163D01*
X167931277Y-95321848D01*
X167918451Y-95291338D01*
X167906077Y-95260711D01*
X167903687Y-95256214D01*
X167901600Y-95252354D01*
X167901600Y-91900000D01*
X167899648Y-91880179D01*
X167893866Y-91861119D01*
X167884477Y-91843554D01*
X167871842Y-91828158D01*
X166571842Y-90528158D01*
X166556446Y-90515523D01*
X166538881Y-90506134D01*
X166519821Y-90500352D01*
X166500000Y-90498400D01*
X163145182Y-90498400D01*
X163129811Y-90490227D01*
X163099262Y-90477636D01*
X163068852Y-90464602D01*
X163063986Y-90463096D01*
X162723945Y-90360432D01*
X162691501Y-90354008D01*
X162659170Y-90347136D01*
X162654105Y-90346603D01*
X162300599Y-90311941D01*
X162282921Y-90310200D01*
X157417079Y-90310200D01*
X157400577Y-90311825D01*
X157389231Y-90311746D01*
X157384162Y-90312242D01*
X157030906Y-90349371D01*
X156998475Y-90356028D01*
X156966039Y-90362216D01*
X156961163Y-90363688D01*
X156621848Y-90468723D01*
X156591338Y-90481549D01*
X156560711Y-90493923D01*
X156556214Y-90496313D01*
X156552354Y-90498400D01*
X153200000Y-90498400D01*
X153180179Y-90500352D01*
X153161119Y-90506134D01*
X153143554Y-90515523D01*
X153128158Y-90528158D01*
X151828158Y-91828158D01*
X151815523Y-91843554D01*
X151806134Y-91861119D01*
X151800352Y-91880179D01*
X151798400Y-91900000D01*
X151798400Y-95254818D01*
X151790227Y-95270189D01*
X151777636Y-95300738D01*
X151764602Y-95331148D01*
X151763096Y-95336014D01*
X151660432Y-95676055D01*
X151654008Y-95708499D01*
X151647136Y-95740830D01*
X151646603Y-95745895D01*
X151611941Y-96099401D01*
X151610200Y-96117080D01*
X142640210Y-96117080D01*
X142631558Y-96073586D01*
X142585966Y-95963520D01*
X142519779Y-95864463D01*
X142435537Y-95780221D01*
X142336480Y-95714034D01*
X142226414Y-95668442D01*
X142109568Y-95645200D01*
X141990432Y-95645200D01*
X141873586Y-95668442D01*
X141763520Y-95714034D01*
X141664463Y-95780221D01*
X141580221Y-95864463D01*
X141514034Y-95963520D01*
X141468442Y-96073586D01*
X141445200Y-96190432D01*
X116329800Y-96190432D01*
X116329800Y-94240432D01*
X139695200Y-94240432D01*
X139695200Y-94359568D01*
X139718442Y-94476414D01*
X139764034Y-94586480D01*
X139830221Y-94685537D01*
X139844684Y-94700000D01*
X139830221Y-94714463D01*
X139764034Y-94813520D01*
X139718442Y-94923586D01*
X139695200Y-95040432D01*
X139695200Y-95159568D01*
X139718442Y-95276414D01*
X139764034Y-95386480D01*
X139830221Y-95485537D01*
X139914463Y-95569779D01*
X140013520Y-95635966D01*
X140123586Y-95681558D01*
X140240432Y-95704800D01*
X140359568Y-95704800D01*
X140476414Y-95681558D01*
X140586480Y-95635966D01*
X140685537Y-95569779D01*
X140769779Y-95485537D01*
X140835966Y-95386480D01*
X140881558Y-95276414D01*
X140883812Y-95265083D01*
X140923586Y-95281558D01*
X141040432Y-95304800D01*
X141159568Y-95304800D01*
X141276414Y-95281558D01*
X141386480Y-95235966D01*
X141419364Y-95213994D01*
X141439034Y-95261480D01*
X141505221Y-95360537D01*
X141589463Y-95444779D01*
X141688520Y-95510966D01*
X141798586Y-95556558D01*
X141915432Y-95579800D01*
X142034568Y-95579800D01*
X142151414Y-95556558D01*
X142261480Y-95510966D01*
X142360537Y-95444779D01*
X142444779Y-95360537D01*
X142510966Y-95261480D01*
X142556558Y-95151414D01*
X142579800Y-95034568D01*
X142579800Y-94915432D01*
X142556558Y-94798586D01*
X142510966Y-94688520D01*
X142444779Y-94589463D01*
X142360537Y-94505221D01*
X142261480Y-94439034D01*
X142151414Y-94393442D01*
X142034568Y-94370200D01*
X141915432Y-94370200D01*
X141798586Y-94393442D01*
X141688520Y-94439034D01*
X141655636Y-94461006D01*
X141635966Y-94413520D01*
X141569779Y-94314463D01*
X141555316Y-94300000D01*
X141569779Y-94285537D01*
X141635966Y-94186480D01*
X141681558Y-94076414D01*
X141704800Y-93959568D01*
X141704800Y-93840432D01*
X141681558Y-93723586D01*
X141635966Y-93613520D01*
X141569779Y-93514463D01*
X141485537Y-93430221D01*
X141386480Y-93364034D01*
X141276414Y-93318442D01*
X141159568Y-93295200D01*
X141040432Y-93295200D01*
X140923586Y-93318442D01*
X140813520Y-93364034D01*
X140714463Y-93430221D01*
X140630221Y-93514463D01*
X140564034Y-93613520D01*
X140518442Y-93723586D01*
X140516188Y-93734917D01*
X140476414Y-93718442D01*
X140359568Y-93695200D01*
X140240432Y-93695200D01*
X140123586Y-93718442D01*
X140013520Y-93764034D01*
X139914463Y-93830221D01*
X139830221Y-93914463D01*
X139764034Y-94013520D01*
X139718442Y-94123586D01*
X139695200Y-94240432D01*
X116329800Y-94240432D01*
X116329800Y-92962102D01*
X116393091Y-92962102D01*
X116404592Y-93028186D01*
X116487803Y-93176672D01*
X116598383Y-93306071D01*
X116732083Y-93411411D01*
X116883765Y-93488643D01*
X117047600Y-93534800D01*
X117597600Y-93534800D01*
X117597600Y-92832400D01*
X117902400Y-92832400D01*
X117902400Y-93534800D01*
X118452400Y-93534800D01*
X118616235Y-93488643D01*
X118767917Y-93411411D01*
X118901617Y-93306071D01*
X119012197Y-93176672D01*
X119095408Y-93028186D01*
X119106909Y-92962102D01*
X120193091Y-92962102D01*
X120204592Y-93028186D01*
X120287803Y-93176672D01*
X120398383Y-93306071D01*
X120532083Y-93411411D01*
X120683765Y-93488643D01*
X120847600Y-93534800D01*
X121397600Y-93534800D01*
X121397600Y-92832400D01*
X121702400Y-92832400D01*
X121702400Y-93534800D01*
X122252400Y-93534800D01*
X122416235Y-93488643D01*
X122567917Y-93411411D01*
X122701617Y-93306071D01*
X122801169Y-93189577D01*
X122818442Y-93276414D01*
X122864034Y-93386480D01*
X122930221Y-93485537D01*
X123014463Y-93569779D01*
X123113520Y-93635966D01*
X123223586Y-93681558D01*
X123340432Y-93704800D01*
X123459568Y-93704800D01*
X123576414Y-93681558D01*
X123686480Y-93635966D01*
X123785537Y-93569779D01*
X123869779Y-93485537D01*
X123935966Y-93386480D01*
X123981558Y-93276414D01*
X124004800Y-93159568D01*
X124004800Y-93040432D01*
X123981558Y-92923586D01*
X123935966Y-92813520D01*
X123869779Y-92714463D01*
X123785537Y-92630221D01*
X123686480Y-92564034D01*
X123576414Y-92518442D01*
X123459568Y-92495200D01*
X123340432Y-92495200D01*
X123223586Y-92518442D01*
X123113520Y-92564034D01*
X123014463Y-92630221D01*
X122930221Y-92714463D01*
X122864034Y-92813520D01*
X122856213Y-92832400D01*
X121702400Y-92832400D01*
X121397600Y-92832400D01*
X120236461Y-92832400D01*
X120193091Y-92962102D01*
X119106909Y-92962102D01*
X119063539Y-92832400D01*
X117902400Y-92832400D01*
X117597600Y-92832400D01*
X116436461Y-92832400D01*
X116393091Y-92962102D01*
X116329800Y-92962102D01*
X116329800Y-92526130D01*
X116342373Y-92397898D01*
X116393091Y-92397898D01*
X116436461Y-92527600D01*
X117597600Y-92527600D01*
X117597600Y-91825200D01*
X117902400Y-91825200D01*
X117902400Y-92527600D01*
X119063539Y-92527600D01*
X119106909Y-92397898D01*
X120193091Y-92397898D01*
X120236461Y-92527600D01*
X121397600Y-92527600D01*
X121397600Y-91825200D01*
X121702400Y-91825200D01*
X121702400Y-92527600D01*
X122863539Y-92527600D01*
X122906909Y-92397898D01*
X122895408Y-92331814D01*
X122812197Y-92183328D01*
X122701617Y-92053929D01*
X122567917Y-91948589D01*
X122416235Y-91871357D01*
X122252400Y-91825200D01*
X121702400Y-91825200D01*
X121397600Y-91825200D01*
X120847600Y-91825200D01*
X120683765Y-91871357D01*
X120532083Y-91948589D01*
X120398383Y-92053929D01*
X120287803Y-92183328D01*
X120204592Y-92331814D01*
X120193091Y-92397898D01*
X119106909Y-92397898D01*
X119095408Y-92331814D01*
X119012197Y-92183328D01*
X118901617Y-92053929D01*
X118767917Y-91948589D01*
X118616235Y-91871357D01*
X118452400Y-91825200D01*
X117902400Y-91825200D01*
X117597600Y-91825200D01*
X117047600Y-91825200D01*
X116883765Y-91871357D01*
X116732083Y-91948589D01*
X116598383Y-92053929D01*
X116487803Y-92183328D01*
X116404592Y-92331814D01*
X116393091Y-92397898D01*
X116342373Y-92397898D01*
X116344116Y-92380132D01*
X116381832Y-92255208D01*
X116443092Y-92139994D01*
X116535153Y-92027116D01*
X117086248Y-91480432D01*
X131945200Y-91480432D01*
X131945200Y-91599568D01*
X131968442Y-91716414D01*
X132014034Y-91826480D01*
X132080221Y-91925537D01*
X132164463Y-92009779D01*
X132263520Y-92075966D01*
X132373586Y-92121558D01*
X132490432Y-92144800D01*
X132498255Y-92144800D01*
X132485200Y-92210432D01*
X132485200Y-92329568D01*
X132508442Y-92446414D01*
X132554034Y-92556480D01*
X132620221Y-92655537D01*
X132704463Y-92739779D01*
X132803520Y-92805966D01*
X132913586Y-92851558D01*
X133030432Y-92874800D01*
X133149568Y-92874800D01*
X133266414Y-92851558D01*
X133376480Y-92805966D01*
X133475537Y-92739779D01*
X133559779Y-92655537D01*
X133625966Y-92556480D01*
X133671558Y-92446414D01*
X133694800Y-92329568D01*
X133694800Y-92210432D01*
X133671558Y-92093586D01*
X133625966Y-91983520D01*
X133559779Y-91884463D01*
X133475537Y-91800221D01*
X133376480Y-91734034D01*
X133266414Y-91688442D01*
X133149568Y-91665200D01*
X133141745Y-91665200D01*
X133154800Y-91599568D01*
X133154800Y-91480432D01*
X133131558Y-91363586D01*
X133085966Y-91253520D01*
X133019779Y-91154463D01*
X132935537Y-91070221D01*
X132836480Y-91004034D01*
X132726414Y-90958442D01*
X132609568Y-90935200D01*
X132490432Y-90935200D01*
X132373586Y-90958442D01*
X132263520Y-91004034D01*
X132164463Y-91070221D01*
X132080221Y-91154463D01*
X132014034Y-91253520D01*
X131968442Y-91363586D01*
X131945200Y-91480432D01*
X117086248Y-91480432D01*
X117950868Y-90622735D01*
X117960057Y-90611630D01*
X117962212Y-90609519D01*
X117965148Y-90605970D01*
X118088498Y-90454728D01*
X118105042Y-90429828D01*
X118121927Y-90405167D01*
X118124114Y-90401121D01*
X118124117Y-90401117D01*
X118124119Y-90401113D01*
X118215742Y-90228794D01*
X118227127Y-90201173D01*
X118231730Y-90190432D01*
X136045200Y-90190432D01*
X136045200Y-90309568D01*
X136068442Y-90426414D01*
X136114034Y-90536480D01*
X136180221Y-90635537D01*
X136264463Y-90719779D01*
X136363520Y-90785966D01*
X136473586Y-90831558D01*
X136590432Y-90854800D01*
X136709568Y-90854800D01*
X136826414Y-90831558D01*
X136936480Y-90785966D01*
X137035537Y-90719779D01*
X137119779Y-90635537D01*
X137185966Y-90536480D01*
X137231558Y-90426414D01*
X137254800Y-90309568D01*
X137254800Y-90190432D01*
X137231558Y-90073586D01*
X137185966Y-89963520D01*
X137170540Y-89940432D01*
X139695200Y-89940432D01*
X139695200Y-90059568D01*
X139718442Y-90176414D01*
X139764034Y-90286480D01*
X139830221Y-90385537D01*
X139844684Y-90400000D01*
X139830221Y-90414463D01*
X139764034Y-90513520D01*
X139718442Y-90623586D01*
X139695200Y-90740432D01*
X139695200Y-90859568D01*
X139718442Y-90976414D01*
X139764034Y-91086480D01*
X139830221Y-91185537D01*
X139914463Y-91269779D01*
X140013520Y-91335966D01*
X140123586Y-91381558D01*
X140240432Y-91404800D01*
X140359568Y-91404800D01*
X140476414Y-91381558D01*
X140516188Y-91365083D01*
X140518442Y-91376414D01*
X140564034Y-91486480D01*
X140630221Y-91585537D01*
X140714463Y-91669779D01*
X140813520Y-91735966D01*
X140923586Y-91781558D01*
X141040432Y-91804800D01*
X141159568Y-91804800D01*
X141276414Y-91781558D01*
X141386480Y-91735966D01*
X141485537Y-91669779D01*
X141569779Y-91585537D01*
X141635966Y-91486480D01*
X141681558Y-91376414D01*
X141704800Y-91259568D01*
X141704800Y-91140432D01*
X141681558Y-91023586D01*
X141635966Y-90913520D01*
X141569779Y-90814463D01*
X141555316Y-90800000D01*
X141569779Y-90785537D01*
X141635966Y-90686480D01*
X141681558Y-90576414D01*
X141704800Y-90459568D01*
X141704800Y-90340432D01*
X141681558Y-90223586D01*
X141635966Y-90113520D01*
X141569779Y-90014463D01*
X141485537Y-89930221D01*
X141386480Y-89864034D01*
X141276414Y-89818442D01*
X141159568Y-89795200D01*
X141040432Y-89795200D01*
X140923586Y-89818442D01*
X140883812Y-89834917D01*
X140881558Y-89823586D01*
X140835966Y-89713520D01*
X140820540Y-89690432D01*
X166815200Y-89690432D01*
X166815200Y-89809568D01*
X166838442Y-89926414D01*
X166884034Y-90036480D01*
X166950221Y-90135537D01*
X167034463Y-90219779D01*
X167133520Y-90285966D01*
X167243586Y-90331558D01*
X167360432Y-90354800D01*
X167479568Y-90354800D01*
X167596414Y-90331558D01*
X167706480Y-90285966D01*
X167805537Y-90219779D01*
X167889779Y-90135537D01*
X167955966Y-90036480D01*
X168001558Y-89926414D01*
X168024800Y-89809568D01*
X168024800Y-89690432D01*
X168001558Y-89573586D01*
X167955966Y-89463520D01*
X167889779Y-89364463D01*
X167805537Y-89280221D01*
X167706480Y-89214034D01*
X167596414Y-89168442D01*
X167479568Y-89145200D01*
X167360432Y-89145200D01*
X167243586Y-89168442D01*
X167133520Y-89214034D01*
X167034463Y-89280221D01*
X166950221Y-89364463D01*
X166884034Y-89463520D01*
X166838442Y-89573586D01*
X166815200Y-89690432D01*
X140820540Y-89690432D01*
X140769779Y-89614463D01*
X140685537Y-89530221D01*
X140586480Y-89464034D01*
X140476414Y-89418442D01*
X140359568Y-89395200D01*
X140240432Y-89395200D01*
X140123586Y-89418442D01*
X140013520Y-89464034D01*
X139914463Y-89530221D01*
X139830221Y-89614463D01*
X139764034Y-89713520D01*
X139718442Y-89823586D01*
X139695200Y-89940432D01*
X137170540Y-89940432D01*
X137119779Y-89864463D01*
X137035537Y-89780221D01*
X136936480Y-89714034D01*
X136826414Y-89668442D01*
X136709568Y-89645200D01*
X136590432Y-89645200D01*
X136473586Y-89668442D01*
X136363520Y-89714034D01*
X136264463Y-89780221D01*
X136180221Y-89864463D01*
X136114034Y-89963520D01*
X136068442Y-90073586D01*
X136045200Y-90190432D01*
X118231730Y-90190432D01*
X118238908Y-90173685D01*
X118240270Y-90169286D01*
X118296679Y-89982449D01*
X118302482Y-89953141D01*
X118308700Y-89923890D01*
X118309181Y-89919310D01*
X118328226Y-89725077D01*
X118328226Y-89725066D01*
X118329800Y-89709086D01*
X118329800Y-88361639D01*
X120095200Y-88361639D01*
X120095200Y-88638361D01*
X120149186Y-88909765D01*
X120255083Y-89165422D01*
X120408821Y-89395508D01*
X120604492Y-89591179D01*
X120834578Y-89744917D01*
X121090235Y-89850814D01*
X121361639Y-89904800D01*
X121638361Y-89904800D01*
X121909765Y-89850814D01*
X122165422Y-89744917D01*
X122395508Y-89591179D01*
X122591179Y-89395508D01*
X122744917Y-89165422D01*
X122850814Y-88909765D01*
X122904800Y-88638361D01*
X122904800Y-88361639D01*
X122850814Y-88090235D01*
X122744917Y-87834578D01*
X122591179Y-87604492D01*
X122395508Y-87408821D01*
X122165422Y-87255083D01*
X121909765Y-87149186D01*
X121638361Y-87095200D01*
X121361639Y-87095200D01*
X121090235Y-87149186D01*
X120834578Y-87255083D01*
X120604492Y-87408821D01*
X120408821Y-87604492D01*
X120255083Y-87834578D01*
X120149186Y-88090235D01*
X120095200Y-88361639D01*
X118329800Y-88361639D01*
X118329800Y-86398272D01*
X129800200Y-86398272D01*
X129800200Y-86561728D01*
X129832089Y-86722044D01*
X129894641Y-86873058D01*
X129985452Y-87008967D01*
X130091485Y-87115000D01*
X129985452Y-87221033D01*
X129894641Y-87356942D01*
X129832089Y-87507956D01*
X129800200Y-87668272D01*
X129800200Y-87831728D01*
X129832089Y-87992044D01*
X129894641Y-88143058D01*
X129985452Y-88278967D01*
X130091485Y-88385000D01*
X129985452Y-88491033D01*
X129894641Y-88626942D01*
X129832089Y-88777956D01*
X129800200Y-88938272D01*
X129800200Y-89101728D01*
X129832089Y-89262044D01*
X129894641Y-89413058D01*
X129985452Y-89548967D01*
X130101033Y-89664548D01*
X130236942Y-89755359D01*
X130387956Y-89817911D01*
X130548272Y-89849800D01*
X130711728Y-89849800D01*
X130872044Y-89817911D01*
X131023058Y-89755359D01*
X131158967Y-89664548D01*
X131265000Y-89558515D01*
X131371033Y-89664548D01*
X131506942Y-89755359D01*
X131657956Y-89817911D01*
X131818272Y-89849800D01*
X131981728Y-89849800D01*
X132142044Y-89817911D01*
X132293058Y-89755359D01*
X132428967Y-89664548D01*
X132544548Y-89548967D01*
X132635359Y-89413058D01*
X132697911Y-89262044D01*
X132729800Y-89101728D01*
X132729800Y-88938272D01*
X132697911Y-88777956D01*
X132635359Y-88626942D01*
X132544548Y-88491033D01*
X132438515Y-88385000D01*
X132544548Y-88278967D01*
X132635359Y-88143058D01*
X132697911Y-87992044D01*
X132729800Y-87831728D01*
X132729800Y-87668272D01*
X132697911Y-87507956D01*
X132635359Y-87356942D01*
X132544548Y-87221033D01*
X132438515Y-87115000D01*
X132544548Y-87008967D01*
X132623750Y-86890432D01*
X141345200Y-86890432D01*
X141345200Y-87009568D01*
X141368442Y-87126414D01*
X141414034Y-87236480D01*
X141480221Y-87335537D01*
X141564463Y-87419779D01*
X141663520Y-87485966D01*
X141773586Y-87531558D01*
X141890432Y-87554800D01*
X142009568Y-87554800D01*
X142126414Y-87531558D01*
X142236480Y-87485966D01*
X142335537Y-87419779D01*
X142419779Y-87335537D01*
X142485966Y-87236480D01*
X142531558Y-87126414D01*
X142554800Y-87009568D01*
X142554800Y-86890432D01*
X142531558Y-86773586D01*
X142485966Y-86663520D01*
X142419779Y-86564463D01*
X142335537Y-86480221D01*
X142236480Y-86414034D01*
X142126414Y-86368442D01*
X142009568Y-86345200D01*
X141890432Y-86345200D01*
X141773586Y-86368442D01*
X141663520Y-86414034D01*
X141564463Y-86480221D01*
X141480221Y-86564463D01*
X141414034Y-86663520D01*
X141368442Y-86773586D01*
X141345200Y-86890432D01*
X132623750Y-86890432D01*
X132635359Y-86873058D01*
X132697911Y-86722044D01*
X132729800Y-86561728D01*
X132729800Y-86398272D01*
X132697911Y-86237956D01*
X132635359Y-86086942D01*
X132544548Y-85951033D01*
X132428967Y-85835452D01*
X132293058Y-85744641D01*
X132166828Y-85692355D01*
X131900000Y-85425526D01*
X131633172Y-85692355D01*
X131506942Y-85744641D01*
X131371033Y-85835452D01*
X131265000Y-85941485D01*
X131158967Y-85835452D01*
X131023058Y-85744641D01*
X130896828Y-85692355D01*
X130630000Y-85425526D01*
X130363172Y-85692355D01*
X130236942Y-85744641D01*
X130101033Y-85835452D01*
X129985452Y-85951033D01*
X129894641Y-86086942D01*
X129832089Y-86237956D01*
X129800200Y-86398272D01*
X118329800Y-86398272D01*
X118329800Y-85170432D01*
X119415200Y-85170432D01*
X119415200Y-85289568D01*
X119438442Y-85406414D01*
X119484034Y-85516480D01*
X119550221Y-85615537D01*
X119634463Y-85699779D01*
X119733520Y-85765966D01*
X119843586Y-85811558D01*
X119960432Y-85834800D01*
X120079568Y-85834800D01*
X120196414Y-85811558D01*
X120306480Y-85765966D01*
X120405537Y-85699779D01*
X120489779Y-85615537D01*
X120555966Y-85516480D01*
X120601558Y-85406414D01*
X120624800Y-85289568D01*
X120624800Y-85170432D01*
X120624082Y-85166818D01*
X129797304Y-85166818D01*
X129804880Y-85330099D01*
X129844165Y-85488765D01*
X129877214Y-85568554D01*
X129997472Y-85627001D01*
X130414474Y-85210000D01*
X130845526Y-85210000D01*
X131110833Y-85475306D01*
X131114165Y-85488765D01*
X131147214Y-85568554D01*
X131257853Y-85622326D01*
X131262528Y-85627001D01*
X131265000Y-85625800D01*
X131267472Y-85627001D01*
X131272147Y-85622326D01*
X131382786Y-85568554D01*
X131414896Y-85479577D01*
X131684474Y-85210000D01*
X132115526Y-85210000D01*
X132532528Y-85627001D01*
X132652786Y-85568554D01*
X132708272Y-85414803D01*
X132732696Y-85253182D01*
X132725120Y-85089901D01*
X132685835Y-84931235D01*
X132652786Y-84851446D01*
X132532528Y-84792999D01*
X132115526Y-85210000D01*
X131684474Y-85210000D01*
X131419167Y-84944694D01*
X131415835Y-84931235D01*
X131382786Y-84851446D01*
X131272147Y-84797674D01*
X131267472Y-84792999D01*
X131265000Y-84794200D01*
X131262528Y-84792999D01*
X131257853Y-84797674D01*
X131147214Y-84851446D01*
X131115104Y-84940423D01*
X130845526Y-85210000D01*
X130414474Y-85210000D01*
X129997472Y-84792999D01*
X129877214Y-84851446D01*
X129821728Y-85005197D01*
X129797304Y-85166818D01*
X120624082Y-85166818D01*
X120601558Y-85053586D01*
X120555966Y-84943520D01*
X120489779Y-84844463D01*
X120405537Y-84760221D01*
X120306480Y-84694034D01*
X120196414Y-84648442D01*
X120079568Y-84625200D01*
X119960432Y-84625200D01*
X119843586Y-84648442D01*
X119733520Y-84694034D01*
X119634463Y-84760221D01*
X119550221Y-84844463D01*
X119484034Y-84943520D01*
X119438442Y-85053586D01*
X119415200Y-85170432D01*
X118329800Y-85170432D01*
X118329800Y-83858272D01*
X129800200Y-83858272D01*
X129800200Y-84021728D01*
X129832089Y-84182044D01*
X129894641Y-84333058D01*
X129985452Y-84468967D01*
X130101033Y-84584548D01*
X130236942Y-84675359D01*
X130363172Y-84727645D01*
X130630000Y-84994474D01*
X130896828Y-84727645D01*
X131023058Y-84675359D01*
X131158967Y-84584548D01*
X131265000Y-84478515D01*
X131371033Y-84584548D01*
X131506942Y-84675359D01*
X131633172Y-84727645D01*
X131900000Y-84994474D01*
X132166828Y-84727645D01*
X132293058Y-84675359D01*
X132428967Y-84584548D01*
X132544548Y-84468967D01*
X132630431Y-84340432D01*
X153395200Y-84340432D01*
X153395200Y-84459568D01*
X153418442Y-84576414D01*
X153464034Y-84686480D01*
X153530221Y-84785537D01*
X153614463Y-84869779D01*
X153713520Y-84935966D01*
X153823586Y-84981558D01*
X153940432Y-85004800D01*
X154059568Y-85004800D01*
X154176414Y-84981558D01*
X154286480Y-84935966D01*
X154385537Y-84869779D01*
X154469779Y-84785537D01*
X154535966Y-84686480D01*
X154581558Y-84576414D01*
X154604800Y-84459568D01*
X154604800Y-84340432D01*
X154581558Y-84223586D01*
X154535966Y-84113520D01*
X154469779Y-84014463D01*
X154385537Y-83930221D01*
X154286480Y-83864034D01*
X154176414Y-83818442D01*
X154059568Y-83795200D01*
X153940432Y-83795200D01*
X153823586Y-83818442D01*
X153713520Y-83864034D01*
X153614463Y-83930221D01*
X153530221Y-84014463D01*
X153464034Y-84113520D01*
X153418442Y-84223586D01*
X153395200Y-84340432D01*
X132630431Y-84340432D01*
X132635359Y-84333058D01*
X132697911Y-84182044D01*
X132729800Y-84021728D01*
X132729800Y-83858272D01*
X132697911Y-83697956D01*
X132635359Y-83546942D01*
X132544548Y-83411033D01*
X132428967Y-83295452D01*
X132293058Y-83204641D01*
X132240100Y-83182705D01*
X132346414Y-83161558D01*
X132456480Y-83115966D01*
X132555537Y-83049779D01*
X132639779Y-82965537D01*
X132705966Y-82866480D01*
X132751558Y-82756414D01*
X132774800Y-82639568D01*
X132774800Y-82520432D01*
X132751558Y-82403586D01*
X132705966Y-82293520D01*
X132639779Y-82194463D01*
X132555537Y-82110221D01*
X132456480Y-82044034D01*
X132346414Y-81998442D01*
X132229568Y-81975200D01*
X132110432Y-81975200D01*
X131993586Y-81998442D01*
X131883520Y-82044034D01*
X131784463Y-82110221D01*
X131700221Y-82194463D01*
X131634034Y-82293520D01*
X131588442Y-82403586D01*
X131565200Y-82520432D01*
X131565200Y-82639568D01*
X131588442Y-82756414D01*
X131634034Y-82866480D01*
X131700221Y-82965537D01*
X131784463Y-83049779D01*
X131874890Y-83110200D01*
X131818272Y-83110200D01*
X131657956Y-83142089D01*
X131506942Y-83204641D01*
X131371033Y-83295452D01*
X131265000Y-83401485D01*
X131158967Y-83295452D01*
X131023058Y-83204641D01*
X130872044Y-83142089D01*
X130711728Y-83110200D01*
X130548272Y-83110200D01*
X130387956Y-83142089D01*
X130236942Y-83204641D01*
X130101033Y-83295452D01*
X129985452Y-83411033D01*
X129894641Y-83546942D01*
X129832089Y-83697956D01*
X129800200Y-83858272D01*
X118329800Y-83858272D01*
X118329800Y-80770432D01*
X124995200Y-80770432D01*
X124995200Y-80889568D01*
X125018442Y-81006414D01*
X125064034Y-81116480D01*
X125130221Y-81215537D01*
X125214463Y-81299779D01*
X125313520Y-81365966D01*
X125423586Y-81411558D01*
X125540432Y-81434800D01*
X125646241Y-81434800D01*
X125668442Y-81546414D01*
X125714034Y-81656480D01*
X125780221Y-81755537D01*
X125864463Y-81839779D01*
X125963520Y-81905966D01*
X126073586Y-81951558D01*
X126190432Y-81974800D01*
X126309568Y-81974800D01*
X126426414Y-81951558D01*
X126536480Y-81905966D01*
X126635537Y-81839779D01*
X126719779Y-81755537D01*
X126785966Y-81656480D01*
X126831558Y-81546414D01*
X126854800Y-81429568D01*
X126854800Y-81310432D01*
X126831558Y-81193586D01*
X126785966Y-81083520D01*
X126719779Y-80984463D01*
X126635537Y-80900221D01*
X126536480Y-80834034D01*
X126426414Y-80788442D01*
X126309568Y-80765200D01*
X126203759Y-80765200D01*
X126181558Y-80653586D01*
X126135966Y-80543520D01*
X126069779Y-80444463D01*
X126065748Y-80440432D01*
X134895200Y-80440432D01*
X134895200Y-80559568D01*
X134918442Y-80676414D01*
X134964034Y-80786480D01*
X135030221Y-80885537D01*
X135114463Y-80969779D01*
X135213520Y-81035966D01*
X135323586Y-81081558D01*
X135440432Y-81104800D01*
X135559568Y-81104800D01*
X135676414Y-81081558D01*
X135786480Y-81035966D01*
X135885537Y-80969779D01*
X135969779Y-80885537D01*
X136035966Y-80786480D01*
X136081558Y-80676414D01*
X136104800Y-80559568D01*
X136104800Y-80440432D01*
X136081558Y-80323586D01*
X136067825Y-80290432D01*
X147495200Y-80290432D01*
X147495200Y-80409568D01*
X147518442Y-80526414D01*
X147564034Y-80636480D01*
X147630221Y-80735537D01*
X147644684Y-80750000D01*
X147630221Y-80764463D01*
X147564034Y-80863520D01*
X147518442Y-80973586D01*
X147495200Y-81090432D01*
X147495200Y-81209568D01*
X147518442Y-81326414D01*
X147564034Y-81436480D01*
X147630221Y-81535537D01*
X147714463Y-81619779D01*
X147813520Y-81685966D01*
X147923586Y-81731558D01*
X148040432Y-81754800D01*
X148159568Y-81754800D01*
X148276414Y-81731558D01*
X148386480Y-81685966D01*
X148485537Y-81619779D01*
X148569779Y-81535537D01*
X148635966Y-81436480D01*
X148681558Y-81326414D01*
X148704800Y-81209568D01*
X148704800Y-81090432D01*
X148681558Y-80973586D01*
X148635966Y-80863520D01*
X148569779Y-80764463D01*
X148555316Y-80750000D01*
X148569779Y-80735537D01*
X148635966Y-80636480D01*
X148678983Y-80532631D01*
X148790432Y-80554800D01*
X148909568Y-80554800D01*
X149026414Y-80531558D01*
X149136480Y-80485966D01*
X149235537Y-80419779D01*
X149250000Y-80405316D01*
X149264463Y-80419779D01*
X149363520Y-80485966D01*
X149473586Y-80531558D01*
X149590432Y-80554800D01*
X149709568Y-80554800D01*
X149826414Y-80531558D01*
X149936480Y-80485966D01*
X150004627Y-80440432D01*
X151745200Y-80440432D01*
X151745200Y-80559568D01*
X151768442Y-80676414D01*
X151814034Y-80786480D01*
X151880221Y-80885537D01*
X151964463Y-80969779D01*
X152063520Y-81035966D01*
X152173586Y-81081558D01*
X152290432Y-81104800D01*
X152409568Y-81104800D01*
X152526414Y-81081558D01*
X152636480Y-81035966D01*
X152735537Y-80969779D01*
X152819779Y-80885537D01*
X152885966Y-80786480D01*
X152931558Y-80676414D01*
X152954800Y-80559568D01*
X152954800Y-80440432D01*
X152931558Y-80323586D01*
X152885966Y-80213520D01*
X152819779Y-80114463D01*
X152735537Y-80030221D01*
X152636480Y-79964034D01*
X152526414Y-79918442D01*
X152409568Y-79895200D01*
X152290432Y-79895200D01*
X152173586Y-79918442D01*
X152063520Y-79964034D01*
X151964463Y-80030221D01*
X151880221Y-80114463D01*
X151814034Y-80213520D01*
X151768442Y-80323586D01*
X151745200Y-80440432D01*
X150004627Y-80440432D01*
X150035537Y-80419779D01*
X150119779Y-80335537D01*
X150185966Y-80236480D01*
X150231558Y-80126414D01*
X150254800Y-80009568D01*
X150254800Y-79890432D01*
X150231558Y-79773586D01*
X150185966Y-79663520D01*
X150119779Y-79564463D01*
X150095748Y-79540432D01*
X152595200Y-79540432D01*
X152595200Y-79659568D01*
X152618442Y-79776414D01*
X152664034Y-79886480D01*
X152730221Y-79985537D01*
X152814463Y-80069779D01*
X152913520Y-80135966D01*
X153023586Y-80181558D01*
X153140432Y-80204800D01*
X153259568Y-80204800D01*
X153376414Y-80181558D01*
X153486480Y-80135966D01*
X153585537Y-80069779D01*
X153669779Y-79985537D01*
X153735966Y-79886480D01*
X153781558Y-79776414D01*
X153804800Y-79659568D01*
X153804800Y-79540432D01*
X153781558Y-79423586D01*
X153735966Y-79313520D01*
X153669779Y-79214463D01*
X153585537Y-79130221D01*
X153486480Y-79064034D01*
X153376414Y-79018442D01*
X153259568Y-78995200D01*
X153140432Y-78995200D01*
X153023586Y-79018442D01*
X152913520Y-79064034D01*
X152814463Y-79130221D01*
X152730221Y-79214463D01*
X152664034Y-79313520D01*
X152618442Y-79423586D01*
X152595200Y-79540432D01*
X150095748Y-79540432D01*
X150035537Y-79480221D01*
X149936480Y-79414034D01*
X149826414Y-79368442D01*
X149709568Y-79345200D01*
X149590432Y-79345200D01*
X149473586Y-79368442D01*
X149363520Y-79414034D01*
X149264463Y-79480221D01*
X149250000Y-79494684D01*
X149235537Y-79480221D01*
X149136480Y-79414034D01*
X149026414Y-79368442D01*
X148909568Y-79345200D01*
X148790432Y-79345200D01*
X148673586Y-79368442D01*
X148563520Y-79414034D01*
X148464463Y-79480221D01*
X148380221Y-79564463D01*
X148314034Y-79663520D01*
X148271017Y-79767369D01*
X148159568Y-79745200D01*
X148040432Y-79745200D01*
X147923586Y-79768442D01*
X147813520Y-79814034D01*
X147714463Y-79880221D01*
X147630221Y-79964463D01*
X147564034Y-80063520D01*
X147518442Y-80173586D01*
X147495200Y-80290432D01*
X136067825Y-80290432D01*
X136035966Y-80213520D01*
X135969779Y-80114463D01*
X135885537Y-80030221D01*
X135786480Y-79964034D01*
X135676414Y-79918442D01*
X135559568Y-79895200D01*
X135440432Y-79895200D01*
X135323586Y-79918442D01*
X135213520Y-79964034D01*
X135114463Y-80030221D01*
X135030221Y-80114463D01*
X134964034Y-80213520D01*
X134918442Y-80323586D01*
X134895200Y-80440432D01*
X126065748Y-80440432D01*
X125985537Y-80360221D01*
X125886480Y-80294034D01*
X125776414Y-80248442D01*
X125659568Y-80225200D01*
X125540432Y-80225200D01*
X125423586Y-80248442D01*
X125313520Y-80294034D01*
X125214463Y-80360221D01*
X125130221Y-80444463D01*
X125064034Y-80543520D01*
X125018442Y-80653586D01*
X124995200Y-80770432D01*
X118329800Y-80770432D01*
X118329800Y-78329800D01*
X171670201Y-78329800D01*
X171670200Y-115670200D01*
G04 #@! TA.AperFunction,Conductor*
D15*
G36*
X171670200Y-115670200D02*
G01*
X135013421Y-115670200D01*
X135031558Y-115626414D01*
X135054800Y-115509568D01*
X135054800Y-115390432D01*
X135031558Y-115273586D01*
X134985966Y-115163520D01*
X134919779Y-115064463D01*
X134835537Y-114980221D01*
X134736480Y-114914034D01*
X134626414Y-114868442D01*
X134509568Y-114845200D01*
X134390432Y-114845200D01*
X134273586Y-114868442D01*
X134163520Y-114914034D01*
X134064463Y-114980221D01*
X133980221Y-115064463D01*
X133914034Y-115163520D01*
X133868442Y-115273586D01*
X133845200Y-115390432D01*
X133845200Y-115509568D01*
X133868442Y-115626414D01*
X133886579Y-115670200D01*
X122951600Y-115670200D01*
X122951600Y-114490432D01*
X141595200Y-114490432D01*
X141595200Y-114609568D01*
X141618442Y-114726414D01*
X141664034Y-114836480D01*
X141730221Y-114935537D01*
X141814463Y-115019779D01*
X141913520Y-115085966D01*
X142023586Y-115131558D01*
X142140432Y-115154800D01*
X142259568Y-115154800D01*
X142376414Y-115131558D01*
X142486480Y-115085966D01*
X142585537Y-115019779D01*
X142669779Y-114935537D01*
X142735966Y-114836480D01*
X142781558Y-114726414D01*
X142804800Y-114609568D01*
X142804800Y-114490432D01*
X142794855Y-114440432D01*
X151595200Y-114440432D01*
X151595200Y-114559568D01*
X151618442Y-114676414D01*
X151664034Y-114786480D01*
X151730221Y-114885537D01*
X151814463Y-114969779D01*
X151913520Y-115035966D01*
X152023586Y-115081558D01*
X152140432Y-115104800D01*
X152259568Y-115104800D01*
X152376414Y-115081558D01*
X152486480Y-115035966D01*
X152585537Y-114969779D01*
X152669779Y-114885537D01*
X152735966Y-114786480D01*
X152781558Y-114676414D01*
X152804800Y-114559568D01*
X152804800Y-114440432D01*
X152781558Y-114323586D01*
X152735966Y-114213520D01*
X152669779Y-114114463D01*
X152585537Y-114030221D01*
X152486480Y-113964034D01*
X152376414Y-113918442D01*
X152259568Y-113895200D01*
X152140432Y-113895200D01*
X152023586Y-113918442D01*
X151913520Y-113964034D01*
X151814463Y-114030221D01*
X151730221Y-114114463D01*
X151664034Y-114213520D01*
X151618442Y-114323586D01*
X151595200Y-114440432D01*
X142794855Y-114440432D01*
X142781558Y-114373586D01*
X142735966Y-114263520D01*
X142669779Y-114164463D01*
X142585537Y-114080221D01*
X142486480Y-114014034D01*
X142376414Y-113968442D01*
X142259568Y-113945200D01*
X142140432Y-113945200D01*
X142023586Y-113968442D01*
X141913520Y-114014034D01*
X141814463Y-114080221D01*
X141730221Y-114164463D01*
X141664034Y-114263520D01*
X141618442Y-114373586D01*
X141595200Y-114490432D01*
X122951600Y-114490432D01*
X122951600Y-110765432D01*
X126595200Y-110765432D01*
X126595200Y-110884568D01*
X126618442Y-111001414D01*
X126664034Y-111111480D01*
X126730221Y-111210537D01*
X126814463Y-111294779D01*
X126913520Y-111360966D01*
X127023586Y-111406558D01*
X127140432Y-111429800D01*
X127259568Y-111429800D01*
X127270200Y-111427685D01*
X127270200Y-111459568D01*
X127293442Y-111576414D01*
X127339034Y-111686480D01*
X127405221Y-111785537D01*
X127489463Y-111869779D01*
X127588520Y-111935966D01*
X127698586Y-111981558D01*
X127815432Y-112004800D01*
X127920200Y-112004800D01*
X127920200Y-112059568D01*
X127943442Y-112176414D01*
X127989034Y-112286480D01*
X128055221Y-112385537D01*
X128139463Y-112469779D01*
X128238520Y-112535966D01*
X128302577Y-112562500D01*
X128238520Y-112589034D01*
X128139463Y-112655221D01*
X128055221Y-112739463D01*
X127989034Y-112838520D01*
X127943442Y-112948586D01*
X127920200Y-113065432D01*
X127920200Y-113184568D01*
X127943442Y-113301414D01*
X127989034Y-113411480D01*
X128055221Y-113510537D01*
X128139463Y-113594779D01*
X128238520Y-113660966D01*
X128348586Y-113706558D01*
X128465432Y-113729800D01*
X128584568Y-113729800D01*
X128701414Y-113706558D01*
X128811480Y-113660966D01*
X128910537Y-113594779D01*
X128994779Y-113510537D01*
X129060966Y-113411480D01*
X129090395Y-113340432D01*
X132045200Y-113340432D01*
X132045200Y-113459568D01*
X132068442Y-113576414D01*
X132114034Y-113686480D01*
X132180221Y-113785537D01*
X132264463Y-113869779D01*
X132363520Y-113935966D01*
X132473586Y-113981558D01*
X132590432Y-114004800D01*
X132709568Y-114004800D01*
X132826414Y-113981558D01*
X132936480Y-113935966D01*
X133035537Y-113869779D01*
X133119779Y-113785537D01*
X133185966Y-113686480D01*
X133231558Y-113576414D01*
X133254800Y-113459568D01*
X133254800Y-113404800D01*
X133309568Y-113404800D01*
X133426414Y-113381558D01*
X133536480Y-113335966D01*
X133635537Y-113269779D01*
X133719779Y-113185537D01*
X133785966Y-113086480D01*
X133831558Y-112976414D01*
X133854800Y-112859568D01*
X133854800Y-112740432D01*
X133831558Y-112623586D01*
X133785966Y-112513520D01*
X133719779Y-112414463D01*
X133635537Y-112330221D01*
X133536480Y-112264034D01*
X133426414Y-112218442D01*
X133309568Y-112195200D01*
X133190432Y-112195200D01*
X133073586Y-112218442D01*
X132963520Y-112264034D01*
X132864463Y-112330221D01*
X132780221Y-112414463D01*
X132714034Y-112513520D01*
X132668442Y-112623586D01*
X132645200Y-112740432D01*
X132645200Y-112795200D01*
X132590432Y-112795200D01*
X132473586Y-112818442D01*
X132363520Y-112864034D01*
X132264463Y-112930221D01*
X132180221Y-113014463D01*
X132114034Y-113113520D01*
X132068442Y-113223586D01*
X132045200Y-113340432D01*
X129090395Y-113340432D01*
X129106558Y-113301414D01*
X129129800Y-113184568D01*
X129129800Y-113065432D01*
X129106558Y-112948586D01*
X129060966Y-112838520D01*
X128994779Y-112739463D01*
X128910537Y-112655221D01*
X128811480Y-112589034D01*
X128747423Y-112562500D01*
X128811480Y-112535966D01*
X128910537Y-112469779D01*
X128994779Y-112385537D01*
X129060966Y-112286480D01*
X129106558Y-112176414D01*
X129129800Y-112059568D01*
X129129800Y-112040432D01*
X129195200Y-112040432D01*
X129195200Y-112159568D01*
X129218442Y-112276414D01*
X129264034Y-112386480D01*
X129330221Y-112485537D01*
X129414463Y-112569779D01*
X129513520Y-112635966D01*
X129623586Y-112681558D01*
X129740432Y-112704800D01*
X129859568Y-112704800D01*
X129976414Y-112681558D01*
X130086480Y-112635966D01*
X130185537Y-112569779D01*
X130269779Y-112485537D01*
X130335966Y-112386480D01*
X130381558Y-112276414D01*
X130404800Y-112159568D01*
X130404800Y-112140432D01*
X146345200Y-112140432D01*
X146345200Y-112259568D01*
X146368442Y-112376414D01*
X146414034Y-112486480D01*
X146480221Y-112585537D01*
X146564463Y-112669779D01*
X146663520Y-112735966D01*
X146773586Y-112781558D01*
X146890432Y-112804800D01*
X147009568Y-112804800D01*
X147126414Y-112781558D01*
X147236480Y-112735966D01*
X147335537Y-112669779D01*
X147344402Y-112660914D01*
X147318442Y-112723586D01*
X147295200Y-112840432D01*
X147295200Y-112959568D01*
X147318442Y-113076414D01*
X147364034Y-113186480D01*
X147430221Y-113285537D01*
X147514463Y-113369779D01*
X147613520Y-113435966D01*
X147723586Y-113481558D01*
X147840432Y-113504800D01*
X147959568Y-113504800D01*
X148076414Y-113481558D01*
X148186480Y-113435966D01*
X148285537Y-113369779D01*
X148369779Y-113285537D01*
X148435966Y-113186480D01*
X148481558Y-113076414D01*
X148504800Y-112959568D01*
X148504800Y-112840432D01*
X159845200Y-112840432D01*
X159845200Y-112959568D01*
X159868442Y-113076414D01*
X159914034Y-113186480D01*
X159980221Y-113285537D01*
X160064463Y-113369779D01*
X160163520Y-113435966D01*
X160273586Y-113481558D01*
X160390432Y-113504800D01*
X160509568Y-113504800D01*
X160626414Y-113481558D01*
X160736480Y-113435966D01*
X160835537Y-113369779D01*
X160843677Y-113361639D01*
X168095200Y-113361639D01*
X168095200Y-113638361D01*
X168149186Y-113909765D01*
X168255083Y-114165422D01*
X168408821Y-114395508D01*
X168604492Y-114591179D01*
X168834578Y-114744917D01*
X169090235Y-114850814D01*
X169361639Y-114904800D01*
X169638361Y-114904800D01*
X169909765Y-114850814D01*
X170165422Y-114744917D01*
X170395508Y-114591179D01*
X170591179Y-114395508D01*
X170744917Y-114165422D01*
X170850814Y-113909765D01*
X170904800Y-113638361D01*
X170904800Y-113361639D01*
X170850814Y-113090235D01*
X170744917Y-112834578D01*
X170591179Y-112604492D01*
X170395508Y-112408821D01*
X170165422Y-112255083D01*
X169909765Y-112149186D01*
X169638361Y-112095200D01*
X169361639Y-112095200D01*
X169090235Y-112149186D01*
X168834578Y-112255083D01*
X168604492Y-112408821D01*
X168408821Y-112604492D01*
X168255083Y-112834578D01*
X168149186Y-113090235D01*
X168095200Y-113361639D01*
X160843677Y-113361639D01*
X160919779Y-113285537D01*
X160985966Y-113186480D01*
X161031558Y-113076414D01*
X161054800Y-112959568D01*
X161054800Y-112840432D01*
X161031558Y-112723586D01*
X160997114Y-112640432D01*
X163495200Y-112640432D01*
X163495200Y-112759568D01*
X163518442Y-112876414D01*
X163564034Y-112986480D01*
X163630221Y-113085537D01*
X163714463Y-113169779D01*
X163813520Y-113235966D01*
X163923586Y-113281558D01*
X164040432Y-113304800D01*
X164159568Y-113304800D01*
X164276414Y-113281558D01*
X164386480Y-113235966D01*
X164485537Y-113169779D01*
X164569779Y-113085537D01*
X164635966Y-112986480D01*
X164681558Y-112876414D01*
X164704800Y-112759568D01*
X164704800Y-112640432D01*
X164697712Y-112604800D01*
X164709568Y-112604800D01*
X164826414Y-112581558D01*
X164936480Y-112535966D01*
X165035537Y-112469779D01*
X165119779Y-112385537D01*
X165185966Y-112286480D01*
X165231558Y-112176414D01*
X165254800Y-112059568D01*
X165254800Y-111940432D01*
X165231558Y-111823586D01*
X165185966Y-111713520D01*
X165119779Y-111614463D01*
X165035537Y-111530221D01*
X165027723Y-111525000D01*
X165035537Y-111519779D01*
X165119779Y-111435537D01*
X165185966Y-111336480D01*
X165231558Y-111226414D01*
X165254800Y-111109568D01*
X165254800Y-110990432D01*
X165231558Y-110873586D01*
X165185966Y-110763520D01*
X165119779Y-110664463D01*
X165035537Y-110580221D01*
X164936480Y-110514034D01*
X164826414Y-110468442D01*
X164709568Y-110445200D01*
X164590432Y-110445200D01*
X164473586Y-110468442D01*
X164363520Y-110514034D01*
X164264463Y-110580221D01*
X164180221Y-110664463D01*
X164114034Y-110763520D01*
X164068442Y-110873586D01*
X164045200Y-110990432D01*
X164045200Y-111109568D01*
X164068442Y-111226414D01*
X164114034Y-111336480D01*
X164180221Y-111435537D01*
X164264463Y-111519779D01*
X164272277Y-111525000D01*
X164264463Y-111530221D01*
X164180221Y-111614463D01*
X164114034Y-111713520D01*
X164068442Y-111823586D01*
X164045200Y-111940432D01*
X164045200Y-112059568D01*
X164052288Y-112095200D01*
X164040432Y-112095200D01*
X163923586Y-112118442D01*
X163813520Y-112164034D01*
X163714463Y-112230221D01*
X163630221Y-112314463D01*
X163564034Y-112413520D01*
X163518442Y-112523586D01*
X163495200Y-112640432D01*
X160997114Y-112640432D01*
X160985966Y-112613520D01*
X160919779Y-112514463D01*
X160835537Y-112430221D01*
X160736480Y-112364034D01*
X160626414Y-112318442D01*
X160509568Y-112295200D01*
X160390432Y-112295200D01*
X160273586Y-112318442D01*
X160163520Y-112364034D01*
X160064463Y-112430221D01*
X159980221Y-112514463D01*
X159914034Y-112613520D01*
X159868442Y-112723586D01*
X159845200Y-112840432D01*
X148504800Y-112840432D01*
X148481558Y-112723586D01*
X148435966Y-112613520D01*
X148369779Y-112514463D01*
X148285537Y-112430221D01*
X148186480Y-112364034D01*
X148076414Y-112318442D01*
X147959568Y-112295200D01*
X147840432Y-112295200D01*
X147723586Y-112318442D01*
X147613520Y-112364034D01*
X147514463Y-112430221D01*
X147505598Y-112439086D01*
X147531558Y-112376414D01*
X147554800Y-112259568D01*
X147554800Y-112140432D01*
X154145200Y-112140432D01*
X154145200Y-112259568D01*
X154168442Y-112376414D01*
X154214034Y-112486480D01*
X154280221Y-112585537D01*
X154364463Y-112669779D01*
X154463520Y-112735966D01*
X154573586Y-112781558D01*
X154690432Y-112804800D01*
X154809568Y-112804800D01*
X154926414Y-112781558D01*
X155036480Y-112735966D01*
X155135537Y-112669779D01*
X155219779Y-112585537D01*
X155285966Y-112486480D01*
X155331558Y-112376414D01*
X155354800Y-112259568D01*
X155354800Y-112140432D01*
X155331558Y-112023586D01*
X155285966Y-111913520D01*
X155219779Y-111814463D01*
X155135537Y-111730221D01*
X155036480Y-111664034D01*
X154926414Y-111618442D01*
X154809568Y-111595200D01*
X154690432Y-111595200D01*
X154573586Y-111618442D01*
X154463520Y-111664034D01*
X154364463Y-111730221D01*
X154280221Y-111814463D01*
X154214034Y-111913520D01*
X154168442Y-112023586D01*
X154145200Y-112140432D01*
X147554800Y-112140432D01*
X147531558Y-112023586D01*
X147485966Y-111913520D01*
X147419779Y-111814463D01*
X147335537Y-111730221D01*
X147236480Y-111664034D01*
X147126414Y-111618442D01*
X147009568Y-111595200D01*
X146890432Y-111595200D01*
X146773586Y-111618442D01*
X146663520Y-111664034D01*
X146564463Y-111730221D01*
X146480221Y-111814463D01*
X146414034Y-111913520D01*
X146368442Y-112023586D01*
X146345200Y-112140432D01*
X130404800Y-112140432D01*
X130404800Y-112040432D01*
X130382631Y-111928983D01*
X130486480Y-111885966D01*
X130585537Y-111819779D01*
X130669779Y-111735537D01*
X130735966Y-111636480D01*
X130781558Y-111526414D01*
X130798660Y-111440432D01*
X153145200Y-111440432D01*
X153145200Y-111559568D01*
X153168442Y-111676414D01*
X153214034Y-111786480D01*
X153280221Y-111885537D01*
X153364463Y-111969779D01*
X153463520Y-112035966D01*
X153573586Y-112081558D01*
X153690432Y-112104800D01*
X153809568Y-112104800D01*
X153926414Y-112081558D01*
X154036480Y-112035966D01*
X154135537Y-111969779D01*
X154219779Y-111885537D01*
X154285966Y-111786480D01*
X154331558Y-111676414D01*
X154354800Y-111559568D01*
X154354800Y-111440432D01*
X159445200Y-111440432D01*
X159445200Y-111559568D01*
X159468442Y-111676414D01*
X159514034Y-111786480D01*
X159580221Y-111885537D01*
X159664463Y-111969779D01*
X159763520Y-112035966D01*
X159873586Y-112081558D01*
X159990432Y-112104800D01*
X160109568Y-112104800D01*
X160226414Y-112081558D01*
X160336480Y-112035966D01*
X160435537Y-111969779D01*
X160519779Y-111885537D01*
X160585966Y-111786480D01*
X160631558Y-111676414D01*
X160654800Y-111559568D01*
X160654800Y-111440432D01*
X160631558Y-111323586D01*
X160585966Y-111213520D01*
X160519779Y-111114463D01*
X160435537Y-111030221D01*
X160336480Y-110964034D01*
X160226414Y-110918442D01*
X160109568Y-110895200D01*
X159990432Y-110895200D01*
X159873586Y-110918442D01*
X159763520Y-110964034D01*
X159664463Y-111030221D01*
X159580221Y-111114463D01*
X159514034Y-111213520D01*
X159468442Y-111323586D01*
X159445200Y-111440432D01*
X154354800Y-111440432D01*
X154331558Y-111323586D01*
X154285966Y-111213520D01*
X154219779Y-111114463D01*
X154135537Y-111030221D01*
X154036480Y-110964034D01*
X153926414Y-110918442D01*
X153809568Y-110895200D01*
X153690432Y-110895200D01*
X153573586Y-110918442D01*
X153463520Y-110964034D01*
X153364463Y-111030221D01*
X153280221Y-111114463D01*
X153214034Y-111213520D01*
X153168442Y-111323586D01*
X153145200Y-111440432D01*
X130798660Y-111440432D01*
X130804800Y-111409568D01*
X130804800Y-111290432D01*
X130781558Y-111173586D01*
X130735966Y-111063520D01*
X130669779Y-110964463D01*
X130585537Y-110880221D01*
X130486480Y-110814034D01*
X130376414Y-110768442D01*
X130259568Y-110745200D01*
X130140432Y-110745200D01*
X130023586Y-110768442D01*
X129913520Y-110814034D01*
X129814463Y-110880221D01*
X129730221Y-110964463D01*
X129664034Y-111063520D01*
X129618442Y-111173586D01*
X129595200Y-111290432D01*
X129595200Y-111409568D01*
X129617369Y-111521017D01*
X129513520Y-111564034D01*
X129414463Y-111630221D01*
X129330221Y-111714463D01*
X129264034Y-111813520D01*
X129218442Y-111923586D01*
X129195200Y-112040432D01*
X129129800Y-112040432D01*
X129129800Y-111940432D01*
X129106558Y-111823586D01*
X129060966Y-111713520D01*
X128994779Y-111614463D01*
X128910537Y-111530221D01*
X128811480Y-111464034D01*
X128701414Y-111418442D01*
X128584568Y-111395200D01*
X128479800Y-111395200D01*
X128479800Y-111340432D01*
X128456558Y-111223586D01*
X128410966Y-111113520D01*
X128344779Y-111014463D01*
X128260537Y-110930221D01*
X128161480Y-110864034D01*
X128051414Y-110818442D01*
X127934568Y-110795200D01*
X127815432Y-110795200D01*
X127804800Y-110797315D01*
X127804800Y-110765432D01*
X127781558Y-110648586D01*
X127735966Y-110538520D01*
X127669779Y-110439463D01*
X127585537Y-110355221D01*
X127486480Y-110289034D01*
X127376414Y-110243442D01*
X127259568Y-110220200D01*
X127140432Y-110220200D01*
X127023586Y-110243442D01*
X126913520Y-110289034D01*
X126814463Y-110355221D01*
X126730221Y-110439463D01*
X126664034Y-110538520D01*
X126618442Y-110648586D01*
X126595200Y-110765432D01*
X122951600Y-110765432D01*
X122951600Y-108900432D01*
X124385200Y-108900432D01*
X124385200Y-109019568D01*
X124408442Y-109136414D01*
X124454034Y-109246480D01*
X124520221Y-109345537D01*
X124604463Y-109429779D01*
X124703520Y-109495966D01*
X124813586Y-109541558D01*
X124930432Y-109564800D01*
X125049568Y-109564800D01*
X125166414Y-109541558D01*
X125208379Y-109524175D01*
X125195200Y-109590432D01*
X125195200Y-109709568D01*
X125218442Y-109826414D01*
X125264034Y-109936480D01*
X125330221Y-110035537D01*
X125414463Y-110119779D01*
X125513520Y-110185966D01*
X125623586Y-110231558D01*
X125740432Y-110254800D01*
X125859568Y-110254800D01*
X125976414Y-110231558D01*
X126086480Y-110185966D01*
X126185537Y-110119779D01*
X126269779Y-110035537D01*
X126333325Y-109940432D01*
X129595200Y-109940432D01*
X129595200Y-110059568D01*
X129618442Y-110176414D01*
X129664034Y-110286480D01*
X129730221Y-110385537D01*
X129814463Y-110469779D01*
X129913520Y-110535966D01*
X130023586Y-110581558D01*
X130140432Y-110604800D01*
X130259568Y-110604800D01*
X130376414Y-110581558D01*
X130486480Y-110535966D01*
X130585537Y-110469779D01*
X130669779Y-110385537D01*
X130735966Y-110286480D01*
X130781558Y-110176414D01*
X130804800Y-110059568D01*
X130804800Y-109940432D01*
X130784909Y-109840432D01*
X140145200Y-109840432D01*
X140145200Y-109959568D01*
X140168442Y-110076414D01*
X140214034Y-110186480D01*
X140280221Y-110285537D01*
X140364463Y-110369779D01*
X140463520Y-110435966D01*
X140573586Y-110481558D01*
X140690432Y-110504800D01*
X140809568Y-110504800D01*
X140926414Y-110481558D01*
X141036480Y-110435966D01*
X141135537Y-110369779D01*
X141200000Y-110305316D01*
X141264463Y-110369779D01*
X141363520Y-110435966D01*
X141473586Y-110481558D01*
X141590432Y-110504800D01*
X141709568Y-110504800D01*
X141826414Y-110481558D01*
X141936480Y-110435966D01*
X142035537Y-110369779D01*
X142114884Y-110290432D01*
X146245200Y-110290432D01*
X146245200Y-110409568D01*
X146268442Y-110526414D01*
X146314034Y-110636480D01*
X146380221Y-110735537D01*
X146464463Y-110819779D01*
X146563520Y-110885966D01*
X146673586Y-110931558D01*
X146790432Y-110954800D01*
X146909568Y-110954800D01*
X147026414Y-110931558D01*
X147136480Y-110885966D01*
X147235537Y-110819779D01*
X147319779Y-110735537D01*
X147385966Y-110636480D01*
X147431558Y-110526414D01*
X147454800Y-110409568D01*
X147454800Y-110290432D01*
X147545200Y-110290432D01*
X147545200Y-110409568D01*
X147568442Y-110526414D01*
X147614034Y-110636480D01*
X147680221Y-110735537D01*
X147764463Y-110819779D01*
X147863520Y-110885966D01*
X147973586Y-110931558D01*
X148090432Y-110954800D01*
X148209568Y-110954800D01*
X148326414Y-110931558D01*
X148436480Y-110885966D01*
X148535537Y-110819779D01*
X148619779Y-110735537D01*
X148685966Y-110636480D01*
X148731558Y-110526414D01*
X148754800Y-110409568D01*
X148754800Y-110290432D01*
X148731558Y-110173586D01*
X148685966Y-110063520D01*
X148619779Y-109964463D01*
X148535537Y-109880221D01*
X148436480Y-109814034D01*
X148326414Y-109768442D01*
X148209568Y-109745200D01*
X148090432Y-109745200D01*
X147973586Y-109768442D01*
X147863520Y-109814034D01*
X147764463Y-109880221D01*
X147680221Y-109964463D01*
X147614034Y-110063520D01*
X147568442Y-110173586D01*
X147545200Y-110290432D01*
X147454800Y-110290432D01*
X147431558Y-110173586D01*
X147385966Y-110063520D01*
X147319779Y-109964463D01*
X147235537Y-109880221D01*
X147136480Y-109814034D01*
X147026414Y-109768442D01*
X146909568Y-109745200D01*
X146790432Y-109745200D01*
X146673586Y-109768442D01*
X146563520Y-109814034D01*
X146464463Y-109880221D01*
X146380221Y-109964463D01*
X146314034Y-110063520D01*
X146268442Y-110173586D01*
X146245200Y-110290432D01*
X142114884Y-110290432D01*
X142119779Y-110285537D01*
X142185966Y-110186480D01*
X142231558Y-110076414D01*
X142254800Y-109959568D01*
X142254800Y-109840432D01*
X142231558Y-109723586D01*
X142185966Y-109613520D01*
X142119779Y-109514463D01*
X142035537Y-109430221D01*
X141936480Y-109364034D01*
X141826414Y-109318442D01*
X141709568Y-109295200D01*
X141590432Y-109295200D01*
X141473586Y-109318442D01*
X141363520Y-109364034D01*
X141264463Y-109430221D01*
X141200000Y-109494684D01*
X141135537Y-109430221D01*
X141036480Y-109364034D01*
X140926414Y-109318442D01*
X140809568Y-109295200D01*
X140690432Y-109295200D01*
X140573586Y-109318442D01*
X140463520Y-109364034D01*
X140364463Y-109430221D01*
X140280221Y-109514463D01*
X140214034Y-109613520D01*
X140168442Y-109723586D01*
X140145200Y-109840432D01*
X130784909Y-109840432D01*
X130781558Y-109823586D01*
X130735966Y-109713520D01*
X130669779Y-109614463D01*
X130585537Y-109530221D01*
X130486480Y-109464034D01*
X130376414Y-109418442D01*
X130259568Y-109395200D01*
X130140432Y-109395200D01*
X130023586Y-109418442D01*
X129913520Y-109464034D01*
X129814463Y-109530221D01*
X129730221Y-109614463D01*
X129664034Y-109713520D01*
X129618442Y-109823586D01*
X129595200Y-109940432D01*
X126333325Y-109940432D01*
X126335966Y-109936480D01*
X126381558Y-109826414D01*
X126404800Y-109709568D01*
X126404800Y-109590432D01*
X126381558Y-109473586D01*
X126335966Y-109363520D01*
X126269779Y-109264463D01*
X126185537Y-109180221D01*
X126086480Y-109114034D01*
X125976414Y-109068442D01*
X125859568Y-109045200D01*
X125740432Y-109045200D01*
X125623586Y-109068442D01*
X125581621Y-109085825D01*
X125594800Y-109019568D01*
X125594800Y-108900432D01*
X125571558Y-108783586D01*
X125525966Y-108673520D01*
X125459779Y-108574463D01*
X125425748Y-108540432D01*
X133195200Y-108540432D01*
X133195200Y-108659568D01*
X133218442Y-108776414D01*
X133264034Y-108886480D01*
X133330221Y-108985537D01*
X133414463Y-109069779D01*
X133513520Y-109135966D01*
X133623586Y-109181558D01*
X133740432Y-109204800D01*
X133859568Y-109204800D01*
X133976414Y-109181558D01*
X134086480Y-109135966D01*
X134185537Y-109069779D01*
X134269779Y-108985537D01*
X134335966Y-108886480D01*
X134381558Y-108776414D01*
X134404800Y-108659568D01*
X134404800Y-108540432D01*
X134381558Y-108423586D01*
X134335966Y-108313520D01*
X134269779Y-108214463D01*
X134185537Y-108130221D01*
X134086480Y-108064034D01*
X133976414Y-108018442D01*
X133859568Y-107995200D01*
X133740432Y-107995200D01*
X133623586Y-108018442D01*
X133513520Y-108064034D01*
X133414463Y-108130221D01*
X133330221Y-108214463D01*
X133264034Y-108313520D01*
X133218442Y-108423586D01*
X133195200Y-108540432D01*
X125425748Y-108540432D01*
X125375537Y-108490221D01*
X125276480Y-108424034D01*
X125166414Y-108378442D01*
X125049568Y-108355200D01*
X124930432Y-108355200D01*
X124813586Y-108378442D01*
X124703520Y-108424034D01*
X124604463Y-108490221D01*
X124520221Y-108574463D01*
X124454034Y-108673520D01*
X124408442Y-108783586D01*
X124385200Y-108900432D01*
X122951600Y-108900432D01*
X122951600Y-107825432D01*
X123730200Y-107825432D01*
X123730200Y-107944568D01*
X123753442Y-108061414D01*
X123799034Y-108171480D01*
X123865221Y-108270537D01*
X123949463Y-108354779D01*
X124048520Y-108420966D01*
X124158586Y-108466558D01*
X124275432Y-108489800D01*
X124394568Y-108489800D01*
X124511414Y-108466558D01*
X124621480Y-108420966D01*
X124720537Y-108354779D01*
X124804779Y-108270537D01*
X124870966Y-108171480D01*
X124916558Y-108061414D01*
X124939800Y-107944568D01*
X124939800Y-107825432D01*
X124932839Y-107790432D01*
X126445200Y-107790432D01*
X126445200Y-107909568D01*
X126468442Y-108026414D01*
X126514034Y-108136480D01*
X126580221Y-108235537D01*
X126664463Y-108319779D01*
X126763520Y-108385966D01*
X126873586Y-108431558D01*
X126990432Y-108454800D01*
X127109568Y-108454800D01*
X127226414Y-108431558D01*
X127336480Y-108385966D01*
X127435537Y-108319779D01*
X127519779Y-108235537D01*
X127585966Y-108136480D01*
X127631558Y-108026414D01*
X127654800Y-107909568D01*
X127654800Y-107840432D01*
X129595200Y-107840432D01*
X129595200Y-107959568D01*
X129618442Y-108076414D01*
X129664034Y-108186480D01*
X129730221Y-108285537D01*
X129814463Y-108369779D01*
X129913520Y-108435966D01*
X130023586Y-108481558D01*
X130140432Y-108504800D01*
X130259568Y-108504800D01*
X130376414Y-108481558D01*
X130486480Y-108435966D01*
X130585537Y-108369779D01*
X130669779Y-108285537D01*
X130735966Y-108186480D01*
X130781558Y-108076414D01*
X130804800Y-107959568D01*
X130804800Y-107840432D01*
X130781558Y-107723586D01*
X130735966Y-107613520D01*
X130669779Y-107514463D01*
X130585537Y-107430221D01*
X130486480Y-107364034D01*
X130376414Y-107318442D01*
X130259568Y-107295200D01*
X130140432Y-107295200D01*
X130023586Y-107318442D01*
X129913520Y-107364034D01*
X129814463Y-107430221D01*
X129730221Y-107514463D01*
X129664034Y-107613520D01*
X129618442Y-107723586D01*
X129595200Y-107840432D01*
X127654800Y-107840432D01*
X127654800Y-107790432D01*
X127631558Y-107673586D01*
X127585966Y-107563520D01*
X127519779Y-107464463D01*
X127435537Y-107380221D01*
X127336480Y-107314034D01*
X127226414Y-107268442D01*
X127109568Y-107245200D01*
X126990432Y-107245200D01*
X126873586Y-107268442D01*
X126763520Y-107314034D01*
X126664463Y-107380221D01*
X126580221Y-107464463D01*
X126514034Y-107563520D01*
X126468442Y-107673586D01*
X126445200Y-107790432D01*
X124932839Y-107790432D01*
X124916558Y-107708586D01*
X124870966Y-107598520D01*
X124804779Y-107499463D01*
X124720537Y-107415221D01*
X124621480Y-107349034D01*
X124511414Y-107303442D01*
X124394568Y-107280200D01*
X124275432Y-107280200D01*
X124158586Y-107303442D01*
X124048520Y-107349034D01*
X123949463Y-107415221D01*
X123865221Y-107499463D01*
X123799034Y-107598520D01*
X123753442Y-107708586D01*
X123730200Y-107825432D01*
X122951600Y-107825432D01*
X122951600Y-107240432D01*
X134195200Y-107240432D01*
X134195200Y-107359568D01*
X134218442Y-107476414D01*
X134264034Y-107586480D01*
X134330221Y-107685537D01*
X134414463Y-107769779D01*
X134513520Y-107835966D01*
X134623586Y-107881558D01*
X134740432Y-107904800D01*
X134859568Y-107904800D01*
X134976414Y-107881558D01*
X135086480Y-107835966D01*
X135185537Y-107769779D01*
X135269779Y-107685537D01*
X135335966Y-107586480D01*
X135381558Y-107476414D01*
X135404800Y-107359568D01*
X135404800Y-107240432D01*
X135381558Y-107123586D01*
X135335966Y-107013520D01*
X135269779Y-106914463D01*
X135185537Y-106830221D01*
X135086480Y-106764034D01*
X134976414Y-106718442D01*
X134859568Y-106695200D01*
X134740432Y-106695200D01*
X134623586Y-106718442D01*
X134513520Y-106764034D01*
X134414463Y-106830221D01*
X134330221Y-106914463D01*
X134264034Y-107013520D01*
X134218442Y-107123586D01*
X134195200Y-107240432D01*
X122951600Y-107240432D01*
X122951600Y-106690432D01*
X135795200Y-106690432D01*
X135795200Y-106809568D01*
X135818442Y-106926414D01*
X135864034Y-107036480D01*
X135930221Y-107135537D01*
X136014463Y-107219779D01*
X136097108Y-107275000D01*
X136014463Y-107330221D01*
X135930221Y-107414463D01*
X135864034Y-107513520D01*
X135818442Y-107623586D01*
X135795200Y-107740432D01*
X135795200Y-107859568D01*
X135818442Y-107976414D01*
X135864034Y-108086480D01*
X135930221Y-108185537D01*
X136014463Y-108269779D01*
X136113520Y-108335966D01*
X136223586Y-108381558D01*
X136340432Y-108404800D01*
X136459568Y-108404800D01*
X136576414Y-108381558D01*
X136686480Y-108335966D01*
X136785537Y-108269779D01*
X136869779Y-108185537D01*
X136935966Y-108086480D01*
X136981558Y-107976414D01*
X137004800Y-107859568D01*
X137004800Y-107740432D01*
X136981558Y-107623586D01*
X136935966Y-107513520D01*
X136869779Y-107414463D01*
X136785537Y-107330221D01*
X136702892Y-107275000D01*
X136785537Y-107219779D01*
X136869779Y-107135537D01*
X136935966Y-107036480D01*
X136981558Y-106926414D01*
X137004800Y-106809568D01*
X137004800Y-106690432D01*
X136981558Y-106573586D01*
X136935966Y-106463520D01*
X136869779Y-106364463D01*
X136785537Y-106280221D01*
X136686480Y-106214034D01*
X136576414Y-106168442D01*
X136459568Y-106145200D01*
X136340432Y-106145200D01*
X136223586Y-106168442D01*
X136113520Y-106214034D01*
X136014463Y-106280221D01*
X135930221Y-106364463D01*
X135864034Y-106463520D01*
X135818442Y-106573586D01*
X135795200Y-106690432D01*
X122951600Y-106690432D01*
X122951600Y-105220432D01*
X123315200Y-105220432D01*
X123315200Y-105339568D01*
X123338442Y-105456414D01*
X123384034Y-105566480D01*
X123450221Y-105665537D01*
X123534463Y-105749779D01*
X123633520Y-105815966D01*
X123743586Y-105861558D01*
X123860432Y-105884800D01*
X123979568Y-105884800D01*
X124096414Y-105861558D01*
X124206480Y-105815966D01*
X124305537Y-105749779D01*
X124389779Y-105665537D01*
X124455966Y-105566480D01*
X124501558Y-105456414D01*
X124524628Y-105340432D01*
X125845200Y-105340432D01*
X125845200Y-105459568D01*
X125868442Y-105576414D01*
X125914034Y-105686480D01*
X125980221Y-105785537D01*
X126064463Y-105869779D01*
X126163520Y-105935966D01*
X126273586Y-105981558D01*
X126390432Y-106004800D01*
X126509568Y-106004800D01*
X126626414Y-105981558D01*
X126736480Y-105935966D01*
X126835537Y-105869779D01*
X126919779Y-105785537D01*
X126985966Y-105686480D01*
X127031558Y-105576414D01*
X127054800Y-105459568D01*
X127054800Y-105340432D01*
X127095200Y-105340432D01*
X127095200Y-105459568D01*
X127118442Y-105576414D01*
X127164034Y-105686480D01*
X127230221Y-105785537D01*
X127314463Y-105869779D01*
X127413520Y-105935966D01*
X127523586Y-105981558D01*
X127640432Y-106004800D01*
X127759568Y-106004800D01*
X127876414Y-105981558D01*
X127986480Y-105935966D01*
X128085537Y-105869779D01*
X128169779Y-105785537D01*
X128235966Y-105686480D01*
X128281558Y-105576414D01*
X128304800Y-105459568D01*
X128304800Y-105340432D01*
X128281558Y-105223586D01*
X128267825Y-105190432D01*
X131095200Y-105190432D01*
X131095200Y-105309568D01*
X131118442Y-105426414D01*
X131164034Y-105536480D01*
X131230221Y-105635537D01*
X131314463Y-105719779D01*
X131413520Y-105785966D01*
X131523586Y-105831558D01*
X131640432Y-105854800D01*
X131759568Y-105854800D01*
X131876414Y-105831558D01*
X131986480Y-105785966D01*
X132085537Y-105719779D01*
X132169779Y-105635537D01*
X132235966Y-105536480D01*
X132281558Y-105426414D01*
X132304800Y-105309568D01*
X132304800Y-105190432D01*
X132281558Y-105073586D01*
X132235966Y-104963520D01*
X132169779Y-104864463D01*
X132145748Y-104840432D01*
X138845200Y-104840432D01*
X138845200Y-104959568D01*
X138868442Y-105076414D01*
X138914034Y-105186480D01*
X138980221Y-105285537D01*
X139064463Y-105369779D01*
X139163520Y-105435966D01*
X139273586Y-105481558D01*
X139390432Y-105504800D01*
X139509568Y-105504800D01*
X139626414Y-105481558D01*
X139736480Y-105435966D01*
X139835537Y-105369779D01*
X139900000Y-105305316D01*
X139964463Y-105369779D01*
X140063520Y-105435966D01*
X140173586Y-105481558D01*
X140290432Y-105504800D01*
X140409568Y-105504800D01*
X140526414Y-105481558D01*
X140636480Y-105435966D01*
X140735537Y-105369779D01*
X140819779Y-105285537D01*
X140885966Y-105186480D01*
X140931558Y-105076414D01*
X140954800Y-104959568D01*
X140954800Y-104840432D01*
X140931558Y-104723586D01*
X140885966Y-104613520D01*
X140819779Y-104514463D01*
X140735537Y-104430221D01*
X140636480Y-104364034D01*
X140526414Y-104318442D01*
X140409568Y-104295200D01*
X140290432Y-104295200D01*
X140173586Y-104318442D01*
X140063520Y-104364034D01*
X139964463Y-104430221D01*
X139900000Y-104494684D01*
X139835537Y-104430221D01*
X139736480Y-104364034D01*
X139626414Y-104318442D01*
X139509568Y-104295200D01*
X139390432Y-104295200D01*
X139273586Y-104318442D01*
X139163520Y-104364034D01*
X139064463Y-104430221D01*
X138980221Y-104514463D01*
X138914034Y-104613520D01*
X138868442Y-104723586D01*
X138845200Y-104840432D01*
X132145748Y-104840432D01*
X132085537Y-104780221D01*
X131986480Y-104714034D01*
X131876414Y-104668442D01*
X131759568Y-104645200D01*
X131640432Y-104645200D01*
X131523586Y-104668442D01*
X131413520Y-104714034D01*
X131314463Y-104780221D01*
X131230221Y-104864463D01*
X131164034Y-104963520D01*
X131118442Y-105073586D01*
X131095200Y-105190432D01*
X128267825Y-105190432D01*
X128235966Y-105113520D01*
X128169779Y-105014463D01*
X128085537Y-104930221D01*
X127986480Y-104864034D01*
X127876414Y-104818442D01*
X127759568Y-104795200D01*
X127640432Y-104795200D01*
X127523586Y-104818442D01*
X127413520Y-104864034D01*
X127314463Y-104930221D01*
X127230221Y-105014463D01*
X127164034Y-105113520D01*
X127118442Y-105223586D01*
X127095200Y-105340432D01*
X127054800Y-105340432D01*
X127031558Y-105223586D01*
X126985966Y-105113520D01*
X126919779Y-105014463D01*
X126835537Y-104930221D01*
X126736480Y-104864034D01*
X126626414Y-104818442D01*
X126509568Y-104795200D01*
X126390432Y-104795200D01*
X126273586Y-104818442D01*
X126163520Y-104864034D01*
X126064463Y-104930221D01*
X125980221Y-105014463D01*
X125914034Y-105113520D01*
X125868442Y-105223586D01*
X125845200Y-105340432D01*
X124524628Y-105340432D01*
X124524800Y-105339568D01*
X124524800Y-105220432D01*
X124501558Y-105103586D01*
X124455966Y-104993520D01*
X124389779Y-104894463D01*
X124305537Y-104810221D01*
X124206480Y-104744034D01*
X124096414Y-104698442D01*
X123979568Y-104675200D01*
X123860432Y-104675200D01*
X123743586Y-104698442D01*
X123633520Y-104744034D01*
X123534463Y-104810221D01*
X123450221Y-104894463D01*
X123384034Y-104993520D01*
X123338442Y-105103586D01*
X123315200Y-105220432D01*
X122951600Y-105220432D01*
X122951600Y-102490432D01*
X125395200Y-102490432D01*
X125395200Y-102609568D01*
X125418442Y-102726414D01*
X125464034Y-102836480D01*
X125530221Y-102935537D01*
X125569684Y-102975000D01*
X125530221Y-103014463D01*
X125464034Y-103113520D01*
X125418442Y-103223586D01*
X125395200Y-103340432D01*
X125395200Y-103459568D01*
X125418442Y-103576414D01*
X125464034Y-103686480D01*
X125530221Y-103785537D01*
X125614463Y-103869779D01*
X125706640Y-103931369D01*
X125668442Y-104023586D01*
X125645200Y-104140432D01*
X125645200Y-104259568D01*
X125668442Y-104376414D01*
X125714034Y-104486480D01*
X125780221Y-104585537D01*
X125864463Y-104669779D01*
X125963520Y-104735966D01*
X126073586Y-104781558D01*
X126190432Y-104804800D01*
X126309568Y-104804800D01*
X126426414Y-104781558D01*
X126536480Y-104735966D01*
X126635537Y-104669779D01*
X126719779Y-104585537D01*
X126785966Y-104486480D01*
X126831558Y-104376414D01*
X126854800Y-104259568D01*
X126854800Y-104140432D01*
X126831558Y-104023586D01*
X126785966Y-103913520D01*
X126719779Y-103814463D01*
X126635537Y-103730221D01*
X126543360Y-103668631D01*
X126581558Y-103576414D01*
X126604800Y-103459568D01*
X126604800Y-103340432D01*
X126581558Y-103223586D01*
X126535966Y-103113520D01*
X126469779Y-103014463D01*
X126430316Y-102975000D01*
X126469779Y-102935537D01*
X126535966Y-102836480D01*
X126555040Y-102790432D01*
X127695200Y-102790432D01*
X127695200Y-102909568D01*
X127718442Y-103026414D01*
X127764034Y-103136480D01*
X127830221Y-103235537D01*
X127914463Y-103319779D01*
X127922902Y-103325417D01*
X127864034Y-103413520D01*
X127818442Y-103523586D01*
X127795200Y-103640432D01*
X127795200Y-103759568D01*
X127818442Y-103876414D01*
X127864034Y-103986480D01*
X127930221Y-104085537D01*
X128014463Y-104169779D01*
X128113520Y-104235966D01*
X128223586Y-104281558D01*
X128340432Y-104304800D01*
X128459568Y-104304800D01*
X128576414Y-104281558D01*
X128686480Y-104235966D01*
X128785537Y-104169779D01*
X128869779Y-104085537D01*
X128935966Y-103986480D01*
X128981558Y-103876414D01*
X129004800Y-103759568D01*
X129004800Y-103640432D01*
X128981558Y-103523586D01*
X128935966Y-103413520D01*
X128869779Y-103314463D01*
X128785537Y-103230221D01*
X128777098Y-103224583D01*
X128835966Y-103136480D01*
X128881558Y-103026414D01*
X128904800Y-102909568D01*
X128904800Y-102790432D01*
X128881558Y-102673586D01*
X128880252Y-102670432D01*
X145395200Y-102670432D01*
X145395200Y-102789568D01*
X145418442Y-102906414D01*
X145464034Y-103016480D01*
X145530221Y-103115537D01*
X145614463Y-103199779D01*
X145713520Y-103265966D01*
X145823586Y-103311558D01*
X145940432Y-103334800D01*
X146059568Y-103334800D01*
X146176414Y-103311558D01*
X146286480Y-103265966D01*
X146385537Y-103199779D01*
X146469779Y-103115537D01*
X146535966Y-103016480D01*
X146581558Y-102906414D01*
X146604800Y-102789568D01*
X146604800Y-102670432D01*
X146581558Y-102553586D01*
X146535966Y-102443520D01*
X146469779Y-102344463D01*
X146385537Y-102260221D01*
X146286480Y-102194034D01*
X146176414Y-102148442D01*
X146059568Y-102125200D01*
X145940432Y-102125200D01*
X145823586Y-102148442D01*
X145713520Y-102194034D01*
X145614463Y-102260221D01*
X145530221Y-102344463D01*
X145464034Y-102443520D01*
X145418442Y-102553586D01*
X145395200Y-102670432D01*
X128880252Y-102670432D01*
X128835966Y-102563520D01*
X128769779Y-102464463D01*
X128685537Y-102380221D01*
X128586480Y-102314034D01*
X128476414Y-102268442D01*
X128359568Y-102245200D01*
X128240432Y-102245200D01*
X128123586Y-102268442D01*
X128013520Y-102314034D01*
X127914463Y-102380221D01*
X127830221Y-102464463D01*
X127764034Y-102563520D01*
X127718442Y-102673586D01*
X127695200Y-102790432D01*
X126555040Y-102790432D01*
X126581558Y-102726414D01*
X126604800Y-102609568D01*
X126604800Y-102490432D01*
X126581558Y-102373586D01*
X126535966Y-102263520D01*
X126469779Y-102164463D01*
X126385537Y-102080221D01*
X126286480Y-102014034D01*
X126176414Y-101968442D01*
X126059568Y-101945200D01*
X125940432Y-101945200D01*
X125823586Y-101968442D01*
X125713520Y-102014034D01*
X125614463Y-102080221D01*
X125530221Y-102164463D01*
X125464034Y-102263520D01*
X125418442Y-102373586D01*
X125395200Y-102490432D01*
X122951600Y-102490432D01*
X122951600Y-102150000D01*
X122949648Y-102130179D01*
X122943866Y-102111119D01*
X122934477Y-102093554D01*
X122921842Y-102078158D01*
X122906446Y-102065523D01*
X122888881Y-102056134D01*
X122869821Y-102050352D01*
X122850000Y-102048400D01*
X122571739Y-102048400D01*
X122701617Y-101946071D01*
X122812197Y-101816672D01*
X122895408Y-101668186D01*
X122900238Y-101640432D01*
X136445200Y-101640432D01*
X136445200Y-101759568D01*
X136468442Y-101876414D01*
X136514034Y-101986480D01*
X136580221Y-102085537D01*
X136664463Y-102169779D01*
X136763520Y-102235966D01*
X136873586Y-102281558D01*
X136990432Y-102304800D01*
X137109568Y-102304800D01*
X137226414Y-102281558D01*
X137336480Y-102235966D01*
X137435537Y-102169779D01*
X137519779Y-102085537D01*
X137585966Y-101986480D01*
X137631558Y-101876414D01*
X137654800Y-101759568D01*
X137654800Y-101640432D01*
X137631558Y-101523586D01*
X137585966Y-101413520D01*
X137519779Y-101314463D01*
X137435537Y-101230221D01*
X137336480Y-101164034D01*
X137226414Y-101118442D01*
X137109568Y-101095200D01*
X136990432Y-101095200D01*
X136873586Y-101118442D01*
X136763520Y-101164034D01*
X136664463Y-101230221D01*
X136580221Y-101314463D01*
X136514034Y-101413520D01*
X136468442Y-101523586D01*
X136445200Y-101640432D01*
X122900238Y-101640432D01*
X122906909Y-101602102D01*
X122863539Y-101472400D01*
X121702400Y-101472400D01*
X121702400Y-101492400D01*
X121397600Y-101492400D01*
X121397600Y-101472400D01*
X120236461Y-101472400D01*
X120193091Y-101602102D01*
X120204592Y-101668186D01*
X120287803Y-101816672D01*
X120398383Y-101946071D01*
X120528261Y-102048400D01*
X118771739Y-102048400D01*
X118901617Y-101946071D01*
X119012197Y-101816672D01*
X119095408Y-101668186D01*
X119106909Y-101602102D01*
X119063539Y-101472400D01*
X117902400Y-101472400D01*
X117902400Y-101492400D01*
X117597600Y-101492400D01*
X117597600Y-101472400D01*
X116436461Y-101472400D01*
X116393091Y-101602102D01*
X116404592Y-101668186D01*
X116487803Y-101816672D01*
X116598383Y-101946071D01*
X116728261Y-102048400D01*
X116611279Y-102048400D01*
X116537081Y-101974797D01*
X116444388Y-101861949D01*
X116382724Y-101746948D01*
X116344573Y-101622158D01*
X116329800Y-101476721D01*
X116329800Y-101037898D01*
X116393091Y-101037898D01*
X116436461Y-101167600D01*
X117597600Y-101167600D01*
X117597600Y-100465200D01*
X117902400Y-100465200D01*
X117902400Y-101167600D01*
X119063539Y-101167600D01*
X119106909Y-101037898D01*
X120193091Y-101037898D01*
X120236461Y-101167600D01*
X121397600Y-101167600D01*
X121397600Y-100465200D01*
X121702400Y-100465200D01*
X121702400Y-101167600D01*
X122863539Y-101167600D01*
X122906909Y-101037898D01*
X122895408Y-100971814D01*
X122812197Y-100823328D01*
X122701617Y-100693929D01*
X122567917Y-100588589D01*
X122416235Y-100511357D01*
X122252400Y-100465200D01*
X121702400Y-100465200D01*
X121397600Y-100465200D01*
X120847600Y-100465200D01*
X120683765Y-100511357D01*
X120532083Y-100588589D01*
X120398383Y-100693929D01*
X120287803Y-100823328D01*
X120204592Y-100971814D01*
X120193091Y-101037898D01*
X119106909Y-101037898D01*
X119095408Y-100971814D01*
X119012197Y-100823328D01*
X118901617Y-100693929D01*
X118767917Y-100588589D01*
X118616235Y-100511357D01*
X118452400Y-100465200D01*
X117902400Y-100465200D01*
X117597600Y-100465200D01*
X117047600Y-100465200D01*
X116883765Y-100511357D01*
X116732083Y-100588589D01*
X116598383Y-100693929D01*
X116487803Y-100823328D01*
X116404592Y-100971814D01*
X116393091Y-101037898D01*
X116329800Y-101037898D01*
X116329800Y-99270432D01*
X129045200Y-99270432D01*
X129045200Y-99389568D01*
X129068442Y-99506414D01*
X129114034Y-99616480D01*
X129180221Y-99715537D01*
X129264463Y-99799779D01*
X129363520Y-99865966D01*
X129473586Y-99911558D01*
X129590432Y-99934800D01*
X129709568Y-99934800D01*
X129826414Y-99911558D01*
X129936480Y-99865966D01*
X130035537Y-99799779D01*
X130119779Y-99715537D01*
X130185966Y-99616480D01*
X130231558Y-99506414D01*
X130236696Y-99480583D01*
X130545200Y-99480583D01*
X130545200Y-99619417D01*
X130572285Y-99755583D01*
X130625415Y-99883848D01*
X130702546Y-99999284D01*
X130800716Y-100097454D01*
X130916152Y-100174585D01*
X131044417Y-100227715D01*
X131180583Y-100254800D01*
X131319417Y-100254800D01*
X131455583Y-100227715D01*
X131583848Y-100174585D01*
X131699284Y-100097454D01*
X131716306Y-100080432D01*
X146395200Y-100080432D01*
X146395200Y-100199568D01*
X146418442Y-100316414D01*
X146464034Y-100426480D01*
X146530221Y-100525537D01*
X146614463Y-100609779D01*
X146713520Y-100675966D01*
X146823586Y-100721558D01*
X146940432Y-100744800D01*
X147059568Y-100744800D01*
X147176414Y-100721558D01*
X147286480Y-100675966D01*
X147385537Y-100609779D01*
X147469779Y-100525537D01*
X147535966Y-100426480D01*
X147581558Y-100316414D01*
X147604800Y-100199568D01*
X147604800Y-100080432D01*
X147581558Y-99963586D01*
X147535966Y-99853520D01*
X147469779Y-99754463D01*
X147385537Y-99670221D01*
X147286480Y-99604034D01*
X147176414Y-99558442D01*
X147059568Y-99535200D01*
X146940432Y-99535200D01*
X146823586Y-99558442D01*
X146713520Y-99604034D01*
X146614463Y-99670221D01*
X146530221Y-99754463D01*
X146464034Y-99853520D01*
X146418442Y-99963586D01*
X146395200Y-100080432D01*
X131716306Y-100080432D01*
X131797454Y-99999284D01*
X131874585Y-99883848D01*
X131927715Y-99755583D01*
X131954800Y-99619417D01*
X131954800Y-99480583D01*
X131927715Y-99344417D01*
X131874585Y-99216152D01*
X131797454Y-99100716D01*
X131699284Y-99002546D01*
X131583848Y-98925415D01*
X131455583Y-98872285D01*
X131345721Y-98850432D01*
X144595200Y-98850432D01*
X144595200Y-98969568D01*
X144618442Y-99086414D01*
X144664034Y-99196480D01*
X144730221Y-99295537D01*
X144814463Y-99379779D01*
X144913520Y-99445966D01*
X145023586Y-99491558D01*
X145140432Y-99514800D01*
X145259568Y-99514800D01*
X145376414Y-99491558D01*
X145486480Y-99445966D01*
X145585537Y-99379779D01*
X145669779Y-99295537D01*
X145689983Y-99265299D01*
X145701963Y-99277279D01*
X145801020Y-99343466D01*
X145911086Y-99389058D01*
X146027932Y-99412300D01*
X146147068Y-99412300D01*
X146263914Y-99389058D01*
X146373980Y-99343466D01*
X146473037Y-99277279D01*
X146557279Y-99193037D01*
X146623466Y-99093980D01*
X146669058Y-98983914D01*
X146692300Y-98867068D01*
X146692300Y-98747932D01*
X146669058Y-98631086D01*
X146623466Y-98521020D01*
X146557279Y-98421963D01*
X146473037Y-98337721D01*
X146373980Y-98271534D01*
X146263914Y-98225942D01*
X146147068Y-98202700D01*
X146027932Y-98202700D01*
X145911086Y-98225942D01*
X145801020Y-98271534D01*
X145701963Y-98337721D01*
X145617721Y-98421963D01*
X145597517Y-98452201D01*
X145585537Y-98440221D01*
X145486480Y-98374034D01*
X145376414Y-98328442D01*
X145259568Y-98305200D01*
X145140432Y-98305200D01*
X145023586Y-98328442D01*
X144913520Y-98374034D01*
X144814463Y-98440221D01*
X144730221Y-98524463D01*
X144664034Y-98623520D01*
X144618442Y-98733586D01*
X144595200Y-98850432D01*
X131345721Y-98850432D01*
X131319417Y-98845200D01*
X131180583Y-98845200D01*
X131044417Y-98872285D01*
X130916152Y-98925415D01*
X130800716Y-99002546D01*
X130702546Y-99100716D01*
X130625415Y-99216152D01*
X130572285Y-99344417D01*
X130545200Y-99480583D01*
X130236696Y-99480583D01*
X130254800Y-99389568D01*
X130254800Y-99270432D01*
X130231558Y-99153586D01*
X130185966Y-99043520D01*
X130119779Y-98944463D01*
X130035537Y-98860221D01*
X129936480Y-98794034D01*
X129826414Y-98748442D01*
X129709568Y-98725200D01*
X129590432Y-98725200D01*
X129473586Y-98748442D01*
X129363520Y-98794034D01*
X129264463Y-98860221D01*
X129180221Y-98944463D01*
X129114034Y-99043520D01*
X129068442Y-99153586D01*
X129045200Y-99270432D01*
X116329800Y-99270432D01*
X116329800Y-97840432D01*
X117895200Y-97840432D01*
X117895200Y-97959568D01*
X117918442Y-98076414D01*
X117964034Y-98186480D01*
X118030221Y-98285537D01*
X118114463Y-98369779D01*
X118213520Y-98435966D01*
X118323586Y-98481558D01*
X118440432Y-98504800D01*
X118559568Y-98504800D01*
X118676414Y-98481558D01*
X118786480Y-98435966D01*
X118885537Y-98369779D01*
X118969779Y-98285537D01*
X119035966Y-98186480D01*
X119081558Y-98076414D01*
X119104800Y-97959568D01*
X119104800Y-97840432D01*
X119094855Y-97790432D01*
X133145200Y-97790432D01*
X133145200Y-97909568D01*
X133168442Y-98026414D01*
X133214034Y-98136480D01*
X133280221Y-98235537D01*
X133364463Y-98319779D01*
X133463520Y-98385966D01*
X133573586Y-98431558D01*
X133690432Y-98454800D01*
X133809568Y-98454800D01*
X133926414Y-98431558D01*
X134036480Y-98385966D01*
X134135537Y-98319779D01*
X134219779Y-98235537D01*
X134285966Y-98136480D01*
X134331558Y-98026414D01*
X134354800Y-97909568D01*
X134354800Y-97790432D01*
X134331558Y-97673586D01*
X134285966Y-97563520D01*
X134219779Y-97464463D01*
X134135537Y-97380221D01*
X134036480Y-97314034D01*
X133926414Y-97268442D01*
X133809568Y-97245200D01*
X133690432Y-97245200D01*
X133573586Y-97268442D01*
X133463520Y-97314034D01*
X133364463Y-97380221D01*
X133280221Y-97464463D01*
X133214034Y-97563520D01*
X133168442Y-97673586D01*
X133145200Y-97790432D01*
X119094855Y-97790432D01*
X119081558Y-97723586D01*
X119035966Y-97613520D01*
X118969779Y-97514463D01*
X118885537Y-97430221D01*
X118786480Y-97364034D01*
X118676414Y-97318442D01*
X118559568Y-97295200D01*
X118440432Y-97295200D01*
X118323586Y-97318442D01*
X118213520Y-97364034D01*
X118114463Y-97430221D01*
X118030221Y-97514463D01*
X117964034Y-97613520D01*
X117918442Y-97723586D01*
X117895200Y-97840432D01*
X116329800Y-97840432D01*
X116329800Y-96190432D01*
X141445200Y-96190432D01*
X141445200Y-96309568D01*
X141468442Y-96426414D01*
X141514034Y-96536480D01*
X141580221Y-96635537D01*
X141619684Y-96675000D01*
X141580221Y-96714463D01*
X141514034Y-96813520D01*
X141468442Y-96923586D01*
X141445200Y-97040432D01*
X141445200Y-97159568D01*
X141468442Y-97276414D01*
X141514034Y-97386480D01*
X141580221Y-97485537D01*
X141664463Y-97569779D01*
X141763520Y-97635966D01*
X141873586Y-97681558D01*
X141990432Y-97704800D01*
X142109568Y-97704800D01*
X142226414Y-97681558D01*
X142336480Y-97635966D01*
X142435537Y-97569779D01*
X142519779Y-97485537D01*
X142585966Y-97386480D01*
X142631558Y-97276414D01*
X142654800Y-97159568D01*
X142654800Y-97040432D01*
X142631558Y-96923586D01*
X142585966Y-96813520D01*
X142519779Y-96714463D01*
X142480316Y-96675000D01*
X142519779Y-96635537D01*
X142585966Y-96536480D01*
X142631558Y-96426414D01*
X142654800Y-96309568D01*
X142654800Y-96190432D01*
X142640210Y-96117080D01*
X151610200Y-96117080D01*
X151610201Y-98532070D01*
X151610200Y-98532080D01*
X151610201Y-100982921D01*
X151611825Y-100999414D01*
X151611746Y-101010769D01*
X151612242Y-101015838D01*
X151649371Y-101369094D01*
X151656028Y-101401525D01*
X151662216Y-101433961D01*
X151663687Y-101438836D01*
X151768723Y-101778152D01*
X151781554Y-101808674D01*
X151793923Y-101839289D01*
X151796313Y-101843786D01*
X151798400Y-101847646D01*
X151798400Y-105200000D01*
X151800352Y-105219821D01*
X151806134Y-105238881D01*
X151815523Y-105256446D01*
X151828158Y-105271842D01*
X153128158Y-106571842D01*
X153143554Y-106584477D01*
X153161119Y-106593866D01*
X153180179Y-106599648D01*
X153200000Y-106601600D01*
X156554818Y-106601600D01*
X156570189Y-106609773D01*
X156600738Y-106622364D01*
X156631148Y-106635398D01*
X156636014Y-106636904D01*
X156976055Y-106739568D01*
X157008484Y-106745989D01*
X157040829Y-106752864D01*
X157045894Y-106753397D01*
X157399401Y-106788059D01*
X157417079Y-106789800D01*
X162282921Y-106789800D01*
X162299423Y-106788175D01*
X162310769Y-106788254D01*
X162315838Y-106787758D01*
X162669094Y-106750629D01*
X162701525Y-106743972D01*
X162733961Y-106737784D01*
X162738836Y-106736313D01*
X163078152Y-106631277D01*
X163108674Y-106618446D01*
X163139289Y-106606077D01*
X163143786Y-106603687D01*
X163147646Y-106601600D01*
X166500000Y-106601600D01*
X166519821Y-106599648D01*
X166538881Y-106593866D01*
X166556446Y-106584477D01*
X166571842Y-106571842D01*
X167871842Y-105271842D01*
X167884477Y-105256446D01*
X167893866Y-105238881D01*
X167899648Y-105219821D01*
X167901600Y-105200000D01*
X167901600Y-101845182D01*
X167909773Y-101829811D01*
X167922364Y-101799262D01*
X167935398Y-101768852D01*
X167936904Y-101763986D01*
X168039568Y-101423945D01*
X168045989Y-101391516D01*
X168052864Y-101359171D01*
X168053397Y-101354106D01*
X168088059Y-101000599D01*
X168089800Y-100982921D01*
X168089800Y-96117079D01*
X168088175Y-96100577D01*
X168088254Y-96089231D01*
X168087758Y-96084162D01*
X168050629Y-95730906D01*
X168043972Y-95698475D01*
X168037784Y-95666039D01*
X168036312Y-95661163D01*
X167931277Y-95321848D01*
X167918451Y-95291338D01*
X167906077Y-95260711D01*
X167903687Y-95256214D01*
X167901600Y-95252354D01*
X167901600Y-91900000D01*
X167899648Y-91880179D01*
X167893866Y-91861119D01*
X167884477Y-91843554D01*
X167871842Y-91828158D01*
X166571842Y-90528158D01*
X166556446Y-90515523D01*
X166538881Y-90506134D01*
X166519821Y-90500352D01*
X166500000Y-90498400D01*
X163145182Y-90498400D01*
X163129811Y-90490227D01*
X163099262Y-90477636D01*
X163068852Y-90464602D01*
X163063986Y-90463096D01*
X162723945Y-90360432D01*
X162691501Y-90354008D01*
X162659170Y-90347136D01*
X162654105Y-90346603D01*
X162300599Y-90311941D01*
X162282921Y-90310200D01*
X157417079Y-90310200D01*
X157400577Y-90311825D01*
X157389231Y-90311746D01*
X157384162Y-90312242D01*
X157030906Y-90349371D01*
X156998475Y-90356028D01*
X156966039Y-90362216D01*
X156961163Y-90363688D01*
X156621848Y-90468723D01*
X156591338Y-90481549D01*
X156560711Y-90493923D01*
X156556214Y-90496313D01*
X156552354Y-90498400D01*
X153200000Y-90498400D01*
X153180179Y-90500352D01*
X153161119Y-90506134D01*
X153143554Y-90515523D01*
X153128158Y-90528158D01*
X151828158Y-91828158D01*
X151815523Y-91843554D01*
X151806134Y-91861119D01*
X151800352Y-91880179D01*
X151798400Y-91900000D01*
X151798400Y-95254818D01*
X151790227Y-95270189D01*
X151777636Y-95300738D01*
X151764602Y-95331148D01*
X151763096Y-95336014D01*
X151660432Y-95676055D01*
X151654008Y-95708499D01*
X151647136Y-95740830D01*
X151646603Y-95745895D01*
X151611941Y-96099401D01*
X151610200Y-96117080D01*
X142640210Y-96117080D01*
X142631558Y-96073586D01*
X142585966Y-95963520D01*
X142519779Y-95864463D01*
X142435537Y-95780221D01*
X142336480Y-95714034D01*
X142226414Y-95668442D01*
X142109568Y-95645200D01*
X141990432Y-95645200D01*
X141873586Y-95668442D01*
X141763520Y-95714034D01*
X141664463Y-95780221D01*
X141580221Y-95864463D01*
X141514034Y-95963520D01*
X141468442Y-96073586D01*
X141445200Y-96190432D01*
X116329800Y-96190432D01*
X116329800Y-94240432D01*
X139695200Y-94240432D01*
X139695200Y-94359568D01*
X139718442Y-94476414D01*
X139764034Y-94586480D01*
X139830221Y-94685537D01*
X139844684Y-94700000D01*
X139830221Y-94714463D01*
X139764034Y-94813520D01*
X139718442Y-94923586D01*
X139695200Y-95040432D01*
X139695200Y-95159568D01*
X139718442Y-95276414D01*
X139764034Y-95386480D01*
X139830221Y-95485537D01*
X139914463Y-95569779D01*
X140013520Y-95635966D01*
X140123586Y-95681558D01*
X140240432Y-95704800D01*
X140359568Y-95704800D01*
X140476414Y-95681558D01*
X140586480Y-95635966D01*
X140685537Y-95569779D01*
X140769779Y-95485537D01*
X140835966Y-95386480D01*
X140881558Y-95276414D01*
X140883812Y-95265083D01*
X140923586Y-95281558D01*
X141040432Y-95304800D01*
X141159568Y-95304800D01*
X141276414Y-95281558D01*
X141386480Y-95235966D01*
X141419364Y-95213994D01*
X141439034Y-95261480D01*
X141505221Y-95360537D01*
X141589463Y-95444779D01*
X141688520Y-95510966D01*
X141798586Y-95556558D01*
X141915432Y-95579800D01*
X142034568Y-95579800D01*
X142151414Y-95556558D01*
X142261480Y-95510966D01*
X142360537Y-95444779D01*
X142444779Y-95360537D01*
X142510966Y-95261480D01*
X142556558Y-95151414D01*
X142579800Y-95034568D01*
X142579800Y-94915432D01*
X142556558Y-94798586D01*
X142510966Y-94688520D01*
X142444779Y-94589463D01*
X142360537Y-94505221D01*
X142261480Y-94439034D01*
X142151414Y-94393442D01*
X142034568Y-94370200D01*
X141915432Y-94370200D01*
X141798586Y-94393442D01*
X141688520Y-94439034D01*
X141655636Y-94461006D01*
X141635966Y-94413520D01*
X141569779Y-94314463D01*
X141555316Y-94300000D01*
X141569779Y-94285537D01*
X141635966Y-94186480D01*
X141681558Y-94076414D01*
X141704800Y-93959568D01*
X141704800Y-93840432D01*
X141681558Y-93723586D01*
X141635966Y-93613520D01*
X141569779Y-93514463D01*
X141485537Y-93430221D01*
X141386480Y-93364034D01*
X141276414Y-93318442D01*
X141159568Y-93295200D01*
X141040432Y-93295200D01*
X140923586Y-93318442D01*
X140813520Y-93364034D01*
X140714463Y-93430221D01*
X140630221Y-93514463D01*
X140564034Y-93613520D01*
X140518442Y-93723586D01*
X140516188Y-93734917D01*
X140476414Y-93718442D01*
X140359568Y-93695200D01*
X140240432Y-93695200D01*
X140123586Y-93718442D01*
X140013520Y-93764034D01*
X139914463Y-93830221D01*
X139830221Y-93914463D01*
X139764034Y-94013520D01*
X139718442Y-94123586D01*
X139695200Y-94240432D01*
X116329800Y-94240432D01*
X116329800Y-92962102D01*
X116393091Y-92962102D01*
X116404592Y-93028186D01*
X116487803Y-93176672D01*
X116598383Y-93306071D01*
X116732083Y-93411411D01*
X116883765Y-93488643D01*
X117047600Y-93534800D01*
X117597600Y-93534800D01*
X117597600Y-92832400D01*
X117902400Y-92832400D01*
X117902400Y-93534800D01*
X118452400Y-93534800D01*
X118616235Y-93488643D01*
X118767917Y-93411411D01*
X118901617Y-93306071D01*
X119012197Y-93176672D01*
X119095408Y-93028186D01*
X119106909Y-92962102D01*
X120193091Y-92962102D01*
X120204592Y-93028186D01*
X120287803Y-93176672D01*
X120398383Y-93306071D01*
X120532083Y-93411411D01*
X120683765Y-93488643D01*
X120847600Y-93534800D01*
X121397600Y-93534800D01*
X121397600Y-92832400D01*
X121702400Y-92832400D01*
X121702400Y-93534800D01*
X122252400Y-93534800D01*
X122416235Y-93488643D01*
X122567917Y-93411411D01*
X122701617Y-93306071D01*
X122801169Y-93189577D01*
X122818442Y-93276414D01*
X122864034Y-93386480D01*
X122930221Y-93485537D01*
X123014463Y-93569779D01*
X123113520Y-93635966D01*
X123223586Y-93681558D01*
X123340432Y-93704800D01*
X123459568Y-93704800D01*
X123576414Y-93681558D01*
X123686480Y-93635966D01*
X123785537Y-93569779D01*
X123869779Y-93485537D01*
X123935966Y-93386480D01*
X123981558Y-93276414D01*
X124004800Y-93159568D01*
X124004800Y-93040432D01*
X123981558Y-92923586D01*
X123935966Y-92813520D01*
X123869779Y-92714463D01*
X123785537Y-92630221D01*
X123686480Y-92564034D01*
X123576414Y-92518442D01*
X123459568Y-92495200D01*
X123340432Y-92495200D01*
X123223586Y-92518442D01*
X123113520Y-92564034D01*
X123014463Y-92630221D01*
X122930221Y-92714463D01*
X122864034Y-92813520D01*
X122856213Y-92832400D01*
X121702400Y-92832400D01*
X121397600Y-92832400D01*
X120236461Y-92832400D01*
X120193091Y-92962102D01*
X119106909Y-92962102D01*
X119063539Y-92832400D01*
X117902400Y-92832400D01*
X117597600Y-92832400D01*
X116436461Y-92832400D01*
X116393091Y-92962102D01*
X116329800Y-92962102D01*
X116329800Y-92526130D01*
X116342373Y-92397898D01*
X116393091Y-92397898D01*
X116436461Y-92527600D01*
X117597600Y-92527600D01*
X117597600Y-91825200D01*
X117902400Y-91825200D01*
X117902400Y-92527600D01*
X119063539Y-92527600D01*
X119106909Y-92397898D01*
X120193091Y-92397898D01*
X120236461Y-92527600D01*
X121397600Y-92527600D01*
X121397600Y-91825200D01*
X121702400Y-91825200D01*
X121702400Y-92527600D01*
X122863539Y-92527600D01*
X122906909Y-92397898D01*
X122895408Y-92331814D01*
X122812197Y-92183328D01*
X122701617Y-92053929D01*
X122567917Y-91948589D01*
X122416235Y-91871357D01*
X122252400Y-91825200D01*
X121702400Y-91825200D01*
X121397600Y-91825200D01*
X120847600Y-91825200D01*
X120683765Y-91871357D01*
X120532083Y-91948589D01*
X120398383Y-92053929D01*
X120287803Y-92183328D01*
X120204592Y-92331814D01*
X120193091Y-92397898D01*
X119106909Y-92397898D01*
X119095408Y-92331814D01*
X119012197Y-92183328D01*
X118901617Y-92053929D01*
X118767917Y-91948589D01*
X118616235Y-91871357D01*
X118452400Y-91825200D01*
X117902400Y-91825200D01*
X117597600Y-91825200D01*
X117047600Y-91825200D01*
X116883765Y-91871357D01*
X116732083Y-91948589D01*
X116598383Y-92053929D01*
X116487803Y-92183328D01*
X116404592Y-92331814D01*
X116393091Y-92397898D01*
X116342373Y-92397898D01*
X116344116Y-92380132D01*
X116381832Y-92255208D01*
X116443092Y-92139994D01*
X116535153Y-92027116D01*
X117086248Y-91480432D01*
X131945200Y-91480432D01*
X131945200Y-91599568D01*
X131968442Y-91716414D01*
X132014034Y-91826480D01*
X132080221Y-91925537D01*
X132164463Y-92009779D01*
X132263520Y-92075966D01*
X132373586Y-92121558D01*
X132490432Y-92144800D01*
X132498255Y-92144800D01*
X132485200Y-92210432D01*
X132485200Y-92329568D01*
X132508442Y-92446414D01*
X132554034Y-92556480D01*
X132620221Y-92655537D01*
X132704463Y-92739779D01*
X132803520Y-92805966D01*
X132913586Y-92851558D01*
X133030432Y-92874800D01*
X133149568Y-92874800D01*
X133266414Y-92851558D01*
X133376480Y-92805966D01*
X133475537Y-92739779D01*
X133559779Y-92655537D01*
X133625966Y-92556480D01*
X133671558Y-92446414D01*
X133694800Y-92329568D01*
X133694800Y-92210432D01*
X133671558Y-92093586D01*
X133625966Y-91983520D01*
X133559779Y-91884463D01*
X133475537Y-91800221D01*
X133376480Y-91734034D01*
X133266414Y-91688442D01*
X133149568Y-91665200D01*
X133141745Y-91665200D01*
X133154800Y-91599568D01*
X133154800Y-91480432D01*
X133131558Y-91363586D01*
X133085966Y-91253520D01*
X133019779Y-91154463D01*
X132935537Y-91070221D01*
X132836480Y-91004034D01*
X132726414Y-90958442D01*
X132609568Y-90935200D01*
X132490432Y-90935200D01*
X132373586Y-90958442D01*
X132263520Y-91004034D01*
X132164463Y-91070221D01*
X132080221Y-91154463D01*
X132014034Y-91253520D01*
X131968442Y-91363586D01*
X131945200Y-91480432D01*
X117086248Y-91480432D01*
X117950868Y-90622735D01*
X117960057Y-90611630D01*
X117962212Y-90609519D01*
X117965148Y-90605970D01*
X118088498Y-90454728D01*
X118105042Y-90429828D01*
X118121927Y-90405167D01*
X118124114Y-90401121D01*
X118124117Y-90401117D01*
X118124119Y-90401113D01*
X118215742Y-90228794D01*
X118227127Y-90201173D01*
X118231730Y-90190432D01*
X136045200Y-90190432D01*
X136045200Y-90309568D01*
X136068442Y-90426414D01*
X136114034Y-90536480D01*
X136180221Y-90635537D01*
X136264463Y-90719779D01*
X136363520Y-90785966D01*
X136473586Y-90831558D01*
X136590432Y-90854800D01*
X136709568Y-90854800D01*
X136826414Y-90831558D01*
X136936480Y-90785966D01*
X137035537Y-90719779D01*
X137119779Y-90635537D01*
X137185966Y-90536480D01*
X137231558Y-90426414D01*
X137254800Y-90309568D01*
X137254800Y-90190432D01*
X137231558Y-90073586D01*
X137185966Y-89963520D01*
X137170540Y-89940432D01*
X139695200Y-89940432D01*
X139695200Y-90059568D01*
X139718442Y-90176414D01*
X139764034Y-90286480D01*
X139830221Y-90385537D01*
X139844684Y-90400000D01*
X139830221Y-90414463D01*
X139764034Y-90513520D01*
X139718442Y-90623586D01*
X139695200Y-90740432D01*
X139695200Y-90859568D01*
X139718442Y-90976414D01*
X139764034Y-91086480D01*
X139830221Y-91185537D01*
X139914463Y-91269779D01*
X140013520Y-91335966D01*
X140123586Y-91381558D01*
X140240432Y-91404800D01*
X140359568Y-91404800D01*
X140476414Y-91381558D01*
X140516188Y-91365083D01*
X140518442Y-91376414D01*
X140564034Y-91486480D01*
X140630221Y-91585537D01*
X140714463Y-91669779D01*
X140813520Y-91735966D01*
X140923586Y-91781558D01*
X141040432Y-91804800D01*
X141159568Y-91804800D01*
X141276414Y-91781558D01*
X141386480Y-91735966D01*
X141485537Y-91669779D01*
X141569779Y-91585537D01*
X141635966Y-91486480D01*
X141681558Y-91376414D01*
X141704800Y-91259568D01*
X141704800Y-91140432D01*
X141681558Y-91023586D01*
X141635966Y-90913520D01*
X141569779Y-90814463D01*
X141555316Y-90800000D01*
X141569779Y-90785537D01*
X141635966Y-90686480D01*
X141681558Y-90576414D01*
X141704800Y-90459568D01*
X141704800Y-90340432D01*
X141681558Y-90223586D01*
X141635966Y-90113520D01*
X141569779Y-90014463D01*
X141485537Y-89930221D01*
X141386480Y-89864034D01*
X141276414Y-89818442D01*
X141159568Y-89795200D01*
X141040432Y-89795200D01*
X140923586Y-89818442D01*
X140883812Y-89834917D01*
X140881558Y-89823586D01*
X140835966Y-89713520D01*
X140820540Y-89690432D01*
X166815200Y-89690432D01*
X166815200Y-89809568D01*
X166838442Y-89926414D01*
X166884034Y-90036480D01*
X166950221Y-90135537D01*
X167034463Y-90219779D01*
X167133520Y-90285966D01*
X167243586Y-90331558D01*
X167360432Y-90354800D01*
X167479568Y-90354800D01*
X167596414Y-90331558D01*
X167706480Y-90285966D01*
X167805537Y-90219779D01*
X167889779Y-90135537D01*
X167955966Y-90036480D01*
X168001558Y-89926414D01*
X168024800Y-89809568D01*
X168024800Y-89690432D01*
X168001558Y-89573586D01*
X167955966Y-89463520D01*
X167889779Y-89364463D01*
X167805537Y-89280221D01*
X167706480Y-89214034D01*
X167596414Y-89168442D01*
X167479568Y-89145200D01*
X167360432Y-89145200D01*
X167243586Y-89168442D01*
X167133520Y-89214034D01*
X167034463Y-89280221D01*
X166950221Y-89364463D01*
X166884034Y-89463520D01*
X166838442Y-89573586D01*
X166815200Y-89690432D01*
X140820540Y-89690432D01*
X140769779Y-89614463D01*
X140685537Y-89530221D01*
X140586480Y-89464034D01*
X140476414Y-89418442D01*
X140359568Y-89395200D01*
X140240432Y-89395200D01*
X140123586Y-89418442D01*
X140013520Y-89464034D01*
X139914463Y-89530221D01*
X139830221Y-89614463D01*
X139764034Y-89713520D01*
X139718442Y-89823586D01*
X139695200Y-89940432D01*
X137170540Y-89940432D01*
X137119779Y-89864463D01*
X137035537Y-89780221D01*
X136936480Y-89714034D01*
X136826414Y-89668442D01*
X136709568Y-89645200D01*
X136590432Y-89645200D01*
X136473586Y-89668442D01*
X136363520Y-89714034D01*
X136264463Y-89780221D01*
X136180221Y-89864463D01*
X136114034Y-89963520D01*
X136068442Y-90073586D01*
X136045200Y-90190432D01*
X118231730Y-90190432D01*
X118238908Y-90173685D01*
X118240270Y-90169286D01*
X118296679Y-89982449D01*
X118302482Y-89953141D01*
X118308700Y-89923890D01*
X118309181Y-89919310D01*
X118328226Y-89725077D01*
X118328226Y-89725066D01*
X118329800Y-89709086D01*
X118329800Y-88361639D01*
X120095200Y-88361639D01*
X120095200Y-88638361D01*
X120149186Y-88909765D01*
X120255083Y-89165422D01*
X120408821Y-89395508D01*
X120604492Y-89591179D01*
X120834578Y-89744917D01*
X121090235Y-89850814D01*
X121361639Y-89904800D01*
X121638361Y-89904800D01*
X121909765Y-89850814D01*
X122165422Y-89744917D01*
X122395508Y-89591179D01*
X122591179Y-89395508D01*
X122744917Y-89165422D01*
X122850814Y-88909765D01*
X122904800Y-88638361D01*
X122904800Y-88361639D01*
X122850814Y-88090235D01*
X122744917Y-87834578D01*
X122591179Y-87604492D01*
X122395508Y-87408821D01*
X122165422Y-87255083D01*
X121909765Y-87149186D01*
X121638361Y-87095200D01*
X121361639Y-87095200D01*
X121090235Y-87149186D01*
X120834578Y-87255083D01*
X120604492Y-87408821D01*
X120408821Y-87604492D01*
X120255083Y-87834578D01*
X120149186Y-88090235D01*
X120095200Y-88361639D01*
X118329800Y-88361639D01*
X118329800Y-86398272D01*
X129800200Y-86398272D01*
X129800200Y-86561728D01*
X129832089Y-86722044D01*
X129894641Y-86873058D01*
X129985452Y-87008967D01*
X130091485Y-87115000D01*
X129985452Y-87221033D01*
X129894641Y-87356942D01*
X129832089Y-87507956D01*
X129800200Y-87668272D01*
X129800200Y-87831728D01*
X129832089Y-87992044D01*
X129894641Y-88143058D01*
X129985452Y-88278967D01*
X130091485Y-88385000D01*
X129985452Y-88491033D01*
X129894641Y-88626942D01*
X129832089Y-88777956D01*
X129800200Y-88938272D01*
X129800200Y-89101728D01*
X129832089Y-89262044D01*
X129894641Y-89413058D01*
X129985452Y-89548967D01*
X130101033Y-89664548D01*
X130236942Y-89755359D01*
X130387956Y-89817911D01*
X130548272Y-89849800D01*
X130711728Y-89849800D01*
X130872044Y-89817911D01*
X131023058Y-89755359D01*
X131158967Y-89664548D01*
X131265000Y-89558515D01*
X131371033Y-89664548D01*
X131506942Y-89755359D01*
X131657956Y-89817911D01*
X131818272Y-89849800D01*
X131981728Y-89849800D01*
X132142044Y-89817911D01*
X132293058Y-89755359D01*
X132428967Y-89664548D01*
X132544548Y-89548967D01*
X132635359Y-89413058D01*
X132697911Y-89262044D01*
X132729800Y-89101728D01*
X132729800Y-88938272D01*
X132697911Y-88777956D01*
X132635359Y-88626942D01*
X132544548Y-88491033D01*
X132438515Y-88385000D01*
X132544548Y-88278967D01*
X132635359Y-88143058D01*
X132697911Y-87992044D01*
X132729800Y-87831728D01*
X132729800Y-87668272D01*
X132697911Y-87507956D01*
X132635359Y-87356942D01*
X132544548Y-87221033D01*
X132438515Y-87115000D01*
X132544548Y-87008967D01*
X132623750Y-86890432D01*
X141345200Y-86890432D01*
X141345200Y-87009568D01*
X141368442Y-87126414D01*
X141414034Y-87236480D01*
X141480221Y-87335537D01*
X141564463Y-87419779D01*
X141663520Y-87485966D01*
X141773586Y-87531558D01*
X141890432Y-87554800D01*
X142009568Y-87554800D01*
X142126414Y-87531558D01*
X142236480Y-87485966D01*
X142335537Y-87419779D01*
X142419779Y-87335537D01*
X142485966Y-87236480D01*
X142531558Y-87126414D01*
X142554800Y-87009568D01*
X142554800Y-86890432D01*
X142531558Y-86773586D01*
X142485966Y-86663520D01*
X142419779Y-86564463D01*
X142335537Y-86480221D01*
X142236480Y-86414034D01*
X142126414Y-86368442D01*
X142009568Y-86345200D01*
X141890432Y-86345200D01*
X141773586Y-86368442D01*
X141663520Y-86414034D01*
X141564463Y-86480221D01*
X141480221Y-86564463D01*
X141414034Y-86663520D01*
X141368442Y-86773586D01*
X141345200Y-86890432D01*
X132623750Y-86890432D01*
X132635359Y-86873058D01*
X132697911Y-86722044D01*
X132729800Y-86561728D01*
X132729800Y-86398272D01*
X132697911Y-86237956D01*
X132635359Y-86086942D01*
X132544548Y-85951033D01*
X132428967Y-85835452D01*
X132293058Y-85744641D01*
X132166828Y-85692355D01*
X131900000Y-85425526D01*
X131633172Y-85692355D01*
X131506942Y-85744641D01*
X131371033Y-85835452D01*
X131265000Y-85941485D01*
X131158967Y-85835452D01*
X131023058Y-85744641D01*
X130896828Y-85692355D01*
X130630000Y-85425526D01*
X130363172Y-85692355D01*
X130236942Y-85744641D01*
X130101033Y-85835452D01*
X129985452Y-85951033D01*
X129894641Y-86086942D01*
X129832089Y-86237956D01*
X129800200Y-86398272D01*
X118329800Y-86398272D01*
X118329800Y-85170432D01*
X119415200Y-85170432D01*
X119415200Y-85289568D01*
X119438442Y-85406414D01*
X119484034Y-85516480D01*
X119550221Y-85615537D01*
X119634463Y-85699779D01*
X119733520Y-85765966D01*
X119843586Y-85811558D01*
X119960432Y-85834800D01*
X120079568Y-85834800D01*
X120196414Y-85811558D01*
X120306480Y-85765966D01*
X120405537Y-85699779D01*
X120489779Y-85615537D01*
X120555966Y-85516480D01*
X120601558Y-85406414D01*
X120624800Y-85289568D01*
X120624800Y-85170432D01*
X120624082Y-85166818D01*
X129797304Y-85166818D01*
X129804880Y-85330099D01*
X129844165Y-85488765D01*
X129877214Y-85568554D01*
X129997472Y-85627001D01*
X130414474Y-85210000D01*
X130845526Y-85210000D01*
X131110833Y-85475306D01*
X131114165Y-85488765D01*
X131147214Y-85568554D01*
X131257853Y-85622326D01*
X131262528Y-85627001D01*
X131265000Y-85625800D01*
X131267472Y-85627001D01*
X131272147Y-85622326D01*
X131382786Y-85568554D01*
X131414896Y-85479577D01*
X131684474Y-85210000D01*
X132115526Y-85210000D01*
X132532528Y-85627001D01*
X132652786Y-85568554D01*
X132708272Y-85414803D01*
X132732696Y-85253182D01*
X132725120Y-85089901D01*
X132685835Y-84931235D01*
X132652786Y-84851446D01*
X132532528Y-84792999D01*
X132115526Y-85210000D01*
X131684474Y-85210000D01*
X131419167Y-84944694D01*
X131415835Y-84931235D01*
X131382786Y-84851446D01*
X131272147Y-84797674D01*
X131267472Y-84792999D01*
X131265000Y-84794200D01*
X131262528Y-84792999D01*
X131257853Y-84797674D01*
X131147214Y-84851446D01*
X131115104Y-84940423D01*
X130845526Y-85210000D01*
X130414474Y-85210000D01*
X129997472Y-84792999D01*
X129877214Y-84851446D01*
X129821728Y-85005197D01*
X129797304Y-85166818D01*
X120624082Y-85166818D01*
X120601558Y-85053586D01*
X120555966Y-84943520D01*
X120489779Y-84844463D01*
X120405537Y-84760221D01*
X120306480Y-84694034D01*
X120196414Y-84648442D01*
X120079568Y-84625200D01*
X119960432Y-84625200D01*
X119843586Y-84648442D01*
X119733520Y-84694034D01*
X119634463Y-84760221D01*
X119550221Y-84844463D01*
X119484034Y-84943520D01*
X119438442Y-85053586D01*
X119415200Y-85170432D01*
X118329800Y-85170432D01*
X118329800Y-83858272D01*
X129800200Y-83858272D01*
X129800200Y-84021728D01*
X129832089Y-84182044D01*
X129894641Y-84333058D01*
X129985452Y-84468967D01*
X130101033Y-84584548D01*
X130236942Y-84675359D01*
X130363172Y-84727645D01*
X130630000Y-84994474D01*
X130896828Y-84727645D01*
X131023058Y-84675359D01*
X131158967Y-84584548D01*
X131265000Y-84478515D01*
X131371033Y-84584548D01*
X131506942Y-84675359D01*
X131633172Y-84727645D01*
X131900000Y-84994474D01*
X132166828Y-84727645D01*
X132293058Y-84675359D01*
X132428967Y-84584548D01*
X132544548Y-84468967D01*
X132630431Y-84340432D01*
X153395200Y-84340432D01*
X153395200Y-84459568D01*
X153418442Y-84576414D01*
X153464034Y-84686480D01*
X153530221Y-84785537D01*
X153614463Y-84869779D01*
X153713520Y-84935966D01*
X153823586Y-84981558D01*
X153940432Y-85004800D01*
X154059568Y-85004800D01*
X154176414Y-84981558D01*
X154286480Y-84935966D01*
X154385537Y-84869779D01*
X154469779Y-84785537D01*
X154535966Y-84686480D01*
X154581558Y-84576414D01*
X154604800Y-84459568D01*
X154604800Y-84340432D01*
X154581558Y-84223586D01*
X154535966Y-84113520D01*
X154469779Y-84014463D01*
X154385537Y-83930221D01*
X154286480Y-83864034D01*
X154176414Y-83818442D01*
X154059568Y-83795200D01*
X153940432Y-83795200D01*
X153823586Y-83818442D01*
X153713520Y-83864034D01*
X153614463Y-83930221D01*
X153530221Y-84014463D01*
X153464034Y-84113520D01*
X153418442Y-84223586D01*
X153395200Y-84340432D01*
X132630431Y-84340432D01*
X132635359Y-84333058D01*
X132697911Y-84182044D01*
X132729800Y-84021728D01*
X132729800Y-83858272D01*
X132697911Y-83697956D01*
X132635359Y-83546942D01*
X132544548Y-83411033D01*
X132428967Y-83295452D01*
X132293058Y-83204641D01*
X132240100Y-83182705D01*
X132346414Y-83161558D01*
X132456480Y-83115966D01*
X132555537Y-83049779D01*
X132639779Y-82965537D01*
X132705966Y-82866480D01*
X132751558Y-82756414D01*
X132774800Y-82639568D01*
X132774800Y-82520432D01*
X132751558Y-82403586D01*
X132705966Y-82293520D01*
X132639779Y-82194463D01*
X132555537Y-82110221D01*
X132456480Y-82044034D01*
X132346414Y-81998442D01*
X132229568Y-81975200D01*
X132110432Y-81975200D01*
X131993586Y-81998442D01*
X131883520Y-82044034D01*
X131784463Y-82110221D01*
X131700221Y-82194463D01*
X131634034Y-82293520D01*
X131588442Y-82403586D01*
X131565200Y-82520432D01*
X131565200Y-82639568D01*
X131588442Y-82756414D01*
X131634034Y-82866480D01*
X131700221Y-82965537D01*
X131784463Y-83049779D01*
X131874890Y-83110200D01*
X131818272Y-83110200D01*
X131657956Y-83142089D01*
X131506942Y-83204641D01*
X131371033Y-83295452D01*
X131265000Y-83401485D01*
X131158967Y-83295452D01*
X131023058Y-83204641D01*
X130872044Y-83142089D01*
X130711728Y-83110200D01*
X130548272Y-83110200D01*
X130387956Y-83142089D01*
X130236942Y-83204641D01*
X130101033Y-83295452D01*
X129985452Y-83411033D01*
X129894641Y-83546942D01*
X129832089Y-83697956D01*
X129800200Y-83858272D01*
X118329800Y-83858272D01*
X118329800Y-80770432D01*
X124995200Y-80770432D01*
X124995200Y-80889568D01*
X125018442Y-81006414D01*
X125064034Y-81116480D01*
X125130221Y-81215537D01*
X125214463Y-81299779D01*
X125313520Y-81365966D01*
X125423586Y-81411558D01*
X125540432Y-81434800D01*
X125646241Y-81434800D01*
X125668442Y-81546414D01*
X125714034Y-81656480D01*
X125780221Y-81755537D01*
X125864463Y-81839779D01*
X125963520Y-81905966D01*
X126073586Y-81951558D01*
X126190432Y-81974800D01*
X126309568Y-81974800D01*
X126426414Y-81951558D01*
X126536480Y-81905966D01*
X126635537Y-81839779D01*
X126719779Y-81755537D01*
X126785966Y-81656480D01*
X126831558Y-81546414D01*
X126854800Y-81429568D01*
X126854800Y-81310432D01*
X126831558Y-81193586D01*
X126785966Y-81083520D01*
X126719779Y-80984463D01*
X126635537Y-80900221D01*
X126536480Y-80834034D01*
X126426414Y-80788442D01*
X126309568Y-80765200D01*
X126203759Y-80765200D01*
X126181558Y-80653586D01*
X126135966Y-80543520D01*
X126069779Y-80444463D01*
X126065748Y-80440432D01*
X134895200Y-80440432D01*
X134895200Y-80559568D01*
X134918442Y-80676414D01*
X134964034Y-80786480D01*
X135030221Y-80885537D01*
X135114463Y-80969779D01*
X135213520Y-81035966D01*
X135323586Y-81081558D01*
X135440432Y-81104800D01*
X135559568Y-81104800D01*
X135676414Y-81081558D01*
X135786480Y-81035966D01*
X135885537Y-80969779D01*
X135969779Y-80885537D01*
X136035966Y-80786480D01*
X136081558Y-80676414D01*
X136104800Y-80559568D01*
X136104800Y-80440432D01*
X136081558Y-80323586D01*
X136067825Y-80290432D01*
X147495200Y-80290432D01*
X147495200Y-80409568D01*
X147518442Y-80526414D01*
X147564034Y-80636480D01*
X147630221Y-80735537D01*
X147644684Y-80750000D01*
X147630221Y-80764463D01*
X147564034Y-80863520D01*
X147518442Y-80973586D01*
X147495200Y-81090432D01*
X147495200Y-81209568D01*
X147518442Y-81326414D01*
X147564034Y-81436480D01*
X147630221Y-81535537D01*
X147714463Y-81619779D01*
X147813520Y-81685966D01*
X147923586Y-81731558D01*
X148040432Y-81754800D01*
X148159568Y-81754800D01*
X148276414Y-81731558D01*
X148386480Y-81685966D01*
X148485537Y-81619779D01*
X148569779Y-81535537D01*
X148635966Y-81436480D01*
X148681558Y-81326414D01*
X148704800Y-81209568D01*
X148704800Y-81090432D01*
X148681558Y-80973586D01*
X148635966Y-80863520D01*
X148569779Y-80764463D01*
X148555316Y-80750000D01*
X148569779Y-80735537D01*
X148635966Y-80636480D01*
X148678983Y-80532631D01*
X148790432Y-80554800D01*
X148909568Y-80554800D01*
X149026414Y-80531558D01*
X149136480Y-80485966D01*
X149235537Y-80419779D01*
X149250000Y-80405316D01*
X149264463Y-80419779D01*
X149363520Y-80485966D01*
X149473586Y-80531558D01*
X149590432Y-80554800D01*
X149709568Y-80554800D01*
X149826414Y-80531558D01*
X149936480Y-80485966D01*
X150004627Y-80440432D01*
X151745200Y-80440432D01*
X151745200Y-80559568D01*
X151768442Y-80676414D01*
X151814034Y-80786480D01*
X151880221Y-80885537D01*
X151964463Y-80969779D01*
X152063520Y-81035966D01*
X152173586Y-81081558D01*
X152290432Y-81104800D01*
X152409568Y-81104800D01*
X152526414Y-81081558D01*
X152636480Y-81035966D01*
X152735537Y-80969779D01*
X152819779Y-80885537D01*
X152885966Y-80786480D01*
X152931558Y-80676414D01*
X152954800Y-80559568D01*
X152954800Y-80440432D01*
X152931558Y-80323586D01*
X152885966Y-80213520D01*
X152819779Y-80114463D01*
X152735537Y-80030221D01*
X152636480Y-79964034D01*
X152526414Y-79918442D01*
X152409568Y-79895200D01*
X152290432Y-79895200D01*
X152173586Y-79918442D01*
X152063520Y-79964034D01*
X151964463Y-80030221D01*
X151880221Y-80114463D01*
X151814034Y-80213520D01*
X151768442Y-80323586D01*
X151745200Y-80440432D01*
X150004627Y-80440432D01*
X150035537Y-80419779D01*
X150119779Y-80335537D01*
X150185966Y-80236480D01*
X150231558Y-80126414D01*
X150254800Y-80009568D01*
X150254800Y-79890432D01*
X150231558Y-79773586D01*
X150185966Y-79663520D01*
X150119779Y-79564463D01*
X150095748Y-79540432D01*
X152595200Y-79540432D01*
X152595200Y-79659568D01*
X152618442Y-79776414D01*
X152664034Y-79886480D01*
X152730221Y-79985537D01*
X152814463Y-80069779D01*
X152913520Y-80135966D01*
X153023586Y-80181558D01*
X153140432Y-80204800D01*
X153259568Y-80204800D01*
X153376414Y-80181558D01*
X153486480Y-80135966D01*
X153585537Y-80069779D01*
X153669779Y-79985537D01*
X153735966Y-79886480D01*
X153781558Y-79776414D01*
X153804800Y-79659568D01*
X153804800Y-79540432D01*
X153781558Y-79423586D01*
X153735966Y-79313520D01*
X153669779Y-79214463D01*
X153585537Y-79130221D01*
X153486480Y-79064034D01*
X153376414Y-79018442D01*
X153259568Y-78995200D01*
X153140432Y-78995200D01*
X153023586Y-79018442D01*
X152913520Y-79064034D01*
X152814463Y-79130221D01*
X152730221Y-79214463D01*
X152664034Y-79313520D01*
X152618442Y-79423586D01*
X152595200Y-79540432D01*
X150095748Y-79540432D01*
X150035537Y-79480221D01*
X149936480Y-79414034D01*
X149826414Y-79368442D01*
X149709568Y-79345200D01*
X149590432Y-79345200D01*
X149473586Y-79368442D01*
X149363520Y-79414034D01*
X149264463Y-79480221D01*
X149250000Y-79494684D01*
X149235537Y-79480221D01*
X149136480Y-79414034D01*
X149026414Y-79368442D01*
X148909568Y-79345200D01*
X148790432Y-79345200D01*
X148673586Y-79368442D01*
X148563520Y-79414034D01*
X148464463Y-79480221D01*
X148380221Y-79564463D01*
X148314034Y-79663520D01*
X148271017Y-79767369D01*
X148159568Y-79745200D01*
X148040432Y-79745200D01*
X147923586Y-79768442D01*
X147813520Y-79814034D01*
X147714463Y-79880221D01*
X147630221Y-79964463D01*
X147564034Y-80063520D01*
X147518442Y-80173586D01*
X147495200Y-80290432D01*
X136067825Y-80290432D01*
X136035966Y-80213520D01*
X135969779Y-80114463D01*
X135885537Y-80030221D01*
X135786480Y-79964034D01*
X135676414Y-79918442D01*
X135559568Y-79895200D01*
X135440432Y-79895200D01*
X135323586Y-79918442D01*
X135213520Y-79964034D01*
X135114463Y-80030221D01*
X135030221Y-80114463D01*
X134964034Y-80213520D01*
X134918442Y-80323586D01*
X134895200Y-80440432D01*
X126065748Y-80440432D01*
X125985537Y-80360221D01*
X125886480Y-80294034D01*
X125776414Y-80248442D01*
X125659568Y-80225200D01*
X125540432Y-80225200D01*
X125423586Y-80248442D01*
X125313520Y-80294034D01*
X125214463Y-80360221D01*
X125130221Y-80444463D01*
X125064034Y-80543520D01*
X125018442Y-80653586D01*
X124995200Y-80770432D01*
X118329800Y-80770432D01*
X118329800Y-78329800D01*
X171670201Y-78329800D01*
X171670200Y-115670200D01*
G37*
G04 #@! TD.AperFunction*
M02*
