G04 #@! TF.GenerationSoftware,KiCad,Pcbnew,(5.1.9)-1*
G04 #@! TF.CreationDate,2021-03-02T14:01:06-05:00*
G04 #@! TF.ProjectId,Canary,43616e61-7279-42e6-9b69-6361645f7063,A.1*
G04 #@! TF.SameCoordinates,Original*
G04 #@! TF.FileFunction,Paste,Top*
G04 #@! TF.FilePolarity,Positive*
%FSLAX46Y46*%
G04 Gerber Fmt 4.6, Leading zero omitted, Abs format (unit mm)*
G04 Created by KiCad (PCBNEW (5.1.9)-1) date 2021-03-02 14:01:06*
%MOMM*%
%LPD*%
G01*
G04 APERTURE LIST*
%ADD10C,0.010000*%
%ADD11R,1.200000X0.800000*%
%ADD12R,1.200000X0.760000*%
%ADD13R,1.200000X0.700000*%
%ADD14O,2.200000X1.100000*%
%ADD15R,0.590000X1.240000*%
%ADD16R,0.810000X0.260000*%
%ADD17R,0.400000X0.600000*%
%ADD18R,0.470000X0.600000*%
%ADD19R,1.100000X0.600000*%
%ADD20R,0.550000X0.400000*%
%ADD21C,0.100000*%
%ADD22R,2.500000X1.500000*%
%ADD23R,3.500000X1.000000*%
%ADD24R,3.400000X1.500000*%
%ADD25R,0.550000X0.350000*%
%ADD26R,0.700000X1.600000*%
%ADD27R,0.600000X1.220000*%
%ADD28R,0.600000X0.400000*%
%ADD29R,0.500000X0.600000*%
%ADD30R,0.600000X0.500000*%
%ADD31R,0.800000X0.750000*%
%ADD32R,1.358900X0.457200*%
%ADD33R,0.500000X0.500000*%
%ADD34R,2.220000X1.200000*%
%ADD35R,2.700000X0.800000*%
%ADD36R,1.300000X3.400000*%
%ADD37R,1.220000X0.500000*%
%ADD38R,1.447800X0.558800*%
%ADD39R,0.860000X0.270000*%
%ADD40R,1.320800X0.558800*%
%ADD41R,0.590000X1.210000*%
%ADD42R,0.800000X0.600000*%
%ADD43R,1.000000X0.900000*%
G04 APERTURE END LIST*
D10*
G36*
X150040000Y-82720000D02*
G01*
X151060000Y-82720000D01*
X151060000Y-84280000D01*
X150040000Y-84280000D01*
X150040000Y-82720000D01*
G37*
X150040000Y-82720000D02*
X151060000Y-82720000D01*
X151060000Y-84280000D01*
X150040000Y-84280000D01*
X150040000Y-82720000D01*
G36*
X142254426Y-101750000D02*
G01*
X143895000Y-101750000D01*
X143895000Y-103650666D01*
X142254426Y-103650666D01*
X142254426Y-101750000D01*
G37*
X142254426Y-101750000D02*
X143895000Y-101750000D01*
X143895000Y-103650666D01*
X142254426Y-103650666D01*
X142254426Y-101750000D01*
D11*
X121630000Y-94250000D03*
X121630000Y-99750000D03*
D12*
X121630000Y-95480000D03*
X121630000Y-98520000D03*
D13*
X121630000Y-96500000D03*
X121630000Y-97500000D03*
D14*
X121550000Y-92680000D03*
X121550000Y-101320000D03*
X117750000Y-92680000D03*
X117750000Y-101320000D03*
D15*
X137350000Y-83215000D03*
X136400000Y-83215000D03*
X135450000Y-83215000D03*
X135450000Y-85585000D03*
X137350000Y-85585000D03*
D16*
X149105000Y-82500000D03*
X149105000Y-83000000D03*
X149105000Y-83500000D03*
X149105000Y-84000000D03*
X149105000Y-84500000D03*
X151995000Y-84500000D03*
X151995000Y-84000000D03*
X151995000Y-83500000D03*
X151995000Y-83000000D03*
X151995000Y-82500000D03*
D17*
X126400000Y-88900000D03*
X127300000Y-88900000D03*
D18*
X119515000Y-91250000D03*
X118785000Y-91250000D03*
X128215000Y-88900000D03*
X128945000Y-88900000D03*
X123015000Y-91380000D03*
X122285000Y-91380000D03*
D19*
X135750000Y-110800000D03*
X135750000Y-112200000D03*
D20*
X158050000Y-111750000D03*
X158050000Y-110950000D03*
X158050000Y-110150000D03*
X155750000Y-110150000D03*
X155750000Y-110950000D03*
X155750000Y-111750000D03*
D21*
G36*
X156300000Y-110150000D02*
G01*
X157500000Y-110150000D01*
X157500000Y-111450000D01*
X157200000Y-111750000D01*
X156300000Y-111750000D01*
X156300000Y-110150000D01*
G37*
D22*
X169850000Y-106550000D03*
X169850000Y-102550000D03*
X169850000Y-98550000D03*
X169850000Y-94550000D03*
X169850000Y-90550000D03*
X149850000Y-90550000D03*
X149850000Y-94550000D03*
X149850000Y-98550000D03*
X149850000Y-102550000D03*
X149850000Y-106550000D03*
D23*
X169750000Y-83550000D03*
X169750000Y-81550000D03*
D24*
X164000000Y-85900000D03*
X164000000Y-79200000D03*
D25*
X163575000Y-111350000D03*
X163575000Y-110350000D03*
X161725000Y-110350000D03*
X161725000Y-111350000D03*
D26*
X162650000Y-110850000D03*
D27*
X142775000Y-84745000D03*
X143725000Y-84745000D03*
X144675000Y-84745000D03*
X144675000Y-82255000D03*
X142775000Y-82255000D03*
D17*
X124075000Y-92300000D03*
X124975000Y-92300000D03*
D28*
X124025000Y-91400000D03*
X124025000Y-90500000D03*
D29*
X124975000Y-91300000D03*
X124975000Y-90200000D03*
X136150000Y-103050000D03*
X136150000Y-104150000D03*
X133200000Y-112000000D03*
X133200000Y-110900000D03*
X134100000Y-112000000D03*
X134100000Y-110900000D03*
X131250000Y-100550000D03*
X131250000Y-101650000D03*
D30*
X136400000Y-109750000D03*
X135300000Y-109750000D03*
X135300000Y-113250000D03*
X136400000Y-113250000D03*
X163200000Y-112750000D03*
X162100000Y-112750000D03*
D29*
X159250000Y-112100000D03*
X159250000Y-111000000D03*
X154550000Y-111000000D03*
X154550000Y-109900000D03*
X142900000Y-96725000D03*
X142900000Y-95625000D03*
D30*
X146100000Y-98075000D03*
X147200000Y-98075000D03*
X143400000Y-98075000D03*
X142300000Y-98075000D03*
X139895000Y-104150000D03*
X138795000Y-104150000D03*
X139895000Y-103250000D03*
X138795000Y-103250000D03*
D29*
X147275000Y-104550000D03*
X147275000Y-103450000D03*
X140200000Y-109100000D03*
X140200000Y-108000000D03*
D31*
X150600000Y-86000000D03*
X149100000Y-86000000D03*
D30*
X139400000Y-89950000D03*
X138300000Y-89950000D03*
D31*
X150600000Y-81000000D03*
X149100000Y-81000000D03*
D30*
X144175000Y-80900000D03*
X145275000Y-80900000D03*
D31*
X136650000Y-87200000D03*
X138150000Y-87200000D03*
D30*
X139350000Y-95200000D03*
X138250000Y-95200000D03*
D29*
X144725000Y-86150000D03*
X144725000Y-87250000D03*
D31*
X132100000Y-81400000D03*
X133600000Y-81400000D03*
D30*
X134600000Y-80250000D03*
X133500000Y-80250000D03*
D32*
X135327650Y-81300000D03*
X137372350Y-81300000D03*
D33*
X123100000Y-114950000D03*
X123650000Y-114050000D03*
X124200000Y-114950000D03*
X124750000Y-114050000D03*
X125300000Y-114950000D03*
X125850000Y-114050000D03*
X126400000Y-114950000D03*
X126950000Y-114050000D03*
X127500000Y-114950000D03*
X128050000Y-114050000D03*
X128600000Y-114950000D03*
X129150000Y-114050000D03*
X129700000Y-114950000D03*
X130250000Y-114050000D03*
X130800000Y-114950000D03*
X131900000Y-114950000D03*
X131900000Y-113850000D03*
X131000000Y-113300000D03*
X131900000Y-112750000D03*
X131000000Y-112200000D03*
X131900000Y-111650000D03*
X131000000Y-111100000D03*
X131900000Y-110550000D03*
X131000000Y-110000000D03*
X131900000Y-109450000D03*
X131000000Y-108900000D03*
X131900000Y-108350000D03*
X131000000Y-107800000D03*
X131900000Y-107250000D03*
X131900000Y-106150000D03*
X130800000Y-106150000D03*
X130250000Y-107050000D03*
X129700000Y-106150000D03*
X129150000Y-107050000D03*
X128600000Y-106150000D03*
X128050000Y-107050000D03*
X127500000Y-106150000D03*
X126950000Y-107050000D03*
X126400000Y-106150000D03*
X125850000Y-107050000D03*
X125300000Y-106150000D03*
X124750000Y-107050000D03*
X124200000Y-106150000D03*
X123650000Y-107050000D03*
X123100000Y-106150000D03*
X123100000Y-108900000D03*
X123100000Y-112200000D03*
D34*
X147000000Y-84610000D03*
X147000000Y-82390000D03*
D35*
X139950000Y-85500000D03*
X139950000Y-83300000D03*
D36*
X126670000Y-94720000D03*
X135370000Y-94720000D03*
D37*
X121200000Y-82125000D03*
X121200000Y-83075000D03*
X121200000Y-84025000D03*
X123690000Y-84025000D03*
X123690000Y-83075000D03*
X123690000Y-82125000D03*
X127995000Y-84025000D03*
X127995000Y-83075000D03*
X127995000Y-82125000D03*
X125505000Y-82125000D03*
X125505000Y-83075000D03*
X125505000Y-84025000D03*
X125505000Y-85725000D03*
X125505000Y-86675000D03*
X125505000Y-87625000D03*
X127995000Y-87625000D03*
X127995000Y-86675000D03*
X127995000Y-85725000D03*
D28*
X135215000Y-102325000D03*
X135215000Y-101425000D03*
X135210000Y-103120000D03*
X135210000Y-104020000D03*
X146950000Y-110400000D03*
X146950000Y-111300000D03*
D17*
X124875000Y-80825000D03*
X123975000Y-80825000D03*
D28*
X147920000Y-110400000D03*
X147920000Y-111300000D03*
D17*
X127100000Y-80825000D03*
X128000000Y-80825000D03*
D28*
X124075000Y-85350000D03*
X124075000Y-86250000D03*
D17*
X138700000Y-114500000D03*
X139600000Y-114500000D03*
X148700000Y-114500000D03*
X149600000Y-114500000D03*
X158700000Y-114500000D03*
X159600000Y-114500000D03*
X144200000Y-92800000D03*
X145100000Y-92800000D03*
X145200000Y-98125000D03*
X144300000Y-98125000D03*
D28*
X146275000Y-104450000D03*
X146275000Y-103550000D03*
D17*
X147000000Y-101050000D03*
X146100000Y-101050000D03*
X143500000Y-105750000D03*
X142600000Y-105750000D03*
D28*
X153200000Y-84400000D03*
X153200000Y-85300000D03*
D17*
X123450000Y-97500000D03*
X124350000Y-97500000D03*
X123450000Y-96500000D03*
X124350000Y-96500000D03*
D28*
X153200000Y-80350000D03*
X153200000Y-81250000D03*
X153200000Y-82050000D03*
X153200000Y-82950000D03*
X143775000Y-86950000D03*
X143775000Y-86050000D03*
X142775000Y-86950000D03*
X142775000Y-86050000D03*
X140650000Y-93000000D03*
X140650000Y-92100000D03*
X135450000Y-86900000D03*
X135450000Y-87800000D03*
D17*
X143275000Y-80850000D03*
X142375000Y-80850000D03*
D28*
X134150000Y-82500000D03*
X134150000Y-83400000D03*
X134150000Y-84200000D03*
X134150000Y-85100000D03*
D38*
X124219500Y-100495000D03*
X124219500Y-101765000D03*
X124219500Y-103035000D03*
X124219500Y-104305000D03*
X129680500Y-104305000D03*
X129680500Y-103035000D03*
X129680500Y-101765000D03*
X129680500Y-100495000D03*
D27*
X146100000Y-94230000D03*
X145150000Y-94230000D03*
X144200000Y-94230000D03*
X144200000Y-96720000D03*
X145150000Y-96720000D03*
X146100000Y-96720000D03*
D39*
X141140000Y-101200000D03*
X141140000Y-101700000D03*
X141140000Y-102200000D03*
X141140000Y-102700000D03*
X141140000Y-103200000D03*
X141140000Y-103700000D03*
X141140000Y-104200000D03*
X145010000Y-104200000D03*
X145010000Y-103700000D03*
X145010000Y-103200000D03*
X145010000Y-102700000D03*
X145010000Y-102200000D03*
X145010000Y-101700000D03*
X145010000Y-101200000D03*
D40*
X144421600Y-109089800D03*
X144421600Y-108150000D03*
X144421600Y-107210200D03*
X141678400Y-107210200D03*
X141678400Y-109089800D03*
D41*
X139350000Y-91295000D03*
X138400000Y-91295000D03*
X137450000Y-91295000D03*
X137450000Y-93805000D03*
X139350000Y-93805000D03*
D42*
X136000000Y-114350000D03*
D43*
X134500000Y-114500000D03*
X137500000Y-114500000D03*
D42*
X146000000Y-114350000D03*
D43*
X144500000Y-114500000D03*
X147500000Y-114500000D03*
D42*
X156000000Y-114350000D03*
D43*
X154500000Y-114500000D03*
X157500000Y-114500000D03*
M02*
