G04 #@! TF.GenerationSoftware,KiCad,Pcbnew,(5.1.9)-1*
G04 #@! TF.CreationDate,2021-03-02T11:46:35-05:00*
G04 #@! TF.ProjectId,Canary,43616e61-7279-42e6-9b69-6361645f7063,rev?*
G04 #@! TF.SameCoordinates,Original*
G04 #@! TF.FileFunction,Copper,L4,Bot*
G04 #@! TF.FilePolarity,Positive*
%FSLAX46Y46*%
G04 Gerber Fmt 4.6, Leading zero omitted, Abs format (unit mm)*
G04 Created by KiCad (PCBNEW (5.1.9)-1) date 2021-03-02 11:46:35*
%MOMM*%
%LPD*%
G01*
G04 APERTURE LIST*
G04 #@! TA.AperFunction,SMDPad,CuDef*
%ADD10C,0.100000*%
G04 #@! TD*
G04 #@! TA.AperFunction,SMDPad,CuDef*
%ADD11C,1.000000*%
G04 #@! TD*
G04 #@! TA.AperFunction,SMDPad,CuDef*
%ADD12C,1.500000*%
G04 #@! TD*
G04 #@! TA.AperFunction,SMDPad,CuDef*
%ADD13R,2.800000X1.500000*%
G04 #@! TD*
G04 #@! TA.AperFunction,ComponentPad*
%ADD14C,1.050000*%
G04 #@! TD*
G04 #@! TA.AperFunction,SMDPad,CuDef*
%ADD15R,2.400000X0.760000*%
G04 #@! TD*
G04 #@! TA.AperFunction,ComponentPad*
%ADD16O,2.200000X1.100000*%
G04 #@! TD*
G04 #@! TA.AperFunction,ViaPad*
%ADD17C,0.600000*%
G04 #@! TD*
G04 #@! TA.AperFunction,ViaPad*
%ADD18C,0.800000*%
G04 #@! TD*
G04 #@! TA.AperFunction,Conductor*
%ADD19C,0.203200*%
G04 #@! TD*
G04 #@! TA.AperFunction,Conductor*
%ADD20C,0.381000*%
G04 #@! TD*
G04 #@! TA.AperFunction,Conductor*
%ADD21C,0.254000*%
G04 #@! TD*
G04 #@! TA.AperFunction,Conductor*
%ADD22C,0.100000*%
G04 #@! TD*
G04 APERTURE END LIST*
G04 #@! TA.AperFunction,SMDPad,CuDef*
D10*
G36*
X161927575Y-88699701D02*
G01*
X161887575Y-88689701D01*
X161885729Y-88689042D01*
X161884453Y-88688321D01*
X161854453Y-88668321D01*
X161852936Y-88667078D01*
X161852191Y-88666247D01*
X161832191Y-88641247D01*
X161831318Y-88639961D01*
X161811318Y-88604961D01*
X161810516Y-88603172D01*
X161810101Y-88601414D01*
X161800101Y-88531414D01*
X161800077Y-88528760D01*
X161810077Y-88448760D01*
X161810299Y-88447575D01*
X161820299Y-88407575D01*
X161820958Y-88405729D01*
X161821425Y-88404855D01*
X161851425Y-88354855D01*
X161852594Y-88353281D01*
X161854000Y-88352000D01*
X161894000Y-88322000D01*
X161896286Y-88320715D01*
X161946286Y-88300715D01*
X161947575Y-88300299D01*
X161986129Y-88290660D01*
X162033403Y-88262296D01*
X162081881Y-88204122D01*
X162131169Y-88125262D01*
X162230777Y-87906123D01*
X162280643Y-87776472D01*
X162350557Y-87586705D01*
X162410394Y-87407195D01*
X162440262Y-87287723D01*
X162460000Y-87198902D01*
X162460000Y-87153333D01*
X162433492Y-87117989D01*
X162386960Y-87096095D01*
X162309608Y-87090000D01*
X162080827Y-87090000D01*
X162028998Y-87098638D01*
X162019923Y-87171240D01*
X162019806Y-87171961D01*
X162009806Y-87221961D01*
X162009235Y-87223836D01*
X162008309Y-87225564D01*
X162007071Y-87227071D01*
X161957071Y-87277071D01*
X161956644Y-87277474D01*
X161866860Y-87357282D01*
X161837071Y-87387071D01*
X161835547Y-87388321D01*
X161805547Y-87408321D01*
X161803817Y-87409243D01*
X161801521Y-87409884D01*
X161672228Y-87429775D01*
X161443114Y-87499505D01*
X161103630Y-87619323D01*
X160894368Y-87709007D01*
X160720898Y-87803157D01*
X160720220Y-87816078D01*
X160725401Y-87821260D01*
X160753162Y-87830513D01*
X160754472Y-87831056D01*
X160814472Y-87861056D01*
X160816000Y-87862000D01*
X160856000Y-87892000D01*
X160857445Y-87893324D01*
X160858575Y-87894855D01*
X160888575Y-87944855D01*
X160889414Y-87946627D01*
X160889806Y-87948039D01*
X160899762Y-87997819D01*
X160909701Y-88037575D01*
X160910000Y-88040000D01*
X160910000Y-88080000D01*
X160909808Y-88081951D01*
X160909239Y-88083827D01*
X160907809Y-88086247D01*
X160867809Y-88136247D01*
X160866440Y-88137650D01*
X160864824Y-88138760D01*
X160863162Y-88139487D01*
X160803162Y-88159487D01*
X160801251Y-88159921D01*
X160800000Y-88160000D01*
X160770000Y-88160000D01*
X160768049Y-88159808D01*
X160765528Y-88158944D01*
X160745528Y-88148944D01*
X160743869Y-88147900D01*
X160742445Y-88146552D01*
X160741056Y-88144472D01*
X160731056Y-88124472D01*
X160730355Y-88122641D01*
X160730025Y-88120709D01*
X160730079Y-88118749D01*
X160730513Y-88116838D01*
X160731312Y-88115048D01*
X160732445Y-88113448D01*
X160733869Y-88112100D01*
X160735528Y-88111056D01*
X160737359Y-88110355D01*
X160740000Y-88110000D01*
X160757640Y-88110000D01*
X160794966Y-88091337D01*
X160821598Y-88073582D01*
X160829593Y-88049599D01*
X160810565Y-87973491D01*
X160802244Y-87956849D01*
X160745892Y-87919280D01*
X160707969Y-87909800D01*
X160649172Y-87900000D01*
X160580828Y-87900000D01*
X160523126Y-87909617D01*
X160485924Y-87928218D01*
X160467773Y-87946369D01*
X160449063Y-87974434D01*
X160440000Y-88001623D01*
X160440000Y-88029009D01*
X160449418Y-88076098D01*
X160467460Y-88103161D01*
X160515422Y-88141531D01*
X160553491Y-88160566D01*
X160632425Y-88180299D01*
X160634271Y-88180958D01*
X160635953Y-88181965D01*
X160637406Y-88183281D01*
X160638575Y-88184855D01*
X160639414Y-88186627D01*
X160639891Y-88188528D01*
X160639988Y-88190486D01*
X160639701Y-88192425D01*
X160639042Y-88194271D01*
X160638035Y-88195953D01*
X160636000Y-88198000D01*
X160596000Y-88228000D01*
X160594324Y-88229017D01*
X160592482Y-88229687D01*
X160590000Y-88230000D01*
X160510000Y-88230000D01*
X160508049Y-88229808D01*
X160506061Y-88229191D01*
X160436061Y-88199191D01*
X160434343Y-88198246D01*
X160432407Y-88196508D01*
X160372407Y-88126508D01*
X160371284Y-88124902D01*
X160370513Y-88123162D01*
X160350513Y-88063162D01*
X160350079Y-88061251D01*
X160350000Y-88060000D01*
X160350000Y-88000000D01*
X160350194Y-87998039D01*
X160360194Y-87948039D01*
X160360715Y-87946286D01*
X160380000Y-87898074D01*
X160380000Y-87884142D01*
X160377299Y-87881441D01*
X160354952Y-87888890D01*
X160298008Y-87936343D01*
X160269711Y-87992939D01*
X160260124Y-88069630D01*
X160269329Y-88115653D01*
X160307465Y-88163323D01*
X160316369Y-88172227D01*
X160345034Y-88191337D01*
X160384472Y-88211056D01*
X160386131Y-88212100D01*
X160387555Y-88213448D01*
X160388688Y-88215048D01*
X160389487Y-88216838D01*
X160389921Y-88218749D01*
X160389975Y-88220709D01*
X160389645Y-88222641D01*
X160388944Y-88224472D01*
X160387900Y-88226131D01*
X160386552Y-88227555D01*
X160384952Y-88228688D01*
X160382425Y-88229701D01*
X160342425Y-88239701D01*
X160340486Y-88239988D01*
X160338039Y-88239806D01*
X160288039Y-88229806D01*
X160285528Y-88228944D01*
X160225528Y-88198944D01*
X160223869Y-88197900D01*
X160222191Y-88196247D01*
X160182191Y-88146247D01*
X160181123Y-88144604D01*
X160180395Y-88142783D01*
X160180101Y-88141414D01*
X160170101Y-88071414D01*
X160170015Y-88069456D01*
X160170136Y-88068356D01*
X160190136Y-87948356D01*
X160190809Y-87946061D01*
X160220809Y-87876061D01*
X160221754Y-87874343D01*
X160222971Y-87872887D01*
X160264400Y-87831947D01*
X160282837Y-87813022D01*
X160284759Y-87811483D01*
X160414759Y-87731483D01*
X160415259Y-87731195D01*
X160545259Y-87661195D01*
X160546286Y-87660715D01*
X160746286Y-87580715D01*
X160746489Y-87580637D01*
X160906489Y-87520637D01*
X160906637Y-87520583D01*
X161186402Y-87420667D01*
X161356193Y-87350753D01*
X161356489Y-87350637D01*
X161516209Y-87290742D01*
X161603589Y-87251906D01*
X161624428Y-87224453D01*
X161620234Y-87182828D01*
X161601337Y-87145034D01*
X161582987Y-87117510D01*
X161515284Y-87078822D01*
X161455906Y-87049133D01*
X161407331Y-87029703D01*
X161218848Y-86999942D01*
X160949261Y-86979973D01*
X160949005Y-86979950D01*
X160749005Y-86959950D01*
X160746453Y-86959350D01*
X160456453Y-86849350D01*
X160455294Y-86848824D01*
X160155294Y-86688824D01*
X160153793Y-86687840D01*
X159913793Y-86497840D01*
X159912432Y-86496536D01*
X159722432Y-86276536D01*
X159721893Y-86275855D01*
X159591893Y-86095855D01*
X159591679Y-86095547D01*
X159451679Y-85885547D01*
X159450938Y-85884229D01*
X159380938Y-85734229D01*
X159380215Y-85732060D01*
X159340215Y-85542060D01*
X159340122Y-85541560D01*
X159310122Y-85351560D01*
X159310012Y-85350499D01*
X159300012Y-85150499D01*
X159300000Y-85150000D01*
X159300000Y-84830134D01*
X159290017Y-84470764D01*
X159270270Y-84312782D01*
X159211120Y-84184623D01*
X159141461Y-84065209D01*
X159072151Y-83956293D01*
X159023432Y-83907574D01*
X158984741Y-83878556D01*
X158953790Y-83863279D01*
X158859651Y-83859994D01*
X158859335Y-83859978D01*
X158709335Y-83849978D01*
X158708760Y-83849923D01*
X158548760Y-83829923D01*
X158546848Y-83829490D01*
X158545057Y-83828693D01*
X158543456Y-83827561D01*
X158542106Y-83826139D01*
X158541060Y-83824481D01*
X158540358Y-83822651D01*
X158540000Y-83820000D01*
X158540000Y-83810000D01*
X158540192Y-83808049D01*
X158541056Y-83805528D01*
X158551056Y-83785528D01*
X158552100Y-83783869D01*
X158554000Y-83782000D01*
X158594000Y-83752000D01*
X158595039Y-83751318D01*
X158804920Y-83631386D01*
X158854645Y-83601551D01*
X158884093Y-83581919D01*
X158932540Y-83543161D01*
X158951419Y-83514843D01*
X159021195Y-83385259D01*
X159021520Y-83384700D01*
X159071520Y-83304700D01*
X159071877Y-83304168D01*
X159094403Y-83272794D01*
X159095311Y-83271702D01*
X159122785Y-83243076D01*
X159123861Y-83242106D01*
X159213861Y-83172106D01*
X159214631Y-83171563D01*
X159324631Y-83101563D01*
X159325528Y-83101056D01*
X159425528Y-83051056D01*
X159426838Y-83050513D01*
X159486838Y-83030513D01*
X159487575Y-83030299D01*
X159567575Y-83010299D01*
X159568761Y-83010077D01*
X159635177Y-83001783D01*
X159636251Y-83001707D01*
X159739835Y-83000001D01*
X159740345Y-83000006D01*
X160030345Y-83010006D01*
X160031483Y-83010111D01*
X160231483Y-83040111D01*
X160233162Y-83040513D01*
X160353162Y-83080513D01*
X160354138Y-83080896D01*
X160464138Y-83130896D01*
X160465547Y-83131679D01*
X160585547Y-83211679D01*
X160586823Y-83212689D01*
X160736823Y-83352689D01*
X160737071Y-83352929D01*
X160847071Y-83462929D01*
X160847433Y-83463310D01*
X160937433Y-83563310D01*
X160937498Y-83563384D01*
X161087498Y-83733384D01*
X161088137Y-83734188D01*
X161138137Y-83804188D01*
X161138944Y-83805528D01*
X161158944Y-83845528D01*
X161159645Y-83847359D01*
X161159975Y-83849291D01*
X161159934Y-83850789D01*
X161247606Y-83953508D01*
X161247682Y-83953598D01*
X161397486Y-84133362D01*
X161557186Y-84303044D01*
X161727004Y-84472862D01*
X161956810Y-84692677D01*
X162396727Y-85092601D01*
X162396877Y-85092740D01*
X162776707Y-85452579D01*
X163286275Y-85892206D01*
X163645948Y-86161961D01*
X163755882Y-86241913D01*
X163756139Y-86242106D01*
X164296070Y-86662052D01*
X164845977Y-87071983D01*
X164846169Y-87072129D01*
X165216169Y-87362129D01*
X165216292Y-87362228D01*
X165426292Y-87532228D01*
X165426690Y-87532567D01*
X165526690Y-87622567D01*
X165527071Y-87622929D01*
X165547071Y-87642929D01*
X165548315Y-87644444D01*
X165548944Y-87645528D01*
X165558944Y-87665528D01*
X165559487Y-87666838D01*
X165569487Y-87696838D01*
X165569921Y-87698749D01*
X165570000Y-87700000D01*
X165570000Y-87710000D01*
X165569808Y-87711951D01*
X165569239Y-87713827D01*
X165568315Y-87715556D01*
X165567071Y-87717071D01*
X165565556Y-87718315D01*
X165563827Y-87719239D01*
X165561951Y-87719808D01*
X165560000Y-87720000D01*
X165540000Y-87720000D01*
X165538049Y-87719808D01*
X165536061Y-87719191D01*
X165466061Y-87689191D01*
X165465528Y-87688944D01*
X165386630Y-87649495D01*
X165299892Y-87630220D01*
X165256023Y-87638994D01*
X165239063Y-87664434D01*
X165230407Y-87690401D01*
X165239435Y-87726509D01*
X165258770Y-87765180D01*
X165288575Y-87814855D01*
X165289414Y-87816627D01*
X165289701Y-87817575D01*
X165299606Y-87857195D01*
X165309487Y-87886838D01*
X165309921Y-87888749D01*
X165310000Y-87890000D01*
X165310000Y-87920000D01*
X165309808Y-87921951D01*
X165309239Y-87923827D01*
X165308315Y-87925556D01*
X165307071Y-87927071D01*
X165305556Y-87928315D01*
X165303827Y-87929239D01*
X165301951Y-87929808D01*
X165300000Y-87930000D01*
X165280000Y-87930000D01*
X165278049Y-87929808D01*
X165275528Y-87928944D01*
X165215528Y-87898944D01*
X165213310Y-87897433D01*
X165113310Y-87807433D01*
X165112929Y-87807071D01*
X164983026Y-87677168D01*
X164803588Y-87507699D01*
X164654439Y-87398323D01*
X164324909Y-87198608D01*
X164065124Y-87048732D01*
X163825665Y-86919025D01*
X163636298Y-86839291D01*
X163476673Y-86779432D01*
X163360313Y-86740645D01*
X163263752Y-86779270D01*
X162973824Y-86899240D01*
X162973387Y-86899409D01*
X162869463Y-86936822D01*
X162869893Y-86938539D01*
X162869988Y-86940497D01*
X162869699Y-86942436D01*
X162868944Y-86944472D01*
X162828944Y-87024472D01*
X162827926Y-87026097D01*
X162728513Y-87155334D01*
X162669074Y-87274212D01*
X162429339Y-87833594D01*
X162329538Y-88123016D01*
X162292821Y-88251525D01*
X162361240Y-88260077D01*
X162363152Y-88260510D01*
X162364472Y-88261056D01*
X162444472Y-88301056D01*
X162446131Y-88302100D01*
X162448000Y-88304000D01*
X162508000Y-88384000D01*
X162509017Y-88385676D01*
X162509615Y-88387253D01*
X162529615Y-88457253D01*
X162530000Y-88460000D01*
X162530000Y-88520000D01*
X162529808Y-88521951D01*
X162529239Y-88523827D01*
X162528575Y-88525145D01*
X162498575Y-88575145D01*
X162497406Y-88576719D01*
X162495953Y-88578035D01*
X162494472Y-88578944D01*
X162454472Y-88598944D01*
X162452641Y-88599645D01*
X162450000Y-88600000D01*
X162400000Y-88600000D01*
X162398049Y-88599808D01*
X162396173Y-88599239D01*
X162394444Y-88598315D01*
X162392929Y-88597071D01*
X162391685Y-88595556D01*
X162390761Y-88593827D01*
X162390192Y-88591951D01*
X162390000Y-88590000D01*
X162390192Y-88588049D01*
X162390761Y-88586173D01*
X162391685Y-88584444D01*
X162392929Y-88582929D01*
X162394453Y-88581679D01*
X162422789Y-88562789D01*
X162441102Y-88535318D01*
X162460000Y-88488074D01*
X162460000Y-88480991D01*
X162450456Y-88433273D01*
X162422359Y-88377077D01*
X162376775Y-88349727D01*
X162280058Y-88340055D01*
X162192644Y-88349768D01*
X162105758Y-88388384D01*
X162058523Y-88435619D01*
X162040000Y-88481927D01*
X162040000Y-88537640D01*
X162058218Y-88574076D01*
X162085924Y-88601782D01*
X162143834Y-88630737D01*
X162173162Y-88640513D01*
X162174472Y-88641056D01*
X162194472Y-88651056D01*
X162196131Y-88652100D01*
X162197555Y-88653448D01*
X162198688Y-88655048D01*
X162199487Y-88656838D01*
X162199921Y-88658749D01*
X162199975Y-88660709D01*
X162199645Y-88662641D01*
X162198944Y-88664472D01*
X162197900Y-88666131D01*
X162196552Y-88667555D01*
X162194472Y-88668944D01*
X162154472Y-88688944D01*
X162152641Y-88689645D01*
X162150709Y-88689975D01*
X162148586Y-88689899D01*
X162078586Y-88679899D01*
X162076682Y-88679433D01*
X162074453Y-88678321D01*
X162014453Y-88638321D01*
X162012936Y-88637078D01*
X162012191Y-88636247D01*
X161972191Y-88586247D01*
X161971123Y-88584604D01*
X161970385Y-88582747D01*
X161950385Y-88512747D01*
X161950034Y-88510819D01*
X161950101Y-88508586D01*
X161960101Y-88438586D01*
X161960715Y-88436286D01*
X161980000Y-88388074D01*
X161980000Y-88384142D01*
X161975858Y-88380000D01*
X161972360Y-88380000D01*
X161955280Y-88388540D01*
X161917567Y-88416825D01*
X161889466Y-88463660D01*
X161880000Y-88510991D01*
X161880000Y-88558377D01*
X161889263Y-88586166D01*
X161898540Y-88604720D01*
X161926972Y-88642629D01*
X161955034Y-88661337D01*
X161974472Y-88671056D01*
X161976131Y-88672100D01*
X161977555Y-88673448D01*
X161978688Y-88675048D01*
X161979487Y-88676838D01*
X161979921Y-88678749D01*
X161979975Y-88680709D01*
X161979645Y-88682641D01*
X161978944Y-88684472D01*
X161977900Y-88686131D01*
X161976552Y-88687555D01*
X161974952Y-88688688D01*
X161972425Y-88689701D01*
X161932425Y-88699701D01*
X161930486Y-88699988D01*
X161927575Y-88699701D01*
G37*
G04 #@! TD.AperFunction*
D11*
X128400000Y-79720000D03*
X126860000Y-114320000D03*
X170000000Y-108910000D03*
D12*
X124940000Y-110760000D03*
D13*
X123350000Y-94750000D03*
X118550000Y-94750000D03*
X123350000Y-99250000D03*
X118550000Y-99250000D03*
D14*
X131900000Y-83940000D03*
X130630000Y-83940000D03*
X131900000Y-85210000D03*
X130630000Y-85210000D03*
X131900000Y-86480000D03*
X130630000Y-86480000D03*
X131900000Y-87750000D03*
X130630000Y-87750000D03*
X131900000Y-89020000D03*
X130630000Y-89020000D03*
D15*
X123600000Y-80470000D03*
X123600000Y-79200000D03*
X123600000Y-83010000D03*
X123600000Y-81740000D03*
X123600000Y-84280000D03*
X119700000Y-79200000D03*
X119700000Y-80470000D03*
X119700000Y-81740000D03*
X119700000Y-83010000D03*
X119700000Y-84280000D03*
D16*
X121550000Y-92680000D03*
X121550000Y-101320000D03*
X117750000Y-92680000D03*
X117750000Y-101320000D03*
D17*
X129800000Y-112100000D03*
X134800000Y-107300000D03*
X137500000Y-89950000D03*
X134450000Y-110150000D03*
X141050000Y-108150000D03*
X143150000Y-108150000D03*
X150550000Y-84050000D03*
X123250000Y-107950000D03*
X123250000Y-109800000D03*
X123250000Y-111300000D03*
X123250000Y-113150000D03*
X124200000Y-113150000D03*
X125150000Y-113150000D03*
X130250000Y-113250000D03*
X150600000Y-80050000D03*
X151600000Y-80975000D03*
X151600000Y-80050000D03*
X153200000Y-86050000D03*
X143250000Y-83500000D03*
X144200000Y-83500000D03*
X150550000Y-82900000D03*
X150600000Y-86950000D03*
X146100000Y-80875000D03*
X141700000Y-80850000D03*
X166400000Y-79200000D03*
X161600000Y-79200000D03*
X167200000Y-83600000D03*
X167200000Y-84800000D03*
X168400000Y-84800000D03*
X169600000Y-84800000D03*
X170800000Y-84800000D03*
X165000000Y-84400000D03*
X163950000Y-84400000D03*
X154100000Y-82500000D03*
X131000000Y-81400000D03*
X132100000Y-80300000D03*
X131000000Y-80300000D03*
X146100000Y-80050000D03*
X145400000Y-87250000D03*
X136400000Y-84400000D03*
X136400000Y-85200000D03*
X136400000Y-86000000D03*
X138400000Y-92600000D03*
X137600000Y-92600000D03*
X138400000Y-93400000D03*
X138400000Y-94200000D03*
X132750000Y-106675000D03*
X132750000Y-105825000D03*
X146100000Y-95450000D03*
X145150000Y-95450000D03*
X143600000Y-95450000D03*
X141450000Y-98100000D03*
X139600000Y-115300000D03*
X149600000Y-115300000D03*
X159600000Y-115300000D03*
X133650000Y-110150000D03*
X137400000Y-95200000D03*
X137980000Y-104140000D03*
X137980000Y-103280000D03*
X141900000Y-104700000D03*
X142700000Y-104700000D03*
X141900000Y-100700000D03*
X142700000Y-100700000D03*
X121620000Y-81170000D03*
X123110000Y-85330000D03*
X124200000Y-89750000D03*
D18*
X131250000Y-102650000D03*
D17*
X123150000Y-103650000D03*
X132700000Y-114975000D03*
X136150000Y-105000000D03*
X160050000Y-110700000D03*
X137250000Y-109750000D03*
X137250000Y-113250000D03*
X167600000Y-111600000D03*
X169400000Y-111600000D03*
X167600000Y-113400000D03*
X128870000Y-89800000D03*
X170200000Y-85700000D03*
X169000000Y-85700000D03*
X167800000Y-85700000D03*
X136590000Y-93830000D03*
X136600000Y-95700000D03*
X167600000Y-115200000D03*
X171200000Y-111600000D03*
D18*
X131250000Y-99550000D03*
D17*
X120020000Y-85230000D03*
X133250000Y-112800000D03*
X132650000Y-113400000D03*
X140300000Y-90000000D03*
X140300000Y-90800000D03*
X141100000Y-90400000D03*
X141100000Y-91200000D03*
X152350000Y-80500000D03*
X148100000Y-81150000D03*
X148100000Y-80350000D03*
X148850000Y-79950000D03*
X149650000Y-79950000D03*
X153200000Y-79600000D03*
X118500000Y-97900000D03*
X164100000Y-112700000D03*
X164650000Y-112000000D03*
X153750000Y-111500000D03*
X146850000Y-110350000D03*
X148150000Y-110350000D03*
X142050000Y-97100000D03*
X142050000Y-96250000D03*
X141100000Y-93900000D03*
X140300000Y-95100000D03*
X141100000Y-94700000D03*
X140300000Y-94300000D03*
X140750000Y-109900000D03*
X141650000Y-109900000D03*
X139450000Y-104900000D03*
X140350000Y-104900000D03*
X160050000Y-111500000D03*
X146000000Y-102730000D03*
X146087500Y-98807500D03*
X145200000Y-98910000D03*
X132170000Y-82580000D03*
X125600000Y-80830000D03*
X126250000Y-81370000D03*
X135500000Y-80500000D03*
X130200000Y-110000000D03*
X134450000Y-115450000D03*
X142200000Y-114550000D03*
X133800000Y-108600000D03*
X130200000Y-111350000D03*
X152200000Y-114500000D03*
X126450000Y-105400000D03*
X124335000Y-107885000D03*
X124990000Y-108960000D03*
X123920000Y-105280000D03*
X127200000Y-110825000D03*
X133750000Y-97850000D03*
X127875000Y-111400000D03*
X141975000Y-94975000D03*
X128525000Y-112000000D03*
X137050000Y-101700000D03*
X128300000Y-102850000D03*
X128525000Y-113125000D03*
X133090000Y-92270000D03*
X132550000Y-91540000D03*
X130200000Y-107900000D03*
X136400000Y-107800000D03*
X147900000Y-112900000D03*
X160450000Y-112900000D03*
X131700000Y-105250000D03*
X136400000Y-106750000D03*
X146950000Y-112200000D03*
X154750000Y-112200000D03*
X164650000Y-111050000D03*
X141950000Y-86950000D03*
X126250000Y-104200000D03*
X154000000Y-84400000D03*
X126000000Y-103400000D03*
X136650000Y-90250000D03*
X126000000Y-102550000D03*
X127700000Y-105400000D03*
X128400000Y-103700000D03*
X127050000Y-107850000D03*
X129650000Y-99330000D03*
X147000000Y-100140000D03*
X167420000Y-89750000D03*
X123400000Y-93100000D03*
X125800000Y-109650000D03*
D19*
X133600000Y-107300000D02*
X134800000Y-107300000D01*
X131200000Y-110750000D02*
X132750000Y-109200000D01*
X132750000Y-109200000D02*
X132750000Y-108150000D01*
X129980078Y-110750000D02*
X131200000Y-110750000D01*
X129600000Y-111130078D02*
X129980078Y-110750000D01*
X132750000Y-108150000D02*
X133600000Y-107300000D01*
X129600000Y-111825000D02*
X129600000Y-111130078D01*
X129800000Y-112025000D02*
X129600000Y-111825000D01*
X129800000Y-112100000D02*
X129800000Y-112025000D01*
D20*
X121050000Y-81740000D02*
X119700000Y-81740000D01*
X121620000Y-81170000D02*
X121050000Y-81740000D01*
X119700000Y-81740000D02*
X119700000Y-83010000D01*
X118500000Y-99200000D02*
X118550000Y-99250000D01*
X118500000Y-97900000D02*
X118500000Y-99200000D01*
X118550000Y-99250000D02*
X123350000Y-99250000D01*
X120020000Y-84600000D02*
X119700000Y-84280000D01*
X120020000Y-85230000D02*
X120020000Y-84600000D01*
X145200000Y-101930000D02*
X146000000Y-102730000D01*
X145200000Y-98910000D02*
X145200000Y-101930000D01*
X146087500Y-102642500D02*
X146000000Y-102730000D01*
X146087500Y-98807500D02*
X146087500Y-102642500D01*
D19*
X134350000Y-115550000D02*
X134450000Y-115450000D01*
X129200000Y-113260000D02*
X131490000Y-115550000D01*
X129200000Y-110950000D02*
X129200000Y-113260000D01*
X130150000Y-110000000D02*
X129200000Y-110950000D01*
X131490000Y-115550000D02*
X131900000Y-115550000D01*
X130200000Y-110000000D02*
X130150000Y-110000000D01*
X131900000Y-115550000D02*
X134350000Y-115550000D01*
X131700000Y-115550000D02*
X131900000Y-115550000D01*
X140250000Y-114550000D02*
X142200000Y-114550000D01*
X142200000Y-114550000D02*
X142200000Y-114550000D01*
X134300000Y-108600000D02*
X135025000Y-109325000D01*
X133800000Y-108600000D02*
X134300000Y-108600000D01*
X135025000Y-109325000D02*
X140250000Y-114550000D01*
X134900000Y-109200000D02*
X135025000Y-109325000D01*
X152200000Y-114500000D02*
X152200000Y-114500000D01*
X151650000Y-113950000D02*
X152200000Y-114500000D01*
X140450000Y-113950000D02*
X151650000Y-113950000D01*
X134500000Y-108000000D02*
X140450000Y-113950000D01*
X133200000Y-109400000D02*
X133200000Y-108350000D01*
X133550000Y-108000000D02*
X134500000Y-108000000D01*
X133200000Y-108350000D02*
X133550000Y-108000000D01*
X131250000Y-111350000D02*
X133200000Y-109400000D01*
X130200000Y-111350000D02*
X131250000Y-111350000D01*
X125003200Y-79200000D02*
X126990000Y-81186800D01*
X123600000Y-79200000D02*
X125003200Y-79200000D01*
X126990000Y-81186800D02*
X126990000Y-100640000D01*
X126990000Y-100640000D02*
X125390000Y-102240000D01*
X125390000Y-104890000D02*
X125390000Y-104760000D01*
X125390000Y-102240000D02*
X125390000Y-104760000D01*
X125900000Y-105400000D02*
X125725000Y-105225000D01*
X125725000Y-105225000D02*
X125390000Y-104890000D01*
X126450000Y-105400000D02*
X125900000Y-105400000D01*
X125850000Y-105350000D02*
X125725000Y-105225000D01*
X125003200Y-83010000D02*
X126160000Y-84166800D01*
X123600000Y-83010000D02*
X125003200Y-83010000D01*
X126160000Y-84166800D02*
X126160000Y-100300000D01*
X126160000Y-100300000D02*
X124590000Y-101870000D01*
X124590000Y-101870000D02*
X124590000Y-107630000D01*
X124590000Y-107630000D02*
X124335000Y-107885000D01*
X125003200Y-81740000D02*
X126570000Y-83306800D01*
X123600000Y-81740000D02*
X125003200Y-81740000D01*
X126570000Y-83306800D02*
X126570000Y-100470000D01*
X126570000Y-100470000D02*
X124990000Y-102050000D01*
X124990000Y-102050000D02*
X124990000Y-108960000D01*
X124990000Y-108960000D02*
X124990000Y-108960000D01*
X123600000Y-84280000D02*
X124370000Y-84280000D01*
X124420000Y-84280000D02*
X123600000Y-84280000D01*
X125770000Y-85630000D02*
X124420000Y-84280000D01*
X125770000Y-100130000D02*
X125770000Y-85630000D01*
X124190000Y-101710000D02*
X125770000Y-100130000D01*
X124190000Y-105010000D02*
X124190000Y-101710000D01*
X123920000Y-105280000D02*
X124190000Y-105010000D01*
X127200000Y-110825000D02*
X127200000Y-109100000D01*
X127200000Y-109100000D02*
X128200000Y-108100000D01*
X128200000Y-108100000D02*
X128200000Y-106700000D01*
X133750000Y-101150000D02*
X133750000Y-97850000D01*
X131700000Y-103200000D02*
X133750000Y-101150000D01*
X128200000Y-106700000D02*
X131700000Y-103200000D01*
X131700000Y-103200000D02*
X131775000Y-103125000D01*
X128600000Y-108275000D02*
X128600000Y-106875000D01*
X127875000Y-109000000D02*
X128600000Y-108275000D01*
X127875000Y-111400000D02*
X127875000Y-109000000D01*
X141975000Y-94975000D02*
X139850000Y-97100000D01*
X138375000Y-97100000D02*
X134737500Y-100737500D01*
X139850000Y-97100000D02*
X138375000Y-97100000D01*
X134737500Y-100737500D02*
X134875000Y-100600000D01*
X128600000Y-106875000D02*
X134737500Y-100737500D01*
X128525000Y-112000000D02*
X128525000Y-108900000D01*
X128525000Y-108900000D02*
X129000000Y-108425000D01*
X129000000Y-108425000D02*
X129000000Y-107025000D01*
X134325000Y-101700000D02*
X131862500Y-104162500D01*
X137050000Y-101700000D02*
X134325000Y-101700000D01*
X131862500Y-104162500D02*
X132225000Y-103800000D01*
X129000000Y-107025000D02*
X131862500Y-104162500D01*
X128724264Y-102850000D02*
X129100000Y-103225736D01*
X128300000Y-102850000D02*
X128724264Y-102850000D01*
X129100000Y-103225736D02*
X129100000Y-104075000D01*
X129100000Y-104075000D02*
X128400000Y-104775000D01*
X128400000Y-104775000D02*
X128400000Y-105700000D01*
X128400000Y-105700000D02*
X127800000Y-106300000D01*
X127800000Y-107919922D02*
X126750000Y-108969922D01*
X127800000Y-106300000D02*
X127800000Y-107919922D01*
X126750000Y-108969922D02*
X126750000Y-108975000D01*
X128525000Y-113125000D02*
X128525000Y-113125000D01*
X126750000Y-108969922D02*
X126750000Y-108970000D01*
X126750000Y-108970000D02*
X126580000Y-109140000D01*
X126580000Y-111180000D02*
X128525000Y-113125000D01*
X126580000Y-109140000D02*
X126580000Y-111180000D01*
X130630000Y-87750000D02*
X129720000Y-88660000D01*
X129720000Y-88660000D02*
X129720000Y-89400000D01*
X129720000Y-89400000D02*
X129720000Y-90040000D01*
X129720000Y-90040000D02*
X131950000Y-92270000D01*
X131950000Y-92270000D02*
X133090000Y-92270000D01*
X133090000Y-92270000D02*
X133090000Y-92270000D01*
X130630000Y-89020000D02*
X132550000Y-90940000D01*
X132550000Y-90940000D02*
X132550000Y-91540000D01*
X132550000Y-91540000D02*
X132550000Y-91540000D01*
X147900000Y-112900000D02*
X160450000Y-112900000D01*
X160450000Y-112900000D02*
X160450000Y-112900000D01*
X135250000Y-106650000D02*
X136400000Y-107800000D01*
X133650000Y-106650000D02*
X135250000Y-106650000D01*
X132400000Y-107900000D02*
X133650000Y-106650000D01*
X130200000Y-107900000D02*
X132400000Y-107900000D01*
X141500000Y-112900000D02*
X142950000Y-112900000D01*
X136400000Y-107800000D02*
X141500000Y-112900000D01*
X142950000Y-112900000D02*
X147900000Y-112900000D01*
X142150000Y-112900000D02*
X142950000Y-112900000D01*
X135250000Y-105250000D02*
X133850000Y-105250000D01*
X133850000Y-105250000D02*
X133950000Y-105250000D01*
X131700000Y-105250000D02*
X133850000Y-105250000D01*
X146950000Y-112200000D02*
X153550000Y-112200000D01*
X153550000Y-112200000D02*
X154750000Y-112200000D01*
X163500000Y-112200000D02*
X164650000Y-111050000D01*
X154750000Y-112200000D02*
X163500000Y-112200000D01*
X164650000Y-111050000D02*
X164650000Y-111050000D01*
X131700000Y-105250000D02*
X134900000Y-105250000D01*
X141850000Y-112200000D02*
X142800000Y-112200000D01*
X134900000Y-105250000D02*
X141850000Y-112200000D01*
X142800000Y-112200000D02*
X146950000Y-112200000D01*
X142100000Y-112200000D02*
X142800000Y-112200000D01*
X136450000Y-91550000D02*
X137350000Y-91550000D01*
X128200000Y-99800000D02*
X136450000Y-91550000D01*
X128200000Y-101200000D02*
X128200000Y-99800000D01*
X127000000Y-103450000D02*
X127000000Y-102400000D01*
X127000000Y-102400000D02*
X128200000Y-101200000D01*
X126250000Y-104200000D02*
X127000000Y-103450000D01*
X141950000Y-86950000D02*
X137350000Y-91550000D01*
X141300000Y-86750000D02*
X141300000Y-87000000D01*
X142000000Y-86300000D02*
X141750000Y-86300000D01*
X141750000Y-86300000D02*
X141300000Y-86750000D01*
X152100000Y-86300000D02*
X142000000Y-86300000D01*
X154000000Y-84400000D02*
X152100000Y-86300000D01*
X137150000Y-91150000D02*
X137250000Y-91050000D01*
X126600000Y-102200000D02*
X127800000Y-101000000D01*
X126600000Y-102800000D02*
X126600000Y-102200000D01*
X126000000Y-103400000D02*
X126600000Y-102800000D01*
X127800000Y-99650000D02*
X136300000Y-91150000D01*
X136300000Y-91150000D02*
X137150000Y-91150000D01*
X127800000Y-101000000D02*
X127800000Y-99650000D01*
X141300000Y-87000000D02*
X137250000Y-91050000D01*
X127400000Y-100800000D02*
X126000000Y-102200000D01*
X127400000Y-99500000D02*
X127400000Y-100800000D01*
X126000000Y-102200000D02*
X126000000Y-102550000D01*
X136650000Y-90250000D02*
X127400000Y-99500000D01*
X127700000Y-104400000D02*
X128400000Y-103700000D01*
X127700000Y-105400000D02*
X127700000Y-104400000D01*
X127050000Y-107700000D02*
X126900000Y-107850000D01*
X127050000Y-104650000D02*
X127050000Y-104150000D01*
X127050000Y-104800000D02*
X127050000Y-104200000D01*
X127050000Y-104650000D02*
X127050000Y-104800000D01*
X127050000Y-104800000D02*
X127050000Y-107700000D01*
X127050000Y-104200000D02*
X127500000Y-103750000D01*
X127500000Y-103750000D02*
X127500000Y-102650000D01*
X129650000Y-100500000D02*
X129125000Y-101025000D01*
X129650000Y-99330000D02*
X129650000Y-100500000D01*
X127500000Y-102650000D02*
X129125000Y-101025000D01*
X167420000Y-89750000D02*
X167420000Y-89750000D01*
D21*
X153654854Y-89750000D02*
X167420000Y-89750000D01*
X147000000Y-96404854D02*
X153654854Y-89750000D01*
X147000000Y-100140000D02*
X147000000Y-96404854D01*
D20*
X123350000Y-94750000D02*
X118550000Y-94750000D01*
D21*
X123350000Y-94750000D02*
X123350000Y-93150000D01*
X123350000Y-93150000D02*
X123400000Y-93100000D01*
D19*
X124940000Y-110510000D02*
X125800000Y-109650000D01*
X124940000Y-110760000D02*
X124940000Y-110510000D01*
X171670200Y-115670200D02*
X135013421Y-115670200D01*
X135031558Y-115626414D01*
X135054800Y-115509568D01*
X135054800Y-115390432D01*
X135031558Y-115273586D01*
X134985966Y-115163520D01*
X134919779Y-115064463D01*
X134835537Y-114980221D01*
X134736480Y-114914034D01*
X134626414Y-114868442D01*
X134509568Y-114845200D01*
X134390432Y-114845200D01*
X134273586Y-114868442D01*
X134163520Y-114914034D01*
X134064463Y-114980221D01*
X133980221Y-115064463D01*
X133927344Y-115143600D01*
X131658337Y-115143600D01*
X129855169Y-113340432D01*
X132045200Y-113340432D01*
X132045200Y-113459568D01*
X132068442Y-113576414D01*
X132114034Y-113686480D01*
X132180221Y-113785537D01*
X132264463Y-113869779D01*
X132363520Y-113935966D01*
X132473586Y-113981558D01*
X132590432Y-114004800D01*
X132709568Y-114004800D01*
X132826414Y-113981558D01*
X132936480Y-113935966D01*
X133035537Y-113869779D01*
X133119779Y-113785537D01*
X133185966Y-113686480D01*
X133231558Y-113576414D01*
X133254800Y-113459568D01*
X133254800Y-113404800D01*
X133309568Y-113404800D01*
X133426414Y-113381558D01*
X133536480Y-113335966D01*
X133635537Y-113269779D01*
X133719779Y-113185537D01*
X133785966Y-113086480D01*
X133831558Y-112976414D01*
X133854800Y-112859568D01*
X133854800Y-112740432D01*
X133831558Y-112623586D01*
X133785966Y-112513520D01*
X133719779Y-112414463D01*
X133635537Y-112330221D01*
X133536480Y-112264034D01*
X133426414Y-112218442D01*
X133309568Y-112195200D01*
X133190432Y-112195200D01*
X133073586Y-112218442D01*
X132963520Y-112264034D01*
X132864463Y-112330221D01*
X132780221Y-112414463D01*
X132714034Y-112513520D01*
X132668442Y-112623586D01*
X132645200Y-112740432D01*
X132645200Y-112795200D01*
X132590432Y-112795200D01*
X132473586Y-112818442D01*
X132363520Y-112864034D01*
X132264463Y-112930221D01*
X132180221Y-113014463D01*
X132114034Y-113113520D01*
X132068442Y-113223586D01*
X132045200Y-113340432D01*
X129855169Y-113340432D01*
X129606400Y-113091664D01*
X129606400Y-112674439D01*
X129623586Y-112681558D01*
X129740432Y-112704800D01*
X129859568Y-112704800D01*
X129976414Y-112681558D01*
X130086480Y-112635966D01*
X130185537Y-112569779D01*
X130269779Y-112485537D01*
X130335966Y-112386480D01*
X130381558Y-112276414D01*
X130404800Y-112159568D01*
X130404800Y-112040432D01*
X130382631Y-111928983D01*
X130486480Y-111885966D01*
X130585537Y-111819779D01*
X130648916Y-111756400D01*
X131230047Y-111756400D01*
X131250000Y-111758365D01*
X131269953Y-111756400D01*
X131269960Y-111756400D01*
X131329668Y-111750519D01*
X131406275Y-111727281D01*
X131476876Y-111689544D01*
X131538758Y-111638758D01*
X131551482Y-111623254D01*
X133473255Y-109701481D01*
X133488758Y-109688758D01*
X133539544Y-109626876D01*
X133577281Y-109556275D01*
X133600519Y-109479668D01*
X133606400Y-109419960D01*
X133606400Y-109419954D01*
X133608365Y-109400001D01*
X133606400Y-109380048D01*
X133606400Y-109174439D01*
X133623586Y-109181558D01*
X133740432Y-109204800D01*
X133859568Y-109204800D01*
X133976414Y-109181558D01*
X134086480Y-109135966D01*
X134185537Y-109069779D01*
X134190290Y-109065026D01*
X134751745Y-109626482D01*
X134751751Y-109626487D01*
X139948523Y-114823260D01*
X139961242Y-114838758D01*
X139976740Y-114851477D01*
X139976745Y-114851482D01*
X139997412Y-114868442D01*
X140023124Y-114889544D01*
X140068942Y-114914034D01*
X140093725Y-114927281D01*
X140170331Y-114950519D01*
X140177604Y-114951235D01*
X140230040Y-114956400D01*
X140230047Y-114956400D01*
X140250000Y-114958365D01*
X140269953Y-114956400D01*
X141751084Y-114956400D01*
X141814463Y-115019779D01*
X141913520Y-115085966D01*
X142023586Y-115131558D01*
X142140432Y-115154800D01*
X142259568Y-115154800D01*
X142376414Y-115131558D01*
X142486480Y-115085966D01*
X142585537Y-115019779D01*
X142669779Y-114935537D01*
X142735966Y-114836480D01*
X142781558Y-114726414D01*
X142804800Y-114609568D01*
X142804800Y-114490432D01*
X142781558Y-114373586D01*
X142774439Y-114356400D01*
X151481664Y-114356400D01*
X151595200Y-114469936D01*
X151595200Y-114559568D01*
X151618442Y-114676414D01*
X151664034Y-114786480D01*
X151730221Y-114885537D01*
X151814463Y-114969779D01*
X151913520Y-115035966D01*
X152023586Y-115081558D01*
X152140432Y-115104800D01*
X152259568Y-115104800D01*
X152376414Y-115081558D01*
X152486480Y-115035966D01*
X152585537Y-114969779D01*
X152669779Y-114885537D01*
X152735966Y-114786480D01*
X152781558Y-114676414D01*
X152804800Y-114559568D01*
X152804800Y-114440432D01*
X152781558Y-114323586D01*
X152735966Y-114213520D01*
X152669779Y-114114463D01*
X152585537Y-114030221D01*
X152486480Y-113964034D01*
X152376414Y-113918442D01*
X152259568Y-113895200D01*
X152169936Y-113895200D01*
X151951481Y-113676745D01*
X151938758Y-113661242D01*
X151876876Y-113610456D01*
X151806275Y-113572719D01*
X151729668Y-113549481D01*
X151669960Y-113543600D01*
X151669953Y-113543600D01*
X151650000Y-113541635D01*
X151630047Y-113543600D01*
X140618337Y-113543600D01*
X134959632Y-107884896D01*
X134976414Y-107881558D01*
X135086480Y-107835966D01*
X135185537Y-107769779D01*
X135269779Y-107685537D01*
X135335966Y-107586480D01*
X135381558Y-107476414D01*
X135401487Y-107376223D01*
X135795200Y-107769937D01*
X135795200Y-107859568D01*
X135818442Y-107976414D01*
X135864034Y-108086480D01*
X135930221Y-108185537D01*
X136014463Y-108269779D01*
X136113520Y-108335966D01*
X136223586Y-108381558D01*
X136340432Y-108404800D01*
X136430064Y-108404800D01*
X141198518Y-113173254D01*
X141211242Y-113188758D01*
X141273124Y-113239544D01*
X141343725Y-113277281D01*
X141402502Y-113295110D01*
X141420331Y-113300519D01*
X141428335Y-113301307D01*
X141480040Y-113306400D01*
X141480046Y-113306400D01*
X141499999Y-113308365D01*
X141519952Y-113306400D01*
X147451084Y-113306400D01*
X147514463Y-113369779D01*
X147613520Y-113435966D01*
X147723586Y-113481558D01*
X147840432Y-113504800D01*
X147959568Y-113504800D01*
X148076414Y-113481558D01*
X148186480Y-113435966D01*
X148285537Y-113369779D01*
X148348916Y-113306400D01*
X160001084Y-113306400D01*
X160064463Y-113369779D01*
X160163520Y-113435966D01*
X160273586Y-113481558D01*
X160390432Y-113504800D01*
X160509568Y-113504800D01*
X160626414Y-113481558D01*
X160736480Y-113435966D01*
X160835537Y-113369779D01*
X160843677Y-113361639D01*
X168095200Y-113361639D01*
X168095200Y-113638361D01*
X168149186Y-113909765D01*
X168255083Y-114165422D01*
X168408821Y-114395508D01*
X168604492Y-114591179D01*
X168834578Y-114744917D01*
X169090235Y-114850814D01*
X169361639Y-114904800D01*
X169638361Y-114904800D01*
X169909765Y-114850814D01*
X170165422Y-114744917D01*
X170395508Y-114591179D01*
X170591179Y-114395508D01*
X170744917Y-114165422D01*
X170850814Y-113909765D01*
X170904800Y-113638361D01*
X170904800Y-113361639D01*
X170850814Y-113090235D01*
X170744917Y-112834578D01*
X170591179Y-112604492D01*
X170395508Y-112408821D01*
X170165422Y-112255083D01*
X169909765Y-112149186D01*
X169638361Y-112095200D01*
X169361639Y-112095200D01*
X169090235Y-112149186D01*
X168834578Y-112255083D01*
X168604492Y-112408821D01*
X168408821Y-112604492D01*
X168255083Y-112834578D01*
X168149186Y-113090235D01*
X168095200Y-113361639D01*
X160843677Y-113361639D01*
X160919779Y-113285537D01*
X160985966Y-113186480D01*
X161031558Y-113076414D01*
X161054800Y-112959568D01*
X161054800Y-112840432D01*
X161031558Y-112723586D01*
X160985966Y-112613520D01*
X160981209Y-112606400D01*
X163480047Y-112606400D01*
X163500000Y-112608365D01*
X163501610Y-112608206D01*
X163495200Y-112640432D01*
X163495200Y-112759568D01*
X163518442Y-112876414D01*
X163564034Y-112986480D01*
X163630221Y-113085537D01*
X163714463Y-113169779D01*
X163813520Y-113235966D01*
X163923586Y-113281558D01*
X164040432Y-113304800D01*
X164159568Y-113304800D01*
X164276414Y-113281558D01*
X164386480Y-113235966D01*
X164485537Y-113169779D01*
X164569779Y-113085537D01*
X164635966Y-112986480D01*
X164681558Y-112876414D01*
X164704800Y-112759568D01*
X164704800Y-112640432D01*
X164697712Y-112604800D01*
X164709568Y-112604800D01*
X164826414Y-112581558D01*
X164936480Y-112535966D01*
X165035537Y-112469779D01*
X165119779Y-112385537D01*
X165185966Y-112286480D01*
X165231558Y-112176414D01*
X165254800Y-112059568D01*
X165254800Y-111940432D01*
X165231558Y-111823586D01*
X165185966Y-111713520D01*
X165119779Y-111614463D01*
X165035537Y-111530221D01*
X165027723Y-111525000D01*
X165035537Y-111519779D01*
X165119779Y-111435537D01*
X165185966Y-111336480D01*
X165231558Y-111226414D01*
X165254800Y-111109568D01*
X165254800Y-110990432D01*
X165231558Y-110873586D01*
X165185966Y-110763520D01*
X165119779Y-110664463D01*
X165035537Y-110580221D01*
X164936480Y-110514034D01*
X164826414Y-110468442D01*
X164709568Y-110445200D01*
X164590432Y-110445200D01*
X164473586Y-110468442D01*
X164363520Y-110514034D01*
X164264463Y-110580221D01*
X164180221Y-110664463D01*
X164114034Y-110763520D01*
X164068442Y-110873586D01*
X164045200Y-110990432D01*
X164045200Y-111080063D01*
X163331664Y-111793600D01*
X160581209Y-111793600D01*
X160585966Y-111786480D01*
X160631558Y-111676414D01*
X160654800Y-111559568D01*
X160654800Y-111440432D01*
X160631558Y-111323586D01*
X160585966Y-111213520D01*
X160519779Y-111114463D01*
X160435537Y-111030221D01*
X160336480Y-110964034D01*
X160226414Y-110918442D01*
X160109568Y-110895200D01*
X159990432Y-110895200D01*
X159873586Y-110918442D01*
X159763520Y-110964034D01*
X159664463Y-111030221D01*
X159580221Y-111114463D01*
X159514034Y-111213520D01*
X159468442Y-111323586D01*
X159445200Y-111440432D01*
X159445200Y-111559568D01*
X159468442Y-111676414D01*
X159514034Y-111786480D01*
X159518791Y-111793600D01*
X155198916Y-111793600D01*
X155135537Y-111730221D01*
X155036480Y-111664034D01*
X154926414Y-111618442D01*
X154809568Y-111595200D01*
X154690432Y-111595200D01*
X154573586Y-111618442D01*
X154463520Y-111664034D01*
X154364463Y-111730221D01*
X154301084Y-111793600D01*
X154281209Y-111793600D01*
X154285966Y-111786480D01*
X154331558Y-111676414D01*
X154354800Y-111559568D01*
X154354800Y-111440432D01*
X154331558Y-111323586D01*
X154285966Y-111213520D01*
X154219779Y-111114463D01*
X154135537Y-111030221D01*
X154036480Y-110964034D01*
X153926414Y-110918442D01*
X153809568Y-110895200D01*
X153690432Y-110895200D01*
X153573586Y-110918442D01*
X153463520Y-110964034D01*
X153364463Y-111030221D01*
X153280221Y-111114463D01*
X153214034Y-111213520D01*
X153168442Y-111323586D01*
X153145200Y-111440432D01*
X153145200Y-111559568D01*
X153168442Y-111676414D01*
X153214034Y-111786480D01*
X153218791Y-111793600D01*
X147398916Y-111793600D01*
X147335537Y-111730221D01*
X147236480Y-111664034D01*
X147126414Y-111618442D01*
X147009568Y-111595200D01*
X146890432Y-111595200D01*
X146773586Y-111618442D01*
X146663520Y-111664034D01*
X146564463Y-111730221D01*
X146501084Y-111793600D01*
X142018336Y-111793600D01*
X140729536Y-110504800D01*
X140809568Y-110504800D01*
X140926414Y-110481558D01*
X141036480Y-110435966D01*
X141135537Y-110369779D01*
X141200000Y-110305316D01*
X141264463Y-110369779D01*
X141363520Y-110435966D01*
X141473586Y-110481558D01*
X141590432Y-110504800D01*
X141709568Y-110504800D01*
X141826414Y-110481558D01*
X141936480Y-110435966D01*
X142035537Y-110369779D01*
X142114884Y-110290432D01*
X146245200Y-110290432D01*
X146245200Y-110409568D01*
X146268442Y-110526414D01*
X146314034Y-110636480D01*
X146380221Y-110735537D01*
X146464463Y-110819779D01*
X146563520Y-110885966D01*
X146673586Y-110931558D01*
X146790432Y-110954800D01*
X146909568Y-110954800D01*
X147026414Y-110931558D01*
X147136480Y-110885966D01*
X147235537Y-110819779D01*
X147319779Y-110735537D01*
X147385966Y-110636480D01*
X147431558Y-110526414D01*
X147454800Y-110409568D01*
X147454800Y-110290432D01*
X147545200Y-110290432D01*
X147545200Y-110409568D01*
X147568442Y-110526414D01*
X147614034Y-110636480D01*
X147680221Y-110735537D01*
X147764463Y-110819779D01*
X147863520Y-110885966D01*
X147973586Y-110931558D01*
X148090432Y-110954800D01*
X148209568Y-110954800D01*
X148326414Y-110931558D01*
X148436480Y-110885966D01*
X148535537Y-110819779D01*
X148619779Y-110735537D01*
X148685966Y-110636480D01*
X148731558Y-110526414D01*
X148754800Y-110409568D01*
X148754800Y-110290432D01*
X148731558Y-110173586D01*
X148685966Y-110063520D01*
X148619779Y-109964463D01*
X148535537Y-109880221D01*
X148436480Y-109814034D01*
X148326414Y-109768442D01*
X148209568Y-109745200D01*
X148090432Y-109745200D01*
X147973586Y-109768442D01*
X147863520Y-109814034D01*
X147764463Y-109880221D01*
X147680221Y-109964463D01*
X147614034Y-110063520D01*
X147568442Y-110173586D01*
X147545200Y-110290432D01*
X147454800Y-110290432D01*
X147431558Y-110173586D01*
X147385966Y-110063520D01*
X147319779Y-109964463D01*
X147235537Y-109880221D01*
X147136480Y-109814034D01*
X147026414Y-109768442D01*
X146909568Y-109745200D01*
X146790432Y-109745200D01*
X146673586Y-109768442D01*
X146563520Y-109814034D01*
X146464463Y-109880221D01*
X146380221Y-109964463D01*
X146314034Y-110063520D01*
X146268442Y-110173586D01*
X146245200Y-110290432D01*
X142114884Y-110290432D01*
X142119779Y-110285537D01*
X142185966Y-110186480D01*
X142231558Y-110076414D01*
X142254800Y-109959568D01*
X142254800Y-109840432D01*
X142231558Y-109723586D01*
X142185966Y-109613520D01*
X142119779Y-109514463D01*
X142035537Y-109430221D01*
X141936480Y-109364034D01*
X141826414Y-109318442D01*
X141709568Y-109295200D01*
X141590432Y-109295200D01*
X141473586Y-109318442D01*
X141363520Y-109364034D01*
X141264463Y-109430221D01*
X141200000Y-109494684D01*
X141135537Y-109430221D01*
X141036480Y-109364034D01*
X140926414Y-109318442D01*
X140809568Y-109295200D01*
X140690432Y-109295200D01*
X140573586Y-109318442D01*
X140463520Y-109364034D01*
X140364463Y-109430221D01*
X140280221Y-109514463D01*
X140214034Y-109613520D01*
X140168442Y-109723586D01*
X140145200Y-109840432D01*
X140145200Y-109920464D01*
X139026238Y-108801502D01*
X168898400Y-108801502D01*
X168898400Y-109018498D01*
X168940734Y-109231325D01*
X169023775Y-109431803D01*
X169144332Y-109612229D01*
X169297771Y-109765668D01*
X169478197Y-109886225D01*
X169678675Y-109969266D01*
X169891502Y-110011600D01*
X170108498Y-110011600D01*
X170321325Y-109969266D01*
X170521803Y-109886225D01*
X170702229Y-109765668D01*
X170855668Y-109612229D01*
X170976225Y-109431803D01*
X171059266Y-109231325D01*
X171101600Y-109018498D01*
X171101600Y-108801502D01*
X171059266Y-108588675D01*
X170976225Y-108388197D01*
X170855668Y-108207771D01*
X170702229Y-108054332D01*
X170521803Y-107933775D01*
X170321325Y-107850734D01*
X170108498Y-107808400D01*
X169891502Y-107808400D01*
X169678675Y-107850734D01*
X169478197Y-107933775D01*
X169297771Y-108054332D01*
X169144332Y-108207771D01*
X169023775Y-108388197D01*
X168940734Y-108588675D01*
X168898400Y-108801502D01*
X139026238Y-108801502D01*
X137004800Y-106780064D01*
X137004800Y-106690432D01*
X136981558Y-106573586D01*
X136935966Y-106463520D01*
X136869779Y-106364463D01*
X136785537Y-106280221D01*
X136686480Y-106214034D01*
X136576414Y-106168442D01*
X136459568Y-106145200D01*
X136369936Y-106145200D01*
X135628149Y-105403413D01*
X135650519Y-105329668D01*
X135658366Y-105250000D01*
X135650519Y-105170332D01*
X135627281Y-105093725D01*
X135589544Y-105023124D01*
X135538758Y-104961242D01*
X135476876Y-104910456D01*
X135406275Y-104872719D01*
X135329668Y-104849481D01*
X135269960Y-104843600D01*
X134919953Y-104843600D01*
X134900000Y-104841635D01*
X134880047Y-104843600D01*
X132148916Y-104843600D01*
X132145748Y-104840432D01*
X138845200Y-104840432D01*
X138845200Y-104959568D01*
X138868442Y-105076414D01*
X138914034Y-105186480D01*
X138980221Y-105285537D01*
X139064463Y-105369779D01*
X139163520Y-105435966D01*
X139273586Y-105481558D01*
X139390432Y-105504800D01*
X139509568Y-105504800D01*
X139626414Y-105481558D01*
X139736480Y-105435966D01*
X139835537Y-105369779D01*
X139900000Y-105305316D01*
X139964463Y-105369779D01*
X140063520Y-105435966D01*
X140173586Y-105481558D01*
X140290432Y-105504800D01*
X140409568Y-105504800D01*
X140526414Y-105481558D01*
X140636480Y-105435966D01*
X140735537Y-105369779D01*
X140819779Y-105285537D01*
X140885966Y-105186480D01*
X140931558Y-105076414D01*
X140954800Y-104959568D01*
X140954800Y-104840432D01*
X140931558Y-104723586D01*
X140885966Y-104613520D01*
X140819779Y-104514463D01*
X140735537Y-104430221D01*
X140636480Y-104364034D01*
X140526414Y-104318442D01*
X140409568Y-104295200D01*
X140290432Y-104295200D01*
X140173586Y-104318442D01*
X140063520Y-104364034D01*
X139964463Y-104430221D01*
X139900000Y-104494684D01*
X139835537Y-104430221D01*
X139736480Y-104364034D01*
X139626414Y-104318442D01*
X139509568Y-104295200D01*
X139390432Y-104295200D01*
X139273586Y-104318442D01*
X139163520Y-104364034D01*
X139064463Y-104430221D01*
X138980221Y-104514463D01*
X138914034Y-104613520D01*
X138868442Y-104723586D01*
X138845200Y-104840432D01*
X132145748Y-104840432D01*
X132085537Y-104780221D01*
X131986480Y-104714034D01*
X131915220Y-104684516D01*
X132526481Y-104073255D01*
X134493337Y-102106400D01*
X136601084Y-102106400D01*
X136664463Y-102169779D01*
X136763520Y-102235966D01*
X136873586Y-102281558D01*
X136990432Y-102304800D01*
X137109568Y-102304800D01*
X137226414Y-102281558D01*
X137336480Y-102235966D01*
X137435537Y-102169779D01*
X137519779Y-102085537D01*
X137585966Y-101986480D01*
X137631558Y-101876414D01*
X137654800Y-101759568D01*
X137654800Y-101640432D01*
X137631558Y-101523586D01*
X137585966Y-101413520D01*
X137519779Y-101314463D01*
X137435537Y-101230221D01*
X137336480Y-101164034D01*
X137226414Y-101118442D01*
X137109568Y-101095200D01*
X136990432Y-101095200D01*
X136873586Y-101118442D01*
X136763520Y-101164034D01*
X136664463Y-101230221D01*
X136601084Y-101293600D01*
X134756137Y-101293600D01*
X135038982Y-101010755D01*
X135038987Y-101010749D01*
X137199304Y-98850432D01*
X144595200Y-98850432D01*
X144595200Y-98969568D01*
X144618442Y-99086414D01*
X144664034Y-99196480D01*
X144704700Y-99257342D01*
X144704701Y-101905673D01*
X144702305Y-101930000D01*
X144704701Y-101954327D01*
X144711868Y-102027096D01*
X144716913Y-102043726D01*
X144740189Y-102120459D01*
X144786181Y-102206504D01*
X144830266Y-102260221D01*
X144848077Y-102281924D01*
X144866971Y-102297430D01*
X145404162Y-102834621D01*
X145418442Y-102906414D01*
X145464034Y-103016480D01*
X145530221Y-103115537D01*
X145614463Y-103199779D01*
X145713520Y-103265966D01*
X145823586Y-103311558D01*
X145940432Y-103334800D01*
X146059568Y-103334800D01*
X146176414Y-103311558D01*
X146286480Y-103265966D01*
X146385537Y-103199779D01*
X146469779Y-103115537D01*
X146535966Y-103016480D01*
X146581558Y-102906414D01*
X146604800Y-102789568D01*
X146604800Y-102670432D01*
X146582800Y-102559830D01*
X146582800Y-100578116D01*
X146614463Y-100609779D01*
X146713520Y-100675966D01*
X146823586Y-100721558D01*
X146940432Y-100744800D01*
X147059568Y-100744800D01*
X147176414Y-100721558D01*
X147286480Y-100675966D01*
X147385537Y-100609779D01*
X147469779Y-100525537D01*
X147535966Y-100426480D01*
X147581558Y-100316414D01*
X147604800Y-100199568D01*
X147604800Y-100080432D01*
X147581558Y-99963586D01*
X147535966Y-99853520D01*
X147469779Y-99754463D01*
X147431800Y-99716484D01*
X147431800Y-96583710D01*
X151798400Y-92217111D01*
X151798400Y-95254818D01*
X151790227Y-95270189D01*
X151777636Y-95300738D01*
X151764602Y-95331148D01*
X151763096Y-95336014D01*
X151660432Y-95676055D01*
X151654008Y-95708499D01*
X151647136Y-95740830D01*
X151646603Y-95745895D01*
X151612074Y-96098048D01*
X151610200Y-96117080D01*
X151610201Y-98532070D01*
X151610200Y-98532080D01*
X151610201Y-100982921D01*
X151611825Y-100999414D01*
X151611746Y-101010769D01*
X151612242Y-101015838D01*
X151649371Y-101369094D01*
X151656028Y-101401525D01*
X151662216Y-101433961D01*
X151663687Y-101438836D01*
X151768723Y-101778152D01*
X151781554Y-101808674D01*
X151793923Y-101839289D01*
X151796313Y-101843786D01*
X151798400Y-101847646D01*
X151798400Y-105200000D01*
X151800352Y-105219821D01*
X151806134Y-105238881D01*
X151815523Y-105256446D01*
X151828158Y-105271842D01*
X153128158Y-106571842D01*
X153143554Y-106584477D01*
X153161119Y-106593866D01*
X153180179Y-106599648D01*
X153200000Y-106601600D01*
X156554818Y-106601600D01*
X156570189Y-106609773D01*
X156600738Y-106622364D01*
X156631148Y-106635398D01*
X156636014Y-106636904D01*
X156976055Y-106739568D01*
X157008484Y-106745989D01*
X157040829Y-106752864D01*
X157045894Y-106753397D01*
X157399401Y-106788059D01*
X157417079Y-106789800D01*
X162282921Y-106789800D01*
X162299423Y-106788175D01*
X162310769Y-106788254D01*
X162315838Y-106787758D01*
X162669094Y-106750629D01*
X162701525Y-106743972D01*
X162733961Y-106737784D01*
X162738836Y-106736313D01*
X163078152Y-106631277D01*
X163108674Y-106618446D01*
X163139289Y-106606077D01*
X163143786Y-106603687D01*
X163147646Y-106601600D01*
X166500000Y-106601600D01*
X166519821Y-106599648D01*
X166538881Y-106593866D01*
X166556446Y-106584477D01*
X166571842Y-106571842D01*
X167871842Y-105271842D01*
X167884477Y-105256446D01*
X167893866Y-105238881D01*
X167899648Y-105219821D01*
X167901600Y-105200000D01*
X167901600Y-101845182D01*
X167909773Y-101829811D01*
X167922364Y-101799262D01*
X167935398Y-101768852D01*
X167936904Y-101763986D01*
X168039568Y-101423945D01*
X168045989Y-101391516D01*
X168052864Y-101359171D01*
X168053397Y-101354106D01*
X168088059Y-101000599D01*
X168089800Y-100982921D01*
X168089800Y-96117079D01*
X168088175Y-96100577D01*
X168088254Y-96089231D01*
X168087758Y-96084162D01*
X168050629Y-95730906D01*
X168043972Y-95698475D01*
X168037784Y-95666039D01*
X168036312Y-95661163D01*
X167931277Y-95321848D01*
X167918451Y-95291338D01*
X167906077Y-95260711D01*
X167903687Y-95256214D01*
X167901600Y-95252354D01*
X167901600Y-91900000D01*
X167899648Y-91880179D01*
X167893866Y-91861119D01*
X167884477Y-91843554D01*
X167871842Y-91828158D01*
X166571842Y-90528158D01*
X166556446Y-90515523D01*
X166538881Y-90506134D01*
X166519821Y-90500352D01*
X166500000Y-90498400D01*
X163145182Y-90498400D01*
X163129811Y-90490227D01*
X163099262Y-90477636D01*
X163068852Y-90464602D01*
X163063986Y-90463096D01*
X162723945Y-90360432D01*
X162691501Y-90354008D01*
X162659170Y-90347136D01*
X162654105Y-90346603D01*
X162300599Y-90311941D01*
X162282921Y-90310200D01*
X157417079Y-90310200D01*
X157400577Y-90311825D01*
X157389231Y-90311746D01*
X157384162Y-90312242D01*
X157030906Y-90349371D01*
X156998475Y-90356028D01*
X156966039Y-90362216D01*
X156961163Y-90363688D01*
X156621848Y-90468723D01*
X156591338Y-90481549D01*
X156560711Y-90493923D01*
X156556214Y-90496313D01*
X156552354Y-90498400D01*
X153517111Y-90498400D01*
X153833711Y-90181800D01*
X166996484Y-90181800D01*
X167034463Y-90219779D01*
X167133520Y-90285966D01*
X167243586Y-90331558D01*
X167360432Y-90354800D01*
X167479568Y-90354800D01*
X167596414Y-90331558D01*
X167706480Y-90285966D01*
X167805537Y-90219779D01*
X167889779Y-90135537D01*
X167955966Y-90036480D01*
X168001558Y-89926414D01*
X168024800Y-89809568D01*
X168024800Y-89690432D01*
X168001558Y-89573586D01*
X167955966Y-89463520D01*
X167889779Y-89364463D01*
X167805537Y-89280221D01*
X167706480Y-89214034D01*
X167596414Y-89168442D01*
X167479568Y-89145200D01*
X167360432Y-89145200D01*
X167243586Y-89168442D01*
X167133520Y-89214034D01*
X167034463Y-89280221D01*
X166996484Y-89318200D01*
X153676064Y-89318200D01*
X153654854Y-89316111D01*
X153633644Y-89318200D01*
X153570206Y-89324448D01*
X153488812Y-89349139D01*
X153413798Y-89389234D01*
X153348048Y-89443194D01*
X153334524Y-89459673D01*
X146709674Y-96084524D01*
X146693195Y-96098048D01*
X146639235Y-96163798D01*
X146603760Y-96230168D01*
X146599140Y-96238812D01*
X146574448Y-96320207D01*
X146566111Y-96404854D01*
X146568201Y-96426074D01*
X146568200Y-98438308D01*
X146557279Y-98421963D01*
X146473037Y-98337721D01*
X146373980Y-98271534D01*
X146263914Y-98225942D01*
X146147068Y-98202700D01*
X146027932Y-98202700D01*
X145911086Y-98225942D01*
X145801020Y-98271534D01*
X145701963Y-98337721D01*
X145617721Y-98421963D01*
X145597517Y-98452201D01*
X145585537Y-98440221D01*
X145486480Y-98374034D01*
X145376414Y-98328442D01*
X145259568Y-98305200D01*
X145140432Y-98305200D01*
X145023586Y-98328442D01*
X144913520Y-98374034D01*
X144814463Y-98440221D01*
X144730221Y-98524463D01*
X144664034Y-98623520D01*
X144618442Y-98733586D01*
X144595200Y-98850432D01*
X137199304Y-98850432D01*
X138543337Y-97506400D01*
X139830047Y-97506400D01*
X139850000Y-97508365D01*
X139869953Y-97506400D01*
X139869960Y-97506400D01*
X139929668Y-97500519D01*
X140006275Y-97477281D01*
X140076876Y-97439544D01*
X140138758Y-97388758D01*
X140151482Y-97373254D01*
X141480669Y-96044067D01*
X141468442Y-96073586D01*
X141445200Y-96190432D01*
X141445200Y-96309568D01*
X141468442Y-96426414D01*
X141514034Y-96536480D01*
X141580221Y-96635537D01*
X141619684Y-96675000D01*
X141580221Y-96714463D01*
X141514034Y-96813520D01*
X141468442Y-96923586D01*
X141445200Y-97040432D01*
X141445200Y-97159568D01*
X141468442Y-97276414D01*
X141514034Y-97386480D01*
X141580221Y-97485537D01*
X141664463Y-97569779D01*
X141763520Y-97635966D01*
X141873586Y-97681558D01*
X141990432Y-97704800D01*
X142109568Y-97704800D01*
X142226414Y-97681558D01*
X142336480Y-97635966D01*
X142435537Y-97569779D01*
X142519779Y-97485537D01*
X142585966Y-97386480D01*
X142631558Y-97276414D01*
X142654800Y-97159568D01*
X142654800Y-97040432D01*
X142631558Y-96923586D01*
X142585966Y-96813520D01*
X142519779Y-96714463D01*
X142480316Y-96675000D01*
X142519779Y-96635537D01*
X142585966Y-96536480D01*
X142631558Y-96426414D01*
X142654800Y-96309568D01*
X142654800Y-96190432D01*
X142631558Y-96073586D01*
X142585966Y-95963520D01*
X142519779Y-95864463D01*
X142435537Y-95780221D01*
X142336480Y-95714034D01*
X142226414Y-95668442D01*
X142109568Y-95645200D01*
X141990432Y-95645200D01*
X141873586Y-95668442D01*
X141844068Y-95680669D01*
X141944937Y-95579800D01*
X142034568Y-95579800D01*
X142151414Y-95556558D01*
X142261480Y-95510966D01*
X142360537Y-95444779D01*
X142444779Y-95360537D01*
X142510966Y-95261480D01*
X142556558Y-95151414D01*
X142579800Y-95034568D01*
X142579800Y-94915432D01*
X142556558Y-94798586D01*
X142510966Y-94688520D01*
X142444779Y-94589463D01*
X142360537Y-94505221D01*
X142261480Y-94439034D01*
X142151414Y-94393442D01*
X142034568Y-94370200D01*
X141915432Y-94370200D01*
X141798586Y-94393442D01*
X141688520Y-94439034D01*
X141655636Y-94461006D01*
X141635966Y-94413520D01*
X141569779Y-94314463D01*
X141555316Y-94300000D01*
X141569779Y-94285537D01*
X141635966Y-94186480D01*
X141681558Y-94076414D01*
X141704800Y-93959568D01*
X141704800Y-93840432D01*
X141681558Y-93723586D01*
X141635966Y-93613520D01*
X141569779Y-93514463D01*
X141485537Y-93430221D01*
X141386480Y-93364034D01*
X141276414Y-93318442D01*
X141159568Y-93295200D01*
X141040432Y-93295200D01*
X140923586Y-93318442D01*
X140813520Y-93364034D01*
X140714463Y-93430221D01*
X140630221Y-93514463D01*
X140564034Y-93613520D01*
X140518442Y-93723586D01*
X140516188Y-93734917D01*
X140476414Y-93718442D01*
X140359568Y-93695200D01*
X140240432Y-93695200D01*
X140123586Y-93718442D01*
X140013520Y-93764034D01*
X139914463Y-93830221D01*
X139830221Y-93914463D01*
X139764034Y-94013520D01*
X139718442Y-94123586D01*
X139695200Y-94240432D01*
X139695200Y-94359568D01*
X139718442Y-94476414D01*
X139764034Y-94586480D01*
X139830221Y-94685537D01*
X139844684Y-94700000D01*
X139830221Y-94714463D01*
X139764034Y-94813520D01*
X139718442Y-94923586D01*
X139695200Y-95040432D01*
X139695200Y-95159568D01*
X139718442Y-95276414D01*
X139764034Y-95386480D01*
X139830221Y-95485537D01*
X139914463Y-95569779D01*
X140013520Y-95635966D01*
X140123586Y-95681558D01*
X140240432Y-95704800D01*
X140359568Y-95704800D01*
X140476414Y-95681558D01*
X140586480Y-95635966D01*
X140685537Y-95569779D01*
X140769779Y-95485537D01*
X140835966Y-95386480D01*
X140881558Y-95276414D01*
X140883812Y-95265083D01*
X140923586Y-95281558D01*
X141040432Y-95304800D01*
X141070463Y-95304800D01*
X139681664Y-96693600D01*
X138394953Y-96693600D01*
X138375000Y-96691635D01*
X138355047Y-96693600D01*
X138355040Y-96693600D01*
X138302604Y-96698765D01*
X138295331Y-96699481D01*
X138245942Y-96714463D01*
X138218725Y-96722719D01*
X138148124Y-96760456D01*
X138122746Y-96781283D01*
X138101745Y-96798518D01*
X138101740Y-96798523D01*
X138086242Y-96811242D01*
X138073523Y-96826740D01*
X134509932Y-100390332D01*
X134464252Y-100436013D01*
X134464245Y-100436018D01*
X134156400Y-100743863D01*
X134156400Y-98298916D01*
X134219779Y-98235537D01*
X134285966Y-98136480D01*
X134331558Y-98026414D01*
X134354800Y-97909568D01*
X134354800Y-97790432D01*
X134331558Y-97673586D01*
X134285966Y-97563520D01*
X134219779Y-97464463D01*
X134135537Y-97380221D01*
X134036480Y-97314034D01*
X133926414Y-97268442D01*
X133809568Y-97245200D01*
X133690432Y-97245200D01*
X133573586Y-97268442D01*
X133463520Y-97314034D01*
X133364463Y-97380221D01*
X133280221Y-97464463D01*
X133214034Y-97563520D01*
X133168442Y-97673586D01*
X133145200Y-97790432D01*
X133145200Y-97909568D01*
X133168442Y-98026414D01*
X133214034Y-98136480D01*
X133280221Y-98235537D01*
X133343601Y-98298917D01*
X133343600Y-100981663D01*
X131501746Y-102823518D01*
X128806400Y-105518864D01*
X128806400Y-104943336D01*
X129373254Y-104376482D01*
X129388758Y-104363758D01*
X129439544Y-104301876D01*
X129477281Y-104231275D01*
X129498143Y-104162500D01*
X129500519Y-104154669D01*
X129502945Y-104130040D01*
X129506400Y-104094960D01*
X129506400Y-104094954D01*
X129508365Y-104075001D01*
X129506400Y-104055048D01*
X129506400Y-103245689D01*
X129508365Y-103225736D01*
X129506400Y-103205783D01*
X129506400Y-103205776D01*
X129500694Y-103147846D01*
X129500519Y-103146067D01*
X129477281Y-103069461D01*
X129470256Y-103056319D01*
X129439544Y-102998860D01*
X129413685Y-102967351D01*
X129401482Y-102952481D01*
X129401477Y-102952476D01*
X129388758Y-102936978D01*
X129373260Y-102924259D01*
X129025746Y-102576746D01*
X129013022Y-102561242D01*
X128951140Y-102510456D01*
X128880539Y-102472719D01*
X128803932Y-102449481D01*
X128749429Y-102444113D01*
X128685537Y-102380221D01*
X128586480Y-102314034D01*
X128476414Y-102268442D01*
X128459632Y-102265104D01*
X129426482Y-101298255D01*
X129426487Y-101298249D01*
X129923254Y-100801482D01*
X129938758Y-100788758D01*
X129989544Y-100726876D01*
X130027281Y-100656275D01*
X130047813Y-100588589D01*
X130050519Y-100579669D01*
X130051909Y-100565552D01*
X130056400Y-100519960D01*
X130056400Y-100519954D01*
X130058365Y-100500001D01*
X130056400Y-100480048D01*
X130056400Y-99778916D01*
X130119779Y-99715537D01*
X130185966Y-99616480D01*
X130231558Y-99506414D01*
X130236696Y-99480583D01*
X130545200Y-99480583D01*
X130545200Y-99619417D01*
X130572285Y-99755583D01*
X130625415Y-99883848D01*
X130702546Y-99999284D01*
X130800716Y-100097454D01*
X130916152Y-100174585D01*
X131044417Y-100227715D01*
X131180583Y-100254800D01*
X131319417Y-100254800D01*
X131455583Y-100227715D01*
X131583848Y-100174585D01*
X131699284Y-100097454D01*
X131797454Y-99999284D01*
X131874585Y-99883848D01*
X131927715Y-99755583D01*
X131954800Y-99619417D01*
X131954800Y-99480583D01*
X131927715Y-99344417D01*
X131874585Y-99216152D01*
X131797454Y-99100716D01*
X131699284Y-99002546D01*
X131583848Y-98925415D01*
X131455583Y-98872285D01*
X131319417Y-98845200D01*
X131180583Y-98845200D01*
X131044417Y-98872285D01*
X130916152Y-98925415D01*
X130800716Y-99002546D01*
X130702546Y-99100716D01*
X130625415Y-99216152D01*
X130572285Y-99344417D01*
X130545200Y-99480583D01*
X130236696Y-99480583D01*
X130254800Y-99389568D01*
X130254800Y-99270432D01*
X130231558Y-99153586D01*
X130185966Y-99043520D01*
X130119779Y-98944463D01*
X130035537Y-98860221D01*
X129936480Y-98794034D01*
X129826414Y-98748442D01*
X129826314Y-98748422D01*
X136618337Y-91956400D01*
X137330047Y-91956400D01*
X137350000Y-91958365D01*
X137369953Y-91956400D01*
X137369960Y-91956400D01*
X137429668Y-91950519D01*
X137506275Y-91927281D01*
X137576876Y-91889544D01*
X137638758Y-91838758D01*
X137651482Y-91823254D01*
X139769708Y-89705028D01*
X139764034Y-89713520D01*
X139718442Y-89823586D01*
X139695200Y-89940432D01*
X139695200Y-90059568D01*
X139718442Y-90176414D01*
X139764034Y-90286480D01*
X139830221Y-90385537D01*
X139844684Y-90400000D01*
X139830221Y-90414463D01*
X139764034Y-90513520D01*
X139718442Y-90623586D01*
X139695200Y-90740432D01*
X139695200Y-90859568D01*
X139718442Y-90976414D01*
X139764034Y-91086480D01*
X139830221Y-91185537D01*
X139914463Y-91269779D01*
X140013520Y-91335966D01*
X140123586Y-91381558D01*
X140240432Y-91404800D01*
X140359568Y-91404800D01*
X140476414Y-91381558D01*
X140516188Y-91365083D01*
X140518442Y-91376414D01*
X140564034Y-91486480D01*
X140630221Y-91585537D01*
X140714463Y-91669779D01*
X140813520Y-91735966D01*
X140923586Y-91781558D01*
X141040432Y-91804800D01*
X141159568Y-91804800D01*
X141276414Y-91781558D01*
X141386480Y-91735966D01*
X141485537Y-91669779D01*
X141569779Y-91585537D01*
X141635966Y-91486480D01*
X141681558Y-91376414D01*
X141704800Y-91259568D01*
X141704800Y-91140432D01*
X141681558Y-91023586D01*
X141635966Y-90913520D01*
X141569779Y-90814463D01*
X141555316Y-90800000D01*
X141569779Y-90785537D01*
X141635966Y-90686480D01*
X141681558Y-90576414D01*
X141704800Y-90459568D01*
X141704800Y-90340432D01*
X141681558Y-90223586D01*
X141635966Y-90113520D01*
X141569779Y-90014463D01*
X141485537Y-89930221D01*
X141386480Y-89864034D01*
X141276414Y-89818442D01*
X141159568Y-89795200D01*
X141040432Y-89795200D01*
X140923586Y-89818442D01*
X140883812Y-89834917D01*
X140881558Y-89823586D01*
X140835966Y-89713520D01*
X140769779Y-89614463D01*
X140685537Y-89530221D01*
X140586480Y-89464034D01*
X140476414Y-89418442D01*
X140359568Y-89395200D01*
X140240432Y-89395200D01*
X140123586Y-89418442D01*
X140013520Y-89464034D01*
X140005028Y-89469708D01*
X141919936Y-87554800D01*
X142009568Y-87554800D01*
X142126414Y-87531558D01*
X142236480Y-87485966D01*
X142335537Y-87419779D01*
X142419779Y-87335537D01*
X142485966Y-87236480D01*
X142531558Y-87126414D01*
X142554800Y-87009568D01*
X142554800Y-86890432D01*
X142531558Y-86773586D01*
X142503728Y-86706400D01*
X152080047Y-86706400D01*
X152100000Y-86708365D01*
X152119953Y-86706400D01*
X152119960Y-86706400D01*
X152179668Y-86700519D01*
X152256275Y-86677281D01*
X152326876Y-86639544D01*
X152388758Y-86588758D01*
X152401482Y-86573254D01*
X153969937Y-85004800D01*
X154059568Y-85004800D01*
X154176414Y-84981558D01*
X154286480Y-84935966D01*
X154385537Y-84869779D01*
X154469779Y-84785537D01*
X154535966Y-84686480D01*
X154581558Y-84576414D01*
X154604800Y-84459568D01*
X154604800Y-84340432D01*
X154581558Y-84223586D01*
X154535966Y-84113520D01*
X154469779Y-84014463D01*
X154385537Y-83930221D01*
X154286480Y-83864034D01*
X154176414Y-83818442D01*
X154133973Y-83810000D01*
X158233725Y-83810000D01*
X158233725Y-83820000D01*
X158236480Y-83860988D01*
X158236838Y-83863639D01*
X158254401Y-83932346D01*
X158255103Y-83934176D01*
X158282026Y-83987900D01*
X158283072Y-83989558D01*
X158319987Y-84037012D01*
X158321337Y-84038434D01*
X158366636Y-84077639D01*
X158368237Y-84078771D01*
X158420536Y-84108513D01*
X158422327Y-84109310D01*
X158479201Y-84128201D01*
X158481113Y-84128634D01*
X158510771Y-84133833D01*
X158670771Y-84153833D01*
X158679597Y-84154806D01*
X158680172Y-84154861D01*
X158688962Y-84155575D01*
X158838962Y-84165575D01*
X158842429Y-84165778D01*
X158879897Y-84224658D01*
X158939176Y-84326277D01*
X158972258Y-84397955D01*
X158984271Y-84494062D01*
X158993725Y-84834391D01*
X158993725Y-85150000D01*
X158993814Y-85157363D01*
X158993826Y-85157862D01*
X158994119Y-85165794D01*
X159004119Y-85365794D01*
X159005370Y-85382083D01*
X159005480Y-85383144D01*
X159007595Y-85399327D01*
X159037595Y-85589327D01*
X159039011Y-85597567D01*
X159039104Y-85598067D01*
X159040510Y-85605156D01*
X159080510Y-85795156D01*
X159089657Y-85828913D01*
X159090380Y-85831082D01*
X159103397Y-85863748D01*
X159173397Y-86013748D01*
X159183964Y-86034326D01*
X159184705Y-86035644D01*
X159196843Y-86055438D01*
X159336843Y-86265438D01*
X159340156Y-86270306D01*
X159340370Y-86270614D01*
X159343602Y-86275176D01*
X159473602Y-86455176D01*
X159481738Y-86465934D01*
X159482277Y-86466615D01*
X159490636Y-86476723D01*
X159680636Y-86696723D01*
X159700543Y-86717687D01*
X159701904Y-86718991D01*
X159723687Y-86737974D01*
X159963687Y-86927974D01*
X159985876Y-86943981D01*
X159987377Y-86944965D01*
X160011165Y-86959067D01*
X160311165Y-87119067D01*
X160328720Y-87127721D01*
X160329879Y-87128247D01*
X160347831Y-87135716D01*
X160637831Y-87245716D01*
X160676356Y-87257496D01*
X160678908Y-87258096D01*
X160717266Y-87264494D01*
X160638949Y-87293863D01*
X160636637Y-87294740D01*
X160636434Y-87294818D01*
X160632538Y-87296346D01*
X160432538Y-87376346D01*
X160416604Y-87383250D01*
X160415577Y-87383730D01*
X160400054Y-87391529D01*
X160270054Y-87461529D01*
X160262390Y-87465798D01*
X160261890Y-87466086D01*
X160254241Y-87470641D01*
X160124241Y-87550641D01*
X160093324Y-87572407D01*
X160091402Y-87573946D01*
X160063458Y-87599300D01*
X160047069Y-87616123D01*
X160007691Y-87655036D01*
X159987975Y-87676465D01*
X159986758Y-87677921D01*
X159953398Y-87726731D01*
X159952453Y-87728449D01*
X159939298Y-87755413D01*
X159909298Y-87825413D01*
X159896910Y-87859876D01*
X159896237Y-87862171D01*
X159888028Y-87898005D01*
X159868028Y-88018005D01*
X159865697Y-88034868D01*
X159865576Y-88035968D01*
X159864035Y-88082895D01*
X159864121Y-88084853D01*
X159866904Y-88114728D01*
X159876904Y-88184728D01*
X159880653Y-88205722D01*
X159880947Y-88207091D01*
X159896004Y-88256477D01*
X159896732Y-88258298D01*
X159924332Y-88311526D01*
X159925400Y-88313169D01*
X159943030Y-88337575D01*
X159983030Y-88387575D01*
X160007253Y-88414435D01*
X160008931Y-88416088D01*
X160060744Y-88457119D01*
X160062403Y-88458163D01*
X160088558Y-88472885D01*
X160148558Y-88502885D01*
X160186083Y-88518625D01*
X160188594Y-88519487D01*
X160227974Y-88530133D01*
X160277974Y-88540133D01*
X160315322Y-88545237D01*
X160317769Y-88545419D01*
X160385331Y-88542962D01*
X160387270Y-88542675D01*
X160416708Y-88536831D01*
X160449048Y-88528746D01*
X160478053Y-88534611D01*
X160480004Y-88534803D01*
X160510000Y-88536275D01*
X160590000Y-88536275D01*
X160628320Y-88533868D01*
X160630802Y-88533555D01*
X160697174Y-88517513D01*
X160699016Y-88516843D01*
X160753209Y-88490857D01*
X160754885Y-88489840D01*
X160779765Y-88473020D01*
X160788758Y-88466275D01*
X160800000Y-88466275D01*
X160819303Y-88465666D01*
X160820554Y-88465587D01*
X160869081Y-88458591D01*
X160870992Y-88458157D01*
X160900015Y-88450045D01*
X160960015Y-88430045D01*
X160985905Y-88420091D01*
X160987567Y-88419364D01*
X161038232Y-88391216D01*
X161039848Y-88390106D01*
X161085649Y-88351547D01*
X161087018Y-88350144D01*
X161106970Y-88327575D01*
X161146970Y-88277575D01*
X161171489Y-88242058D01*
X161172919Y-88239638D01*
X161202329Y-88172723D01*
X161202898Y-88170847D01*
X161214611Y-88111947D01*
X161214803Y-88109996D01*
X161216275Y-88080000D01*
X161216275Y-88040000D01*
X161213973Y-88002520D01*
X161213674Y-88000095D01*
X161206831Y-87963292D01*
X161198659Y-87930604D01*
X161195198Y-87913297D01*
X161215044Y-87904792D01*
X161538720Y-87790553D01*
X161740442Y-87729159D01*
X161848092Y-87712598D01*
X161883878Y-87704878D01*
X161886174Y-87704237D01*
X161947865Y-87679529D01*
X161949595Y-87678607D01*
X161975438Y-87663157D01*
X162002682Y-87644994D01*
X161993999Y-87668563D01*
X161948188Y-87787670D01*
X161860721Y-87980099D01*
X161839677Y-88013769D01*
X161832538Y-88016346D01*
X161782538Y-88036346D01*
X161746209Y-88053730D01*
X161743923Y-88055015D01*
X161710235Y-88076980D01*
X161670235Y-88106980D01*
X161647729Y-88125601D01*
X161646323Y-88126882D01*
X161606714Y-88170668D01*
X161605545Y-88172242D01*
X161588796Y-88197278D01*
X161558796Y-88247278D01*
X161551294Y-88260517D01*
X161550827Y-88261391D01*
X161532512Y-88302757D01*
X161531853Y-88304603D01*
X161523169Y-88333292D01*
X161513169Y-88373292D01*
X161509261Y-88391178D01*
X161509039Y-88392363D01*
X161506167Y-88410771D01*
X161496167Y-88490771D01*
X161493815Y-88531530D01*
X161493839Y-88534184D01*
X161496904Y-88574728D01*
X161506904Y-88644728D01*
X161512019Y-88671780D01*
X161512434Y-88673538D01*
X161531039Y-88728460D01*
X161531841Y-88730249D01*
X161545397Y-88756916D01*
X161565397Y-88791916D01*
X161577916Y-88811983D01*
X161578789Y-88813269D01*
X161593030Y-88832575D01*
X161613030Y-88857575D01*
X161624143Y-88870694D01*
X161624888Y-88871525D01*
X161658821Y-88903983D01*
X161660338Y-88905226D01*
X161684562Y-88923157D01*
X161714562Y-88943157D01*
X161733783Y-88954972D01*
X161735059Y-88955693D01*
X161782757Y-88977488D01*
X161784603Y-88978147D01*
X161813292Y-88986831D01*
X161853292Y-88996831D01*
X161897525Y-89004498D01*
X161900436Y-89004785D01*
X161975331Y-89002962D01*
X161977270Y-89002675D01*
X162006708Y-88996831D01*
X162046708Y-88986831D01*
X162051211Y-88985373D01*
X162105272Y-88993096D01*
X162137629Y-88995978D01*
X162139752Y-88996054D01*
X162202276Y-88991878D01*
X162204208Y-88991548D01*
X162262148Y-88975674D01*
X162263979Y-88974973D01*
X162291442Y-88962885D01*
X162331442Y-88942885D01*
X162364561Y-88923648D01*
X162366641Y-88922259D01*
X162386379Y-88905607D01*
X162400000Y-88906275D01*
X162450000Y-88906275D01*
X162490802Y-88903545D01*
X162493443Y-88903190D01*
X162562148Y-88885674D01*
X162563979Y-88884973D01*
X162591442Y-88872885D01*
X162631442Y-88852885D01*
X162654685Y-88839973D01*
X162656166Y-88839064D01*
X162701556Y-88805042D01*
X162703009Y-88803726D01*
X162743286Y-88759332D01*
X162744455Y-88757758D01*
X162761204Y-88732722D01*
X162791204Y-88682722D01*
X162802099Y-88662945D01*
X162802763Y-88661627D01*
X162822329Y-88612723D01*
X162822898Y-88610847D01*
X162834611Y-88551947D01*
X162834803Y-88549996D01*
X162836275Y-88520000D01*
X162836275Y-88460000D01*
X162833311Y-88417490D01*
X162832926Y-88414743D01*
X162824106Y-88373113D01*
X162804106Y-88303113D01*
X162795992Y-88278659D01*
X162795394Y-88277082D01*
X162770857Y-88226791D01*
X162769840Y-88225115D01*
X162753020Y-88200235D01*
X162693020Y-88120235D01*
X162666343Y-88089219D01*
X162665471Y-88088332D01*
X162715245Y-87943986D01*
X162947039Y-87403134D01*
X162989261Y-87318690D01*
X163070687Y-87212836D01*
X163087476Y-87188695D01*
X163088494Y-87187070D01*
X163091288Y-87182094D01*
X163370065Y-87066738D01*
X163374453Y-87068201D01*
X163523039Y-87123920D01*
X163692988Y-87195478D01*
X163915627Y-87316075D01*
X164168991Y-87462246D01*
X164484179Y-87653269D01*
X164607129Y-87743433D01*
X164769545Y-87896825D01*
X164896360Y-88023640D01*
X164901967Y-88029106D01*
X164902348Y-88029468D01*
X164908423Y-88035085D01*
X165008423Y-88125085D01*
X165040873Y-88150553D01*
X165043091Y-88152064D01*
X165078558Y-88172885D01*
X165138558Y-88202885D01*
X165176231Y-88218676D01*
X165178752Y-88219540D01*
X165248053Y-88234611D01*
X165250004Y-88234803D01*
X165280000Y-88236275D01*
X165300000Y-88236275D01*
X165329996Y-88234803D01*
X165331947Y-88234611D01*
X165390847Y-88222898D01*
X165392723Y-88222329D01*
X165448183Y-88199360D01*
X165449912Y-88198436D01*
X165499917Y-88165017D01*
X165501432Y-88163773D01*
X165543773Y-88121432D01*
X165545017Y-88119917D01*
X165578436Y-88069912D01*
X165579360Y-88068183D01*
X165597895Y-88023428D01*
X165650847Y-88012898D01*
X165652723Y-88012329D01*
X165708183Y-87989360D01*
X165709912Y-87988436D01*
X165759917Y-87955017D01*
X165761432Y-87953773D01*
X165803773Y-87911432D01*
X165805017Y-87909917D01*
X165838436Y-87859912D01*
X165839360Y-87858183D01*
X165862329Y-87802723D01*
X165862898Y-87800847D01*
X165874611Y-87741947D01*
X165874803Y-87739996D01*
X165876275Y-87710000D01*
X165876275Y-87700000D01*
X165875666Y-87680697D01*
X165875587Y-87679446D01*
X165868591Y-87630919D01*
X165868157Y-87629008D01*
X165860045Y-87599985D01*
X165850045Y-87569985D01*
X165842419Y-87549562D01*
X165841876Y-87548252D01*
X165832885Y-87528558D01*
X165822885Y-87508558D01*
X165813852Y-87491813D01*
X165813223Y-87490729D01*
X165785017Y-87450083D01*
X165783773Y-87448568D01*
X165763640Y-87426360D01*
X165743640Y-87406360D01*
X165738033Y-87400894D01*
X165737652Y-87400532D01*
X165731577Y-87394915D01*
X165631577Y-87304915D01*
X165625286Y-87299407D01*
X165624888Y-87299068D01*
X165619000Y-87294177D01*
X165409000Y-87124177D01*
X165408329Y-87123636D01*
X165408206Y-87123537D01*
X165405104Y-87121073D01*
X165035104Y-86831073D01*
X165031555Y-86828333D01*
X165031363Y-86828187D01*
X165029027Y-86826428D01*
X164481633Y-86418370D01*
X163944174Y-86000347D01*
X163940056Y-85997200D01*
X163939799Y-85997007D01*
X163936024Y-85994217D01*
X163827905Y-85915585D01*
X163478415Y-85653467D01*
X162982173Y-85225337D01*
X162607516Y-84870399D01*
X162605052Y-84868090D01*
X162604902Y-84867951D01*
X162602750Y-84865976D01*
X162165721Y-84468677D01*
X161941147Y-84253867D01*
X161777048Y-84089768D01*
X161626853Y-83930186D01*
X161482969Y-83757525D01*
X161481685Y-83755995D01*
X161481609Y-83755905D01*
X161480565Y-83754675D01*
X161421119Y-83685027D01*
X161412885Y-83668558D01*
X161401313Y-83647519D01*
X161400506Y-83646179D01*
X161387363Y-83626169D01*
X161337363Y-83556169D01*
X161327907Y-83543624D01*
X161327268Y-83542820D01*
X161317155Y-83530746D01*
X161167155Y-83360746D01*
X161167153Y-83360748D01*
X161165085Y-83358423D01*
X161075085Y-83258423D01*
X161069468Y-83252348D01*
X161069106Y-83251967D01*
X161063640Y-83246360D01*
X160953640Y-83136360D01*
X160950061Y-83132839D01*
X160949813Y-83132599D01*
X160945800Y-83128785D01*
X160795800Y-82988785D01*
X160776910Y-82972540D01*
X160775634Y-82971530D01*
X160755438Y-82956843D01*
X160635438Y-82876843D01*
X160614320Y-82863964D01*
X160612911Y-82863181D01*
X160590875Y-82852074D01*
X160480875Y-82802074D01*
X160466020Y-82795787D01*
X160465044Y-82795404D01*
X160450015Y-82789955D01*
X160330015Y-82749955D01*
X160304477Y-82742656D01*
X160302798Y-82742254D01*
X160276916Y-82737225D01*
X160076916Y-82707225D01*
X160059623Y-82705131D01*
X160058485Y-82705026D01*
X160040900Y-82703913D01*
X159750900Y-82693913D01*
X159743348Y-82693746D01*
X159742838Y-82693741D01*
X159734791Y-82693768D01*
X159631207Y-82695474D01*
X159614632Y-82696196D01*
X159613558Y-82696272D01*
X159597224Y-82697869D01*
X159530808Y-82706163D01*
X159512410Y-82709031D01*
X159511224Y-82709253D01*
X159493292Y-82713169D01*
X159413292Y-82733169D01*
X159402171Y-82736172D01*
X159401434Y-82736386D01*
X159389985Y-82739955D01*
X159329985Y-82759955D01*
X159309562Y-82767581D01*
X159308252Y-82768124D01*
X159288558Y-82777115D01*
X159188558Y-82827115D01*
X159174823Y-82834424D01*
X159173926Y-82834931D01*
X159160199Y-82843171D01*
X159050199Y-82913171D01*
X159038122Y-82921265D01*
X159037352Y-82921808D01*
X159025826Y-82930347D01*
X158935826Y-83000347D01*
X158918787Y-83014622D01*
X158917711Y-83015592D01*
X158901815Y-83030999D01*
X158874341Y-83059625D01*
X158859812Y-83075884D01*
X158858904Y-83076976D01*
X158845613Y-83094167D01*
X158823087Y-83125541D01*
X158817557Y-83133506D01*
X158817200Y-83134038D01*
X158811799Y-83142375D01*
X158761799Y-83222375D01*
X158756743Y-83230760D01*
X158756418Y-83231319D01*
X158751529Y-83240054D01*
X158699328Y-83336999D01*
X158690823Y-83342669D01*
X158650123Y-83367089D01*
X158443084Y-83485397D01*
X158426972Y-83495275D01*
X158425933Y-83495957D01*
X158410235Y-83506980D01*
X158370235Y-83536980D01*
X158339219Y-83563657D01*
X158337319Y-83565526D01*
X158292881Y-83620744D01*
X158291837Y-83622403D01*
X158277115Y-83648558D01*
X158267115Y-83668558D01*
X158251324Y-83706231D01*
X158250460Y-83708752D01*
X158235389Y-83778053D01*
X158235197Y-83780004D01*
X158233725Y-83810000D01*
X154133973Y-83810000D01*
X154059568Y-83795200D01*
X153940432Y-83795200D01*
X153823586Y-83818442D01*
X153713520Y-83864034D01*
X153614463Y-83930221D01*
X153530221Y-84014463D01*
X153464034Y-84113520D01*
X153418442Y-84223586D01*
X153395200Y-84340432D01*
X153395200Y-84430063D01*
X151931664Y-85893600D01*
X141769952Y-85893600D01*
X141749999Y-85891635D01*
X141730046Y-85893600D01*
X141730040Y-85893600D01*
X141678335Y-85898693D01*
X141670331Y-85899481D01*
X141652502Y-85904890D01*
X141593725Y-85922719D01*
X141523124Y-85960456D01*
X141461242Y-86011242D01*
X141448518Y-86026746D01*
X141026746Y-86448518D01*
X141011242Y-86461242D01*
X140960456Y-86523125D01*
X140923837Y-86591635D01*
X140922719Y-86593726D01*
X140901548Y-86663520D01*
X140899481Y-86670333D01*
X140893600Y-86730041D01*
X140893600Y-86730047D01*
X140891635Y-86750000D01*
X140893600Y-86769953D01*
X140893600Y-86831663D01*
X137180292Y-90544972D01*
X137185966Y-90536480D01*
X137231558Y-90426414D01*
X137254800Y-90309568D01*
X137254800Y-90190432D01*
X137231558Y-90073586D01*
X137185966Y-89963520D01*
X137119779Y-89864463D01*
X137035537Y-89780221D01*
X136936480Y-89714034D01*
X136826414Y-89668442D01*
X136709568Y-89645200D01*
X136590432Y-89645200D01*
X136473586Y-89668442D01*
X136363520Y-89714034D01*
X136264463Y-89780221D01*
X136180221Y-89864463D01*
X136114034Y-89963520D01*
X136068442Y-90073586D01*
X136045200Y-90190432D01*
X136045200Y-90280064D01*
X127396400Y-98928864D01*
X127396400Y-88660000D01*
X129311635Y-88660000D01*
X129313600Y-88679953D01*
X129313601Y-89380031D01*
X129313600Y-89380041D01*
X129313601Y-90020038D01*
X129311635Y-90040000D01*
X129319481Y-90119668D01*
X129342719Y-90196274D01*
X129355283Y-90219779D01*
X129380457Y-90266876D01*
X129393203Y-90282407D01*
X129418518Y-90313254D01*
X129418524Y-90313260D01*
X129431243Y-90328758D01*
X129446741Y-90341477D01*
X131648518Y-92543254D01*
X131661242Y-92558758D01*
X131723124Y-92609544D01*
X131793725Y-92647281D01*
X131847093Y-92663470D01*
X131870331Y-92670519D01*
X131872616Y-92670744D01*
X131930040Y-92676400D01*
X131930046Y-92676400D01*
X131949999Y-92678365D01*
X131969952Y-92676400D01*
X132641084Y-92676400D01*
X132704463Y-92739779D01*
X132803520Y-92805966D01*
X132913586Y-92851558D01*
X133030432Y-92874800D01*
X133149568Y-92874800D01*
X133266414Y-92851558D01*
X133376480Y-92805966D01*
X133475537Y-92739779D01*
X133559779Y-92655537D01*
X133625966Y-92556480D01*
X133671558Y-92446414D01*
X133694800Y-92329568D01*
X133694800Y-92210432D01*
X133671558Y-92093586D01*
X133625966Y-91983520D01*
X133559779Y-91884463D01*
X133475537Y-91800221D01*
X133376480Y-91734034D01*
X133266414Y-91688442D01*
X133149568Y-91665200D01*
X133141745Y-91665200D01*
X133154800Y-91599568D01*
X133154800Y-91480432D01*
X133131558Y-91363586D01*
X133085966Y-91253520D01*
X133019779Y-91154463D01*
X132956400Y-91091084D01*
X132956400Y-90959952D01*
X132958365Y-90939999D01*
X132956400Y-90920046D01*
X132956400Y-90920040D01*
X132950519Y-90860332D01*
X132950288Y-90859568D01*
X132927281Y-90783725D01*
X132923551Y-90776746D01*
X132889544Y-90713124D01*
X132867678Y-90686480D01*
X132851482Y-90666745D01*
X132851477Y-90666740D01*
X132838758Y-90651242D01*
X132823261Y-90638524D01*
X132025775Y-89841038D01*
X132142044Y-89817911D01*
X132293058Y-89755359D01*
X132428967Y-89664548D01*
X132544548Y-89548967D01*
X132635359Y-89413058D01*
X132697911Y-89262044D01*
X132729800Y-89101728D01*
X132729800Y-88938272D01*
X132697911Y-88777956D01*
X132635359Y-88626942D01*
X132544548Y-88491033D01*
X132438515Y-88385000D01*
X132544548Y-88278967D01*
X132635359Y-88143058D01*
X132697911Y-87992044D01*
X132729800Y-87831728D01*
X132729800Y-87668272D01*
X132697911Y-87507956D01*
X132635359Y-87356942D01*
X132544548Y-87221033D01*
X132438515Y-87115000D01*
X132544548Y-87008967D01*
X132635359Y-86873058D01*
X132697911Y-86722044D01*
X132729800Y-86561728D01*
X132729800Y-86398272D01*
X132697911Y-86237956D01*
X132635359Y-86086942D01*
X132544548Y-85951033D01*
X132428967Y-85835452D01*
X132293058Y-85744641D01*
X132166828Y-85692355D01*
X131900000Y-85425526D01*
X131633172Y-85692355D01*
X131506942Y-85744641D01*
X131371033Y-85835452D01*
X131265000Y-85941485D01*
X131158967Y-85835452D01*
X131023058Y-85744641D01*
X130896828Y-85692355D01*
X130630000Y-85425526D01*
X130363172Y-85692355D01*
X130236942Y-85744641D01*
X130101033Y-85835452D01*
X129985452Y-85951033D01*
X129894641Y-86086942D01*
X129832089Y-86237956D01*
X129800200Y-86398272D01*
X129800200Y-86561728D01*
X129832089Y-86722044D01*
X129894641Y-86873058D01*
X129985452Y-87008967D01*
X130091485Y-87115000D01*
X129985452Y-87221033D01*
X129894641Y-87356942D01*
X129832089Y-87507956D01*
X129800200Y-87668272D01*
X129800200Y-87831728D01*
X129828958Y-87976306D01*
X129446746Y-88358518D01*
X129431242Y-88371242D01*
X129380456Y-88433125D01*
X129350141Y-88489840D01*
X129342719Y-88503726D01*
X129319643Y-88579800D01*
X129319481Y-88580333D01*
X129313600Y-88640041D01*
X129313600Y-88640047D01*
X129311635Y-88660000D01*
X127396400Y-88660000D01*
X127396400Y-85166818D01*
X129797304Y-85166818D01*
X129804880Y-85330099D01*
X129844165Y-85488765D01*
X129877214Y-85568554D01*
X129997472Y-85627001D01*
X130414474Y-85210000D01*
X130845526Y-85210000D01*
X131110833Y-85475306D01*
X131114165Y-85488765D01*
X131147214Y-85568554D01*
X131257853Y-85622326D01*
X131262528Y-85627001D01*
X131265000Y-85625800D01*
X131267472Y-85627001D01*
X131272147Y-85622326D01*
X131382786Y-85568554D01*
X131414896Y-85479577D01*
X131684474Y-85210000D01*
X132115526Y-85210000D01*
X132532528Y-85627001D01*
X132652786Y-85568554D01*
X132708272Y-85414803D01*
X132732696Y-85253182D01*
X132725120Y-85089901D01*
X132685835Y-84931235D01*
X132652786Y-84851446D01*
X132532528Y-84792999D01*
X132115526Y-85210000D01*
X131684474Y-85210000D01*
X131419167Y-84944694D01*
X131415835Y-84931235D01*
X131382786Y-84851446D01*
X131272147Y-84797674D01*
X131267472Y-84792999D01*
X131265000Y-84794200D01*
X131262528Y-84792999D01*
X131257853Y-84797674D01*
X131147214Y-84851446D01*
X131115104Y-84940423D01*
X130845526Y-85210000D01*
X130414474Y-85210000D01*
X129997472Y-84792999D01*
X129877214Y-84851446D01*
X129821728Y-85005197D01*
X129797304Y-85166818D01*
X127396400Y-85166818D01*
X127396400Y-83858272D01*
X129800200Y-83858272D01*
X129800200Y-84021728D01*
X129832089Y-84182044D01*
X129894641Y-84333058D01*
X129985452Y-84468967D01*
X130101033Y-84584548D01*
X130236942Y-84675359D01*
X130363172Y-84727645D01*
X130630000Y-84994474D01*
X130896828Y-84727645D01*
X131023058Y-84675359D01*
X131158967Y-84584548D01*
X131265000Y-84478515D01*
X131371033Y-84584548D01*
X131506942Y-84675359D01*
X131633172Y-84727645D01*
X131900000Y-84994474D01*
X132166828Y-84727645D01*
X132293058Y-84675359D01*
X132428967Y-84584548D01*
X132544548Y-84468967D01*
X132635359Y-84333058D01*
X132697911Y-84182044D01*
X132729800Y-84021728D01*
X132729800Y-83858272D01*
X132697911Y-83697956D01*
X132635359Y-83546942D01*
X132544548Y-83411033D01*
X132428967Y-83295452D01*
X132293058Y-83204641D01*
X132240100Y-83182705D01*
X132346414Y-83161558D01*
X132456480Y-83115966D01*
X132555537Y-83049779D01*
X132639779Y-82965537D01*
X132705966Y-82866480D01*
X132751558Y-82756414D01*
X132774800Y-82639568D01*
X132774800Y-82520432D01*
X132751558Y-82403586D01*
X132705966Y-82293520D01*
X132639779Y-82194463D01*
X132555537Y-82110221D01*
X132456480Y-82044034D01*
X132346414Y-81998442D01*
X132229568Y-81975200D01*
X132110432Y-81975200D01*
X131993586Y-81998442D01*
X131883520Y-82044034D01*
X131784463Y-82110221D01*
X131700221Y-82194463D01*
X131634034Y-82293520D01*
X131588442Y-82403586D01*
X131565200Y-82520432D01*
X131565200Y-82639568D01*
X131588442Y-82756414D01*
X131634034Y-82866480D01*
X131700221Y-82965537D01*
X131784463Y-83049779D01*
X131874890Y-83110200D01*
X131818272Y-83110200D01*
X131657956Y-83142089D01*
X131506942Y-83204641D01*
X131371033Y-83295452D01*
X131265000Y-83401485D01*
X131158967Y-83295452D01*
X131023058Y-83204641D01*
X130872044Y-83142089D01*
X130711728Y-83110200D01*
X130548272Y-83110200D01*
X130387956Y-83142089D01*
X130236942Y-83204641D01*
X130101033Y-83295452D01*
X129985452Y-83411033D01*
X129894641Y-83546942D01*
X129832089Y-83697956D01*
X129800200Y-83858272D01*
X127396400Y-83858272D01*
X127396400Y-81206753D01*
X127398365Y-81186800D01*
X127396400Y-81166847D01*
X127396400Y-81166840D01*
X127390519Y-81107132D01*
X127367281Y-81030525D01*
X127329544Y-80959924D01*
X127278758Y-80898042D01*
X127263255Y-80885319D01*
X125989438Y-79611502D01*
X127298400Y-79611502D01*
X127298400Y-79828498D01*
X127340734Y-80041325D01*
X127423775Y-80241803D01*
X127544332Y-80422229D01*
X127697771Y-80575668D01*
X127878197Y-80696225D01*
X128078675Y-80779266D01*
X128291502Y-80821600D01*
X128508498Y-80821600D01*
X128721325Y-80779266D01*
X128921803Y-80696225D01*
X129102229Y-80575668D01*
X129237465Y-80440432D01*
X134895200Y-80440432D01*
X134895200Y-80559568D01*
X134918442Y-80676414D01*
X134964034Y-80786480D01*
X135030221Y-80885537D01*
X135114463Y-80969779D01*
X135213520Y-81035966D01*
X135323586Y-81081558D01*
X135440432Y-81104800D01*
X135559568Y-81104800D01*
X135676414Y-81081558D01*
X135786480Y-81035966D01*
X135885537Y-80969779D01*
X135969779Y-80885537D01*
X136035966Y-80786480D01*
X136081558Y-80676414D01*
X136104800Y-80559568D01*
X136104800Y-80440432D01*
X136081558Y-80323586D01*
X136067825Y-80290432D01*
X147495200Y-80290432D01*
X147495200Y-80409568D01*
X147518442Y-80526414D01*
X147564034Y-80636480D01*
X147630221Y-80735537D01*
X147644684Y-80750000D01*
X147630221Y-80764463D01*
X147564034Y-80863520D01*
X147518442Y-80973586D01*
X147495200Y-81090432D01*
X147495200Y-81209568D01*
X147518442Y-81326414D01*
X147564034Y-81436480D01*
X147630221Y-81535537D01*
X147714463Y-81619779D01*
X147813520Y-81685966D01*
X147923586Y-81731558D01*
X148040432Y-81754800D01*
X148159568Y-81754800D01*
X148276414Y-81731558D01*
X148386480Y-81685966D01*
X148485537Y-81619779D01*
X148569779Y-81535537D01*
X148635966Y-81436480D01*
X148681558Y-81326414D01*
X148704800Y-81209568D01*
X148704800Y-81090432D01*
X148681558Y-80973586D01*
X148635966Y-80863520D01*
X148569779Y-80764463D01*
X148555316Y-80750000D01*
X148569779Y-80735537D01*
X148635966Y-80636480D01*
X148678983Y-80532631D01*
X148790432Y-80554800D01*
X148909568Y-80554800D01*
X149026414Y-80531558D01*
X149136480Y-80485966D01*
X149235537Y-80419779D01*
X149250000Y-80405316D01*
X149264463Y-80419779D01*
X149363520Y-80485966D01*
X149473586Y-80531558D01*
X149590432Y-80554800D01*
X149709568Y-80554800D01*
X149826414Y-80531558D01*
X149936480Y-80485966D01*
X150004627Y-80440432D01*
X151745200Y-80440432D01*
X151745200Y-80559568D01*
X151768442Y-80676414D01*
X151814034Y-80786480D01*
X151880221Y-80885537D01*
X151964463Y-80969779D01*
X152063520Y-81035966D01*
X152173586Y-81081558D01*
X152290432Y-81104800D01*
X152409568Y-81104800D01*
X152526414Y-81081558D01*
X152636480Y-81035966D01*
X152735537Y-80969779D01*
X152819779Y-80885537D01*
X152885966Y-80786480D01*
X152931558Y-80676414D01*
X152954800Y-80559568D01*
X152954800Y-80440432D01*
X152931558Y-80323586D01*
X152885966Y-80213520D01*
X152819779Y-80114463D01*
X152735537Y-80030221D01*
X152636480Y-79964034D01*
X152526414Y-79918442D01*
X152409568Y-79895200D01*
X152290432Y-79895200D01*
X152173586Y-79918442D01*
X152063520Y-79964034D01*
X151964463Y-80030221D01*
X151880221Y-80114463D01*
X151814034Y-80213520D01*
X151768442Y-80323586D01*
X151745200Y-80440432D01*
X150004627Y-80440432D01*
X150035537Y-80419779D01*
X150119779Y-80335537D01*
X150185966Y-80236480D01*
X150231558Y-80126414D01*
X150254800Y-80009568D01*
X150254800Y-79890432D01*
X150231558Y-79773586D01*
X150185966Y-79663520D01*
X150119779Y-79564463D01*
X150095748Y-79540432D01*
X152595200Y-79540432D01*
X152595200Y-79659568D01*
X152618442Y-79776414D01*
X152664034Y-79886480D01*
X152730221Y-79985537D01*
X152814463Y-80069779D01*
X152913520Y-80135966D01*
X153023586Y-80181558D01*
X153140432Y-80204800D01*
X153259568Y-80204800D01*
X153376414Y-80181558D01*
X153486480Y-80135966D01*
X153585537Y-80069779D01*
X153669779Y-79985537D01*
X153735966Y-79886480D01*
X153781558Y-79776414D01*
X153804800Y-79659568D01*
X153804800Y-79540432D01*
X153781558Y-79423586D01*
X153735966Y-79313520D01*
X153669779Y-79214463D01*
X153585537Y-79130221D01*
X153486480Y-79064034D01*
X153376414Y-79018442D01*
X153259568Y-78995200D01*
X153140432Y-78995200D01*
X153023586Y-79018442D01*
X152913520Y-79064034D01*
X152814463Y-79130221D01*
X152730221Y-79214463D01*
X152664034Y-79313520D01*
X152618442Y-79423586D01*
X152595200Y-79540432D01*
X150095748Y-79540432D01*
X150035537Y-79480221D01*
X149936480Y-79414034D01*
X149826414Y-79368442D01*
X149709568Y-79345200D01*
X149590432Y-79345200D01*
X149473586Y-79368442D01*
X149363520Y-79414034D01*
X149264463Y-79480221D01*
X149250000Y-79494684D01*
X149235537Y-79480221D01*
X149136480Y-79414034D01*
X149026414Y-79368442D01*
X148909568Y-79345200D01*
X148790432Y-79345200D01*
X148673586Y-79368442D01*
X148563520Y-79414034D01*
X148464463Y-79480221D01*
X148380221Y-79564463D01*
X148314034Y-79663520D01*
X148271017Y-79767369D01*
X148159568Y-79745200D01*
X148040432Y-79745200D01*
X147923586Y-79768442D01*
X147813520Y-79814034D01*
X147714463Y-79880221D01*
X147630221Y-79964463D01*
X147564034Y-80063520D01*
X147518442Y-80173586D01*
X147495200Y-80290432D01*
X136067825Y-80290432D01*
X136035966Y-80213520D01*
X135969779Y-80114463D01*
X135885537Y-80030221D01*
X135786480Y-79964034D01*
X135676414Y-79918442D01*
X135559568Y-79895200D01*
X135440432Y-79895200D01*
X135323586Y-79918442D01*
X135213520Y-79964034D01*
X135114463Y-80030221D01*
X135030221Y-80114463D01*
X134964034Y-80213520D01*
X134918442Y-80323586D01*
X134895200Y-80440432D01*
X129237465Y-80440432D01*
X129255668Y-80422229D01*
X129376225Y-80241803D01*
X129459266Y-80041325D01*
X129501600Y-79828498D01*
X129501600Y-79611502D01*
X129459266Y-79398675D01*
X129376225Y-79198197D01*
X129255668Y-79017771D01*
X129102229Y-78864332D01*
X128921803Y-78743775D01*
X128721325Y-78660734D01*
X128508498Y-78618400D01*
X128291502Y-78618400D01*
X128078675Y-78660734D01*
X127878197Y-78743775D01*
X127697771Y-78864332D01*
X127544332Y-79017771D01*
X127423775Y-79198197D01*
X127340734Y-79398675D01*
X127298400Y-79611502D01*
X125989438Y-79611502D01*
X125304682Y-78926746D01*
X125291958Y-78911242D01*
X125230076Y-78860456D01*
X125159475Y-78822719D01*
X125104912Y-78806168D01*
X125100389Y-78760249D01*
X125082960Y-78702794D01*
X125054658Y-78649843D01*
X125016568Y-78603432D01*
X124970157Y-78565342D01*
X124917206Y-78537040D01*
X124859751Y-78519611D01*
X124800000Y-78513726D01*
X122400000Y-78513726D01*
X122340249Y-78519611D01*
X122282794Y-78537040D01*
X122229843Y-78565342D01*
X122183432Y-78603432D01*
X122145342Y-78649843D01*
X122117040Y-78702794D01*
X122099611Y-78760249D01*
X122093726Y-78820000D01*
X122093726Y-79580000D01*
X122099611Y-79639751D01*
X122117040Y-79697206D01*
X122145342Y-79750157D01*
X122183432Y-79796568D01*
X122229843Y-79834658D01*
X122230483Y-79835000D01*
X122229843Y-79835342D01*
X122183432Y-79873432D01*
X122145342Y-79919843D01*
X122117040Y-79972794D01*
X122099611Y-80030249D01*
X122093726Y-80090000D01*
X122093726Y-80850000D01*
X122099611Y-80909751D01*
X122117040Y-80967206D01*
X122145342Y-81020157D01*
X122183432Y-81066568D01*
X122229843Y-81104658D01*
X122230483Y-81105000D01*
X122229843Y-81105342D01*
X122183432Y-81143432D01*
X122145342Y-81189843D01*
X122117040Y-81242794D01*
X122099611Y-81300249D01*
X122093726Y-81360000D01*
X122093726Y-82120000D01*
X122099611Y-82179751D01*
X122117040Y-82237206D01*
X122145342Y-82290157D01*
X122183432Y-82336568D01*
X122229843Y-82374658D01*
X122230483Y-82375000D01*
X122229843Y-82375342D01*
X122183432Y-82413432D01*
X122145342Y-82459843D01*
X122117040Y-82512794D01*
X122099611Y-82570249D01*
X122093726Y-82630000D01*
X122093726Y-83390000D01*
X122099611Y-83449751D01*
X122117040Y-83507206D01*
X122145342Y-83560157D01*
X122183432Y-83606568D01*
X122229843Y-83644658D01*
X122230483Y-83645000D01*
X122229843Y-83645342D01*
X122183432Y-83683432D01*
X122145342Y-83729843D01*
X122117040Y-83782794D01*
X122099611Y-83840249D01*
X122093726Y-83900000D01*
X122093726Y-84660000D01*
X122099611Y-84719751D01*
X122117040Y-84777206D01*
X122145342Y-84830157D01*
X122183432Y-84876568D01*
X122229843Y-84914658D01*
X122282794Y-84942960D01*
X122340249Y-84960389D01*
X122400000Y-84966274D01*
X124531538Y-84966274D01*
X125363601Y-85798337D01*
X125363600Y-99961664D01*
X123916741Y-101408523D01*
X123901243Y-101421242D01*
X123888524Y-101436740D01*
X123888518Y-101436746D01*
X123884315Y-101441868D01*
X123850457Y-101483124D01*
X123832788Y-101516181D01*
X123812719Y-101553726D01*
X123789481Y-101630332D01*
X123781635Y-101710000D01*
X123783601Y-101729963D01*
X123783600Y-104690483D01*
X123743586Y-104698442D01*
X123633520Y-104744034D01*
X123534463Y-104810221D01*
X123450221Y-104894463D01*
X123384034Y-104993520D01*
X123338442Y-105103586D01*
X123315200Y-105220432D01*
X123315200Y-105339568D01*
X123338442Y-105456414D01*
X123384034Y-105566480D01*
X123450221Y-105665537D01*
X123534463Y-105749779D01*
X123633520Y-105815966D01*
X123743586Y-105861558D01*
X123860432Y-105884800D01*
X123979568Y-105884800D01*
X124096414Y-105861558D01*
X124183601Y-105825443D01*
X124183601Y-107298466D01*
X124158586Y-107303442D01*
X124048520Y-107349034D01*
X123949463Y-107415221D01*
X123865221Y-107499463D01*
X123799034Y-107598520D01*
X123753442Y-107708586D01*
X123730200Y-107825432D01*
X123730200Y-107944568D01*
X123753442Y-108061414D01*
X123799034Y-108171480D01*
X123865221Y-108270537D01*
X123949463Y-108354779D01*
X124048520Y-108420966D01*
X124158586Y-108466558D01*
X124275432Y-108489800D01*
X124394568Y-108489800D01*
X124511414Y-108466558D01*
X124583601Y-108436656D01*
X124583601Y-108511083D01*
X124520221Y-108574463D01*
X124454034Y-108673520D01*
X124408442Y-108783586D01*
X124385200Y-108900432D01*
X124385200Y-109019568D01*
X124408442Y-109136414D01*
X124454034Y-109246480D01*
X124520221Y-109345537D01*
X124604463Y-109429779D01*
X124703520Y-109495966D01*
X124813586Y-109541558D01*
X124930432Y-109564800D01*
X125049568Y-109564800D01*
X125166414Y-109541558D01*
X125208379Y-109524175D01*
X125195200Y-109590432D01*
X125195200Y-109680063D01*
X125149130Y-109726134D01*
X125043889Y-109705200D01*
X124836111Y-109705200D01*
X124632326Y-109745735D01*
X124440365Y-109825248D01*
X124267604Y-109940683D01*
X124120683Y-110087604D01*
X124005248Y-110260365D01*
X123925735Y-110452326D01*
X123885200Y-110656111D01*
X123885200Y-110863889D01*
X123925735Y-111067674D01*
X124005248Y-111259635D01*
X124120683Y-111432396D01*
X124267604Y-111579317D01*
X124440365Y-111694752D01*
X124632326Y-111774265D01*
X124836111Y-111814800D01*
X125043889Y-111814800D01*
X125247674Y-111774265D01*
X125439635Y-111694752D01*
X125612396Y-111579317D01*
X125759317Y-111432396D01*
X125874752Y-111259635D01*
X125954265Y-111067674D01*
X125994800Y-110863889D01*
X125994800Y-110656111D01*
X125954265Y-110452326D01*
X125874752Y-110260365D01*
X125869688Y-110252787D01*
X125976414Y-110231558D01*
X126086480Y-110185966D01*
X126173600Y-110127755D01*
X126173601Y-111160038D01*
X126171635Y-111180000D01*
X126179481Y-111259668D01*
X126202719Y-111336274D01*
X126220286Y-111369138D01*
X126240457Y-111406876D01*
X126251194Y-111419959D01*
X126278518Y-111453254D01*
X126278524Y-111453260D01*
X126291243Y-111468758D01*
X126306741Y-111481477D01*
X127920200Y-113094936D01*
X127920200Y-113184568D01*
X127943442Y-113301414D01*
X127989034Y-113411480D01*
X128055221Y-113510537D01*
X128139463Y-113594779D01*
X128238520Y-113660966D01*
X128348586Y-113706558D01*
X128465432Y-113729800D01*
X128584568Y-113729800D01*
X128701414Y-113706558D01*
X128811480Y-113660966D01*
X128910537Y-113594779D01*
X128935290Y-113570026D01*
X131035463Y-115670200D01*
X122951600Y-115670200D01*
X122951600Y-114211502D01*
X125758400Y-114211502D01*
X125758400Y-114428498D01*
X125800734Y-114641325D01*
X125883775Y-114841803D01*
X126004332Y-115022229D01*
X126157771Y-115175668D01*
X126338197Y-115296225D01*
X126538675Y-115379266D01*
X126751502Y-115421600D01*
X126968498Y-115421600D01*
X127181325Y-115379266D01*
X127381803Y-115296225D01*
X127562229Y-115175668D01*
X127715668Y-115022229D01*
X127836225Y-114841803D01*
X127919266Y-114641325D01*
X127961600Y-114428498D01*
X127961600Y-114211502D01*
X127919266Y-113998675D01*
X127836225Y-113798197D01*
X127715668Y-113617771D01*
X127562229Y-113464332D01*
X127381803Y-113343775D01*
X127181325Y-113260734D01*
X126968498Y-113218400D01*
X126751502Y-113218400D01*
X126538675Y-113260734D01*
X126338197Y-113343775D01*
X126157771Y-113464332D01*
X126004332Y-113617771D01*
X125883775Y-113798197D01*
X125800734Y-113998675D01*
X125758400Y-114211502D01*
X122951600Y-114211502D01*
X122951600Y-102150000D01*
X122949648Y-102130179D01*
X122943866Y-102111119D01*
X122934477Y-102093554D01*
X122921842Y-102078158D01*
X122906446Y-102065523D01*
X122888881Y-102056134D01*
X122869821Y-102050352D01*
X122850000Y-102048400D01*
X122571739Y-102048400D01*
X122701617Y-101946071D01*
X122812197Y-101816672D01*
X122895408Y-101668186D01*
X122906909Y-101602102D01*
X122863539Y-101472400D01*
X121702400Y-101472400D01*
X121702400Y-101492400D01*
X121397600Y-101492400D01*
X121397600Y-101472400D01*
X120236461Y-101472400D01*
X120193091Y-101602102D01*
X120204592Y-101668186D01*
X120287803Y-101816672D01*
X120398383Y-101946071D01*
X120528261Y-102048400D01*
X118771739Y-102048400D01*
X118901617Y-101946071D01*
X119012197Y-101816672D01*
X119095408Y-101668186D01*
X119106909Y-101602102D01*
X119063539Y-101472400D01*
X117902400Y-101472400D01*
X117902400Y-101492400D01*
X117597600Y-101492400D01*
X117597600Y-101472400D01*
X116436461Y-101472400D01*
X116393091Y-101602102D01*
X116404592Y-101668186D01*
X116487803Y-101816672D01*
X116598383Y-101946071D01*
X116728261Y-102048400D01*
X116611279Y-102048400D01*
X116537081Y-101974797D01*
X116444388Y-101861949D01*
X116382724Y-101746948D01*
X116344573Y-101622158D01*
X116329800Y-101476721D01*
X116329800Y-101037898D01*
X116393091Y-101037898D01*
X116436461Y-101167600D01*
X117597600Y-101167600D01*
X117597600Y-100465200D01*
X117902400Y-100465200D01*
X117902400Y-101167600D01*
X119063539Y-101167600D01*
X119106909Y-101037898D01*
X120193091Y-101037898D01*
X120236461Y-101167600D01*
X121397600Y-101167600D01*
X121397600Y-100465200D01*
X121702400Y-100465200D01*
X121702400Y-101167600D01*
X122863539Y-101167600D01*
X122906909Y-101037898D01*
X122895408Y-100971814D01*
X122812197Y-100823328D01*
X122701617Y-100693929D01*
X122567917Y-100588589D01*
X122416235Y-100511357D01*
X122252400Y-100465200D01*
X121702400Y-100465200D01*
X121397600Y-100465200D01*
X120847600Y-100465200D01*
X120683765Y-100511357D01*
X120532083Y-100588589D01*
X120398383Y-100693929D01*
X120287803Y-100823328D01*
X120204592Y-100971814D01*
X120193091Y-101037898D01*
X119106909Y-101037898D01*
X119095408Y-100971814D01*
X119012197Y-100823328D01*
X118901617Y-100693929D01*
X118767917Y-100588589D01*
X118616235Y-100511357D01*
X118452400Y-100465200D01*
X117902400Y-100465200D01*
X117597600Y-100465200D01*
X117047600Y-100465200D01*
X116883765Y-100511357D01*
X116732083Y-100588589D01*
X116598383Y-100693929D01*
X116487803Y-100823328D01*
X116404592Y-100971814D01*
X116393091Y-101037898D01*
X116329800Y-101037898D01*
X116329800Y-98500000D01*
X116843726Y-98500000D01*
X116843726Y-100000000D01*
X116849611Y-100059751D01*
X116867040Y-100117206D01*
X116895342Y-100170157D01*
X116933432Y-100216568D01*
X116979843Y-100254658D01*
X117032794Y-100282960D01*
X117090249Y-100300389D01*
X117150000Y-100306274D01*
X119950000Y-100306274D01*
X120009751Y-100300389D01*
X120067206Y-100282960D01*
X120120157Y-100254658D01*
X120166568Y-100216568D01*
X120204658Y-100170157D01*
X120232960Y-100117206D01*
X120250389Y-100059751D01*
X120256274Y-100000000D01*
X120256274Y-99745300D01*
X121643726Y-99745300D01*
X121643726Y-100000000D01*
X121649611Y-100059751D01*
X121667040Y-100117206D01*
X121695342Y-100170157D01*
X121733432Y-100216568D01*
X121779843Y-100254658D01*
X121832794Y-100282960D01*
X121890249Y-100300389D01*
X121950000Y-100306274D01*
X124750000Y-100306274D01*
X124809751Y-100300389D01*
X124867206Y-100282960D01*
X124920157Y-100254658D01*
X124966568Y-100216568D01*
X125004658Y-100170157D01*
X125032960Y-100117206D01*
X125050389Y-100059751D01*
X125056274Y-100000000D01*
X125056274Y-98500000D01*
X125050389Y-98440249D01*
X125032960Y-98382794D01*
X125004658Y-98329843D01*
X124966568Y-98283432D01*
X124920157Y-98245342D01*
X124867206Y-98217040D01*
X124809751Y-98199611D01*
X124750000Y-98193726D01*
X121950000Y-98193726D01*
X121890249Y-98199611D01*
X121832794Y-98217040D01*
X121779843Y-98245342D01*
X121733432Y-98283432D01*
X121695342Y-98329843D01*
X121667040Y-98382794D01*
X121649611Y-98440249D01*
X121643726Y-98500000D01*
X121643726Y-98754700D01*
X120256274Y-98754700D01*
X120256274Y-98500000D01*
X120250389Y-98440249D01*
X120232960Y-98382794D01*
X120204658Y-98329843D01*
X120166568Y-98283432D01*
X120120157Y-98245342D01*
X120067206Y-98217040D01*
X120009751Y-98199611D01*
X119950000Y-98193726D01*
X119031124Y-98193726D01*
X119035966Y-98186480D01*
X119081558Y-98076414D01*
X119104800Y-97959568D01*
X119104800Y-97840432D01*
X119081558Y-97723586D01*
X119035966Y-97613520D01*
X118969779Y-97514463D01*
X118885537Y-97430221D01*
X118786480Y-97364034D01*
X118676414Y-97318442D01*
X118559568Y-97295200D01*
X118440432Y-97295200D01*
X118323586Y-97318442D01*
X118213520Y-97364034D01*
X118114463Y-97430221D01*
X118030221Y-97514463D01*
X117964034Y-97613520D01*
X117918442Y-97723586D01*
X117895200Y-97840432D01*
X117895200Y-97959568D01*
X117918442Y-98076414D01*
X117964034Y-98186480D01*
X117968876Y-98193726D01*
X117150000Y-98193726D01*
X117090249Y-98199611D01*
X117032794Y-98217040D01*
X116979843Y-98245342D01*
X116933432Y-98283432D01*
X116895342Y-98329843D01*
X116867040Y-98382794D01*
X116849611Y-98440249D01*
X116843726Y-98500000D01*
X116329800Y-98500000D01*
X116329800Y-94000000D01*
X116843726Y-94000000D01*
X116843726Y-95500000D01*
X116849611Y-95559751D01*
X116867040Y-95617206D01*
X116895342Y-95670157D01*
X116933432Y-95716568D01*
X116979843Y-95754658D01*
X117032794Y-95782960D01*
X117090249Y-95800389D01*
X117150000Y-95806274D01*
X119950000Y-95806274D01*
X120009751Y-95800389D01*
X120067206Y-95782960D01*
X120120157Y-95754658D01*
X120166568Y-95716568D01*
X120204658Y-95670157D01*
X120232960Y-95617206D01*
X120250389Y-95559751D01*
X120256274Y-95500000D01*
X120256274Y-95245300D01*
X121643726Y-95245300D01*
X121643726Y-95500000D01*
X121649611Y-95559751D01*
X121667040Y-95617206D01*
X121695342Y-95670157D01*
X121733432Y-95716568D01*
X121779843Y-95754658D01*
X121832794Y-95782960D01*
X121890249Y-95800389D01*
X121950000Y-95806274D01*
X124750000Y-95806274D01*
X124809751Y-95800389D01*
X124867206Y-95782960D01*
X124920157Y-95754658D01*
X124966568Y-95716568D01*
X125004658Y-95670157D01*
X125032960Y-95617206D01*
X125050389Y-95559751D01*
X125056274Y-95500000D01*
X125056274Y-94000000D01*
X125050389Y-93940249D01*
X125032960Y-93882794D01*
X125004658Y-93829843D01*
X124966568Y-93783432D01*
X124920157Y-93745342D01*
X124867206Y-93717040D01*
X124809751Y-93699611D01*
X124750000Y-93693726D01*
X123781800Y-93693726D01*
X123781800Y-93572276D01*
X123785537Y-93569779D01*
X123869779Y-93485537D01*
X123935966Y-93386480D01*
X123981558Y-93276414D01*
X124004800Y-93159568D01*
X124004800Y-93040432D01*
X123981558Y-92923586D01*
X123935966Y-92813520D01*
X123869779Y-92714463D01*
X123785537Y-92630221D01*
X123686480Y-92564034D01*
X123576414Y-92518442D01*
X123459568Y-92495200D01*
X123340432Y-92495200D01*
X123223586Y-92518442D01*
X123113520Y-92564034D01*
X123014463Y-92630221D01*
X122930221Y-92714463D01*
X122864034Y-92813520D01*
X122856213Y-92832400D01*
X121702400Y-92832400D01*
X121702400Y-93534800D01*
X122252400Y-93534800D01*
X122416235Y-93488643D01*
X122567917Y-93411411D01*
X122701617Y-93306071D01*
X122801169Y-93189577D01*
X122818442Y-93276414D01*
X122864034Y-93386480D01*
X122918201Y-93467547D01*
X122918201Y-93693726D01*
X121950000Y-93693726D01*
X121890249Y-93699611D01*
X121832794Y-93717040D01*
X121779843Y-93745342D01*
X121733432Y-93783432D01*
X121695342Y-93829843D01*
X121667040Y-93882794D01*
X121649611Y-93940249D01*
X121643726Y-94000000D01*
X121643726Y-94254700D01*
X120256274Y-94254700D01*
X120256274Y-94000000D01*
X120250389Y-93940249D01*
X120232960Y-93882794D01*
X120204658Y-93829843D01*
X120166568Y-93783432D01*
X120120157Y-93745342D01*
X120067206Y-93717040D01*
X120009751Y-93699611D01*
X119950000Y-93693726D01*
X117150000Y-93693726D01*
X117090249Y-93699611D01*
X117032794Y-93717040D01*
X116979843Y-93745342D01*
X116933432Y-93783432D01*
X116895342Y-93829843D01*
X116867040Y-93882794D01*
X116849611Y-93940249D01*
X116843726Y-94000000D01*
X116329800Y-94000000D01*
X116329800Y-92962102D01*
X116393091Y-92962102D01*
X116404592Y-93028186D01*
X116487803Y-93176672D01*
X116598383Y-93306071D01*
X116732083Y-93411411D01*
X116883765Y-93488643D01*
X117047600Y-93534800D01*
X117597600Y-93534800D01*
X117597600Y-92832400D01*
X117902400Y-92832400D01*
X117902400Y-93534800D01*
X118452400Y-93534800D01*
X118616235Y-93488643D01*
X118767917Y-93411411D01*
X118901617Y-93306071D01*
X119012197Y-93176672D01*
X119095408Y-93028186D01*
X119106909Y-92962102D01*
X120193091Y-92962102D01*
X120204592Y-93028186D01*
X120287803Y-93176672D01*
X120398383Y-93306071D01*
X120532083Y-93411411D01*
X120683765Y-93488643D01*
X120847600Y-93534800D01*
X121397600Y-93534800D01*
X121397600Y-92832400D01*
X120236461Y-92832400D01*
X120193091Y-92962102D01*
X119106909Y-92962102D01*
X119063539Y-92832400D01*
X117902400Y-92832400D01*
X117597600Y-92832400D01*
X116436461Y-92832400D01*
X116393091Y-92962102D01*
X116329800Y-92962102D01*
X116329800Y-92526130D01*
X116342373Y-92397898D01*
X116393091Y-92397898D01*
X116436461Y-92527600D01*
X117597600Y-92527600D01*
X117597600Y-91825200D01*
X117902400Y-91825200D01*
X117902400Y-92527600D01*
X119063539Y-92527600D01*
X119106909Y-92397898D01*
X120193091Y-92397898D01*
X120236461Y-92527600D01*
X121397600Y-92527600D01*
X121397600Y-91825200D01*
X121702400Y-91825200D01*
X121702400Y-92527600D01*
X122863539Y-92527600D01*
X122906909Y-92397898D01*
X122895408Y-92331814D01*
X122812197Y-92183328D01*
X122701617Y-92053929D01*
X122567917Y-91948589D01*
X122416235Y-91871357D01*
X122252400Y-91825200D01*
X121702400Y-91825200D01*
X121397600Y-91825200D01*
X120847600Y-91825200D01*
X120683765Y-91871357D01*
X120532083Y-91948589D01*
X120398383Y-92053929D01*
X120287803Y-92183328D01*
X120204592Y-92331814D01*
X120193091Y-92397898D01*
X119106909Y-92397898D01*
X119095408Y-92331814D01*
X119012197Y-92183328D01*
X118901617Y-92053929D01*
X118767917Y-91948589D01*
X118616235Y-91871357D01*
X118452400Y-91825200D01*
X117902400Y-91825200D01*
X117597600Y-91825200D01*
X117047600Y-91825200D01*
X116883765Y-91871357D01*
X116732083Y-91948589D01*
X116598383Y-92053929D01*
X116487803Y-92183328D01*
X116404592Y-92331814D01*
X116393091Y-92397898D01*
X116342373Y-92397898D01*
X116344116Y-92380132D01*
X116381832Y-92255208D01*
X116443092Y-92139994D01*
X116535153Y-92027116D01*
X117950868Y-90622735D01*
X117960057Y-90611630D01*
X117962212Y-90609519D01*
X117965148Y-90605970D01*
X118088498Y-90454728D01*
X118105042Y-90429828D01*
X118121927Y-90405167D01*
X118124114Y-90401121D01*
X118124117Y-90401117D01*
X118124119Y-90401113D01*
X118215742Y-90228794D01*
X118227127Y-90201173D01*
X118238908Y-90173685D01*
X118240270Y-90169286D01*
X118296679Y-89982449D01*
X118302482Y-89953141D01*
X118308700Y-89923890D01*
X118309181Y-89919310D01*
X118328226Y-89725077D01*
X118328226Y-89725066D01*
X118329800Y-89709086D01*
X118329800Y-88361639D01*
X120095200Y-88361639D01*
X120095200Y-88638361D01*
X120149186Y-88909765D01*
X120255083Y-89165422D01*
X120408821Y-89395508D01*
X120604492Y-89591179D01*
X120834578Y-89744917D01*
X121090235Y-89850814D01*
X121361639Y-89904800D01*
X121638361Y-89904800D01*
X121909765Y-89850814D01*
X122165422Y-89744917D01*
X122395508Y-89591179D01*
X122591179Y-89395508D01*
X122744917Y-89165422D01*
X122850814Y-88909765D01*
X122904800Y-88638361D01*
X122904800Y-88361639D01*
X122850814Y-88090235D01*
X122744917Y-87834578D01*
X122591179Y-87604492D01*
X122395508Y-87408821D01*
X122165422Y-87255083D01*
X121909765Y-87149186D01*
X121638361Y-87095200D01*
X121361639Y-87095200D01*
X121090235Y-87149186D01*
X120834578Y-87255083D01*
X120604492Y-87408821D01*
X120408821Y-87604492D01*
X120255083Y-87834578D01*
X120149186Y-88090235D01*
X120095200Y-88361639D01*
X118329800Y-88361639D01*
X118329800Y-84914623D01*
X118329843Y-84914658D01*
X118382794Y-84942960D01*
X118440249Y-84960389D01*
X118500000Y-84966274D01*
X119474609Y-84966274D01*
X119438442Y-85053586D01*
X119415200Y-85170432D01*
X119415200Y-85289568D01*
X119438442Y-85406414D01*
X119484034Y-85516480D01*
X119550221Y-85615537D01*
X119634463Y-85699779D01*
X119733520Y-85765966D01*
X119843586Y-85811558D01*
X119960432Y-85834800D01*
X120079568Y-85834800D01*
X120196414Y-85811558D01*
X120306480Y-85765966D01*
X120405537Y-85699779D01*
X120489779Y-85615537D01*
X120555966Y-85516480D01*
X120601558Y-85406414D01*
X120624800Y-85289568D01*
X120624800Y-85170432D01*
X120601558Y-85053586D01*
X120565391Y-84966274D01*
X120900000Y-84966274D01*
X120959751Y-84960389D01*
X121017206Y-84942960D01*
X121070157Y-84914658D01*
X121116568Y-84876568D01*
X121154658Y-84830157D01*
X121182960Y-84777206D01*
X121200389Y-84719751D01*
X121206274Y-84660000D01*
X121206274Y-83900000D01*
X121200389Y-83840249D01*
X121182960Y-83782794D01*
X121154658Y-83729843D01*
X121116568Y-83683432D01*
X121070157Y-83645342D01*
X121069517Y-83645000D01*
X121070157Y-83644658D01*
X121116569Y-83606569D01*
X121154658Y-83560157D01*
X121182961Y-83507206D01*
X121200390Y-83449751D01*
X121206275Y-83390000D01*
X121204800Y-83238600D01*
X121128600Y-83162400D01*
X119852400Y-83162400D01*
X119852400Y-83182400D01*
X119547600Y-83182400D01*
X119547600Y-83162400D01*
X119527600Y-83162400D01*
X119527600Y-82857600D01*
X119547600Y-82857600D01*
X119547600Y-82401400D01*
X119521200Y-82375000D01*
X119547600Y-82348600D01*
X119547600Y-81892400D01*
X119852400Y-81892400D01*
X119852400Y-82348600D01*
X119878800Y-82375000D01*
X119852400Y-82401400D01*
X119852400Y-82857600D01*
X121128600Y-82857600D01*
X121204800Y-82781400D01*
X121206275Y-82630000D01*
X121200390Y-82570249D01*
X121182961Y-82512794D01*
X121154658Y-82459843D01*
X121116569Y-82413431D01*
X121070157Y-82375342D01*
X121069517Y-82375000D01*
X121070157Y-82374658D01*
X121116569Y-82336569D01*
X121154658Y-82290157D01*
X121182961Y-82237206D01*
X121200390Y-82179751D01*
X121206275Y-82120000D01*
X121204800Y-81968600D01*
X121128600Y-81892400D01*
X119852400Y-81892400D01*
X119547600Y-81892400D01*
X119527600Y-81892400D01*
X119527600Y-81587600D01*
X119547600Y-81587600D01*
X119547600Y-81567600D01*
X119852400Y-81567600D01*
X119852400Y-81587600D01*
X121128600Y-81587600D01*
X121204800Y-81511400D01*
X121206275Y-81360000D01*
X121200390Y-81300249D01*
X121182961Y-81242794D01*
X121154658Y-81189843D01*
X121116569Y-81143431D01*
X121070157Y-81105342D01*
X121069517Y-81105000D01*
X121070157Y-81104658D01*
X121116568Y-81066568D01*
X121154658Y-81020157D01*
X121182960Y-80967206D01*
X121200389Y-80909751D01*
X121206274Y-80850000D01*
X121206274Y-80090000D01*
X121200389Y-80030249D01*
X121182960Y-79972794D01*
X121154658Y-79919843D01*
X121116568Y-79873432D01*
X121070157Y-79835342D01*
X121069517Y-79835000D01*
X121070157Y-79834658D01*
X121116568Y-79796568D01*
X121154658Y-79750157D01*
X121182960Y-79697206D01*
X121200389Y-79639751D01*
X121206274Y-79580000D01*
X121206274Y-78820000D01*
X121200389Y-78760249D01*
X121182960Y-78702794D01*
X121154658Y-78649843D01*
X121116568Y-78603432D01*
X121070157Y-78565342D01*
X121017206Y-78537040D01*
X120959751Y-78519611D01*
X120900000Y-78513726D01*
X118500000Y-78513726D01*
X118440249Y-78519611D01*
X118382794Y-78537040D01*
X118329843Y-78565342D01*
X118329800Y-78565377D01*
X118329800Y-78329800D01*
X171670201Y-78329800D01*
X171670200Y-115670200D01*
G04 #@! TA.AperFunction,Conductor*
D22*
G36*
X171670200Y-115670200D02*
G01*
X135013421Y-115670200D01*
X135031558Y-115626414D01*
X135054800Y-115509568D01*
X135054800Y-115390432D01*
X135031558Y-115273586D01*
X134985966Y-115163520D01*
X134919779Y-115064463D01*
X134835537Y-114980221D01*
X134736480Y-114914034D01*
X134626414Y-114868442D01*
X134509568Y-114845200D01*
X134390432Y-114845200D01*
X134273586Y-114868442D01*
X134163520Y-114914034D01*
X134064463Y-114980221D01*
X133980221Y-115064463D01*
X133927344Y-115143600D01*
X131658337Y-115143600D01*
X129855169Y-113340432D01*
X132045200Y-113340432D01*
X132045200Y-113459568D01*
X132068442Y-113576414D01*
X132114034Y-113686480D01*
X132180221Y-113785537D01*
X132264463Y-113869779D01*
X132363520Y-113935966D01*
X132473586Y-113981558D01*
X132590432Y-114004800D01*
X132709568Y-114004800D01*
X132826414Y-113981558D01*
X132936480Y-113935966D01*
X133035537Y-113869779D01*
X133119779Y-113785537D01*
X133185966Y-113686480D01*
X133231558Y-113576414D01*
X133254800Y-113459568D01*
X133254800Y-113404800D01*
X133309568Y-113404800D01*
X133426414Y-113381558D01*
X133536480Y-113335966D01*
X133635537Y-113269779D01*
X133719779Y-113185537D01*
X133785966Y-113086480D01*
X133831558Y-112976414D01*
X133854800Y-112859568D01*
X133854800Y-112740432D01*
X133831558Y-112623586D01*
X133785966Y-112513520D01*
X133719779Y-112414463D01*
X133635537Y-112330221D01*
X133536480Y-112264034D01*
X133426414Y-112218442D01*
X133309568Y-112195200D01*
X133190432Y-112195200D01*
X133073586Y-112218442D01*
X132963520Y-112264034D01*
X132864463Y-112330221D01*
X132780221Y-112414463D01*
X132714034Y-112513520D01*
X132668442Y-112623586D01*
X132645200Y-112740432D01*
X132645200Y-112795200D01*
X132590432Y-112795200D01*
X132473586Y-112818442D01*
X132363520Y-112864034D01*
X132264463Y-112930221D01*
X132180221Y-113014463D01*
X132114034Y-113113520D01*
X132068442Y-113223586D01*
X132045200Y-113340432D01*
X129855169Y-113340432D01*
X129606400Y-113091664D01*
X129606400Y-112674439D01*
X129623586Y-112681558D01*
X129740432Y-112704800D01*
X129859568Y-112704800D01*
X129976414Y-112681558D01*
X130086480Y-112635966D01*
X130185537Y-112569779D01*
X130269779Y-112485537D01*
X130335966Y-112386480D01*
X130381558Y-112276414D01*
X130404800Y-112159568D01*
X130404800Y-112040432D01*
X130382631Y-111928983D01*
X130486480Y-111885966D01*
X130585537Y-111819779D01*
X130648916Y-111756400D01*
X131230047Y-111756400D01*
X131250000Y-111758365D01*
X131269953Y-111756400D01*
X131269960Y-111756400D01*
X131329668Y-111750519D01*
X131406275Y-111727281D01*
X131476876Y-111689544D01*
X131538758Y-111638758D01*
X131551482Y-111623254D01*
X133473255Y-109701481D01*
X133488758Y-109688758D01*
X133539544Y-109626876D01*
X133577281Y-109556275D01*
X133600519Y-109479668D01*
X133606400Y-109419960D01*
X133606400Y-109419954D01*
X133608365Y-109400001D01*
X133606400Y-109380048D01*
X133606400Y-109174439D01*
X133623586Y-109181558D01*
X133740432Y-109204800D01*
X133859568Y-109204800D01*
X133976414Y-109181558D01*
X134086480Y-109135966D01*
X134185537Y-109069779D01*
X134190290Y-109065026D01*
X134751745Y-109626482D01*
X134751751Y-109626487D01*
X139948523Y-114823260D01*
X139961242Y-114838758D01*
X139976740Y-114851477D01*
X139976745Y-114851482D01*
X139997412Y-114868442D01*
X140023124Y-114889544D01*
X140068942Y-114914034D01*
X140093725Y-114927281D01*
X140170331Y-114950519D01*
X140177604Y-114951235D01*
X140230040Y-114956400D01*
X140230047Y-114956400D01*
X140250000Y-114958365D01*
X140269953Y-114956400D01*
X141751084Y-114956400D01*
X141814463Y-115019779D01*
X141913520Y-115085966D01*
X142023586Y-115131558D01*
X142140432Y-115154800D01*
X142259568Y-115154800D01*
X142376414Y-115131558D01*
X142486480Y-115085966D01*
X142585537Y-115019779D01*
X142669779Y-114935537D01*
X142735966Y-114836480D01*
X142781558Y-114726414D01*
X142804800Y-114609568D01*
X142804800Y-114490432D01*
X142781558Y-114373586D01*
X142774439Y-114356400D01*
X151481664Y-114356400D01*
X151595200Y-114469936D01*
X151595200Y-114559568D01*
X151618442Y-114676414D01*
X151664034Y-114786480D01*
X151730221Y-114885537D01*
X151814463Y-114969779D01*
X151913520Y-115035966D01*
X152023586Y-115081558D01*
X152140432Y-115104800D01*
X152259568Y-115104800D01*
X152376414Y-115081558D01*
X152486480Y-115035966D01*
X152585537Y-114969779D01*
X152669779Y-114885537D01*
X152735966Y-114786480D01*
X152781558Y-114676414D01*
X152804800Y-114559568D01*
X152804800Y-114440432D01*
X152781558Y-114323586D01*
X152735966Y-114213520D01*
X152669779Y-114114463D01*
X152585537Y-114030221D01*
X152486480Y-113964034D01*
X152376414Y-113918442D01*
X152259568Y-113895200D01*
X152169936Y-113895200D01*
X151951481Y-113676745D01*
X151938758Y-113661242D01*
X151876876Y-113610456D01*
X151806275Y-113572719D01*
X151729668Y-113549481D01*
X151669960Y-113543600D01*
X151669953Y-113543600D01*
X151650000Y-113541635D01*
X151630047Y-113543600D01*
X140618337Y-113543600D01*
X134959632Y-107884896D01*
X134976414Y-107881558D01*
X135086480Y-107835966D01*
X135185537Y-107769779D01*
X135269779Y-107685537D01*
X135335966Y-107586480D01*
X135381558Y-107476414D01*
X135401487Y-107376223D01*
X135795200Y-107769937D01*
X135795200Y-107859568D01*
X135818442Y-107976414D01*
X135864034Y-108086480D01*
X135930221Y-108185537D01*
X136014463Y-108269779D01*
X136113520Y-108335966D01*
X136223586Y-108381558D01*
X136340432Y-108404800D01*
X136430064Y-108404800D01*
X141198518Y-113173254D01*
X141211242Y-113188758D01*
X141273124Y-113239544D01*
X141343725Y-113277281D01*
X141402502Y-113295110D01*
X141420331Y-113300519D01*
X141428335Y-113301307D01*
X141480040Y-113306400D01*
X141480046Y-113306400D01*
X141499999Y-113308365D01*
X141519952Y-113306400D01*
X147451084Y-113306400D01*
X147514463Y-113369779D01*
X147613520Y-113435966D01*
X147723586Y-113481558D01*
X147840432Y-113504800D01*
X147959568Y-113504800D01*
X148076414Y-113481558D01*
X148186480Y-113435966D01*
X148285537Y-113369779D01*
X148348916Y-113306400D01*
X160001084Y-113306400D01*
X160064463Y-113369779D01*
X160163520Y-113435966D01*
X160273586Y-113481558D01*
X160390432Y-113504800D01*
X160509568Y-113504800D01*
X160626414Y-113481558D01*
X160736480Y-113435966D01*
X160835537Y-113369779D01*
X160843677Y-113361639D01*
X168095200Y-113361639D01*
X168095200Y-113638361D01*
X168149186Y-113909765D01*
X168255083Y-114165422D01*
X168408821Y-114395508D01*
X168604492Y-114591179D01*
X168834578Y-114744917D01*
X169090235Y-114850814D01*
X169361639Y-114904800D01*
X169638361Y-114904800D01*
X169909765Y-114850814D01*
X170165422Y-114744917D01*
X170395508Y-114591179D01*
X170591179Y-114395508D01*
X170744917Y-114165422D01*
X170850814Y-113909765D01*
X170904800Y-113638361D01*
X170904800Y-113361639D01*
X170850814Y-113090235D01*
X170744917Y-112834578D01*
X170591179Y-112604492D01*
X170395508Y-112408821D01*
X170165422Y-112255083D01*
X169909765Y-112149186D01*
X169638361Y-112095200D01*
X169361639Y-112095200D01*
X169090235Y-112149186D01*
X168834578Y-112255083D01*
X168604492Y-112408821D01*
X168408821Y-112604492D01*
X168255083Y-112834578D01*
X168149186Y-113090235D01*
X168095200Y-113361639D01*
X160843677Y-113361639D01*
X160919779Y-113285537D01*
X160985966Y-113186480D01*
X161031558Y-113076414D01*
X161054800Y-112959568D01*
X161054800Y-112840432D01*
X161031558Y-112723586D01*
X160985966Y-112613520D01*
X160981209Y-112606400D01*
X163480047Y-112606400D01*
X163500000Y-112608365D01*
X163501610Y-112608206D01*
X163495200Y-112640432D01*
X163495200Y-112759568D01*
X163518442Y-112876414D01*
X163564034Y-112986480D01*
X163630221Y-113085537D01*
X163714463Y-113169779D01*
X163813520Y-113235966D01*
X163923586Y-113281558D01*
X164040432Y-113304800D01*
X164159568Y-113304800D01*
X164276414Y-113281558D01*
X164386480Y-113235966D01*
X164485537Y-113169779D01*
X164569779Y-113085537D01*
X164635966Y-112986480D01*
X164681558Y-112876414D01*
X164704800Y-112759568D01*
X164704800Y-112640432D01*
X164697712Y-112604800D01*
X164709568Y-112604800D01*
X164826414Y-112581558D01*
X164936480Y-112535966D01*
X165035537Y-112469779D01*
X165119779Y-112385537D01*
X165185966Y-112286480D01*
X165231558Y-112176414D01*
X165254800Y-112059568D01*
X165254800Y-111940432D01*
X165231558Y-111823586D01*
X165185966Y-111713520D01*
X165119779Y-111614463D01*
X165035537Y-111530221D01*
X165027723Y-111525000D01*
X165035537Y-111519779D01*
X165119779Y-111435537D01*
X165185966Y-111336480D01*
X165231558Y-111226414D01*
X165254800Y-111109568D01*
X165254800Y-110990432D01*
X165231558Y-110873586D01*
X165185966Y-110763520D01*
X165119779Y-110664463D01*
X165035537Y-110580221D01*
X164936480Y-110514034D01*
X164826414Y-110468442D01*
X164709568Y-110445200D01*
X164590432Y-110445200D01*
X164473586Y-110468442D01*
X164363520Y-110514034D01*
X164264463Y-110580221D01*
X164180221Y-110664463D01*
X164114034Y-110763520D01*
X164068442Y-110873586D01*
X164045200Y-110990432D01*
X164045200Y-111080063D01*
X163331664Y-111793600D01*
X160581209Y-111793600D01*
X160585966Y-111786480D01*
X160631558Y-111676414D01*
X160654800Y-111559568D01*
X160654800Y-111440432D01*
X160631558Y-111323586D01*
X160585966Y-111213520D01*
X160519779Y-111114463D01*
X160435537Y-111030221D01*
X160336480Y-110964034D01*
X160226414Y-110918442D01*
X160109568Y-110895200D01*
X159990432Y-110895200D01*
X159873586Y-110918442D01*
X159763520Y-110964034D01*
X159664463Y-111030221D01*
X159580221Y-111114463D01*
X159514034Y-111213520D01*
X159468442Y-111323586D01*
X159445200Y-111440432D01*
X159445200Y-111559568D01*
X159468442Y-111676414D01*
X159514034Y-111786480D01*
X159518791Y-111793600D01*
X155198916Y-111793600D01*
X155135537Y-111730221D01*
X155036480Y-111664034D01*
X154926414Y-111618442D01*
X154809568Y-111595200D01*
X154690432Y-111595200D01*
X154573586Y-111618442D01*
X154463520Y-111664034D01*
X154364463Y-111730221D01*
X154301084Y-111793600D01*
X154281209Y-111793600D01*
X154285966Y-111786480D01*
X154331558Y-111676414D01*
X154354800Y-111559568D01*
X154354800Y-111440432D01*
X154331558Y-111323586D01*
X154285966Y-111213520D01*
X154219779Y-111114463D01*
X154135537Y-111030221D01*
X154036480Y-110964034D01*
X153926414Y-110918442D01*
X153809568Y-110895200D01*
X153690432Y-110895200D01*
X153573586Y-110918442D01*
X153463520Y-110964034D01*
X153364463Y-111030221D01*
X153280221Y-111114463D01*
X153214034Y-111213520D01*
X153168442Y-111323586D01*
X153145200Y-111440432D01*
X153145200Y-111559568D01*
X153168442Y-111676414D01*
X153214034Y-111786480D01*
X153218791Y-111793600D01*
X147398916Y-111793600D01*
X147335537Y-111730221D01*
X147236480Y-111664034D01*
X147126414Y-111618442D01*
X147009568Y-111595200D01*
X146890432Y-111595200D01*
X146773586Y-111618442D01*
X146663520Y-111664034D01*
X146564463Y-111730221D01*
X146501084Y-111793600D01*
X142018336Y-111793600D01*
X140729536Y-110504800D01*
X140809568Y-110504800D01*
X140926414Y-110481558D01*
X141036480Y-110435966D01*
X141135537Y-110369779D01*
X141200000Y-110305316D01*
X141264463Y-110369779D01*
X141363520Y-110435966D01*
X141473586Y-110481558D01*
X141590432Y-110504800D01*
X141709568Y-110504800D01*
X141826414Y-110481558D01*
X141936480Y-110435966D01*
X142035537Y-110369779D01*
X142114884Y-110290432D01*
X146245200Y-110290432D01*
X146245200Y-110409568D01*
X146268442Y-110526414D01*
X146314034Y-110636480D01*
X146380221Y-110735537D01*
X146464463Y-110819779D01*
X146563520Y-110885966D01*
X146673586Y-110931558D01*
X146790432Y-110954800D01*
X146909568Y-110954800D01*
X147026414Y-110931558D01*
X147136480Y-110885966D01*
X147235537Y-110819779D01*
X147319779Y-110735537D01*
X147385966Y-110636480D01*
X147431558Y-110526414D01*
X147454800Y-110409568D01*
X147454800Y-110290432D01*
X147545200Y-110290432D01*
X147545200Y-110409568D01*
X147568442Y-110526414D01*
X147614034Y-110636480D01*
X147680221Y-110735537D01*
X147764463Y-110819779D01*
X147863520Y-110885966D01*
X147973586Y-110931558D01*
X148090432Y-110954800D01*
X148209568Y-110954800D01*
X148326414Y-110931558D01*
X148436480Y-110885966D01*
X148535537Y-110819779D01*
X148619779Y-110735537D01*
X148685966Y-110636480D01*
X148731558Y-110526414D01*
X148754800Y-110409568D01*
X148754800Y-110290432D01*
X148731558Y-110173586D01*
X148685966Y-110063520D01*
X148619779Y-109964463D01*
X148535537Y-109880221D01*
X148436480Y-109814034D01*
X148326414Y-109768442D01*
X148209568Y-109745200D01*
X148090432Y-109745200D01*
X147973586Y-109768442D01*
X147863520Y-109814034D01*
X147764463Y-109880221D01*
X147680221Y-109964463D01*
X147614034Y-110063520D01*
X147568442Y-110173586D01*
X147545200Y-110290432D01*
X147454800Y-110290432D01*
X147431558Y-110173586D01*
X147385966Y-110063520D01*
X147319779Y-109964463D01*
X147235537Y-109880221D01*
X147136480Y-109814034D01*
X147026414Y-109768442D01*
X146909568Y-109745200D01*
X146790432Y-109745200D01*
X146673586Y-109768442D01*
X146563520Y-109814034D01*
X146464463Y-109880221D01*
X146380221Y-109964463D01*
X146314034Y-110063520D01*
X146268442Y-110173586D01*
X146245200Y-110290432D01*
X142114884Y-110290432D01*
X142119779Y-110285537D01*
X142185966Y-110186480D01*
X142231558Y-110076414D01*
X142254800Y-109959568D01*
X142254800Y-109840432D01*
X142231558Y-109723586D01*
X142185966Y-109613520D01*
X142119779Y-109514463D01*
X142035537Y-109430221D01*
X141936480Y-109364034D01*
X141826414Y-109318442D01*
X141709568Y-109295200D01*
X141590432Y-109295200D01*
X141473586Y-109318442D01*
X141363520Y-109364034D01*
X141264463Y-109430221D01*
X141200000Y-109494684D01*
X141135537Y-109430221D01*
X141036480Y-109364034D01*
X140926414Y-109318442D01*
X140809568Y-109295200D01*
X140690432Y-109295200D01*
X140573586Y-109318442D01*
X140463520Y-109364034D01*
X140364463Y-109430221D01*
X140280221Y-109514463D01*
X140214034Y-109613520D01*
X140168442Y-109723586D01*
X140145200Y-109840432D01*
X140145200Y-109920464D01*
X139026238Y-108801502D01*
X168898400Y-108801502D01*
X168898400Y-109018498D01*
X168940734Y-109231325D01*
X169023775Y-109431803D01*
X169144332Y-109612229D01*
X169297771Y-109765668D01*
X169478197Y-109886225D01*
X169678675Y-109969266D01*
X169891502Y-110011600D01*
X170108498Y-110011600D01*
X170321325Y-109969266D01*
X170521803Y-109886225D01*
X170702229Y-109765668D01*
X170855668Y-109612229D01*
X170976225Y-109431803D01*
X171059266Y-109231325D01*
X171101600Y-109018498D01*
X171101600Y-108801502D01*
X171059266Y-108588675D01*
X170976225Y-108388197D01*
X170855668Y-108207771D01*
X170702229Y-108054332D01*
X170521803Y-107933775D01*
X170321325Y-107850734D01*
X170108498Y-107808400D01*
X169891502Y-107808400D01*
X169678675Y-107850734D01*
X169478197Y-107933775D01*
X169297771Y-108054332D01*
X169144332Y-108207771D01*
X169023775Y-108388197D01*
X168940734Y-108588675D01*
X168898400Y-108801502D01*
X139026238Y-108801502D01*
X137004800Y-106780064D01*
X137004800Y-106690432D01*
X136981558Y-106573586D01*
X136935966Y-106463520D01*
X136869779Y-106364463D01*
X136785537Y-106280221D01*
X136686480Y-106214034D01*
X136576414Y-106168442D01*
X136459568Y-106145200D01*
X136369936Y-106145200D01*
X135628149Y-105403413D01*
X135650519Y-105329668D01*
X135658366Y-105250000D01*
X135650519Y-105170332D01*
X135627281Y-105093725D01*
X135589544Y-105023124D01*
X135538758Y-104961242D01*
X135476876Y-104910456D01*
X135406275Y-104872719D01*
X135329668Y-104849481D01*
X135269960Y-104843600D01*
X134919953Y-104843600D01*
X134900000Y-104841635D01*
X134880047Y-104843600D01*
X132148916Y-104843600D01*
X132145748Y-104840432D01*
X138845200Y-104840432D01*
X138845200Y-104959568D01*
X138868442Y-105076414D01*
X138914034Y-105186480D01*
X138980221Y-105285537D01*
X139064463Y-105369779D01*
X139163520Y-105435966D01*
X139273586Y-105481558D01*
X139390432Y-105504800D01*
X139509568Y-105504800D01*
X139626414Y-105481558D01*
X139736480Y-105435966D01*
X139835537Y-105369779D01*
X139900000Y-105305316D01*
X139964463Y-105369779D01*
X140063520Y-105435966D01*
X140173586Y-105481558D01*
X140290432Y-105504800D01*
X140409568Y-105504800D01*
X140526414Y-105481558D01*
X140636480Y-105435966D01*
X140735537Y-105369779D01*
X140819779Y-105285537D01*
X140885966Y-105186480D01*
X140931558Y-105076414D01*
X140954800Y-104959568D01*
X140954800Y-104840432D01*
X140931558Y-104723586D01*
X140885966Y-104613520D01*
X140819779Y-104514463D01*
X140735537Y-104430221D01*
X140636480Y-104364034D01*
X140526414Y-104318442D01*
X140409568Y-104295200D01*
X140290432Y-104295200D01*
X140173586Y-104318442D01*
X140063520Y-104364034D01*
X139964463Y-104430221D01*
X139900000Y-104494684D01*
X139835537Y-104430221D01*
X139736480Y-104364034D01*
X139626414Y-104318442D01*
X139509568Y-104295200D01*
X139390432Y-104295200D01*
X139273586Y-104318442D01*
X139163520Y-104364034D01*
X139064463Y-104430221D01*
X138980221Y-104514463D01*
X138914034Y-104613520D01*
X138868442Y-104723586D01*
X138845200Y-104840432D01*
X132145748Y-104840432D01*
X132085537Y-104780221D01*
X131986480Y-104714034D01*
X131915220Y-104684516D01*
X132526481Y-104073255D01*
X134493337Y-102106400D01*
X136601084Y-102106400D01*
X136664463Y-102169779D01*
X136763520Y-102235966D01*
X136873586Y-102281558D01*
X136990432Y-102304800D01*
X137109568Y-102304800D01*
X137226414Y-102281558D01*
X137336480Y-102235966D01*
X137435537Y-102169779D01*
X137519779Y-102085537D01*
X137585966Y-101986480D01*
X137631558Y-101876414D01*
X137654800Y-101759568D01*
X137654800Y-101640432D01*
X137631558Y-101523586D01*
X137585966Y-101413520D01*
X137519779Y-101314463D01*
X137435537Y-101230221D01*
X137336480Y-101164034D01*
X137226414Y-101118442D01*
X137109568Y-101095200D01*
X136990432Y-101095200D01*
X136873586Y-101118442D01*
X136763520Y-101164034D01*
X136664463Y-101230221D01*
X136601084Y-101293600D01*
X134756137Y-101293600D01*
X135038982Y-101010755D01*
X135038987Y-101010749D01*
X137199304Y-98850432D01*
X144595200Y-98850432D01*
X144595200Y-98969568D01*
X144618442Y-99086414D01*
X144664034Y-99196480D01*
X144704700Y-99257342D01*
X144704701Y-101905673D01*
X144702305Y-101930000D01*
X144704701Y-101954327D01*
X144711868Y-102027096D01*
X144716913Y-102043726D01*
X144740189Y-102120459D01*
X144786181Y-102206504D01*
X144830266Y-102260221D01*
X144848077Y-102281924D01*
X144866971Y-102297430D01*
X145404162Y-102834621D01*
X145418442Y-102906414D01*
X145464034Y-103016480D01*
X145530221Y-103115537D01*
X145614463Y-103199779D01*
X145713520Y-103265966D01*
X145823586Y-103311558D01*
X145940432Y-103334800D01*
X146059568Y-103334800D01*
X146176414Y-103311558D01*
X146286480Y-103265966D01*
X146385537Y-103199779D01*
X146469779Y-103115537D01*
X146535966Y-103016480D01*
X146581558Y-102906414D01*
X146604800Y-102789568D01*
X146604800Y-102670432D01*
X146582800Y-102559830D01*
X146582800Y-100578116D01*
X146614463Y-100609779D01*
X146713520Y-100675966D01*
X146823586Y-100721558D01*
X146940432Y-100744800D01*
X147059568Y-100744800D01*
X147176414Y-100721558D01*
X147286480Y-100675966D01*
X147385537Y-100609779D01*
X147469779Y-100525537D01*
X147535966Y-100426480D01*
X147581558Y-100316414D01*
X147604800Y-100199568D01*
X147604800Y-100080432D01*
X147581558Y-99963586D01*
X147535966Y-99853520D01*
X147469779Y-99754463D01*
X147431800Y-99716484D01*
X147431800Y-96583710D01*
X151798400Y-92217111D01*
X151798400Y-95254818D01*
X151790227Y-95270189D01*
X151777636Y-95300738D01*
X151764602Y-95331148D01*
X151763096Y-95336014D01*
X151660432Y-95676055D01*
X151654008Y-95708499D01*
X151647136Y-95740830D01*
X151646603Y-95745895D01*
X151612074Y-96098048D01*
X151610200Y-96117080D01*
X151610201Y-98532070D01*
X151610200Y-98532080D01*
X151610201Y-100982921D01*
X151611825Y-100999414D01*
X151611746Y-101010769D01*
X151612242Y-101015838D01*
X151649371Y-101369094D01*
X151656028Y-101401525D01*
X151662216Y-101433961D01*
X151663687Y-101438836D01*
X151768723Y-101778152D01*
X151781554Y-101808674D01*
X151793923Y-101839289D01*
X151796313Y-101843786D01*
X151798400Y-101847646D01*
X151798400Y-105200000D01*
X151800352Y-105219821D01*
X151806134Y-105238881D01*
X151815523Y-105256446D01*
X151828158Y-105271842D01*
X153128158Y-106571842D01*
X153143554Y-106584477D01*
X153161119Y-106593866D01*
X153180179Y-106599648D01*
X153200000Y-106601600D01*
X156554818Y-106601600D01*
X156570189Y-106609773D01*
X156600738Y-106622364D01*
X156631148Y-106635398D01*
X156636014Y-106636904D01*
X156976055Y-106739568D01*
X157008484Y-106745989D01*
X157040829Y-106752864D01*
X157045894Y-106753397D01*
X157399401Y-106788059D01*
X157417079Y-106789800D01*
X162282921Y-106789800D01*
X162299423Y-106788175D01*
X162310769Y-106788254D01*
X162315838Y-106787758D01*
X162669094Y-106750629D01*
X162701525Y-106743972D01*
X162733961Y-106737784D01*
X162738836Y-106736313D01*
X163078152Y-106631277D01*
X163108674Y-106618446D01*
X163139289Y-106606077D01*
X163143786Y-106603687D01*
X163147646Y-106601600D01*
X166500000Y-106601600D01*
X166519821Y-106599648D01*
X166538881Y-106593866D01*
X166556446Y-106584477D01*
X166571842Y-106571842D01*
X167871842Y-105271842D01*
X167884477Y-105256446D01*
X167893866Y-105238881D01*
X167899648Y-105219821D01*
X167901600Y-105200000D01*
X167901600Y-101845182D01*
X167909773Y-101829811D01*
X167922364Y-101799262D01*
X167935398Y-101768852D01*
X167936904Y-101763986D01*
X168039568Y-101423945D01*
X168045989Y-101391516D01*
X168052864Y-101359171D01*
X168053397Y-101354106D01*
X168088059Y-101000599D01*
X168089800Y-100982921D01*
X168089800Y-96117079D01*
X168088175Y-96100577D01*
X168088254Y-96089231D01*
X168087758Y-96084162D01*
X168050629Y-95730906D01*
X168043972Y-95698475D01*
X168037784Y-95666039D01*
X168036312Y-95661163D01*
X167931277Y-95321848D01*
X167918451Y-95291338D01*
X167906077Y-95260711D01*
X167903687Y-95256214D01*
X167901600Y-95252354D01*
X167901600Y-91900000D01*
X167899648Y-91880179D01*
X167893866Y-91861119D01*
X167884477Y-91843554D01*
X167871842Y-91828158D01*
X166571842Y-90528158D01*
X166556446Y-90515523D01*
X166538881Y-90506134D01*
X166519821Y-90500352D01*
X166500000Y-90498400D01*
X163145182Y-90498400D01*
X163129811Y-90490227D01*
X163099262Y-90477636D01*
X163068852Y-90464602D01*
X163063986Y-90463096D01*
X162723945Y-90360432D01*
X162691501Y-90354008D01*
X162659170Y-90347136D01*
X162654105Y-90346603D01*
X162300599Y-90311941D01*
X162282921Y-90310200D01*
X157417079Y-90310200D01*
X157400577Y-90311825D01*
X157389231Y-90311746D01*
X157384162Y-90312242D01*
X157030906Y-90349371D01*
X156998475Y-90356028D01*
X156966039Y-90362216D01*
X156961163Y-90363688D01*
X156621848Y-90468723D01*
X156591338Y-90481549D01*
X156560711Y-90493923D01*
X156556214Y-90496313D01*
X156552354Y-90498400D01*
X153517111Y-90498400D01*
X153833711Y-90181800D01*
X166996484Y-90181800D01*
X167034463Y-90219779D01*
X167133520Y-90285966D01*
X167243586Y-90331558D01*
X167360432Y-90354800D01*
X167479568Y-90354800D01*
X167596414Y-90331558D01*
X167706480Y-90285966D01*
X167805537Y-90219779D01*
X167889779Y-90135537D01*
X167955966Y-90036480D01*
X168001558Y-89926414D01*
X168024800Y-89809568D01*
X168024800Y-89690432D01*
X168001558Y-89573586D01*
X167955966Y-89463520D01*
X167889779Y-89364463D01*
X167805537Y-89280221D01*
X167706480Y-89214034D01*
X167596414Y-89168442D01*
X167479568Y-89145200D01*
X167360432Y-89145200D01*
X167243586Y-89168442D01*
X167133520Y-89214034D01*
X167034463Y-89280221D01*
X166996484Y-89318200D01*
X153676064Y-89318200D01*
X153654854Y-89316111D01*
X153633644Y-89318200D01*
X153570206Y-89324448D01*
X153488812Y-89349139D01*
X153413798Y-89389234D01*
X153348048Y-89443194D01*
X153334524Y-89459673D01*
X146709674Y-96084524D01*
X146693195Y-96098048D01*
X146639235Y-96163798D01*
X146603760Y-96230168D01*
X146599140Y-96238812D01*
X146574448Y-96320207D01*
X146566111Y-96404854D01*
X146568201Y-96426074D01*
X146568200Y-98438308D01*
X146557279Y-98421963D01*
X146473037Y-98337721D01*
X146373980Y-98271534D01*
X146263914Y-98225942D01*
X146147068Y-98202700D01*
X146027932Y-98202700D01*
X145911086Y-98225942D01*
X145801020Y-98271534D01*
X145701963Y-98337721D01*
X145617721Y-98421963D01*
X145597517Y-98452201D01*
X145585537Y-98440221D01*
X145486480Y-98374034D01*
X145376414Y-98328442D01*
X145259568Y-98305200D01*
X145140432Y-98305200D01*
X145023586Y-98328442D01*
X144913520Y-98374034D01*
X144814463Y-98440221D01*
X144730221Y-98524463D01*
X144664034Y-98623520D01*
X144618442Y-98733586D01*
X144595200Y-98850432D01*
X137199304Y-98850432D01*
X138543337Y-97506400D01*
X139830047Y-97506400D01*
X139850000Y-97508365D01*
X139869953Y-97506400D01*
X139869960Y-97506400D01*
X139929668Y-97500519D01*
X140006275Y-97477281D01*
X140076876Y-97439544D01*
X140138758Y-97388758D01*
X140151482Y-97373254D01*
X141480669Y-96044067D01*
X141468442Y-96073586D01*
X141445200Y-96190432D01*
X141445200Y-96309568D01*
X141468442Y-96426414D01*
X141514034Y-96536480D01*
X141580221Y-96635537D01*
X141619684Y-96675000D01*
X141580221Y-96714463D01*
X141514034Y-96813520D01*
X141468442Y-96923586D01*
X141445200Y-97040432D01*
X141445200Y-97159568D01*
X141468442Y-97276414D01*
X141514034Y-97386480D01*
X141580221Y-97485537D01*
X141664463Y-97569779D01*
X141763520Y-97635966D01*
X141873586Y-97681558D01*
X141990432Y-97704800D01*
X142109568Y-97704800D01*
X142226414Y-97681558D01*
X142336480Y-97635966D01*
X142435537Y-97569779D01*
X142519779Y-97485537D01*
X142585966Y-97386480D01*
X142631558Y-97276414D01*
X142654800Y-97159568D01*
X142654800Y-97040432D01*
X142631558Y-96923586D01*
X142585966Y-96813520D01*
X142519779Y-96714463D01*
X142480316Y-96675000D01*
X142519779Y-96635537D01*
X142585966Y-96536480D01*
X142631558Y-96426414D01*
X142654800Y-96309568D01*
X142654800Y-96190432D01*
X142631558Y-96073586D01*
X142585966Y-95963520D01*
X142519779Y-95864463D01*
X142435537Y-95780221D01*
X142336480Y-95714034D01*
X142226414Y-95668442D01*
X142109568Y-95645200D01*
X141990432Y-95645200D01*
X141873586Y-95668442D01*
X141844068Y-95680669D01*
X141944937Y-95579800D01*
X142034568Y-95579800D01*
X142151414Y-95556558D01*
X142261480Y-95510966D01*
X142360537Y-95444779D01*
X142444779Y-95360537D01*
X142510966Y-95261480D01*
X142556558Y-95151414D01*
X142579800Y-95034568D01*
X142579800Y-94915432D01*
X142556558Y-94798586D01*
X142510966Y-94688520D01*
X142444779Y-94589463D01*
X142360537Y-94505221D01*
X142261480Y-94439034D01*
X142151414Y-94393442D01*
X142034568Y-94370200D01*
X141915432Y-94370200D01*
X141798586Y-94393442D01*
X141688520Y-94439034D01*
X141655636Y-94461006D01*
X141635966Y-94413520D01*
X141569779Y-94314463D01*
X141555316Y-94300000D01*
X141569779Y-94285537D01*
X141635966Y-94186480D01*
X141681558Y-94076414D01*
X141704800Y-93959568D01*
X141704800Y-93840432D01*
X141681558Y-93723586D01*
X141635966Y-93613520D01*
X141569779Y-93514463D01*
X141485537Y-93430221D01*
X141386480Y-93364034D01*
X141276414Y-93318442D01*
X141159568Y-93295200D01*
X141040432Y-93295200D01*
X140923586Y-93318442D01*
X140813520Y-93364034D01*
X140714463Y-93430221D01*
X140630221Y-93514463D01*
X140564034Y-93613520D01*
X140518442Y-93723586D01*
X140516188Y-93734917D01*
X140476414Y-93718442D01*
X140359568Y-93695200D01*
X140240432Y-93695200D01*
X140123586Y-93718442D01*
X140013520Y-93764034D01*
X139914463Y-93830221D01*
X139830221Y-93914463D01*
X139764034Y-94013520D01*
X139718442Y-94123586D01*
X139695200Y-94240432D01*
X139695200Y-94359568D01*
X139718442Y-94476414D01*
X139764034Y-94586480D01*
X139830221Y-94685537D01*
X139844684Y-94700000D01*
X139830221Y-94714463D01*
X139764034Y-94813520D01*
X139718442Y-94923586D01*
X139695200Y-95040432D01*
X139695200Y-95159568D01*
X139718442Y-95276414D01*
X139764034Y-95386480D01*
X139830221Y-95485537D01*
X139914463Y-95569779D01*
X140013520Y-95635966D01*
X140123586Y-95681558D01*
X140240432Y-95704800D01*
X140359568Y-95704800D01*
X140476414Y-95681558D01*
X140586480Y-95635966D01*
X140685537Y-95569779D01*
X140769779Y-95485537D01*
X140835966Y-95386480D01*
X140881558Y-95276414D01*
X140883812Y-95265083D01*
X140923586Y-95281558D01*
X141040432Y-95304800D01*
X141070463Y-95304800D01*
X139681664Y-96693600D01*
X138394953Y-96693600D01*
X138375000Y-96691635D01*
X138355047Y-96693600D01*
X138355040Y-96693600D01*
X138302604Y-96698765D01*
X138295331Y-96699481D01*
X138245942Y-96714463D01*
X138218725Y-96722719D01*
X138148124Y-96760456D01*
X138122746Y-96781283D01*
X138101745Y-96798518D01*
X138101740Y-96798523D01*
X138086242Y-96811242D01*
X138073523Y-96826740D01*
X134509932Y-100390332D01*
X134464252Y-100436013D01*
X134464245Y-100436018D01*
X134156400Y-100743863D01*
X134156400Y-98298916D01*
X134219779Y-98235537D01*
X134285966Y-98136480D01*
X134331558Y-98026414D01*
X134354800Y-97909568D01*
X134354800Y-97790432D01*
X134331558Y-97673586D01*
X134285966Y-97563520D01*
X134219779Y-97464463D01*
X134135537Y-97380221D01*
X134036480Y-97314034D01*
X133926414Y-97268442D01*
X133809568Y-97245200D01*
X133690432Y-97245200D01*
X133573586Y-97268442D01*
X133463520Y-97314034D01*
X133364463Y-97380221D01*
X133280221Y-97464463D01*
X133214034Y-97563520D01*
X133168442Y-97673586D01*
X133145200Y-97790432D01*
X133145200Y-97909568D01*
X133168442Y-98026414D01*
X133214034Y-98136480D01*
X133280221Y-98235537D01*
X133343601Y-98298917D01*
X133343600Y-100981663D01*
X131501746Y-102823518D01*
X128806400Y-105518864D01*
X128806400Y-104943336D01*
X129373254Y-104376482D01*
X129388758Y-104363758D01*
X129439544Y-104301876D01*
X129477281Y-104231275D01*
X129498143Y-104162500D01*
X129500519Y-104154669D01*
X129502945Y-104130040D01*
X129506400Y-104094960D01*
X129506400Y-104094954D01*
X129508365Y-104075001D01*
X129506400Y-104055048D01*
X129506400Y-103245689D01*
X129508365Y-103225736D01*
X129506400Y-103205783D01*
X129506400Y-103205776D01*
X129500694Y-103147846D01*
X129500519Y-103146067D01*
X129477281Y-103069461D01*
X129470256Y-103056319D01*
X129439544Y-102998860D01*
X129413685Y-102967351D01*
X129401482Y-102952481D01*
X129401477Y-102952476D01*
X129388758Y-102936978D01*
X129373260Y-102924259D01*
X129025746Y-102576746D01*
X129013022Y-102561242D01*
X128951140Y-102510456D01*
X128880539Y-102472719D01*
X128803932Y-102449481D01*
X128749429Y-102444113D01*
X128685537Y-102380221D01*
X128586480Y-102314034D01*
X128476414Y-102268442D01*
X128459632Y-102265104D01*
X129426482Y-101298255D01*
X129426487Y-101298249D01*
X129923254Y-100801482D01*
X129938758Y-100788758D01*
X129989544Y-100726876D01*
X130027281Y-100656275D01*
X130047813Y-100588589D01*
X130050519Y-100579669D01*
X130051909Y-100565552D01*
X130056400Y-100519960D01*
X130056400Y-100519954D01*
X130058365Y-100500001D01*
X130056400Y-100480048D01*
X130056400Y-99778916D01*
X130119779Y-99715537D01*
X130185966Y-99616480D01*
X130231558Y-99506414D01*
X130236696Y-99480583D01*
X130545200Y-99480583D01*
X130545200Y-99619417D01*
X130572285Y-99755583D01*
X130625415Y-99883848D01*
X130702546Y-99999284D01*
X130800716Y-100097454D01*
X130916152Y-100174585D01*
X131044417Y-100227715D01*
X131180583Y-100254800D01*
X131319417Y-100254800D01*
X131455583Y-100227715D01*
X131583848Y-100174585D01*
X131699284Y-100097454D01*
X131797454Y-99999284D01*
X131874585Y-99883848D01*
X131927715Y-99755583D01*
X131954800Y-99619417D01*
X131954800Y-99480583D01*
X131927715Y-99344417D01*
X131874585Y-99216152D01*
X131797454Y-99100716D01*
X131699284Y-99002546D01*
X131583848Y-98925415D01*
X131455583Y-98872285D01*
X131319417Y-98845200D01*
X131180583Y-98845200D01*
X131044417Y-98872285D01*
X130916152Y-98925415D01*
X130800716Y-99002546D01*
X130702546Y-99100716D01*
X130625415Y-99216152D01*
X130572285Y-99344417D01*
X130545200Y-99480583D01*
X130236696Y-99480583D01*
X130254800Y-99389568D01*
X130254800Y-99270432D01*
X130231558Y-99153586D01*
X130185966Y-99043520D01*
X130119779Y-98944463D01*
X130035537Y-98860221D01*
X129936480Y-98794034D01*
X129826414Y-98748442D01*
X129826314Y-98748422D01*
X136618337Y-91956400D01*
X137330047Y-91956400D01*
X137350000Y-91958365D01*
X137369953Y-91956400D01*
X137369960Y-91956400D01*
X137429668Y-91950519D01*
X137506275Y-91927281D01*
X137576876Y-91889544D01*
X137638758Y-91838758D01*
X137651482Y-91823254D01*
X139769708Y-89705028D01*
X139764034Y-89713520D01*
X139718442Y-89823586D01*
X139695200Y-89940432D01*
X139695200Y-90059568D01*
X139718442Y-90176414D01*
X139764034Y-90286480D01*
X139830221Y-90385537D01*
X139844684Y-90400000D01*
X139830221Y-90414463D01*
X139764034Y-90513520D01*
X139718442Y-90623586D01*
X139695200Y-90740432D01*
X139695200Y-90859568D01*
X139718442Y-90976414D01*
X139764034Y-91086480D01*
X139830221Y-91185537D01*
X139914463Y-91269779D01*
X140013520Y-91335966D01*
X140123586Y-91381558D01*
X140240432Y-91404800D01*
X140359568Y-91404800D01*
X140476414Y-91381558D01*
X140516188Y-91365083D01*
X140518442Y-91376414D01*
X140564034Y-91486480D01*
X140630221Y-91585537D01*
X140714463Y-91669779D01*
X140813520Y-91735966D01*
X140923586Y-91781558D01*
X141040432Y-91804800D01*
X141159568Y-91804800D01*
X141276414Y-91781558D01*
X141386480Y-91735966D01*
X141485537Y-91669779D01*
X141569779Y-91585537D01*
X141635966Y-91486480D01*
X141681558Y-91376414D01*
X141704800Y-91259568D01*
X141704800Y-91140432D01*
X141681558Y-91023586D01*
X141635966Y-90913520D01*
X141569779Y-90814463D01*
X141555316Y-90800000D01*
X141569779Y-90785537D01*
X141635966Y-90686480D01*
X141681558Y-90576414D01*
X141704800Y-90459568D01*
X141704800Y-90340432D01*
X141681558Y-90223586D01*
X141635966Y-90113520D01*
X141569779Y-90014463D01*
X141485537Y-89930221D01*
X141386480Y-89864034D01*
X141276414Y-89818442D01*
X141159568Y-89795200D01*
X141040432Y-89795200D01*
X140923586Y-89818442D01*
X140883812Y-89834917D01*
X140881558Y-89823586D01*
X140835966Y-89713520D01*
X140769779Y-89614463D01*
X140685537Y-89530221D01*
X140586480Y-89464034D01*
X140476414Y-89418442D01*
X140359568Y-89395200D01*
X140240432Y-89395200D01*
X140123586Y-89418442D01*
X140013520Y-89464034D01*
X140005028Y-89469708D01*
X141919936Y-87554800D01*
X142009568Y-87554800D01*
X142126414Y-87531558D01*
X142236480Y-87485966D01*
X142335537Y-87419779D01*
X142419779Y-87335537D01*
X142485966Y-87236480D01*
X142531558Y-87126414D01*
X142554800Y-87009568D01*
X142554800Y-86890432D01*
X142531558Y-86773586D01*
X142503728Y-86706400D01*
X152080047Y-86706400D01*
X152100000Y-86708365D01*
X152119953Y-86706400D01*
X152119960Y-86706400D01*
X152179668Y-86700519D01*
X152256275Y-86677281D01*
X152326876Y-86639544D01*
X152388758Y-86588758D01*
X152401482Y-86573254D01*
X153969937Y-85004800D01*
X154059568Y-85004800D01*
X154176414Y-84981558D01*
X154286480Y-84935966D01*
X154385537Y-84869779D01*
X154469779Y-84785537D01*
X154535966Y-84686480D01*
X154581558Y-84576414D01*
X154604800Y-84459568D01*
X154604800Y-84340432D01*
X154581558Y-84223586D01*
X154535966Y-84113520D01*
X154469779Y-84014463D01*
X154385537Y-83930221D01*
X154286480Y-83864034D01*
X154176414Y-83818442D01*
X154133973Y-83810000D01*
X158233725Y-83810000D01*
X158233725Y-83820000D01*
X158236480Y-83860988D01*
X158236838Y-83863639D01*
X158254401Y-83932346D01*
X158255103Y-83934176D01*
X158282026Y-83987900D01*
X158283072Y-83989558D01*
X158319987Y-84037012D01*
X158321337Y-84038434D01*
X158366636Y-84077639D01*
X158368237Y-84078771D01*
X158420536Y-84108513D01*
X158422327Y-84109310D01*
X158479201Y-84128201D01*
X158481113Y-84128634D01*
X158510771Y-84133833D01*
X158670771Y-84153833D01*
X158679597Y-84154806D01*
X158680172Y-84154861D01*
X158688962Y-84155575D01*
X158838962Y-84165575D01*
X158842429Y-84165778D01*
X158879897Y-84224658D01*
X158939176Y-84326277D01*
X158972258Y-84397955D01*
X158984271Y-84494062D01*
X158993725Y-84834391D01*
X158993725Y-85150000D01*
X158993814Y-85157363D01*
X158993826Y-85157862D01*
X158994119Y-85165794D01*
X159004119Y-85365794D01*
X159005370Y-85382083D01*
X159005480Y-85383144D01*
X159007595Y-85399327D01*
X159037595Y-85589327D01*
X159039011Y-85597567D01*
X159039104Y-85598067D01*
X159040510Y-85605156D01*
X159080510Y-85795156D01*
X159089657Y-85828913D01*
X159090380Y-85831082D01*
X159103397Y-85863748D01*
X159173397Y-86013748D01*
X159183964Y-86034326D01*
X159184705Y-86035644D01*
X159196843Y-86055438D01*
X159336843Y-86265438D01*
X159340156Y-86270306D01*
X159340370Y-86270614D01*
X159343602Y-86275176D01*
X159473602Y-86455176D01*
X159481738Y-86465934D01*
X159482277Y-86466615D01*
X159490636Y-86476723D01*
X159680636Y-86696723D01*
X159700543Y-86717687D01*
X159701904Y-86718991D01*
X159723687Y-86737974D01*
X159963687Y-86927974D01*
X159985876Y-86943981D01*
X159987377Y-86944965D01*
X160011165Y-86959067D01*
X160311165Y-87119067D01*
X160328720Y-87127721D01*
X160329879Y-87128247D01*
X160347831Y-87135716D01*
X160637831Y-87245716D01*
X160676356Y-87257496D01*
X160678908Y-87258096D01*
X160717266Y-87264494D01*
X160638949Y-87293863D01*
X160636637Y-87294740D01*
X160636434Y-87294818D01*
X160632538Y-87296346D01*
X160432538Y-87376346D01*
X160416604Y-87383250D01*
X160415577Y-87383730D01*
X160400054Y-87391529D01*
X160270054Y-87461529D01*
X160262390Y-87465798D01*
X160261890Y-87466086D01*
X160254241Y-87470641D01*
X160124241Y-87550641D01*
X160093324Y-87572407D01*
X160091402Y-87573946D01*
X160063458Y-87599300D01*
X160047069Y-87616123D01*
X160007691Y-87655036D01*
X159987975Y-87676465D01*
X159986758Y-87677921D01*
X159953398Y-87726731D01*
X159952453Y-87728449D01*
X159939298Y-87755413D01*
X159909298Y-87825413D01*
X159896910Y-87859876D01*
X159896237Y-87862171D01*
X159888028Y-87898005D01*
X159868028Y-88018005D01*
X159865697Y-88034868D01*
X159865576Y-88035968D01*
X159864035Y-88082895D01*
X159864121Y-88084853D01*
X159866904Y-88114728D01*
X159876904Y-88184728D01*
X159880653Y-88205722D01*
X159880947Y-88207091D01*
X159896004Y-88256477D01*
X159896732Y-88258298D01*
X159924332Y-88311526D01*
X159925400Y-88313169D01*
X159943030Y-88337575D01*
X159983030Y-88387575D01*
X160007253Y-88414435D01*
X160008931Y-88416088D01*
X160060744Y-88457119D01*
X160062403Y-88458163D01*
X160088558Y-88472885D01*
X160148558Y-88502885D01*
X160186083Y-88518625D01*
X160188594Y-88519487D01*
X160227974Y-88530133D01*
X160277974Y-88540133D01*
X160315322Y-88545237D01*
X160317769Y-88545419D01*
X160385331Y-88542962D01*
X160387270Y-88542675D01*
X160416708Y-88536831D01*
X160449048Y-88528746D01*
X160478053Y-88534611D01*
X160480004Y-88534803D01*
X160510000Y-88536275D01*
X160590000Y-88536275D01*
X160628320Y-88533868D01*
X160630802Y-88533555D01*
X160697174Y-88517513D01*
X160699016Y-88516843D01*
X160753209Y-88490857D01*
X160754885Y-88489840D01*
X160779765Y-88473020D01*
X160788758Y-88466275D01*
X160800000Y-88466275D01*
X160819303Y-88465666D01*
X160820554Y-88465587D01*
X160869081Y-88458591D01*
X160870992Y-88458157D01*
X160900015Y-88450045D01*
X160960015Y-88430045D01*
X160985905Y-88420091D01*
X160987567Y-88419364D01*
X161038232Y-88391216D01*
X161039848Y-88390106D01*
X161085649Y-88351547D01*
X161087018Y-88350144D01*
X161106970Y-88327575D01*
X161146970Y-88277575D01*
X161171489Y-88242058D01*
X161172919Y-88239638D01*
X161202329Y-88172723D01*
X161202898Y-88170847D01*
X161214611Y-88111947D01*
X161214803Y-88109996D01*
X161216275Y-88080000D01*
X161216275Y-88040000D01*
X161213973Y-88002520D01*
X161213674Y-88000095D01*
X161206831Y-87963292D01*
X161198659Y-87930604D01*
X161195198Y-87913297D01*
X161215044Y-87904792D01*
X161538720Y-87790553D01*
X161740442Y-87729159D01*
X161848092Y-87712598D01*
X161883878Y-87704878D01*
X161886174Y-87704237D01*
X161947865Y-87679529D01*
X161949595Y-87678607D01*
X161975438Y-87663157D01*
X162002682Y-87644994D01*
X161993999Y-87668563D01*
X161948188Y-87787670D01*
X161860721Y-87980099D01*
X161839677Y-88013769D01*
X161832538Y-88016346D01*
X161782538Y-88036346D01*
X161746209Y-88053730D01*
X161743923Y-88055015D01*
X161710235Y-88076980D01*
X161670235Y-88106980D01*
X161647729Y-88125601D01*
X161646323Y-88126882D01*
X161606714Y-88170668D01*
X161605545Y-88172242D01*
X161588796Y-88197278D01*
X161558796Y-88247278D01*
X161551294Y-88260517D01*
X161550827Y-88261391D01*
X161532512Y-88302757D01*
X161531853Y-88304603D01*
X161523169Y-88333292D01*
X161513169Y-88373292D01*
X161509261Y-88391178D01*
X161509039Y-88392363D01*
X161506167Y-88410771D01*
X161496167Y-88490771D01*
X161493815Y-88531530D01*
X161493839Y-88534184D01*
X161496904Y-88574728D01*
X161506904Y-88644728D01*
X161512019Y-88671780D01*
X161512434Y-88673538D01*
X161531039Y-88728460D01*
X161531841Y-88730249D01*
X161545397Y-88756916D01*
X161565397Y-88791916D01*
X161577916Y-88811983D01*
X161578789Y-88813269D01*
X161593030Y-88832575D01*
X161613030Y-88857575D01*
X161624143Y-88870694D01*
X161624888Y-88871525D01*
X161658821Y-88903983D01*
X161660338Y-88905226D01*
X161684562Y-88923157D01*
X161714562Y-88943157D01*
X161733783Y-88954972D01*
X161735059Y-88955693D01*
X161782757Y-88977488D01*
X161784603Y-88978147D01*
X161813292Y-88986831D01*
X161853292Y-88996831D01*
X161897525Y-89004498D01*
X161900436Y-89004785D01*
X161975331Y-89002962D01*
X161977270Y-89002675D01*
X162006708Y-88996831D01*
X162046708Y-88986831D01*
X162051211Y-88985373D01*
X162105272Y-88993096D01*
X162137629Y-88995978D01*
X162139752Y-88996054D01*
X162202276Y-88991878D01*
X162204208Y-88991548D01*
X162262148Y-88975674D01*
X162263979Y-88974973D01*
X162291442Y-88962885D01*
X162331442Y-88942885D01*
X162364561Y-88923648D01*
X162366641Y-88922259D01*
X162386379Y-88905607D01*
X162400000Y-88906275D01*
X162450000Y-88906275D01*
X162490802Y-88903545D01*
X162493443Y-88903190D01*
X162562148Y-88885674D01*
X162563979Y-88884973D01*
X162591442Y-88872885D01*
X162631442Y-88852885D01*
X162654685Y-88839973D01*
X162656166Y-88839064D01*
X162701556Y-88805042D01*
X162703009Y-88803726D01*
X162743286Y-88759332D01*
X162744455Y-88757758D01*
X162761204Y-88732722D01*
X162791204Y-88682722D01*
X162802099Y-88662945D01*
X162802763Y-88661627D01*
X162822329Y-88612723D01*
X162822898Y-88610847D01*
X162834611Y-88551947D01*
X162834803Y-88549996D01*
X162836275Y-88520000D01*
X162836275Y-88460000D01*
X162833311Y-88417490D01*
X162832926Y-88414743D01*
X162824106Y-88373113D01*
X162804106Y-88303113D01*
X162795992Y-88278659D01*
X162795394Y-88277082D01*
X162770857Y-88226791D01*
X162769840Y-88225115D01*
X162753020Y-88200235D01*
X162693020Y-88120235D01*
X162666343Y-88089219D01*
X162665471Y-88088332D01*
X162715245Y-87943986D01*
X162947039Y-87403134D01*
X162989261Y-87318690D01*
X163070687Y-87212836D01*
X163087476Y-87188695D01*
X163088494Y-87187070D01*
X163091288Y-87182094D01*
X163370065Y-87066738D01*
X163374453Y-87068201D01*
X163523039Y-87123920D01*
X163692988Y-87195478D01*
X163915627Y-87316075D01*
X164168991Y-87462246D01*
X164484179Y-87653269D01*
X164607129Y-87743433D01*
X164769545Y-87896825D01*
X164896360Y-88023640D01*
X164901967Y-88029106D01*
X164902348Y-88029468D01*
X164908423Y-88035085D01*
X165008423Y-88125085D01*
X165040873Y-88150553D01*
X165043091Y-88152064D01*
X165078558Y-88172885D01*
X165138558Y-88202885D01*
X165176231Y-88218676D01*
X165178752Y-88219540D01*
X165248053Y-88234611D01*
X165250004Y-88234803D01*
X165280000Y-88236275D01*
X165300000Y-88236275D01*
X165329996Y-88234803D01*
X165331947Y-88234611D01*
X165390847Y-88222898D01*
X165392723Y-88222329D01*
X165448183Y-88199360D01*
X165449912Y-88198436D01*
X165499917Y-88165017D01*
X165501432Y-88163773D01*
X165543773Y-88121432D01*
X165545017Y-88119917D01*
X165578436Y-88069912D01*
X165579360Y-88068183D01*
X165597895Y-88023428D01*
X165650847Y-88012898D01*
X165652723Y-88012329D01*
X165708183Y-87989360D01*
X165709912Y-87988436D01*
X165759917Y-87955017D01*
X165761432Y-87953773D01*
X165803773Y-87911432D01*
X165805017Y-87909917D01*
X165838436Y-87859912D01*
X165839360Y-87858183D01*
X165862329Y-87802723D01*
X165862898Y-87800847D01*
X165874611Y-87741947D01*
X165874803Y-87739996D01*
X165876275Y-87710000D01*
X165876275Y-87700000D01*
X165875666Y-87680697D01*
X165875587Y-87679446D01*
X165868591Y-87630919D01*
X165868157Y-87629008D01*
X165860045Y-87599985D01*
X165850045Y-87569985D01*
X165842419Y-87549562D01*
X165841876Y-87548252D01*
X165832885Y-87528558D01*
X165822885Y-87508558D01*
X165813852Y-87491813D01*
X165813223Y-87490729D01*
X165785017Y-87450083D01*
X165783773Y-87448568D01*
X165763640Y-87426360D01*
X165743640Y-87406360D01*
X165738033Y-87400894D01*
X165737652Y-87400532D01*
X165731577Y-87394915D01*
X165631577Y-87304915D01*
X165625286Y-87299407D01*
X165624888Y-87299068D01*
X165619000Y-87294177D01*
X165409000Y-87124177D01*
X165408329Y-87123636D01*
X165408206Y-87123537D01*
X165405104Y-87121073D01*
X165035104Y-86831073D01*
X165031555Y-86828333D01*
X165031363Y-86828187D01*
X165029027Y-86826428D01*
X164481633Y-86418370D01*
X163944174Y-86000347D01*
X163940056Y-85997200D01*
X163939799Y-85997007D01*
X163936024Y-85994217D01*
X163827905Y-85915585D01*
X163478415Y-85653467D01*
X162982173Y-85225337D01*
X162607516Y-84870399D01*
X162605052Y-84868090D01*
X162604902Y-84867951D01*
X162602750Y-84865976D01*
X162165721Y-84468677D01*
X161941147Y-84253867D01*
X161777048Y-84089768D01*
X161626853Y-83930186D01*
X161482969Y-83757525D01*
X161481685Y-83755995D01*
X161481609Y-83755905D01*
X161480565Y-83754675D01*
X161421119Y-83685027D01*
X161412885Y-83668558D01*
X161401313Y-83647519D01*
X161400506Y-83646179D01*
X161387363Y-83626169D01*
X161337363Y-83556169D01*
X161327907Y-83543624D01*
X161327268Y-83542820D01*
X161317155Y-83530746D01*
X161167155Y-83360746D01*
X161167153Y-83360748D01*
X161165085Y-83358423D01*
X161075085Y-83258423D01*
X161069468Y-83252348D01*
X161069106Y-83251967D01*
X161063640Y-83246360D01*
X160953640Y-83136360D01*
X160950061Y-83132839D01*
X160949813Y-83132599D01*
X160945800Y-83128785D01*
X160795800Y-82988785D01*
X160776910Y-82972540D01*
X160775634Y-82971530D01*
X160755438Y-82956843D01*
X160635438Y-82876843D01*
X160614320Y-82863964D01*
X160612911Y-82863181D01*
X160590875Y-82852074D01*
X160480875Y-82802074D01*
X160466020Y-82795787D01*
X160465044Y-82795404D01*
X160450015Y-82789955D01*
X160330015Y-82749955D01*
X160304477Y-82742656D01*
X160302798Y-82742254D01*
X160276916Y-82737225D01*
X160076916Y-82707225D01*
X160059623Y-82705131D01*
X160058485Y-82705026D01*
X160040900Y-82703913D01*
X159750900Y-82693913D01*
X159743348Y-82693746D01*
X159742838Y-82693741D01*
X159734791Y-82693768D01*
X159631207Y-82695474D01*
X159614632Y-82696196D01*
X159613558Y-82696272D01*
X159597224Y-82697869D01*
X159530808Y-82706163D01*
X159512410Y-82709031D01*
X159511224Y-82709253D01*
X159493292Y-82713169D01*
X159413292Y-82733169D01*
X159402171Y-82736172D01*
X159401434Y-82736386D01*
X159389985Y-82739955D01*
X159329985Y-82759955D01*
X159309562Y-82767581D01*
X159308252Y-82768124D01*
X159288558Y-82777115D01*
X159188558Y-82827115D01*
X159174823Y-82834424D01*
X159173926Y-82834931D01*
X159160199Y-82843171D01*
X159050199Y-82913171D01*
X159038122Y-82921265D01*
X159037352Y-82921808D01*
X159025826Y-82930347D01*
X158935826Y-83000347D01*
X158918787Y-83014622D01*
X158917711Y-83015592D01*
X158901815Y-83030999D01*
X158874341Y-83059625D01*
X158859812Y-83075884D01*
X158858904Y-83076976D01*
X158845613Y-83094167D01*
X158823087Y-83125541D01*
X158817557Y-83133506D01*
X158817200Y-83134038D01*
X158811799Y-83142375D01*
X158761799Y-83222375D01*
X158756743Y-83230760D01*
X158756418Y-83231319D01*
X158751529Y-83240054D01*
X158699328Y-83336999D01*
X158690823Y-83342669D01*
X158650123Y-83367089D01*
X158443084Y-83485397D01*
X158426972Y-83495275D01*
X158425933Y-83495957D01*
X158410235Y-83506980D01*
X158370235Y-83536980D01*
X158339219Y-83563657D01*
X158337319Y-83565526D01*
X158292881Y-83620744D01*
X158291837Y-83622403D01*
X158277115Y-83648558D01*
X158267115Y-83668558D01*
X158251324Y-83706231D01*
X158250460Y-83708752D01*
X158235389Y-83778053D01*
X158235197Y-83780004D01*
X158233725Y-83810000D01*
X154133973Y-83810000D01*
X154059568Y-83795200D01*
X153940432Y-83795200D01*
X153823586Y-83818442D01*
X153713520Y-83864034D01*
X153614463Y-83930221D01*
X153530221Y-84014463D01*
X153464034Y-84113520D01*
X153418442Y-84223586D01*
X153395200Y-84340432D01*
X153395200Y-84430063D01*
X151931664Y-85893600D01*
X141769952Y-85893600D01*
X141749999Y-85891635D01*
X141730046Y-85893600D01*
X141730040Y-85893600D01*
X141678335Y-85898693D01*
X141670331Y-85899481D01*
X141652502Y-85904890D01*
X141593725Y-85922719D01*
X141523124Y-85960456D01*
X141461242Y-86011242D01*
X141448518Y-86026746D01*
X141026746Y-86448518D01*
X141011242Y-86461242D01*
X140960456Y-86523125D01*
X140923837Y-86591635D01*
X140922719Y-86593726D01*
X140901548Y-86663520D01*
X140899481Y-86670333D01*
X140893600Y-86730041D01*
X140893600Y-86730047D01*
X140891635Y-86750000D01*
X140893600Y-86769953D01*
X140893600Y-86831663D01*
X137180292Y-90544972D01*
X137185966Y-90536480D01*
X137231558Y-90426414D01*
X137254800Y-90309568D01*
X137254800Y-90190432D01*
X137231558Y-90073586D01*
X137185966Y-89963520D01*
X137119779Y-89864463D01*
X137035537Y-89780221D01*
X136936480Y-89714034D01*
X136826414Y-89668442D01*
X136709568Y-89645200D01*
X136590432Y-89645200D01*
X136473586Y-89668442D01*
X136363520Y-89714034D01*
X136264463Y-89780221D01*
X136180221Y-89864463D01*
X136114034Y-89963520D01*
X136068442Y-90073586D01*
X136045200Y-90190432D01*
X136045200Y-90280064D01*
X127396400Y-98928864D01*
X127396400Y-88660000D01*
X129311635Y-88660000D01*
X129313600Y-88679953D01*
X129313601Y-89380031D01*
X129313600Y-89380041D01*
X129313601Y-90020038D01*
X129311635Y-90040000D01*
X129319481Y-90119668D01*
X129342719Y-90196274D01*
X129355283Y-90219779D01*
X129380457Y-90266876D01*
X129393203Y-90282407D01*
X129418518Y-90313254D01*
X129418524Y-90313260D01*
X129431243Y-90328758D01*
X129446741Y-90341477D01*
X131648518Y-92543254D01*
X131661242Y-92558758D01*
X131723124Y-92609544D01*
X131793725Y-92647281D01*
X131847093Y-92663470D01*
X131870331Y-92670519D01*
X131872616Y-92670744D01*
X131930040Y-92676400D01*
X131930046Y-92676400D01*
X131949999Y-92678365D01*
X131969952Y-92676400D01*
X132641084Y-92676400D01*
X132704463Y-92739779D01*
X132803520Y-92805966D01*
X132913586Y-92851558D01*
X133030432Y-92874800D01*
X133149568Y-92874800D01*
X133266414Y-92851558D01*
X133376480Y-92805966D01*
X133475537Y-92739779D01*
X133559779Y-92655537D01*
X133625966Y-92556480D01*
X133671558Y-92446414D01*
X133694800Y-92329568D01*
X133694800Y-92210432D01*
X133671558Y-92093586D01*
X133625966Y-91983520D01*
X133559779Y-91884463D01*
X133475537Y-91800221D01*
X133376480Y-91734034D01*
X133266414Y-91688442D01*
X133149568Y-91665200D01*
X133141745Y-91665200D01*
X133154800Y-91599568D01*
X133154800Y-91480432D01*
X133131558Y-91363586D01*
X133085966Y-91253520D01*
X133019779Y-91154463D01*
X132956400Y-91091084D01*
X132956400Y-90959952D01*
X132958365Y-90939999D01*
X132956400Y-90920046D01*
X132956400Y-90920040D01*
X132950519Y-90860332D01*
X132950288Y-90859568D01*
X132927281Y-90783725D01*
X132923551Y-90776746D01*
X132889544Y-90713124D01*
X132867678Y-90686480D01*
X132851482Y-90666745D01*
X132851477Y-90666740D01*
X132838758Y-90651242D01*
X132823261Y-90638524D01*
X132025775Y-89841038D01*
X132142044Y-89817911D01*
X132293058Y-89755359D01*
X132428967Y-89664548D01*
X132544548Y-89548967D01*
X132635359Y-89413058D01*
X132697911Y-89262044D01*
X132729800Y-89101728D01*
X132729800Y-88938272D01*
X132697911Y-88777956D01*
X132635359Y-88626942D01*
X132544548Y-88491033D01*
X132438515Y-88385000D01*
X132544548Y-88278967D01*
X132635359Y-88143058D01*
X132697911Y-87992044D01*
X132729800Y-87831728D01*
X132729800Y-87668272D01*
X132697911Y-87507956D01*
X132635359Y-87356942D01*
X132544548Y-87221033D01*
X132438515Y-87115000D01*
X132544548Y-87008967D01*
X132635359Y-86873058D01*
X132697911Y-86722044D01*
X132729800Y-86561728D01*
X132729800Y-86398272D01*
X132697911Y-86237956D01*
X132635359Y-86086942D01*
X132544548Y-85951033D01*
X132428967Y-85835452D01*
X132293058Y-85744641D01*
X132166828Y-85692355D01*
X131900000Y-85425526D01*
X131633172Y-85692355D01*
X131506942Y-85744641D01*
X131371033Y-85835452D01*
X131265000Y-85941485D01*
X131158967Y-85835452D01*
X131023058Y-85744641D01*
X130896828Y-85692355D01*
X130630000Y-85425526D01*
X130363172Y-85692355D01*
X130236942Y-85744641D01*
X130101033Y-85835452D01*
X129985452Y-85951033D01*
X129894641Y-86086942D01*
X129832089Y-86237956D01*
X129800200Y-86398272D01*
X129800200Y-86561728D01*
X129832089Y-86722044D01*
X129894641Y-86873058D01*
X129985452Y-87008967D01*
X130091485Y-87115000D01*
X129985452Y-87221033D01*
X129894641Y-87356942D01*
X129832089Y-87507956D01*
X129800200Y-87668272D01*
X129800200Y-87831728D01*
X129828958Y-87976306D01*
X129446746Y-88358518D01*
X129431242Y-88371242D01*
X129380456Y-88433125D01*
X129350141Y-88489840D01*
X129342719Y-88503726D01*
X129319643Y-88579800D01*
X129319481Y-88580333D01*
X129313600Y-88640041D01*
X129313600Y-88640047D01*
X129311635Y-88660000D01*
X127396400Y-88660000D01*
X127396400Y-85166818D01*
X129797304Y-85166818D01*
X129804880Y-85330099D01*
X129844165Y-85488765D01*
X129877214Y-85568554D01*
X129997472Y-85627001D01*
X130414474Y-85210000D01*
X130845526Y-85210000D01*
X131110833Y-85475306D01*
X131114165Y-85488765D01*
X131147214Y-85568554D01*
X131257853Y-85622326D01*
X131262528Y-85627001D01*
X131265000Y-85625800D01*
X131267472Y-85627001D01*
X131272147Y-85622326D01*
X131382786Y-85568554D01*
X131414896Y-85479577D01*
X131684474Y-85210000D01*
X132115526Y-85210000D01*
X132532528Y-85627001D01*
X132652786Y-85568554D01*
X132708272Y-85414803D01*
X132732696Y-85253182D01*
X132725120Y-85089901D01*
X132685835Y-84931235D01*
X132652786Y-84851446D01*
X132532528Y-84792999D01*
X132115526Y-85210000D01*
X131684474Y-85210000D01*
X131419167Y-84944694D01*
X131415835Y-84931235D01*
X131382786Y-84851446D01*
X131272147Y-84797674D01*
X131267472Y-84792999D01*
X131265000Y-84794200D01*
X131262528Y-84792999D01*
X131257853Y-84797674D01*
X131147214Y-84851446D01*
X131115104Y-84940423D01*
X130845526Y-85210000D01*
X130414474Y-85210000D01*
X129997472Y-84792999D01*
X129877214Y-84851446D01*
X129821728Y-85005197D01*
X129797304Y-85166818D01*
X127396400Y-85166818D01*
X127396400Y-83858272D01*
X129800200Y-83858272D01*
X129800200Y-84021728D01*
X129832089Y-84182044D01*
X129894641Y-84333058D01*
X129985452Y-84468967D01*
X130101033Y-84584548D01*
X130236942Y-84675359D01*
X130363172Y-84727645D01*
X130630000Y-84994474D01*
X130896828Y-84727645D01*
X131023058Y-84675359D01*
X131158967Y-84584548D01*
X131265000Y-84478515D01*
X131371033Y-84584548D01*
X131506942Y-84675359D01*
X131633172Y-84727645D01*
X131900000Y-84994474D01*
X132166828Y-84727645D01*
X132293058Y-84675359D01*
X132428967Y-84584548D01*
X132544548Y-84468967D01*
X132635359Y-84333058D01*
X132697911Y-84182044D01*
X132729800Y-84021728D01*
X132729800Y-83858272D01*
X132697911Y-83697956D01*
X132635359Y-83546942D01*
X132544548Y-83411033D01*
X132428967Y-83295452D01*
X132293058Y-83204641D01*
X132240100Y-83182705D01*
X132346414Y-83161558D01*
X132456480Y-83115966D01*
X132555537Y-83049779D01*
X132639779Y-82965537D01*
X132705966Y-82866480D01*
X132751558Y-82756414D01*
X132774800Y-82639568D01*
X132774800Y-82520432D01*
X132751558Y-82403586D01*
X132705966Y-82293520D01*
X132639779Y-82194463D01*
X132555537Y-82110221D01*
X132456480Y-82044034D01*
X132346414Y-81998442D01*
X132229568Y-81975200D01*
X132110432Y-81975200D01*
X131993586Y-81998442D01*
X131883520Y-82044034D01*
X131784463Y-82110221D01*
X131700221Y-82194463D01*
X131634034Y-82293520D01*
X131588442Y-82403586D01*
X131565200Y-82520432D01*
X131565200Y-82639568D01*
X131588442Y-82756414D01*
X131634034Y-82866480D01*
X131700221Y-82965537D01*
X131784463Y-83049779D01*
X131874890Y-83110200D01*
X131818272Y-83110200D01*
X131657956Y-83142089D01*
X131506942Y-83204641D01*
X131371033Y-83295452D01*
X131265000Y-83401485D01*
X131158967Y-83295452D01*
X131023058Y-83204641D01*
X130872044Y-83142089D01*
X130711728Y-83110200D01*
X130548272Y-83110200D01*
X130387956Y-83142089D01*
X130236942Y-83204641D01*
X130101033Y-83295452D01*
X129985452Y-83411033D01*
X129894641Y-83546942D01*
X129832089Y-83697956D01*
X129800200Y-83858272D01*
X127396400Y-83858272D01*
X127396400Y-81206753D01*
X127398365Y-81186800D01*
X127396400Y-81166847D01*
X127396400Y-81166840D01*
X127390519Y-81107132D01*
X127367281Y-81030525D01*
X127329544Y-80959924D01*
X127278758Y-80898042D01*
X127263255Y-80885319D01*
X125989438Y-79611502D01*
X127298400Y-79611502D01*
X127298400Y-79828498D01*
X127340734Y-80041325D01*
X127423775Y-80241803D01*
X127544332Y-80422229D01*
X127697771Y-80575668D01*
X127878197Y-80696225D01*
X128078675Y-80779266D01*
X128291502Y-80821600D01*
X128508498Y-80821600D01*
X128721325Y-80779266D01*
X128921803Y-80696225D01*
X129102229Y-80575668D01*
X129237465Y-80440432D01*
X134895200Y-80440432D01*
X134895200Y-80559568D01*
X134918442Y-80676414D01*
X134964034Y-80786480D01*
X135030221Y-80885537D01*
X135114463Y-80969779D01*
X135213520Y-81035966D01*
X135323586Y-81081558D01*
X135440432Y-81104800D01*
X135559568Y-81104800D01*
X135676414Y-81081558D01*
X135786480Y-81035966D01*
X135885537Y-80969779D01*
X135969779Y-80885537D01*
X136035966Y-80786480D01*
X136081558Y-80676414D01*
X136104800Y-80559568D01*
X136104800Y-80440432D01*
X136081558Y-80323586D01*
X136067825Y-80290432D01*
X147495200Y-80290432D01*
X147495200Y-80409568D01*
X147518442Y-80526414D01*
X147564034Y-80636480D01*
X147630221Y-80735537D01*
X147644684Y-80750000D01*
X147630221Y-80764463D01*
X147564034Y-80863520D01*
X147518442Y-80973586D01*
X147495200Y-81090432D01*
X147495200Y-81209568D01*
X147518442Y-81326414D01*
X147564034Y-81436480D01*
X147630221Y-81535537D01*
X147714463Y-81619779D01*
X147813520Y-81685966D01*
X147923586Y-81731558D01*
X148040432Y-81754800D01*
X148159568Y-81754800D01*
X148276414Y-81731558D01*
X148386480Y-81685966D01*
X148485537Y-81619779D01*
X148569779Y-81535537D01*
X148635966Y-81436480D01*
X148681558Y-81326414D01*
X148704800Y-81209568D01*
X148704800Y-81090432D01*
X148681558Y-80973586D01*
X148635966Y-80863520D01*
X148569779Y-80764463D01*
X148555316Y-80750000D01*
X148569779Y-80735537D01*
X148635966Y-80636480D01*
X148678983Y-80532631D01*
X148790432Y-80554800D01*
X148909568Y-80554800D01*
X149026414Y-80531558D01*
X149136480Y-80485966D01*
X149235537Y-80419779D01*
X149250000Y-80405316D01*
X149264463Y-80419779D01*
X149363520Y-80485966D01*
X149473586Y-80531558D01*
X149590432Y-80554800D01*
X149709568Y-80554800D01*
X149826414Y-80531558D01*
X149936480Y-80485966D01*
X150004627Y-80440432D01*
X151745200Y-80440432D01*
X151745200Y-80559568D01*
X151768442Y-80676414D01*
X151814034Y-80786480D01*
X151880221Y-80885537D01*
X151964463Y-80969779D01*
X152063520Y-81035966D01*
X152173586Y-81081558D01*
X152290432Y-81104800D01*
X152409568Y-81104800D01*
X152526414Y-81081558D01*
X152636480Y-81035966D01*
X152735537Y-80969779D01*
X152819779Y-80885537D01*
X152885966Y-80786480D01*
X152931558Y-80676414D01*
X152954800Y-80559568D01*
X152954800Y-80440432D01*
X152931558Y-80323586D01*
X152885966Y-80213520D01*
X152819779Y-80114463D01*
X152735537Y-80030221D01*
X152636480Y-79964034D01*
X152526414Y-79918442D01*
X152409568Y-79895200D01*
X152290432Y-79895200D01*
X152173586Y-79918442D01*
X152063520Y-79964034D01*
X151964463Y-80030221D01*
X151880221Y-80114463D01*
X151814034Y-80213520D01*
X151768442Y-80323586D01*
X151745200Y-80440432D01*
X150004627Y-80440432D01*
X150035537Y-80419779D01*
X150119779Y-80335537D01*
X150185966Y-80236480D01*
X150231558Y-80126414D01*
X150254800Y-80009568D01*
X150254800Y-79890432D01*
X150231558Y-79773586D01*
X150185966Y-79663520D01*
X150119779Y-79564463D01*
X150095748Y-79540432D01*
X152595200Y-79540432D01*
X152595200Y-79659568D01*
X152618442Y-79776414D01*
X152664034Y-79886480D01*
X152730221Y-79985537D01*
X152814463Y-80069779D01*
X152913520Y-80135966D01*
X153023586Y-80181558D01*
X153140432Y-80204800D01*
X153259568Y-80204800D01*
X153376414Y-80181558D01*
X153486480Y-80135966D01*
X153585537Y-80069779D01*
X153669779Y-79985537D01*
X153735966Y-79886480D01*
X153781558Y-79776414D01*
X153804800Y-79659568D01*
X153804800Y-79540432D01*
X153781558Y-79423586D01*
X153735966Y-79313520D01*
X153669779Y-79214463D01*
X153585537Y-79130221D01*
X153486480Y-79064034D01*
X153376414Y-79018442D01*
X153259568Y-78995200D01*
X153140432Y-78995200D01*
X153023586Y-79018442D01*
X152913520Y-79064034D01*
X152814463Y-79130221D01*
X152730221Y-79214463D01*
X152664034Y-79313520D01*
X152618442Y-79423586D01*
X152595200Y-79540432D01*
X150095748Y-79540432D01*
X150035537Y-79480221D01*
X149936480Y-79414034D01*
X149826414Y-79368442D01*
X149709568Y-79345200D01*
X149590432Y-79345200D01*
X149473586Y-79368442D01*
X149363520Y-79414034D01*
X149264463Y-79480221D01*
X149250000Y-79494684D01*
X149235537Y-79480221D01*
X149136480Y-79414034D01*
X149026414Y-79368442D01*
X148909568Y-79345200D01*
X148790432Y-79345200D01*
X148673586Y-79368442D01*
X148563520Y-79414034D01*
X148464463Y-79480221D01*
X148380221Y-79564463D01*
X148314034Y-79663520D01*
X148271017Y-79767369D01*
X148159568Y-79745200D01*
X148040432Y-79745200D01*
X147923586Y-79768442D01*
X147813520Y-79814034D01*
X147714463Y-79880221D01*
X147630221Y-79964463D01*
X147564034Y-80063520D01*
X147518442Y-80173586D01*
X147495200Y-80290432D01*
X136067825Y-80290432D01*
X136035966Y-80213520D01*
X135969779Y-80114463D01*
X135885537Y-80030221D01*
X135786480Y-79964034D01*
X135676414Y-79918442D01*
X135559568Y-79895200D01*
X135440432Y-79895200D01*
X135323586Y-79918442D01*
X135213520Y-79964034D01*
X135114463Y-80030221D01*
X135030221Y-80114463D01*
X134964034Y-80213520D01*
X134918442Y-80323586D01*
X134895200Y-80440432D01*
X129237465Y-80440432D01*
X129255668Y-80422229D01*
X129376225Y-80241803D01*
X129459266Y-80041325D01*
X129501600Y-79828498D01*
X129501600Y-79611502D01*
X129459266Y-79398675D01*
X129376225Y-79198197D01*
X129255668Y-79017771D01*
X129102229Y-78864332D01*
X128921803Y-78743775D01*
X128721325Y-78660734D01*
X128508498Y-78618400D01*
X128291502Y-78618400D01*
X128078675Y-78660734D01*
X127878197Y-78743775D01*
X127697771Y-78864332D01*
X127544332Y-79017771D01*
X127423775Y-79198197D01*
X127340734Y-79398675D01*
X127298400Y-79611502D01*
X125989438Y-79611502D01*
X125304682Y-78926746D01*
X125291958Y-78911242D01*
X125230076Y-78860456D01*
X125159475Y-78822719D01*
X125104912Y-78806168D01*
X125100389Y-78760249D01*
X125082960Y-78702794D01*
X125054658Y-78649843D01*
X125016568Y-78603432D01*
X124970157Y-78565342D01*
X124917206Y-78537040D01*
X124859751Y-78519611D01*
X124800000Y-78513726D01*
X122400000Y-78513726D01*
X122340249Y-78519611D01*
X122282794Y-78537040D01*
X122229843Y-78565342D01*
X122183432Y-78603432D01*
X122145342Y-78649843D01*
X122117040Y-78702794D01*
X122099611Y-78760249D01*
X122093726Y-78820000D01*
X122093726Y-79580000D01*
X122099611Y-79639751D01*
X122117040Y-79697206D01*
X122145342Y-79750157D01*
X122183432Y-79796568D01*
X122229843Y-79834658D01*
X122230483Y-79835000D01*
X122229843Y-79835342D01*
X122183432Y-79873432D01*
X122145342Y-79919843D01*
X122117040Y-79972794D01*
X122099611Y-80030249D01*
X122093726Y-80090000D01*
X122093726Y-80850000D01*
X122099611Y-80909751D01*
X122117040Y-80967206D01*
X122145342Y-81020157D01*
X122183432Y-81066568D01*
X122229843Y-81104658D01*
X122230483Y-81105000D01*
X122229843Y-81105342D01*
X122183432Y-81143432D01*
X122145342Y-81189843D01*
X122117040Y-81242794D01*
X122099611Y-81300249D01*
X122093726Y-81360000D01*
X122093726Y-82120000D01*
X122099611Y-82179751D01*
X122117040Y-82237206D01*
X122145342Y-82290157D01*
X122183432Y-82336568D01*
X122229843Y-82374658D01*
X122230483Y-82375000D01*
X122229843Y-82375342D01*
X122183432Y-82413432D01*
X122145342Y-82459843D01*
X122117040Y-82512794D01*
X122099611Y-82570249D01*
X122093726Y-82630000D01*
X122093726Y-83390000D01*
X122099611Y-83449751D01*
X122117040Y-83507206D01*
X122145342Y-83560157D01*
X122183432Y-83606568D01*
X122229843Y-83644658D01*
X122230483Y-83645000D01*
X122229843Y-83645342D01*
X122183432Y-83683432D01*
X122145342Y-83729843D01*
X122117040Y-83782794D01*
X122099611Y-83840249D01*
X122093726Y-83900000D01*
X122093726Y-84660000D01*
X122099611Y-84719751D01*
X122117040Y-84777206D01*
X122145342Y-84830157D01*
X122183432Y-84876568D01*
X122229843Y-84914658D01*
X122282794Y-84942960D01*
X122340249Y-84960389D01*
X122400000Y-84966274D01*
X124531538Y-84966274D01*
X125363601Y-85798337D01*
X125363600Y-99961664D01*
X123916741Y-101408523D01*
X123901243Y-101421242D01*
X123888524Y-101436740D01*
X123888518Y-101436746D01*
X123884315Y-101441868D01*
X123850457Y-101483124D01*
X123832788Y-101516181D01*
X123812719Y-101553726D01*
X123789481Y-101630332D01*
X123781635Y-101710000D01*
X123783601Y-101729963D01*
X123783600Y-104690483D01*
X123743586Y-104698442D01*
X123633520Y-104744034D01*
X123534463Y-104810221D01*
X123450221Y-104894463D01*
X123384034Y-104993520D01*
X123338442Y-105103586D01*
X123315200Y-105220432D01*
X123315200Y-105339568D01*
X123338442Y-105456414D01*
X123384034Y-105566480D01*
X123450221Y-105665537D01*
X123534463Y-105749779D01*
X123633520Y-105815966D01*
X123743586Y-105861558D01*
X123860432Y-105884800D01*
X123979568Y-105884800D01*
X124096414Y-105861558D01*
X124183601Y-105825443D01*
X124183601Y-107298466D01*
X124158586Y-107303442D01*
X124048520Y-107349034D01*
X123949463Y-107415221D01*
X123865221Y-107499463D01*
X123799034Y-107598520D01*
X123753442Y-107708586D01*
X123730200Y-107825432D01*
X123730200Y-107944568D01*
X123753442Y-108061414D01*
X123799034Y-108171480D01*
X123865221Y-108270537D01*
X123949463Y-108354779D01*
X124048520Y-108420966D01*
X124158586Y-108466558D01*
X124275432Y-108489800D01*
X124394568Y-108489800D01*
X124511414Y-108466558D01*
X124583601Y-108436656D01*
X124583601Y-108511083D01*
X124520221Y-108574463D01*
X124454034Y-108673520D01*
X124408442Y-108783586D01*
X124385200Y-108900432D01*
X124385200Y-109019568D01*
X124408442Y-109136414D01*
X124454034Y-109246480D01*
X124520221Y-109345537D01*
X124604463Y-109429779D01*
X124703520Y-109495966D01*
X124813586Y-109541558D01*
X124930432Y-109564800D01*
X125049568Y-109564800D01*
X125166414Y-109541558D01*
X125208379Y-109524175D01*
X125195200Y-109590432D01*
X125195200Y-109680063D01*
X125149130Y-109726134D01*
X125043889Y-109705200D01*
X124836111Y-109705200D01*
X124632326Y-109745735D01*
X124440365Y-109825248D01*
X124267604Y-109940683D01*
X124120683Y-110087604D01*
X124005248Y-110260365D01*
X123925735Y-110452326D01*
X123885200Y-110656111D01*
X123885200Y-110863889D01*
X123925735Y-111067674D01*
X124005248Y-111259635D01*
X124120683Y-111432396D01*
X124267604Y-111579317D01*
X124440365Y-111694752D01*
X124632326Y-111774265D01*
X124836111Y-111814800D01*
X125043889Y-111814800D01*
X125247674Y-111774265D01*
X125439635Y-111694752D01*
X125612396Y-111579317D01*
X125759317Y-111432396D01*
X125874752Y-111259635D01*
X125954265Y-111067674D01*
X125994800Y-110863889D01*
X125994800Y-110656111D01*
X125954265Y-110452326D01*
X125874752Y-110260365D01*
X125869688Y-110252787D01*
X125976414Y-110231558D01*
X126086480Y-110185966D01*
X126173600Y-110127755D01*
X126173601Y-111160038D01*
X126171635Y-111180000D01*
X126179481Y-111259668D01*
X126202719Y-111336274D01*
X126220286Y-111369138D01*
X126240457Y-111406876D01*
X126251194Y-111419959D01*
X126278518Y-111453254D01*
X126278524Y-111453260D01*
X126291243Y-111468758D01*
X126306741Y-111481477D01*
X127920200Y-113094936D01*
X127920200Y-113184568D01*
X127943442Y-113301414D01*
X127989034Y-113411480D01*
X128055221Y-113510537D01*
X128139463Y-113594779D01*
X128238520Y-113660966D01*
X128348586Y-113706558D01*
X128465432Y-113729800D01*
X128584568Y-113729800D01*
X128701414Y-113706558D01*
X128811480Y-113660966D01*
X128910537Y-113594779D01*
X128935290Y-113570026D01*
X131035463Y-115670200D01*
X122951600Y-115670200D01*
X122951600Y-114211502D01*
X125758400Y-114211502D01*
X125758400Y-114428498D01*
X125800734Y-114641325D01*
X125883775Y-114841803D01*
X126004332Y-115022229D01*
X126157771Y-115175668D01*
X126338197Y-115296225D01*
X126538675Y-115379266D01*
X126751502Y-115421600D01*
X126968498Y-115421600D01*
X127181325Y-115379266D01*
X127381803Y-115296225D01*
X127562229Y-115175668D01*
X127715668Y-115022229D01*
X127836225Y-114841803D01*
X127919266Y-114641325D01*
X127961600Y-114428498D01*
X127961600Y-114211502D01*
X127919266Y-113998675D01*
X127836225Y-113798197D01*
X127715668Y-113617771D01*
X127562229Y-113464332D01*
X127381803Y-113343775D01*
X127181325Y-113260734D01*
X126968498Y-113218400D01*
X126751502Y-113218400D01*
X126538675Y-113260734D01*
X126338197Y-113343775D01*
X126157771Y-113464332D01*
X126004332Y-113617771D01*
X125883775Y-113798197D01*
X125800734Y-113998675D01*
X125758400Y-114211502D01*
X122951600Y-114211502D01*
X122951600Y-102150000D01*
X122949648Y-102130179D01*
X122943866Y-102111119D01*
X122934477Y-102093554D01*
X122921842Y-102078158D01*
X122906446Y-102065523D01*
X122888881Y-102056134D01*
X122869821Y-102050352D01*
X122850000Y-102048400D01*
X122571739Y-102048400D01*
X122701617Y-101946071D01*
X122812197Y-101816672D01*
X122895408Y-101668186D01*
X122906909Y-101602102D01*
X122863539Y-101472400D01*
X121702400Y-101472400D01*
X121702400Y-101492400D01*
X121397600Y-101492400D01*
X121397600Y-101472400D01*
X120236461Y-101472400D01*
X120193091Y-101602102D01*
X120204592Y-101668186D01*
X120287803Y-101816672D01*
X120398383Y-101946071D01*
X120528261Y-102048400D01*
X118771739Y-102048400D01*
X118901617Y-101946071D01*
X119012197Y-101816672D01*
X119095408Y-101668186D01*
X119106909Y-101602102D01*
X119063539Y-101472400D01*
X117902400Y-101472400D01*
X117902400Y-101492400D01*
X117597600Y-101492400D01*
X117597600Y-101472400D01*
X116436461Y-101472400D01*
X116393091Y-101602102D01*
X116404592Y-101668186D01*
X116487803Y-101816672D01*
X116598383Y-101946071D01*
X116728261Y-102048400D01*
X116611279Y-102048400D01*
X116537081Y-101974797D01*
X116444388Y-101861949D01*
X116382724Y-101746948D01*
X116344573Y-101622158D01*
X116329800Y-101476721D01*
X116329800Y-101037898D01*
X116393091Y-101037898D01*
X116436461Y-101167600D01*
X117597600Y-101167600D01*
X117597600Y-100465200D01*
X117902400Y-100465200D01*
X117902400Y-101167600D01*
X119063539Y-101167600D01*
X119106909Y-101037898D01*
X120193091Y-101037898D01*
X120236461Y-101167600D01*
X121397600Y-101167600D01*
X121397600Y-100465200D01*
X121702400Y-100465200D01*
X121702400Y-101167600D01*
X122863539Y-101167600D01*
X122906909Y-101037898D01*
X122895408Y-100971814D01*
X122812197Y-100823328D01*
X122701617Y-100693929D01*
X122567917Y-100588589D01*
X122416235Y-100511357D01*
X122252400Y-100465200D01*
X121702400Y-100465200D01*
X121397600Y-100465200D01*
X120847600Y-100465200D01*
X120683765Y-100511357D01*
X120532083Y-100588589D01*
X120398383Y-100693929D01*
X120287803Y-100823328D01*
X120204592Y-100971814D01*
X120193091Y-101037898D01*
X119106909Y-101037898D01*
X119095408Y-100971814D01*
X119012197Y-100823328D01*
X118901617Y-100693929D01*
X118767917Y-100588589D01*
X118616235Y-100511357D01*
X118452400Y-100465200D01*
X117902400Y-100465200D01*
X117597600Y-100465200D01*
X117047600Y-100465200D01*
X116883765Y-100511357D01*
X116732083Y-100588589D01*
X116598383Y-100693929D01*
X116487803Y-100823328D01*
X116404592Y-100971814D01*
X116393091Y-101037898D01*
X116329800Y-101037898D01*
X116329800Y-98500000D01*
X116843726Y-98500000D01*
X116843726Y-100000000D01*
X116849611Y-100059751D01*
X116867040Y-100117206D01*
X116895342Y-100170157D01*
X116933432Y-100216568D01*
X116979843Y-100254658D01*
X117032794Y-100282960D01*
X117090249Y-100300389D01*
X117150000Y-100306274D01*
X119950000Y-100306274D01*
X120009751Y-100300389D01*
X120067206Y-100282960D01*
X120120157Y-100254658D01*
X120166568Y-100216568D01*
X120204658Y-100170157D01*
X120232960Y-100117206D01*
X120250389Y-100059751D01*
X120256274Y-100000000D01*
X120256274Y-99745300D01*
X121643726Y-99745300D01*
X121643726Y-100000000D01*
X121649611Y-100059751D01*
X121667040Y-100117206D01*
X121695342Y-100170157D01*
X121733432Y-100216568D01*
X121779843Y-100254658D01*
X121832794Y-100282960D01*
X121890249Y-100300389D01*
X121950000Y-100306274D01*
X124750000Y-100306274D01*
X124809751Y-100300389D01*
X124867206Y-100282960D01*
X124920157Y-100254658D01*
X124966568Y-100216568D01*
X125004658Y-100170157D01*
X125032960Y-100117206D01*
X125050389Y-100059751D01*
X125056274Y-100000000D01*
X125056274Y-98500000D01*
X125050389Y-98440249D01*
X125032960Y-98382794D01*
X125004658Y-98329843D01*
X124966568Y-98283432D01*
X124920157Y-98245342D01*
X124867206Y-98217040D01*
X124809751Y-98199611D01*
X124750000Y-98193726D01*
X121950000Y-98193726D01*
X121890249Y-98199611D01*
X121832794Y-98217040D01*
X121779843Y-98245342D01*
X121733432Y-98283432D01*
X121695342Y-98329843D01*
X121667040Y-98382794D01*
X121649611Y-98440249D01*
X121643726Y-98500000D01*
X121643726Y-98754700D01*
X120256274Y-98754700D01*
X120256274Y-98500000D01*
X120250389Y-98440249D01*
X120232960Y-98382794D01*
X120204658Y-98329843D01*
X120166568Y-98283432D01*
X120120157Y-98245342D01*
X120067206Y-98217040D01*
X120009751Y-98199611D01*
X119950000Y-98193726D01*
X119031124Y-98193726D01*
X119035966Y-98186480D01*
X119081558Y-98076414D01*
X119104800Y-97959568D01*
X119104800Y-97840432D01*
X119081558Y-97723586D01*
X119035966Y-97613520D01*
X118969779Y-97514463D01*
X118885537Y-97430221D01*
X118786480Y-97364034D01*
X118676414Y-97318442D01*
X118559568Y-97295200D01*
X118440432Y-97295200D01*
X118323586Y-97318442D01*
X118213520Y-97364034D01*
X118114463Y-97430221D01*
X118030221Y-97514463D01*
X117964034Y-97613520D01*
X117918442Y-97723586D01*
X117895200Y-97840432D01*
X117895200Y-97959568D01*
X117918442Y-98076414D01*
X117964034Y-98186480D01*
X117968876Y-98193726D01*
X117150000Y-98193726D01*
X117090249Y-98199611D01*
X117032794Y-98217040D01*
X116979843Y-98245342D01*
X116933432Y-98283432D01*
X116895342Y-98329843D01*
X116867040Y-98382794D01*
X116849611Y-98440249D01*
X116843726Y-98500000D01*
X116329800Y-98500000D01*
X116329800Y-94000000D01*
X116843726Y-94000000D01*
X116843726Y-95500000D01*
X116849611Y-95559751D01*
X116867040Y-95617206D01*
X116895342Y-95670157D01*
X116933432Y-95716568D01*
X116979843Y-95754658D01*
X117032794Y-95782960D01*
X117090249Y-95800389D01*
X117150000Y-95806274D01*
X119950000Y-95806274D01*
X120009751Y-95800389D01*
X120067206Y-95782960D01*
X120120157Y-95754658D01*
X120166568Y-95716568D01*
X120204658Y-95670157D01*
X120232960Y-95617206D01*
X120250389Y-95559751D01*
X120256274Y-95500000D01*
X120256274Y-95245300D01*
X121643726Y-95245300D01*
X121643726Y-95500000D01*
X121649611Y-95559751D01*
X121667040Y-95617206D01*
X121695342Y-95670157D01*
X121733432Y-95716568D01*
X121779843Y-95754658D01*
X121832794Y-95782960D01*
X121890249Y-95800389D01*
X121950000Y-95806274D01*
X124750000Y-95806274D01*
X124809751Y-95800389D01*
X124867206Y-95782960D01*
X124920157Y-95754658D01*
X124966568Y-95716568D01*
X125004658Y-95670157D01*
X125032960Y-95617206D01*
X125050389Y-95559751D01*
X125056274Y-95500000D01*
X125056274Y-94000000D01*
X125050389Y-93940249D01*
X125032960Y-93882794D01*
X125004658Y-93829843D01*
X124966568Y-93783432D01*
X124920157Y-93745342D01*
X124867206Y-93717040D01*
X124809751Y-93699611D01*
X124750000Y-93693726D01*
X123781800Y-93693726D01*
X123781800Y-93572276D01*
X123785537Y-93569779D01*
X123869779Y-93485537D01*
X123935966Y-93386480D01*
X123981558Y-93276414D01*
X124004800Y-93159568D01*
X124004800Y-93040432D01*
X123981558Y-92923586D01*
X123935966Y-92813520D01*
X123869779Y-92714463D01*
X123785537Y-92630221D01*
X123686480Y-92564034D01*
X123576414Y-92518442D01*
X123459568Y-92495200D01*
X123340432Y-92495200D01*
X123223586Y-92518442D01*
X123113520Y-92564034D01*
X123014463Y-92630221D01*
X122930221Y-92714463D01*
X122864034Y-92813520D01*
X122856213Y-92832400D01*
X121702400Y-92832400D01*
X121702400Y-93534800D01*
X122252400Y-93534800D01*
X122416235Y-93488643D01*
X122567917Y-93411411D01*
X122701617Y-93306071D01*
X122801169Y-93189577D01*
X122818442Y-93276414D01*
X122864034Y-93386480D01*
X122918201Y-93467547D01*
X122918201Y-93693726D01*
X121950000Y-93693726D01*
X121890249Y-93699611D01*
X121832794Y-93717040D01*
X121779843Y-93745342D01*
X121733432Y-93783432D01*
X121695342Y-93829843D01*
X121667040Y-93882794D01*
X121649611Y-93940249D01*
X121643726Y-94000000D01*
X121643726Y-94254700D01*
X120256274Y-94254700D01*
X120256274Y-94000000D01*
X120250389Y-93940249D01*
X120232960Y-93882794D01*
X120204658Y-93829843D01*
X120166568Y-93783432D01*
X120120157Y-93745342D01*
X120067206Y-93717040D01*
X120009751Y-93699611D01*
X119950000Y-93693726D01*
X117150000Y-93693726D01*
X117090249Y-93699611D01*
X117032794Y-93717040D01*
X116979843Y-93745342D01*
X116933432Y-93783432D01*
X116895342Y-93829843D01*
X116867040Y-93882794D01*
X116849611Y-93940249D01*
X116843726Y-94000000D01*
X116329800Y-94000000D01*
X116329800Y-92962102D01*
X116393091Y-92962102D01*
X116404592Y-93028186D01*
X116487803Y-93176672D01*
X116598383Y-93306071D01*
X116732083Y-93411411D01*
X116883765Y-93488643D01*
X117047600Y-93534800D01*
X117597600Y-93534800D01*
X117597600Y-92832400D01*
X117902400Y-92832400D01*
X117902400Y-93534800D01*
X118452400Y-93534800D01*
X118616235Y-93488643D01*
X118767917Y-93411411D01*
X118901617Y-93306071D01*
X119012197Y-93176672D01*
X119095408Y-93028186D01*
X119106909Y-92962102D01*
X120193091Y-92962102D01*
X120204592Y-93028186D01*
X120287803Y-93176672D01*
X120398383Y-93306071D01*
X120532083Y-93411411D01*
X120683765Y-93488643D01*
X120847600Y-93534800D01*
X121397600Y-93534800D01*
X121397600Y-92832400D01*
X120236461Y-92832400D01*
X120193091Y-92962102D01*
X119106909Y-92962102D01*
X119063539Y-92832400D01*
X117902400Y-92832400D01*
X117597600Y-92832400D01*
X116436461Y-92832400D01*
X116393091Y-92962102D01*
X116329800Y-92962102D01*
X116329800Y-92526130D01*
X116342373Y-92397898D01*
X116393091Y-92397898D01*
X116436461Y-92527600D01*
X117597600Y-92527600D01*
X117597600Y-91825200D01*
X117902400Y-91825200D01*
X117902400Y-92527600D01*
X119063539Y-92527600D01*
X119106909Y-92397898D01*
X120193091Y-92397898D01*
X120236461Y-92527600D01*
X121397600Y-92527600D01*
X121397600Y-91825200D01*
X121702400Y-91825200D01*
X121702400Y-92527600D01*
X122863539Y-92527600D01*
X122906909Y-92397898D01*
X122895408Y-92331814D01*
X122812197Y-92183328D01*
X122701617Y-92053929D01*
X122567917Y-91948589D01*
X122416235Y-91871357D01*
X122252400Y-91825200D01*
X121702400Y-91825200D01*
X121397600Y-91825200D01*
X120847600Y-91825200D01*
X120683765Y-91871357D01*
X120532083Y-91948589D01*
X120398383Y-92053929D01*
X120287803Y-92183328D01*
X120204592Y-92331814D01*
X120193091Y-92397898D01*
X119106909Y-92397898D01*
X119095408Y-92331814D01*
X119012197Y-92183328D01*
X118901617Y-92053929D01*
X118767917Y-91948589D01*
X118616235Y-91871357D01*
X118452400Y-91825200D01*
X117902400Y-91825200D01*
X117597600Y-91825200D01*
X117047600Y-91825200D01*
X116883765Y-91871357D01*
X116732083Y-91948589D01*
X116598383Y-92053929D01*
X116487803Y-92183328D01*
X116404592Y-92331814D01*
X116393091Y-92397898D01*
X116342373Y-92397898D01*
X116344116Y-92380132D01*
X116381832Y-92255208D01*
X116443092Y-92139994D01*
X116535153Y-92027116D01*
X117950868Y-90622735D01*
X117960057Y-90611630D01*
X117962212Y-90609519D01*
X117965148Y-90605970D01*
X118088498Y-90454728D01*
X118105042Y-90429828D01*
X118121927Y-90405167D01*
X118124114Y-90401121D01*
X118124117Y-90401117D01*
X118124119Y-90401113D01*
X118215742Y-90228794D01*
X118227127Y-90201173D01*
X118238908Y-90173685D01*
X118240270Y-90169286D01*
X118296679Y-89982449D01*
X118302482Y-89953141D01*
X118308700Y-89923890D01*
X118309181Y-89919310D01*
X118328226Y-89725077D01*
X118328226Y-89725066D01*
X118329800Y-89709086D01*
X118329800Y-88361639D01*
X120095200Y-88361639D01*
X120095200Y-88638361D01*
X120149186Y-88909765D01*
X120255083Y-89165422D01*
X120408821Y-89395508D01*
X120604492Y-89591179D01*
X120834578Y-89744917D01*
X121090235Y-89850814D01*
X121361639Y-89904800D01*
X121638361Y-89904800D01*
X121909765Y-89850814D01*
X122165422Y-89744917D01*
X122395508Y-89591179D01*
X122591179Y-89395508D01*
X122744917Y-89165422D01*
X122850814Y-88909765D01*
X122904800Y-88638361D01*
X122904800Y-88361639D01*
X122850814Y-88090235D01*
X122744917Y-87834578D01*
X122591179Y-87604492D01*
X122395508Y-87408821D01*
X122165422Y-87255083D01*
X121909765Y-87149186D01*
X121638361Y-87095200D01*
X121361639Y-87095200D01*
X121090235Y-87149186D01*
X120834578Y-87255083D01*
X120604492Y-87408821D01*
X120408821Y-87604492D01*
X120255083Y-87834578D01*
X120149186Y-88090235D01*
X120095200Y-88361639D01*
X118329800Y-88361639D01*
X118329800Y-84914623D01*
X118329843Y-84914658D01*
X118382794Y-84942960D01*
X118440249Y-84960389D01*
X118500000Y-84966274D01*
X119474609Y-84966274D01*
X119438442Y-85053586D01*
X119415200Y-85170432D01*
X119415200Y-85289568D01*
X119438442Y-85406414D01*
X119484034Y-85516480D01*
X119550221Y-85615537D01*
X119634463Y-85699779D01*
X119733520Y-85765966D01*
X119843586Y-85811558D01*
X119960432Y-85834800D01*
X120079568Y-85834800D01*
X120196414Y-85811558D01*
X120306480Y-85765966D01*
X120405537Y-85699779D01*
X120489779Y-85615537D01*
X120555966Y-85516480D01*
X120601558Y-85406414D01*
X120624800Y-85289568D01*
X120624800Y-85170432D01*
X120601558Y-85053586D01*
X120565391Y-84966274D01*
X120900000Y-84966274D01*
X120959751Y-84960389D01*
X121017206Y-84942960D01*
X121070157Y-84914658D01*
X121116568Y-84876568D01*
X121154658Y-84830157D01*
X121182960Y-84777206D01*
X121200389Y-84719751D01*
X121206274Y-84660000D01*
X121206274Y-83900000D01*
X121200389Y-83840249D01*
X121182960Y-83782794D01*
X121154658Y-83729843D01*
X121116568Y-83683432D01*
X121070157Y-83645342D01*
X121069517Y-83645000D01*
X121070157Y-83644658D01*
X121116569Y-83606569D01*
X121154658Y-83560157D01*
X121182961Y-83507206D01*
X121200390Y-83449751D01*
X121206275Y-83390000D01*
X121204800Y-83238600D01*
X121128600Y-83162400D01*
X119852400Y-83162400D01*
X119852400Y-83182400D01*
X119547600Y-83182400D01*
X119547600Y-83162400D01*
X119527600Y-83162400D01*
X119527600Y-82857600D01*
X119547600Y-82857600D01*
X119547600Y-82401400D01*
X119521200Y-82375000D01*
X119547600Y-82348600D01*
X119547600Y-81892400D01*
X119852400Y-81892400D01*
X119852400Y-82348600D01*
X119878800Y-82375000D01*
X119852400Y-82401400D01*
X119852400Y-82857600D01*
X121128600Y-82857600D01*
X121204800Y-82781400D01*
X121206275Y-82630000D01*
X121200390Y-82570249D01*
X121182961Y-82512794D01*
X121154658Y-82459843D01*
X121116569Y-82413431D01*
X121070157Y-82375342D01*
X121069517Y-82375000D01*
X121070157Y-82374658D01*
X121116569Y-82336569D01*
X121154658Y-82290157D01*
X121182961Y-82237206D01*
X121200390Y-82179751D01*
X121206275Y-82120000D01*
X121204800Y-81968600D01*
X121128600Y-81892400D01*
X119852400Y-81892400D01*
X119547600Y-81892400D01*
X119527600Y-81892400D01*
X119527600Y-81587600D01*
X119547600Y-81587600D01*
X119547600Y-81567600D01*
X119852400Y-81567600D01*
X119852400Y-81587600D01*
X121128600Y-81587600D01*
X121204800Y-81511400D01*
X121206275Y-81360000D01*
X121200390Y-81300249D01*
X121182961Y-81242794D01*
X121154658Y-81189843D01*
X121116569Y-81143431D01*
X121070157Y-81105342D01*
X121069517Y-81105000D01*
X121070157Y-81104658D01*
X121116568Y-81066568D01*
X121154658Y-81020157D01*
X121182960Y-80967206D01*
X121200389Y-80909751D01*
X121206274Y-80850000D01*
X121206274Y-80090000D01*
X121200389Y-80030249D01*
X121182960Y-79972794D01*
X121154658Y-79919843D01*
X121116568Y-79873432D01*
X121070157Y-79835342D01*
X121069517Y-79835000D01*
X121070157Y-79834658D01*
X121116568Y-79796568D01*
X121154658Y-79750157D01*
X121182960Y-79697206D01*
X121200389Y-79639751D01*
X121206274Y-79580000D01*
X121206274Y-78820000D01*
X121200389Y-78760249D01*
X121182960Y-78702794D01*
X121154658Y-78649843D01*
X121116568Y-78603432D01*
X121070157Y-78565342D01*
X121017206Y-78537040D01*
X120959751Y-78519611D01*
X120900000Y-78513726D01*
X118500000Y-78513726D01*
X118440249Y-78519611D01*
X118382794Y-78537040D01*
X118329843Y-78565342D01*
X118329800Y-78565377D01*
X118329800Y-78329800D01*
X171670201Y-78329800D01*
X171670200Y-115670200D01*
G37*
G04 #@! TD.AperFunction*
D19*
X131164034Y-105536480D02*
X131230221Y-105635537D01*
X131314463Y-105719779D01*
X131413520Y-105785966D01*
X131523586Y-105831558D01*
X131640432Y-105854800D01*
X131759568Y-105854800D01*
X131876414Y-105831558D01*
X131986480Y-105785966D01*
X132085537Y-105719779D01*
X132148916Y-105656400D01*
X134731664Y-105656400D01*
X135324207Y-106248943D01*
X135269960Y-106243600D01*
X135269953Y-106243600D01*
X135250000Y-106241635D01*
X135230047Y-106243600D01*
X133669953Y-106243600D01*
X133650000Y-106241635D01*
X133630047Y-106243600D01*
X133630040Y-106243600D01*
X133577604Y-106248765D01*
X133570331Y-106249481D01*
X133493725Y-106272719D01*
X133423124Y-106310456D01*
X133397746Y-106331283D01*
X133376745Y-106348518D01*
X133376740Y-106348523D01*
X133361242Y-106361242D01*
X133348523Y-106376741D01*
X132231664Y-107493600D01*
X130648916Y-107493600D01*
X130585537Y-107430221D01*
X130486480Y-107364034D01*
X130376414Y-107318442D01*
X130259568Y-107295200D01*
X130140432Y-107295200D01*
X130023586Y-107318442D01*
X129913520Y-107364034D01*
X129814463Y-107430221D01*
X129730221Y-107514463D01*
X129664034Y-107613520D01*
X129618442Y-107723586D01*
X129595200Y-107840432D01*
X129595200Y-107959568D01*
X129618442Y-108076414D01*
X129664034Y-108186480D01*
X129730221Y-108285537D01*
X129814463Y-108369779D01*
X129913520Y-108435966D01*
X130023586Y-108481558D01*
X130140432Y-108504800D01*
X130259568Y-108504800D01*
X130376414Y-108481558D01*
X130486480Y-108435966D01*
X130585537Y-108369779D01*
X130648916Y-108306400D01*
X132343601Y-108306400D01*
X132343600Y-109031663D01*
X131031664Y-110343600D01*
X130697800Y-110343600D01*
X130735966Y-110286480D01*
X130781558Y-110176414D01*
X130804800Y-110059568D01*
X130804800Y-109940432D01*
X130781558Y-109823586D01*
X130735966Y-109713520D01*
X130669779Y-109614463D01*
X130585537Y-109530221D01*
X130486480Y-109464034D01*
X130376414Y-109418442D01*
X130259568Y-109395200D01*
X130140432Y-109395200D01*
X130023586Y-109418442D01*
X129913520Y-109464034D01*
X129814463Y-109530221D01*
X129730221Y-109614463D01*
X129664034Y-109713520D01*
X129618442Y-109823586D01*
X129595200Y-109940432D01*
X129595200Y-109980063D01*
X128931400Y-110643864D01*
X128931400Y-109068336D01*
X129273255Y-108726481D01*
X129288758Y-108713758D01*
X129339544Y-108651876D01*
X129377281Y-108581275D01*
X129395043Y-108522719D01*
X129400519Y-108504669D01*
X129402795Y-108481558D01*
X129406400Y-108444960D01*
X129406400Y-108444954D01*
X129408365Y-108425001D01*
X129406400Y-108405048D01*
X129406400Y-107193336D01*
X131134516Y-105465220D01*
X131164034Y-105536480D01*
G04 #@! TA.AperFunction,Conductor*
D22*
G36*
X131164034Y-105536480D02*
G01*
X131230221Y-105635537D01*
X131314463Y-105719779D01*
X131413520Y-105785966D01*
X131523586Y-105831558D01*
X131640432Y-105854800D01*
X131759568Y-105854800D01*
X131876414Y-105831558D01*
X131986480Y-105785966D01*
X132085537Y-105719779D01*
X132148916Y-105656400D01*
X134731664Y-105656400D01*
X135324207Y-106248943D01*
X135269960Y-106243600D01*
X135269953Y-106243600D01*
X135250000Y-106241635D01*
X135230047Y-106243600D01*
X133669953Y-106243600D01*
X133650000Y-106241635D01*
X133630047Y-106243600D01*
X133630040Y-106243600D01*
X133577604Y-106248765D01*
X133570331Y-106249481D01*
X133493725Y-106272719D01*
X133423124Y-106310456D01*
X133397746Y-106331283D01*
X133376745Y-106348518D01*
X133376740Y-106348523D01*
X133361242Y-106361242D01*
X133348523Y-106376741D01*
X132231664Y-107493600D01*
X130648916Y-107493600D01*
X130585537Y-107430221D01*
X130486480Y-107364034D01*
X130376414Y-107318442D01*
X130259568Y-107295200D01*
X130140432Y-107295200D01*
X130023586Y-107318442D01*
X129913520Y-107364034D01*
X129814463Y-107430221D01*
X129730221Y-107514463D01*
X129664034Y-107613520D01*
X129618442Y-107723586D01*
X129595200Y-107840432D01*
X129595200Y-107959568D01*
X129618442Y-108076414D01*
X129664034Y-108186480D01*
X129730221Y-108285537D01*
X129814463Y-108369779D01*
X129913520Y-108435966D01*
X130023586Y-108481558D01*
X130140432Y-108504800D01*
X130259568Y-108504800D01*
X130376414Y-108481558D01*
X130486480Y-108435966D01*
X130585537Y-108369779D01*
X130648916Y-108306400D01*
X132343601Y-108306400D01*
X132343600Y-109031663D01*
X131031664Y-110343600D01*
X130697800Y-110343600D01*
X130735966Y-110286480D01*
X130781558Y-110176414D01*
X130804800Y-110059568D01*
X130804800Y-109940432D01*
X130781558Y-109823586D01*
X130735966Y-109713520D01*
X130669779Y-109614463D01*
X130585537Y-109530221D01*
X130486480Y-109464034D01*
X130376414Y-109418442D01*
X130259568Y-109395200D01*
X130140432Y-109395200D01*
X130023586Y-109418442D01*
X129913520Y-109464034D01*
X129814463Y-109530221D01*
X129730221Y-109614463D01*
X129664034Y-109713520D01*
X129618442Y-109823586D01*
X129595200Y-109940432D01*
X129595200Y-109980063D01*
X128931400Y-110643864D01*
X128931400Y-109068336D01*
X129273255Y-108726481D01*
X129288758Y-108713758D01*
X129339544Y-108651876D01*
X129377281Y-108581275D01*
X129395043Y-108522719D01*
X129400519Y-108504669D01*
X129402795Y-108481558D01*
X129406400Y-108444960D01*
X129406400Y-108444954D01*
X129408365Y-108425001D01*
X129406400Y-108405048D01*
X129406400Y-107193336D01*
X131134516Y-105465220D01*
X131164034Y-105536480D01*
G37*
G04 #@! TD.AperFunction*
M02*
