%TF.GenerationSoftware,KiCad,Pcbnew,(5.1.9)-1*%
%TF.CreationDate,2021-03-02T05:03:43-05:00*%
%TF.ProjectId,Canary,43616e61-7279-42e6-9b69-6361645f7063,rev?*%
%TF.SameCoordinates,Original*%
%TF.FileFunction,Soldermask,Bot*%
%TF.FilePolarity,Negative*%
%FSLAX46Y46*%
G04 Gerber Fmt 4.6, Leading zero omitted, Abs format (unit mm)*
G04 Created by KiCad (PCBNEW (5.1.9)-1) date 2021-03-02 05:03:43*
%MOMM*%
%LPD*%
G01*
G04 APERTURE LIST*
%ADD10C,0.100000*%
%ADD11C,2.000000*%
%ADD12C,1.500000*%
%ADD13C,2.200000*%
%ADD14R,2.800000X1.500000*%
%ADD15C,1.050000*%
%ADD16R,2.400000X0.760000*%
%ADD17O,2.200000X1.100000*%
%ADD18C,0.254000*%
G04 APERTURE END LIST*
D10*
%TO.C,LOGO1*%
G36*
X86925613Y-58719605D02*
G01*
X86922724Y-58719104D01*
X86882724Y-58709104D01*
X86880851Y-58708537D01*
X86879005Y-58707878D01*
X86875890Y-58706455D01*
X86874614Y-58705734D01*
X86873359Y-58704962D01*
X86843359Y-58684962D01*
X86841777Y-58683791D01*
X86840260Y-58682548D01*
X86838044Y-58680429D01*
X86837299Y-58679598D01*
X86836574Y-58678741D01*
X86816574Y-58653741D01*
X86815644Y-58652480D01*
X86814771Y-58651194D01*
X86813953Y-58649884D01*
X86793953Y-58614884D01*
X86793068Y-58613142D01*
X86792266Y-58611353D01*
X86791051Y-58607767D01*
X86790636Y-58606009D01*
X86790302Y-58604242D01*
X86780302Y-58534242D01*
X86780102Y-58531595D01*
X86780078Y-58528941D01*
X86780231Y-58526279D01*
X86790231Y-58446279D01*
X86790419Y-58445077D01*
X86790641Y-58443892D01*
X86790896Y-58442724D01*
X86800896Y-58402724D01*
X86801463Y-58400851D01*
X86802122Y-58399005D01*
X86803318Y-58396304D01*
X86803785Y-58395430D01*
X86804275Y-58394565D01*
X86834275Y-58344565D01*
X86835369Y-58342930D01*
X86836538Y-58341356D01*
X86839124Y-58338497D01*
X86840530Y-58337216D01*
X86842000Y-58336000D01*
X86882000Y-58306000D01*
X86884200Y-58304566D01*
X86886486Y-58303281D01*
X86888858Y-58302145D01*
X86938858Y-58282145D01*
X86940143Y-58281682D01*
X86941432Y-58281266D01*
X86942724Y-58280896D01*
X86978391Y-58271979D01*
X87020208Y-58246889D01*
X87065643Y-58192367D01*
X87113510Y-58115780D01*
X87212320Y-57898397D01*
X87261929Y-57769415D01*
X87331678Y-57580095D01*
X87391178Y-57401596D01*
X87420794Y-57283132D01*
X87440000Y-57196705D01*
X87440000Y-57160000D01*
X87420477Y-57133969D01*
X87381748Y-57115746D01*
X87308824Y-57110000D01*
X87082483Y-57110000D01*
X87046995Y-57115915D01*
X87039769Y-57173721D01*
X87039665Y-57174444D01*
X87039548Y-57175165D01*
X87039418Y-57175883D01*
X87029418Y-57225883D01*
X87028938Y-57227787D01*
X87028367Y-57229662D01*
X87026863Y-57233283D01*
X87025937Y-57235011D01*
X87023763Y-57238259D01*
X87022525Y-57239766D01*
X87021213Y-57241213D01*
X86971213Y-57291213D01*
X86970798Y-57291616D01*
X86970371Y-57292019D01*
X86969931Y-57292422D01*
X86880588Y-57371838D01*
X86851213Y-57401213D01*
X86849755Y-57402535D01*
X86848231Y-57403785D01*
X86846641Y-57404962D01*
X86816641Y-57424962D01*
X86814953Y-57425971D01*
X86813223Y-57426893D01*
X86809195Y-57428506D01*
X86806899Y-57429147D01*
X86804562Y-57429651D01*
X86676682Y-57449325D01*
X86449369Y-57518506D01*
X86110904Y-57637965D01*
X85903096Y-57727026D01*
X85751987Y-57809039D01*
X85759486Y-57811539D01*
X85760820Y-57812037D01*
X85762130Y-57812580D01*
X85763416Y-57813167D01*
X85823416Y-57843167D01*
X85824984Y-57844041D01*
X85826512Y-57844985D01*
X85828000Y-57846000D01*
X85868000Y-57876000D01*
X85869511Y-57877254D01*
X85870956Y-57878578D01*
X85873537Y-57881447D01*
X85874667Y-57882978D01*
X85875725Y-57884565D01*
X85905725Y-57934565D01*
X85906651Y-57936296D01*
X85907490Y-57938068D01*
X85908685Y-57941277D01*
X85909077Y-57942689D01*
X85909418Y-57944117D01*
X85919281Y-57993432D01*
X85929104Y-58032724D01*
X85929551Y-58035128D01*
X85929850Y-58037553D01*
X85930000Y-58040000D01*
X85930000Y-58080000D01*
X85929904Y-58081959D01*
X85929712Y-58083910D01*
X85928947Y-58087756D01*
X85928378Y-58089632D01*
X85926458Y-58094002D01*
X85925028Y-58096422D01*
X85923426Y-58098741D01*
X85883426Y-58148741D01*
X85882124Y-58150215D01*
X85880755Y-58151618D01*
X85877764Y-58154136D01*
X85876148Y-58155246D01*
X85872839Y-58157084D01*
X85871177Y-58157811D01*
X85869487Y-58158461D01*
X85809487Y-58178461D01*
X85807591Y-58178990D01*
X85805680Y-58179424D01*
X85802511Y-58179881D01*
X85801260Y-58179960D01*
X85800000Y-58180000D01*
X85770000Y-58180000D01*
X85768041Y-58179904D01*
X85766090Y-58179712D01*
X85761565Y-58178728D01*
X85759044Y-58177864D01*
X85756584Y-58176833D01*
X85736584Y-58166833D01*
X85734876Y-58165871D01*
X85733217Y-58164827D01*
X85730120Y-58162424D01*
X85728696Y-58161076D01*
X85725813Y-58157659D01*
X85724424Y-58155579D01*
X85723167Y-58153416D01*
X85713167Y-58133416D01*
X85712378Y-58131623D01*
X85711677Y-58129792D01*
X85710641Y-58126008D01*
X85710311Y-58124076D01*
X85710033Y-58120158D01*
X85710087Y-58118198D01*
X85710576Y-58114320D01*
X85711010Y-58112409D01*
X85712250Y-58108686D01*
X85713049Y-58106896D01*
X85714990Y-58103490D01*
X85716123Y-58101890D01*
X85718696Y-58098924D01*
X85720120Y-58097576D01*
X85723217Y-58095173D01*
X85724876Y-58094129D01*
X85728377Y-58092378D01*
X85730208Y-58091677D01*
X85734695Y-58090533D01*
X85737336Y-58090178D01*
X85740000Y-58090000D01*
X85752918Y-58090000D01*
X85784910Y-58074004D01*
X85804794Y-58060748D01*
X85808777Y-58048799D01*
X85791695Y-57980472D01*
X85786730Y-57970543D01*
X85737680Y-57937843D01*
X85703895Y-57929397D01*
X85647516Y-57920000D01*
X85582484Y-57920000D01*
X85529381Y-57928851D01*
X85497770Y-57944656D01*
X85483316Y-57959110D01*
X85467191Y-57983298D01*
X85460000Y-58004870D01*
X85460000Y-58027027D01*
X85468254Y-58068297D01*
X85482379Y-58089484D01*
X85526263Y-58124591D01*
X85560468Y-58141694D01*
X85637276Y-58160896D01*
X85639149Y-58161463D01*
X85640995Y-58162122D01*
X85644544Y-58163798D01*
X85646226Y-58164805D01*
X85649379Y-58167141D01*
X85650832Y-58168457D01*
X85653462Y-58171356D01*
X85654631Y-58172930D01*
X85656651Y-58176296D01*
X85657490Y-58178068D01*
X85658813Y-58181759D01*
X85659290Y-58183660D01*
X85659867Y-58187538D01*
X85659964Y-58189496D01*
X85659772Y-58193414D01*
X85659485Y-58195353D01*
X85658537Y-58199149D01*
X85657878Y-58200995D01*
X85656202Y-58204544D01*
X85655195Y-58206226D01*
X85652219Y-58210054D01*
X85650184Y-58212101D01*
X85648000Y-58214000D01*
X85608000Y-58244000D01*
X85606375Y-58245098D01*
X85604699Y-58246115D01*
X85601160Y-58247812D01*
X85599318Y-58248482D01*
X85594984Y-58249530D01*
X85592502Y-58249843D01*
X85590000Y-58250000D01*
X85510000Y-58250000D01*
X85508041Y-58249904D01*
X85506090Y-58249712D01*
X85502121Y-58248909D01*
X85500133Y-58248292D01*
X85498183Y-58247574D01*
X85428183Y-58217574D01*
X85426422Y-58216715D01*
X85424704Y-58215770D01*
X85420982Y-58213129D01*
X85419046Y-58211391D01*
X85417222Y-58209524D01*
X85357222Y-58139524D01*
X85356017Y-58137969D01*
X85354894Y-58136363D01*
X85352999Y-58133004D01*
X85352228Y-58131264D01*
X85351539Y-58129487D01*
X85331539Y-58069487D01*
X85331010Y-58067591D01*
X85330576Y-58065680D01*
X85330119Y-58062511D01*
X85330040Y-58061260D01*
X85330000Y-58060000D01*
X85330000Y-58000000D01*
X85330097Y-57998031D01*
X85330291Y-57996070D01*
X85330582Y-57994117D01*
X85340582Y-57944117D01*
X85341023Y-57942341D01*
X85341544Y-57940588D01*
X85342145Y-57938858D01*
X85350102Y-57918965D01*
X85314026Y-57949028D01*
X85289132Y-57998819D01*
X85280373Y-58068891D01*
X85287987Y-58106960D01*
X85322390Y-58149964D01*
X85329110Y-58156684D01*
X85355090Y-58174004D01*
X85393416Y-58193167D01*
X85395124Y-58194129D01*
X85396783Y-58195173D01*
X85399880Y-58197576D01*
X85401304Y-58198924D01*
X85403877Y-58201890D01*
X85405010Y-58203490D01*
X85406951Y-58206896D01*
X85407750Y-58208686D01*
X85408990Y-58212409D01*
X85409424Y-58214320D01*
X85409913Y-58218198D01*
X85409967Y-58220158D01*
X85409689Y-58224076D01*
X85409359Y-58226008D01*
X85408323Y-58229792D01*
X85407622Y-58231623D01*
X85405871Y-58235124D01*
X85404827Y-58236783D01*
X85402424Y-58239880D01*
X85401076Y-58241304D01*
X85398110Y-58243877D01*
X85396510Y-58245010D01*
X85392394Y-58247252D01*
X85389867Y-58248265D01*
X85387276Y-58249104D01*
X85347276Y-58259104D01*
X85345353Y-58259485D01*
X85343414Y-58259772D01*
X85339003Y-58259933D01*
X85336556Y-58259751D01*
X85334117Y-58259418D01*
X85284117Y-58249418D01*
X85281545Y-58248722D01*
X85279034Y-58247860D01*
X85276584Y-58246833D01*
X85216584Y-58216833D01*
X85214876Y-58215871D01*
X85213217Y-58214827D01*
X85209833Y-58212148D01*
X85208155Y-58210495D01*
X85206574Y-58208741D01*
X85166574Y-58158741D01*
X85165422Y-58157147D01*
X85164354Y-58155504D01*
X85162552Y-58152028D01*
X85161824Y-58150207D01*
X85160841Y-58146982D01*
X85160547Y-58145613D01*
X85160302Y-58144242D01*
X85150302Y-58074242D01*
X85150120Y-58072292D01*
X85150034Y-58070334D01*
X85150135Y-58067269D01*
X85150256Y-58066169D01*
X85150408Y-58065068D01*
X85170408Y-57945068D01*
X85170944Y-57942728D01*
X85171617Y-57940433D01*
X85172426Y-57938183D01*
X85202426Y-57868183D01*
X85203285Y-57866422D01*
X85204230Y-57864704D01*
X85206409Y-57861517D01*
X85207626Y-57860061D01*
X85208913Y-57858661D01*
X85250209Y-57817853D01*
X85268511Y-57799066D01*
X85270336Y-57797410D01*
X85272258Y-57795871D01*
X85274277Y-57794450D01*
X85404277Y-57714450D01*
X85404777Y-57714152D01*
X85405277Y-57713864D01*
X85405777Y-57713586D01*
X85535777Y-57643586D01*
X85536791Y-57643076D01*
X85537818Y-57642596D01*
X85538858Y-57642145D01*
X85738858Y-57562145D01*
X85739113Y-57562046D01*
X85739316Y-57561968D01*
X85739467Y-57561910D01*
X85899467Y-57501910D01*
X85899634Y-57501849D01*
X85899782Y-57501795D01*
X85899910Y-57501748D01*
X86179224Y-57401993D01*
X86348578Y-57332259D01*
X86348896Y-57332132D01*
X86349192Y-57332016D01*
X86349467Y-57331910D01*
X86508635Y-57272222D01*
X86590768Y-57235718D01*
X86603740Y-57218629D01*
X86600703Y-57188489D01*
X86584004Y-57155090D01*
X86568965Y-57132533D01*
X86505844Y-57096463D01*
X86447708Y-57067395D01*
X86401987Y-57049107D01*
X86216545Y-57019826D01*
X85947784Y-56999918D01*
X85947471Y-56999893D01*
X85947215Y-56999870D01*
X85947015Y-56999851D01*
X85747015Y-56979851D01*
X85744428Y-56979419D01*
X85741876Y-56978819D01*
X85739360Y-56978050D01*
X85449360Y-56868050D01*
X85448188Y-56867562D01*
X85447029Y-56867036D01*
X85445882Y-56866471D01*
X85145882Y-56706471D01*
X85144329Y-56705550D01*
X85142828Y-56704566D01*
X85141379Y-56703521D01*
X84901379Y-56513521D01*
X84899957Y-56512281D01*
X84898596Y-56510977D01*
X84897296Y-56509608D01*
X84707296Y-56289608D01*
X84706750Y-56288948D01*
X84706211Y-56288267D01*
X84705679Y-56287565D01*
X84575679Y-56107565D01*
X84575468Y-56107267D01*
X84575254Y-56106959D01*
X84575038Y-56106641D01*
X84435038Y-55896641D01*
X84434245Y-55895348D01*
X84433504Y-55894030D01*
X84432814Y-55892687D01*
X84362814Y-55742687D01*
X84361964Y-55740554D01*
X84361241Y-55738385D01*
X84360644Y-55736180D01*
X84320644Y-55546180D01*
X84320552Y-55545717D01*
X84320459Y-55545217D01*
X84320367Y-55544679D01*
X84290367Y-55354679D01*
X84290229Y-55353622D01*
X84290119Y-55352561D01*
X84290037Y-55351498D01*
X84280037Y-55151498D01*
X84280018Y-55150980D01*
X84280006Y-55150481D01*
X84280000Y-55150000D01*
X84280000Y-54830401D01*
X84270052Y-54472294D01*
X84250809Y-54318342D01*
X84193366Y-54193882D01*
X84124365Y-54075596D01*
X84056457Y-53968883D01*
X84010296Y-53922722D01*
X83974224Y-53895668D01*
X83948796Y-53883117D01*
X83858954Y-53879982D01*
X83858640Y-53879968D01*
X83858324Y-53879952D01*
X83858005Y-53879934D01*
X83708005Y-53869934D01*
X83707431Y-53869887D01*
X83706856Y-53869832D01*
X83706279Y-53869769D01*
X83546279Y-53849769D01*
X83544343Y-53849429D01*
X83542431Y-53848996D01*
X83538717Y-53847762D01*
X83536926Y-53846965D01*
X83533511Y-53845023D01*
X83531910Y-53843891D01*
X83528951Y-53841331D01*
X83527601Y-53839909D01*
X83525191Y-53836810D01*
X83524145Y-53835152D01*
X83522387Y-53831644D01*
X83521685Y-53829814D01*
X83520538Y-53825328D01*
X83520180Y-53822677D01*
X83520000Y-53820000D01*
X83520000Y-53810000D01*
X83520096Y-53808041D01*
X83520288Y-53806090D01*
X83521272Y-53801565D01*
X83522136Y-53799044D01*
X83523167Y-53796584D01*
X83533167Y-53776584D01*
X83534129Y-53774876D01*
X83535173Y-53773217D01*
X83538075Y-53769611D01*
X83539975Y-53767742D01*
X83542000Y-53766000D01*
X83582000Y-53736000D01*
X83583025Y-53735280D01*
X83584064Y-53734598D01*
X83585116Y-53733953D01*
X83794815Y-53614125D01*
X83843950Y-53584644D01*
X83872279Y-53565758D01*
X83917621Y-53529484D01*
X83934258Y-53504529D01*
X84003586Y-53375777D01*
X84003905Y-53375207D01*
X84004230Y-53374648D01*
X84004560Y-53374100D01*
X84054560Y-53294100D01*
X84054913Y-53293556D01*
X84055270Y-53293024D01*
X84055631Y-53292503D01*
X84078157Y-53261129D01*
X84079025Y-53260007D01*
X84079933Y-53258915D01*
X84080882Y-53257853D01*
X84108356Y-53229227D01*
X84109394Y-53228221D01*
X84110470Y-53227251D01*
X84111582Y-53226319D01*
X84201582Y-53156319D01*
X84202335Y-53155761D01*
X84203105Y-53155218D01*
X84203893Y-53154690D01*
X84313893Y-53084690D01*
X84314790Y-53084152D01*
X84315687Y-53083645D01*
X84316584Y-53083167D01*
X84416584Y-53033167D01*
X84417870Y-53032580D01*
X84419180Y-53032037D01*
X84420513Y-53031539D01*
X84480513Y-53011539D01*
X84481261Y-53011306D01*
X84481998Y-53011092D01*
X84482724Y-53010896D01*
X84562724Y-52990896D01*
X84563895Y-52990640D01*
X84565081Y-52990418D01*
X84566283Y-52990231D01*
X84632699Y-52981937D01*
X84633765Y-52981833D01*
X84634839Y-52981757D01*
X84635922Y-52981710D01*
X84739506Y-52980004D01*
X84740031Y-52980002D01*
X84740541Y-52980007D01*
X84741034Y-52980018D01*
X85031034Y-52990018D01*
X85032183Y-52990091D01*
X85033321Y-52990196D01*
X85034450Y-52990332D01*
X85234450Y-53020332D01*
X85236140Y-53020661D01*
X85237819Y-53021063D01*
X85239487Y-53021539D01*
X85359487Y-53061539D01*
X85360468Y-53061895D01*
X85361444Y-53062278D01*
X85362414Y-53062689D01*
X85472414Y-53112689D01*
X85473853Y-53113414D01*
X85475262Y-53114197D01*
X85476641Y-53115038D01*
X85596641Y-53195038D01*
X85597960Y-53195997D01*
X85599236Y-53197007D01*
X85600469Y-53198068D01*
X85750469Y-53338068D01*
X85750731Y-53338317D01*
X85750979Y-53338557D01*
X85751213Y-53338787D01*
X85861213Y-53448787D01*
X85861570Y-53449153D01*
X85861932Y-53449534D01*
X85862299Y-53449931D01*
X85952299Y-53549931D01*
X85952459Y-53550111D01*
X85952524Y-53550185D01*
X86102495Y-53720152D01*
X86103155Y-53720940D01*
X86103794Y-53721744D01*
X86104412Y-53722563D01*
X86154412Y-53792563D01*
X86155270Y-53793870D01*
X86156077Y-53795210D01*
X86156833Y-53796584D01*
X86176833Y-53836584D01*
X86177622Y-53838377D01*
X86178323Y-53840208D01*
X86178855Y-53842150D01*
X86262818Y-53940524D01*
X86262887Y-53940604D01*
X86262963Y-53940694D01*
X86263046Y-53940794D01*
X86412465Y-54120095D01*
X86571542Y-54289116D01*
X86740989Y-54458563D01*
X86970450Y-54678048D01*
X87410180Y-55077802D01*
X87410321Y-55077931D01*
X87410471Y-55078070D01*
X87410632Y-55078221D01*
X87790123Y-55437739D01*
X88298823Y-55876617D01*
X88657832Y-56145874D01*
X88767645Y-56225738D01*
X88767892Y-56225920D01*
X88768149Y-56226113D01*
X88768418Y-56226319D01*
X89308195Y-56646145D01*
X89857930Y-57055948D01*
X89858083Y-57056063D01*
X89858275Y-57056209D01*
X89858507Y-57056388D01*
X90228507Y-57346388D01*
X90228709Y-57346549D01*
X90228832Y-57346648D01*
X90228876Y-57346683D01*
X90438876Y-57516683D01*
X90439261Y-57517002D01*
X90439659Y-57517341D01*
X90440069Y-57517701D01*
X90540069Y-57607701D01*
X90540466Y-57608068D01*
X90540847Y-57608430D01*
X90541213Y-57608787D01*
X90561213Y-57628787D01*
X90562528Y-57630237D01*
X90563772Y-57631752D01*
X90565614Y-57634406D01*
X90566243Y-57635490D01*
X90566833Y-57636584D01*
X90576833Y-57656584D01*
X90577420Y-57657870D01*
X90577963Y-57659180D01*
X90578461Y-57660513D01*
X90588461Y-57690513D01*
X90588990Y-57692409D01*
X90589424Y-57694320D01*
X90589881Y-57697489D01*
X90589960Y-57698740D01*
X90590000Y-57700000D01*
X90590000Y-57710000D01*
X90589904Y-57711959D01*
X90589712Y-57713910D01*
X90588947Y-57717756D01*
X90588378Y-57719632D01*
X90586878Y-57723254D01*
X90585954Y-57724983D01*
X90583772Y-57728248D01*
X90582528Y-57729763D01*
X90579763Y-57732528D01*
X90578248Y-57733772D01*
X90574983Y-57735954D01*
X90573254Y-57736878D01*
X90569632Y-57738378D01*
X90567756Y-57738947D01*
X90563910Y-57739712D01*
X90561959Y-57739904D01*
X90560000Y-57740000D01*
X90540000Y-57740000D01*
X90538041Y-57739904D01*
X90536090Y-57739712D01*
X90532121Y-57738909D01*
X90530133Y-57738292D01*
X90528183Y-57737574D01*
X90458183Y-57707574D01*
X90457652Y-57707337D01*
X90457119Y-57707090D01*
X90456584Y-57706833D01*
X90379888Y-57668485D01*
X90299675Y-57650660D01*
X90268068Y-57656981D01*
X90257191Y-57673298D01*
X90251223Y-57691201D01*
X90258305Y-57719528D01*
X90276316Y-57755550D01*
X90305725Y-57804565D01*
X90306651Y-57806296D01*
X90307490Y-57808068D01*
X90308556Y-57810832D01*
X90308843Y-57811780D01*
X90309104Y-57812724D01*
X90318822Y-57851596D01*
X90328461Y-57880513D01*
X90328990Y-57882409D01*
X90329424Y-57884320D01*
X90329881Y-57887489D01*
X90329960Y-57888740D01*
X90330000Y-57890000D01*
X90330000Y-57920000D01*
X90329904Y-57921959D01*
X90329712Y-57923910D01*
X90328947Y-57927756D01*
X90328378Y-57929632D01*
X90326878Y-57933254D01*
X90325954Y-57934983D01*
X90323772Y-57938248D01*
X90322528Y-57939763D01*
X90319763Y-57942528D01*
X90318248Y-57943772D01*
X90314983Y-57945954D01*
X90313254Y-57946878D01*
X90309632Y-57948378D01*
X90307756Y-57948947D01*
X90303910Y-57949712D01*
X90301959Y-57949904D01*
X90300000Y-57950000D01*
X90280000Y-57950000D01*
X90278041Y-57949904D01*
X90276090Y-57949712D01*
X90271565Y-57948728D01*
X90269044Y-57947864D01*
X90266584Y-57946833D01*
X90206584Y-57916833D01*
X90204268Y-57915473D01*
X90202050Y-57913962D01*
X90199931Y-57912299D01*
X90099931Y-57822299D01*
X90099534Y-57821932D01*
X90099153Y-57821570D01*
X90098787Y-57821213D01*
X89969078Y-57691504D01*
X89790761Y-57523093D01*
X89643323Y-57414973D01*
X89314728Y-57215824D01*
X89055371Y-57066195D01*
X88817000Y-56937077D01*
X88628903Y-56857878D01*
X88470003Y-56798291D01*
X88360937Y-56761935D01*
X88271298Y-56797792D01*
X87981471Y-56917720D01*
X87981038Y-56917894D01*
X87980601Y-56918063D01*
X87980161Y-56918227D01*
X87887650Y-56951531D01*
X87886833Y-56953416D01*
X87846833Y-57033416D01*
X87845893Y-57035090D01*
X87844875Y-57036715D01*
X87843778Y-57038291D01*
X87745542Y-57165998D01*
X87687223Y-57282636D01*
X87448007Y-57840807D01*
X87348619Y-58129031D01*
X87318464Y-58234574D01*
X87363721Y-58240231D01*
X87365657Y-58240571D01*
X87367569Y-58241004D01*
X87370797Y-58242029D01*
X87372117Y-58242575D01*
X87373416Y-58243167D01*
X87453416Y-58283167D01*
X87455124Y-58284129D01*
X87456783Y-58285173D01*
X87460389Y-58288075D01*
X87462258Y-58289975D01*
X87464000Y-58292000D01*
X87524000Y-58372000D01*
X87525098Y-58373625D01*
X87526115Y-58375301D01*
X87527718Y-58378585D01*
X87528316Y-58380162D01*
X87528845Y-58381759D01*
X87548845Y-58451759D01*
X87549421Y-58454477D01*
X87549806Y-58457224D01*
X87550000Y-58460000D01*
X87550000Y-58520000D01*
X87549904Y-58521959D01*
X87549712Y-58523910D01*
X87548947Y-58527756D01*
X87548378Y-58529632D01*
X87547100Y-58532825D01*
X87546436Y-58534143D01*
X87545725Y-58535435D01*
X87515725Y-58585435D01*
X87514631Y-58587070D01*
X87513462Y-58588644D01*
X87510832Y-58591543D01*
X87509379Y-58592859D01*
X87506415Y-58595080D01*
X87504934Y-58595989D01*
X87503416Y-58596833D01*
X87463416Y-58616833D01*
X87461623Y-58617622D01*
X87459792Y-58618323D01*
X87455305Y-58619467D01*
X87452664Y-58619822D01*
X87450000Y-58620000D01*
X87400000Y-58620000D01*
X87398041Y-58619904D01*
X87396090Y-58619712D01*
X87392244Y-58618947D01*
X87390368Y-58618378D01*
X87386746Y-58616878D01*
X87385017Y-58615954D01*
X87381752Y-58613772D01*
X87380237Y-58612528D01*
X87377472Y-58609763D01*
X87376228Y-58608248D01*
X87374046Y-58604983D01*
X87373122Y-58603254D01*
X87371622Y-58599632D01*
X87371053Y-58597756D01*
X87370288Y-58593910D01*
X87370096Y-58591959D01*
X87370096Y-58588041D01*
X87370288Y-58586090D01*
X87371053Y-58582244D01*
X87371622Y-58580368D01*
X87373122Y-58576746D01*
X87374046Y-58575017D01*
X87376228Y-58571752D01*
X87377472Y-58570237D01*
X87380245Y-58567465D01*
X87381769Y-58566215D01*
X87383359Y-58565038D01*
X87408367Y-58548367D01*
X87423307Y-58525955D01*
X87440000Y-58484223D01*
X87440000Y-58482973D01*
X87431369Y-58439822D01*
X87407075Y-58391230D01*
X87370327Y-58369182D01*
X87280169Y-58360166D01*
X87197932Y-58369304D01*
X87117274Y-58405152D01*
X87075569Y-58446857D01*
X87060000Y-58485780D01*
X87060000Y-58532918D01*
X87074656Y-58562230D01*
X87097770Y-58585344D01*
X87151506Y-58612212D01*
X87179487Y-58621539D01*
X87180820Y-58622037D01*
X87182130Y-58622580D01*
X87183416Y-58623167D01*
X87203416Y-58633167D01*
X87205124Y-58634129D01*
X87206783Y-58635173D01*
X87209880Y-58637576D01*
X87211304Y-58638924D01*
X87213877Y-58641890D01*
X87215010Y-58643490D01*
X87216951Y-58646896D01*
X87217750Y-58648686D01*
X87218990Y-58652409D01*
X87219424Y-58654320D01*
X87219913Y-58658198D01*
X87219967Y-58660158D01*
X87219689Y-58664076D01*
X87219359Y-58666008D01*
X87218323Y-58669792D01*
X87217622Y-58671623D01*
X87215871Y-58675124D01*
X87214827Y-58676783D01*
X87212424Y-58679880D01*
X87211076Y-58681304D01*
X87207659Y-58684187D01*
X87205579Y-58685576D01*
X87203416Y-58686833D01*
X87163416Y-58706833D01*
X87161623Y-58707622D01*
X87159792Y-58708323D01*
X87156008Y-58709359D01*
X87154076Y-58709689D01*
X87149993Y-58709962D01*
X87147870Y-58709886D01*
X87145758Y-58709698D01*
X87075758Y-58699698D01*
X87073831Y-58699326D01*
X87071927Y-58698860D01*
X87067754Y-58697330D01*
X87065525Y-58696218D01*
X87063359Y-58694962D01*
X87003359Y-58654962D01*
X87001777Y-58653791D01*
X87000260Y-58652548D01*
X86998044Y-58650429D01*
X86997299Y-58649598D01*
X86996574Y-58648741D01*
X86956574Y-58598741D01*
X86955422Y-58597147D01*
X86954354Y-58595504D01*
X86952537Y-58591990D01*
X86951799Y-58590133D01*
X86951155Y-58588241D01*
X86931155Y-58518241D01*
X86930708Y-58516329D01*
X86930357Y-58514401D01*
X86930043Y-58510219D01*
X86930110Y-58507986D01*
X86930302Y-58505758D01*
X86940302Y-58435758D01*
X86940778Y-58433428D01*
X86941392Y-58431128D01*
X86942145Y-58428858D01*
X86945269Y-58421049D01*
X86932702Y-58430474D01*
X86908399Y-58470979D01*
X86900000Y-58512973D01*
X86900000Y-58555130D01*
X86907788Y-58578494D01*
X86915623Y-58594164D01*
X86940916Y-58627888D01*
X86965090Y-58644004D01*
X86983416Y-58653167D01*
X86985124Y-58654129D01*
X86986783Y-58655173D01*
X86989880Y-58657576D01*
X86991304Y-58658924D01*
X86993877Y-58661890D01*
X86995010Y-58663490D01*
X86996951Y-58666896D01*
X86997750Y-58668686D01*
X86998990Y-58672409D01*
X86999424Y-58674320D01*
X86999913Y-58678198D01*
X86999967Y-58680158D01*
X86999689Y-58684076D01*
X86999359Y-58686008D01*
X86998323Y-58689792D01*
X86997622Y-58691623D01*
X86995871Y-58695124D01*
X86994827Y-58696783D01*
X86992424Y-58699880D01*
X86991076Y-58701304D01*
X86988110Y-58703877D01*
X86986510Y-58705010D01*
X86982394Y-58707252D01*
X86979867Y-58708265D01*
X86977276Y-58709104D01*
X86937276Y-58719104D01*
X86935353Y-58719485D01*
X86933414Y-58719772D01*
X86928524Y-58719892D01*
X86925613Y-58719605D01*
G37*
%TD*%
D11*
%TO.C,FID6*%
X53400000Y-49720000D03*
%TD*%
%TO.C,FID5*%
X51860000Y-84320000D03*
%TD*%
%TO.C,FID4*%
X95000000Y-78910000D03*
%TD*%
D12*
%TO.C,TP1*%
X49940000Y-80760000D03*
%TD*%
D13*
%TO.C,H2*%
X94500000Y-83500000D03*
%TD*%
D14*
%TO.C,SW1*%
X48350000Y-64750000D03*
X43550000Y-64750000D03*
X48350000Y-69250000D03*
X43550000Y-69250000D03*
%TD*%
D15*
%TO.C,J2*%
X56900000Y-53940000D03*
X55630000Y-53940000D03*
X56900000Y-55210000D03*
X55630000Y-55210000D03*
X56900000Y-56480000D03*
X55630000Y-56480000D03*
X56900000Y-57750000D03*
X55630000Y-57750000D03*
X56900000Y-59020000D03*
X55630000Y-59020000D03*
%TD*%
D16*
%TO.C,J1*%
X48600000Y-50470000D03*
X48600000Y-49200000D03*
X48600000Y-53010000D03*
X48600000Y-51740000D03*
X48600000Y-54280000D03*
X44700000Y-49200000D03*
X44700000Y-50470000D03*
X44700000Y-51740000D03*
X44700000Y-53010000D03*
X44700000Y-54280000D03*
%TD*%
D17*
%TO.C,J3*%
X46550000Y-62680000D03*
X46550000Y-71320000D03*
X42750000Y-62680000D03*
X42750000Y-71320000D03*
%TD*%
D13*
%TO.C,H1*%
X46500000Y-58500000D03*
%TD*%
D18*
X96873000Y-85873000D02*
X92127000Y-85873000D01*
X92127000Y-81127000D01*
X96873000Y-81127000D01*
X96873000Y-85873000D01*
D10*
G36*
X96873000Y-85873000D02*
G01*
X92127000Y-85873000D01*
X92127000Y-81127000D01*
X96873000Y-81127000D01*
X96873000Y-85873000D01*
G37*
M02*
