%TF.GenerationSoftware,KiCad,Pcbnew,(5.1.9)-1*%
%TF.CreationDate,2021-03-02T05:03:43-05:00*%
%TF.ProjectId,Canary,43616e61-7279-42e6-9b69-6361645f7063,rev?*%
%TF.SameCoordinates,Original*%
%TF.FileFunction,Profile,NP*%
%FSLAX46Y46*%
G04 Gerber Fmt 4.6, Leading zero omitted, Abs format (unit mm)*
G04 Created by KiCad (PCBNEW (5.1.9)-1) date 2021-03-02 05:03:43*
%MOMM*%
%LPD*%
G01*
G04 APERTURE LIST*
%TA.AperFunction,Profile*%
%ADD10C,0.050000*%
%TD*%
%TA.AperFunction,Profile*%
%ADD11C,0.120000*%
%TD*%
%ADD12C,0.150000*%
G04 APERTURE END LIST*
D10*
X43000000Y-74307107D02*
X43000000Y-86000000D01*
X43000000Y-48000000D02*
X43000000Y-59692893D01*
X42707107Y-60400000D02*
G75*
G03*
X43000000Y-59692893I-707107J707107D01*
G01*
X41292893Y-61802893D02*
G75*
G03*
X41000000Y-62510000I707107J-707107D01*
G01*
X42707107Y-60400000D02*
X41292893Y-61802893D01*
X42707107Y-73600000D02*
X41292893Y-72197107D01*
X41292893Y-72197107D02*
G75*
G02*
X41000000Y-71490000I707107J707107D01*
G01*
X42707107Y-73600000D02*
G75*
G02*
X43000000Y-74307107I-707107J-707107D01*
G01*
X41000000Y-62510000D02*
X41000000Y-71490000D01*
X97000000Y-48000000D02*
X43000000Y-48000000D01*
X97000000Y-86000000D02*
X97000000Y-48000000D01*
X43000000Y-86000000D02*
X97000000Y-86000000D01*
D11*
%TO.C,U7*%
X92725000Y-70965000D02*
X92725000Y-68550000D01*
X84850000Y-76425000D02*
X87265000Y-76425000D01*
X82435000Y-76425000D02*
X84850000Y-76425000D01*
X76975000Y-68550000D02*
X76975000Y-70965000D01*
X76975000Y-66135000D02*
X76975000Y-68550000D01*
X84850000Y-60675000D02*
X82435000Y-60675000D01*
X87265000Y-60675000D02*
X84850000Y-60675000D01*
X92725000Y-68550000D02*
X92725000Y-66135000D01*
X89085000Y-74605000D02*
G75*
G02*
X87265000Y-76425000I-1820000J0D01*
G01*
X90905000Y-72785000D02*
G75*
G03*
X89085000Y-74605000I0J-1820000D01*
G01*
X92725000Y-70965000D02*
G75*
G02*
X90905000Y-72785000I-1820000J0D01*
G01*
X78795000Y-72785000D02*
G75*
G02*
X76975000Y-70965000I0J1820000D01*
G01*
X80615000Y-74605000D02*
G75*
G03*
X78795000Y-72785000I-1820000J0D01*
G01*
X82435000Y-76425000D02*
G75*
G02*
X80615000Y-74605000I0J1820000D01*
G01*
X80615000Y-62495000D02*
G75*
G02*
X82435000Y-60675000I1820000J0D01*
G01*
X78795000Y-64315000D02*
G75*
G03*
X80615000Y-62495000I0J1820000D01*
G01*
X76975000Y-66135000D02*
G75*
G02*
X78795000Y-64315000I1820000J0D01*
G01*
X87265000Y-60675000D02*
G75*
G02*
X89085000Y-62495000I0J-1820000D01*
G01*
X89085000Y-62495000D02*
G75*
G03*
X90905000Y-64315000I1820000J0D01*
G01*
X90905000Y-64315000D02*
G75*
G02*
X92725000Y-66135000I0J-1820000D01*
G01*
%TD*%
%TO.C,U7*%
D12*
X82540476Y-74907142D02*
X82492857Y-74954761D01*
X82350000Y-75002380D01*
X82254761Y-75002380D01*
X82111904Y-74954761D01*
X82016666Y-74859523D01*
X81969047Y-74764285D01*
X81921428Y-74573809D01*
X81921428Y-74430952D01*
X81969047Y-74240476D01*
X82016666Y-74145238D01*
X82111904Y-74050000D01*
X82254761Y-74002380D01*
X82350000Y-74002380D01*
X82492857Y-74050000D01*
X82540476Y-74097619D01*
X83397619Y-74335714D02*
X83397619Y-75002380D01*
X82969047Y-74335714D02*
X82969047Y-74859523D01*
X83016666Y-74954761D01*
X83111904Y-75002380D01*
X83254761Y-75002380D01*
X83350000Y-74954761D01*
X83397619Y-74907142D01*
X83730952Y-74335714D02*
X84111904Y-74335714D01*
X83873809Y-74002380D02*
X83873809Y-74859523D01*
X83921428Y-74954761D01*
X84016666Y-75002380D01*
X84111904Y-75002380D01*
X84445238Y-74621428D02*
X85207142Y-74621428D01*
X85873809Y-74002380D02*
X86064285Y-74002380D01*
X86159523Y-74050000D01*
X86254761Y-74145238D01*
X86302380Y-74335714D01*
X86302380Y-74669047D01*
X86254761Y-74859523D01*
X86159523Y-74954761D01*
X86064285Y-75002380D01*
X85873809Y-75002380D01*
X85778571Y-74954761D01*
X85683333Y-74859523D01*
X85635714Y-74669047D01*
X85635714Y-74335714D01*
X85683333Y-74145238D01*
X85778571Y-74050000D01*
X85873809Y-74002380D01*
X87159523Y-74335714D02*
X87159523Y-75002380D01*
X86730952Y-74335714D02*
X86730952Y-74859523D01*
X86778571Y-74954761D01*
X86873809Y-75002380D01*
X87016666Y-75002380D01*
X87111904Y-74954761D01*
X87159523Y-74907142D01*
X87492857Y-74335714D02*
X87873809Y-74335714D01*
X87635714Y-74002380D02*
X87635714Y-74859523D01*
X87683333Y-74954761D01*
X87778571Y-75002380D01*
X87873809Y-75002380D01*
%TD*%
M02*
