%TF.GenerationSoftware,KiCad,Pcbnew,(5.1.9)-1*%
%TF.CreationDate,2021-03-02T05:03:43-05:00*%
%TF.ProjectId,Canary,43616e61-7279-42e6-9b69-6361645f7063,rev?*%
%TF.SameCoordinates,Original*%
%TF.FileFunction,Legend,Top*%
%TF.FilePolarity,Positive*%
%FSLAX46Y46*%
G04 Gerber Fmt 4.6, Leading zero omitted, Abs format (unit mm)*
G04 Created by KiCad (PCBNEW (5.1.9)-1) date 2021-03-02 05:03:43*
%MOMM*%
%LPD*%
G01*
G04 APERTURE LIST*
%ADD10C,0.127000*%
%ADD11C,0.200000*%
%ADD12C,0.150000*%
%ADD13C,0.250000*%
%ADD14C,0.500000*%
%ADD15C,0.300000*%
%ADD16C,0.100000*%
%ADD17C,0.120000*%
%ADD18C,0.152400*%
%ADD19C,0.240000*%
G04 APERTURE END LIST*
D10*
%TO.C,U12*%
X62958500Y-55200000D02*
X62958500Y-53600000D01*
X59841500Y-53600000D02*
X59841500Y-55200000D01*
D11*
X63120000Y-52570000D02*
G75*
G03*
X63120000Y-52570000I-100000J0D01*
G01*
%TO.C,U9*%
X73765000Y-52000000D02*
G75*
G03*
X73765000Y-52000000I-100000J0D01*
G01*
D10*
X74025000Y-51942500D02*
X77075000Y-51942500D01*
X74025000Y-55057500D02*
X77075000Y-55057500D01*
D12*
%TO.C,D7*%
X44950000Y-61550000D02*
X44950000Y-60950000D01*
%TO.C,D6*%
X52780000Y-58600000D02*
X52780000Y-59200000D01*
%TO.C,D5*%
X48450000Y-61680000D02*
X48450000Y-61080000D01*
D13*
%TO.C,U4*%
X83650000Y-82475000D02*
G75*
G03*
X83650000Y-82475000I-125000J0D01*
G01*
D12*
%TO.C,U7*%
X94850000Y-78550000D02*
X74850000Y-78550000D01*
X74850000Y-58550000D02*
X94850000Y-58550000D01*
X92850000Y-76550000D02*
X78850000Y-76550000D01*
X92850000Y-60550000D02*
X92850000Y-76550000D01*
X76850000Y-60550000D02*
X92850000Y-60550000D01*
X76850000Y-74550000D02*
X76850000Y-60550000D01*
X78850000Y-76550000D02*
X76850000Y-74550000D01*
X76850000Y-76550000D02*
X78850000Y-76550000D01*
X76850000Y-74550000D02*
X76850000Y-76550000D01*
X74850000Y-78550000D02*
X74850000Y-77550000D01*
X94850000Y-78550000D02*
X94850000Y-77550000D01*
X94850000Y-58550000D02*
X94850000Y-59550000D01*
X74850000Y-58550000D02*
X74850000Y-59550000D01*
D14*
X74250000Y-78100000D02*
G75*
G03*
X74250000Y-78100000I-200000J0D01*
G01*
D10*
%TO.C,J4*%
X91100000Y-56500000D02*
X95100000Y-56500000D01*
X87500000Y-50350000D02*
X87500000Y-54750000D01*
D15*
X96200000Y-50400000D02*
G75*
G03*
X96200000Y-50400000I-100000J0D01*
G01*
D10*
X95100000Y-48600000D02*
X91100000Y-48600000D01*
X95100000Y-50650000D02*
X95100000Y-48600000D01*
X95100000Y-56500000D02*
X95100000Y-54450000D01*
D16*
%TO.C,U3*%
X88650000Y-79850000D02*
X88650000Y-80050000D01*
X88650000Y-81650000D02*
X88650000Y-81850000D01*
X86650000Y-81650000D02*
X86650000Y-81850000D01*
X86650000Y-79850000D02*
X86650000Y-80050000D01*
D11*
X89050000Y-81750000D02*
X89050000Y-81750000D01*
X89050000Y-81950000D02*
X89050000Y-81950000D01*
D16*
X88650000Y-79850000D02*
X86650000Y-79850000D01*
X86650000Y-81850000D02*
X88650000Y-81850000D01*
D11*
X89050000Y-81750000D02*
G75*
G02*
X89050000Y-81950000I0J-100000D01*
G01*
X89050000Y-81950000D02*
G75*
G02*
X89050000Y-81750000I0J100000D01*
G01*
D10*
%TO.C,U11*%
X67155000Y-54380000D02*
X67155000Y-52620000D01*
X70295000Y-54380000D02*
X70295000Y-52620000D01*
D11*
X67225000Y-54750000D02*
G75*
G03*
X67225000Y-54750000I-100000J0D01*
G01*
D15*
%TO.C,J2*%
X55674400Y-52314400D02*
G75*
G03*
X55674400Y-52314400I-74400J0D01*
G01*
D17*
%TO.C,C18*%
X75200000Y-56600000D02*
X74500000Y-56600000D01*
X74500000Y-55400000D02*
X75200000Y-55400000D01*
%TO.C,C20*%
X75200000Y-51600000D02*
X74500000Y-51600000D01*
X74500000Y-50400000D02*
X75200000Y-50400000D01*
%TO.C,C22*%
X62050000Y-56600000D02*
X62750000Y-56600000D01*
X62750000Y-57800000D02*
X62050000Y-57800000D01*
%TO.C,C25*%
X57500000Y-50800000D02*
X58200000Y-50800000D01*
X58200000Y-52000000D02*
X57500000Y-52000000D01*
D12*
%TO.C,D4*%
X60030000Y-51900000D02*
G75*
G03*
X60030000Y-51900000I-80000J0D01*
G01*
D18*
X62378700Y-50738660D02*
X62378700Y-50499900D01*
X60321300Y-51861340D02*
X60321300Y-52100100D01*
X60321300Y-50499900D02*
X60321300Y-50738660D01*
X62378700Y-50499900D02*
X60321300Y-50499900D01*
X62378700Y-52100100D02*
X62378700Y-51861340D01*
X60321300Y-52100100D02*
X62378700Y-52100100D01*
D12*
X59350000Y-51600000D02*
X59350000Y-51000000D01*
D10*
%TO.C,U1*%
X43450000Y-75650000D02*
X43450000Y-85450000D01*
X43450000Y-85450000D02*
X57450000Y-85450000D01*
X57450000Y-85450000D02*
X57450000Y-75650000D01*
X57450000Y-75650000D02*
X43450000Y-75650000D01*
D16*
X48240000Y-86020000D02*
G75*
G03*
X48240000Y-86020000I-150000J0D01*
G01*
D11*
%TO.C,J3*%
X40150000Y-71470000D02*
X41300000Y-71470000D01*
X40150000Y-62530000D02*
X40150000Y-71470000D01*
X41300000Y-62530000D02*
X40150000Y-62530000D01*
D10*
%TO.C,L1*%
X70900000Y-53690000D02*
X70900000Y-53310000D01*
X73100000Y-53690000D02*
X73100000Y-53310000D01*
%TO.C,L2*%
X63280000Y-55900000D02*
X63280000Y-52900000D01*
X66620000Y-55900000D02*
X66620000Y-52900000D01*
D11*
%TO.C,LS1*%
X51120000Y-68920000D02*
G75*
G03*
X51120000Y-68920000I-100000J0D01*
G01*
D10*
X51520000Y-69220000D02*
X51520000Y-66740000D01*
X60520000Y-69220000D02*
X51520000Y-69220000D01*
X60520000Y-66740000D02*
X60520000Y-69220000D01*
X60520000Y-60220000D02*
X60520000Y-62700000D01*
X51520000Y-60220000D02*
X60520000Y-60220000D01*
X51520000Y-62700000D02*
X51520000Y-60220000D01*
%TO.C,Q1*%
X46695000Y-51561500D02*
X48195000Y-51561500D01*
X46695000Y-54588500D02*
X48195000Y-54588500D01*
D11*
X46245000Y-51475000D02*
G75*
G03*
X46245000Y-51475000I-100000J0D01*
G01*
D10*
%TO.C,Q2*%
X52500000Y-54588500D02*
X51000000Y-54588500D01*
X52500000Y-51561500D02*
X51000000Y-51561500D01*
D11*
X53150000Y-54675000D02*
G75*
G03*
X53150000Y-54675000I-100000J0D01*
G01*
D10*
%TO.C,Q3*%
X51000000Y-55161500D02*
X52500000Y-55161500D01*
X51000000Y-58188500D02*
X52500000Y-58188500D01*
D11*
X50550000Y-55075000D02*
G75*
G03*
X50550000Y-55075000I-100000J0D01*
G01*
D18*
%TO.C,U2*%
X49816400Y-75041600D02*
X54083600Y-75041600D01*
X54083600Y-69758400D02*
X49816400Y-69758400D01*
D15*
X49320000Y-69720000D02*
G75*
G03*
X49320000Y-69720000I-100000J0D01*
G01*
D12*
X52330131Y-69819999D02*
G75*
G02*
X51570001Y-69810001I-380131J-1D01*
G01*
D11*
%TO.C,U5*%
X71950000Y-63975000D02*
G75*
G03*
X71950000Y-63975000I-100000J0D01*
G01*
D10*
X68586000Y-64595000D02*
X68586000Y-66355000D01*
X71714000Y-64595000D02*
X71714000Y-66355000D01*
D19*
%TO.C,U6*%
X65345000Y-71100000D02*
G75*
G03*
X65345000Y-71100000I-120000J0D01*
G01*
D10*
X70125000Y-74750000D02*
X66025000Y-74750000D01*
X66025000Y-70650000D02*
X70125000Y-70650000D01*
D15*
%TO.C,U8*%
X69550000Y-79950000D02*
G75*
G03*
X69550000Y-79950000I-100000J0D01*
G01*
D18*
X68354800Y-79699400D02*
X68685000Y-79699400D01*
X67745200Y-79699400D02*
X68354800Y-79699400D01*
X67415000Y-79699400D02*
X67745200Y-79699400D01*
X67745200Y-79699400D02*
G75*
G02*
X68354800Y-79699400I304800J0D01*
G01*
D10*
%TO.C,U10*%
X61950000Y-62880000D02*
X61950000Y-62220000D01*
X63735000Y-63350000D02*
X63065000Y-63350000D01*
X64850000Y-62220000D02*
X64850000Y-62880000D01*
D11*
X65150000Y-61440000D02*
G75*
G03*
X65150000Y-61440000I-100000J0D01*
G01*
D12*
%TO.C,D1*%
X61000000Y-85200000D02*
X60900000Y-85150000D01*
X60850000Y-85400000D02*
X61000000Y-85200000D01*
X61200000Y-85250000D02*
X61500000Y-85250000D01*
X61200000Y-85550000D02*
X61200000Y-84950000D01*
X60850000Y-85250000D02*
X60550000Y-85250000D01*
X60850000Y-84950000D02*
X60850000Y-85550000D01*
X61150000Y-85250000D02*
X60850000Y-84950000D01*
X60850000Y-85550000D02*
X61150000Y-85250000D01*
X61700000Y-84750000D02*
X61700000Y-84250000D01*
X61980581Y-85146116D02*
G75*
G02*
X60019419Y-85146116I-980581J196116D01*
G01*
%TO.C,D2*%
X71000000Y-85200000D02*
X70900000Y-85150000D01*
X70850000Y-85400000D02*
X71000000Y-85200000D01*
X71200000Y-85250000D02*
X71500000Y-85250000D01*
X71200000Y-85550000D02*
X71200000Y-84950000D01*
X70850000Y-85250000D02*
X70550000Y-85250000D01*
X70850000Y-84950000D02*
X70850000Y-85550000D01*
X71150000Y-85250000D02*
X70850000Y-84950000D01*
X70850000Y-85550000D02*
X71150000Y-85250000D01*
X71700000Y-84750000D02*
X71700000Y-84250000D01*
X71980581Y-85146116D02*
G75*
G02*
X70019419Y-85146116I-980581J196116D01*
G01*
%TO.C,D3*%
X81000000Y-85200000D02*
X80900000Y-85150000D01*
X80850000Y-85400000D02*
X81000000Y-85200000D01*
X81200000Y-85250000D02*
X81500000Y-85250000D01*
X81200000Y-85550000D02*
X81200000Y-84950000D01*
X80850000Y-85250000D02*
X80550000Y-85250000D01*
X80850000Y-84950000D02*
X80850000Y-85550000D01*
X81150000Y-85250000D02*
X80850000Y-84950000D01*
X80850000Y-85550000D02*
X81150000Y-85250000D01*
X81700000Y-84750000D02*
X81700000Y-84250000D01*
X81980581Y-85146116D02*
G75*
G02*
X80019419Y-85146116I-980581J196116D01*
G01*
%TO.C,U12*%
X59061904Y-57142857D02*
X59709523Y-57142857D01*
X59785714Y-57114285D01*
X59823809Y-57085714D01*
X59861904Y-57028571D01*
X59861904Y-56914285D01*
X59823809Y-56857142D01*
X59785714Y-56828571D01*
X59709523Y-56800000D01*
X59061904Y-56800000D01*
X59861904Y-56200000D02*
X59861904Y-56542857D01*
X59861904Y-56371428D02*
X59061904Y-56371428D01*
X59176190Y-56428571D01*
X59252380Y-56485714D01*
X59290476Y-56542857D01*
X59138095Y-55971428D02*
X59100000Y-55942857D01*
X59061904Y-55885714D01*
X59061904Y-55742857D01*
X59100000Y-55685714D01*
X59138095Y-55657142D01*
X59214285Y-55628571D01*
X59290476Y-55628571D01*
X59404761Y-55657142D01*
X59861904Y-56000000D01*
X59861904Y-55628571D01*
%TO.C,U9*%
X76442857Y-55461904D02*
X76442857Y-56109523D01*
X76471428Y-56185714D01*
X76500000Y-56223809D01*
X76557142Y-56261904D01*
X76671428Y-56261904D01*
X76728571Y-56223809D01*
X76757142Y-56185714D01*
X76785714Y-56109523D01*
X76785714Y-55461904D01*
X77100000Y-56261904D02*
X77214285Y-56261904D01*
X77271428Y-56223809D01*
X77300000Y-56185714D01*
X77357142Y-56071428D01*
X77385714Y-55919047D01*
X77385714Y-55614285D01*
X77357142Y-55538095D01*
X77328571Y-55500000D01*
X77271428Y-55461904D01*
X77157142Y-55461904D01*
X77100000Y-55500000D01*
X77071428Y-55538095D01*
X77042857Y-55614285D01*
X77042857Y-55804761D01*
X77071428Y-55880952D01*
X77100000Y-55919047D01*
X77157142Y-55957142D01*
X77271428Y-55957142D01*
X77328571Y-55919047D01*
X77357142Y-55880952D01*
X77385714Y-55804761D01*
%TO.C,R30*%
X49784285Y-59281904D02*
X49584285Y-58900952D01*
X49441428Y-59281904D02*
X49441428Y-58481904D01*
X49670000Y-58481904D01*
X49727142Y-58520000D01*
X49755714Y-58558095D01*
X49784285Y-58634285D01*
X49784285Y-58748571D01*
X49755714Y-58824761D01*
X49727142Y-58862857D01*
X49670000Y-58900952D01*
X49441428Y-58900952D01*
X49984285Y-58481904D02*
X50355714Y-58481904D01*
X50155714Y-58786666D01*
X50241428Y-58786666D01*
X50298571Y-58824761D01*
X50327142Y-58862857D01*
X50355714Y-58939047D01*
X50355714Y-59129523D01*
X50327142Y-59205714D01*
X50298571Y-59243809D01*
X50241428Y-59281904D01*
X50070000Y-59281904D01*
X50012857Y-59243809D01*
X49984285Y-59205714D01*
X50727142Y-58481904D02*
X50784285Y-58481904D01*
X50841428Y-58520000D01*
X50870000Y-58558095D01*
X50898571Y-58634285D01*
X50927142Y-58786666D01*
X50927142Y-58977142D01*
X50898571Y-59129523D01*
X50870000Y-59205714D01*
X50841428Y-59243809D01*
X50784285Y-59281904D01*
X50727142Y-59281904D01*
X50670000Y-59243809D01*
X50641428Y-59205714D01*
X50612857Y-59129523D01*
X50584285Y-58977142D01*
X50584285Y-58786666D01*
X50612857Y-58634285D01*
X50641428Y-58558095D01*
X50670000Y-58520000D01*
X50727142Y-58481904D01*
%TO.C,D7*%
X43757142Y-60611904D02*
X43757142Y-59811904D01*
X43900000Y-59811904D01*
X43985714Y-59850000D01*
X44042857Y-59926190D01*
X44071428Y-60002380D01*
X44100000Y-60154761D01*
X44100000Y-60269047D01*
X44071428Y-60421428D01*
X44042857Y-60497619D01*
X43985714Y-60573809D01*
X43900000Y-60611904D01*
X43757142Y-60611904D01*
X44300000Y-59811904D02*
X44700000Y-59811904D01*
X44442857Y-60611904D01*
%TO.C,D6*%
X54761904Y-58282857D02*
X53961904Y-58282857D01*
X53961904Y-58140000D01*
X54000000Y-58054285D01*
X54076190Y-57997142D01*
X54152380Y-57968571D01*
X54304761Y-57940000D01*
X54419047Y-57940000D01*
X54571428Y-57968571D01*
X54647619Y-57997142D01*
X54723809Y-58054285D01*
X54761904Y-58140000D01*
X54761904Y-58282857D01*
X53961904Y-57425714D02*
X53961904Y-57540000D01*
X54000000Y-57597142D01*
X54038095Y-57625714D01*
X54152380Y-57682857D01*
X54304761Y-57711428D01*
X54609523Y-57711428D01*
X54685714Y-57682857D01*
X54723809Y-57654285D01*
X54761904Y-57597142D01*
X54761904Y-57482857D01*
X54723809Y-57425714D01*
X54685714Y-57397142D01*
X54609523Y-57368571D01*
X54419047Y-57368571D01*
X54342857Y-57397142D01*
X54304761Y-57425714D01*
X54266666Y-57482857D01*
X54266666Y-57597142D01*
X54304761Y-57654285D01*
X54342857Y-57682857D01*
X54419047Y-57711428D01*
%TO.C,D5*%
X45857142Y-61691904D02*
X45857142Y-60891904D01*
X46000000Y-60891904D01*
X46085714Y-60930000D01*
X46142857Y-61006190D01*
X46171428Y-61082380D01*
X46200000Y-61234761D01*
X46200000Y-61349047D01*
X46171428Y-61501428D01*
X46142857Y-61577619D01*
X46085714Y-61653809D01*
X46000000Y-61691904D01*
X45857142Y-61691904D01*
X46742857Y-60891904D02*
X46457142Y-60891904D01*
X46428571Y-61272857D01*
X46457142Y-61234761D01*
X46514285Y-61196666D01*
X46657142Y-61196666D01*
X46714285Y-61234761D01*
X46742857Y-61272857D01*
X46771428Y-61349047D01*
X46771428Y-61539523D01*
X46742857Y-61615714D01*
X46714285Y-61653809D01*
X46657142Y-61691904D01*
X46514285Y-61691904D01*
X46457142Y-61653809D01*
X46428571Y-61615714D01*
%TO.C,Y1*%
X61814285Y-81540952D02*
X61814285Y-81921904D01*
X61614285Y-81121904D02*
X61814285Y-81540952D01*
X62014285Y-81121904D01*
X62528571Y-81921904D02*
X62185714Y-81921904D01*
X62357142Y-81921904D02*
X62357142Y-81121904D01*
X62300000Y-81236190D01*
X62242857Y-81312380D01*
X62185714Y-81350476D01*
%TO.C,U4*%
X81442857Y-82461904D02*
X81442857Y-83109523D01*
X81471428Y-83185714D01*
X81500000Y-83223809D01*
X81557142Y-83261904D01*
X81671428Y-83261904D01*
X81728571Y-83223809D01*
X81757142Y-83185714D01*
X81785714Y-83109523D01*
X81785714Y-82461904D01*
X82328571Y-82728571D02*
X82328571Y-83261904D01*
X82185714Y-82423809D02*
X82042857Y-82995238D01*
X82414285Y-82995238D01*
%TO.C,U7*%
X74842857Y-78911904D02*
X74842857Y-79559523D01*
X74871428Y-79635714D01*
X74900000Y-79673809D01*
X74957142Y-79711904D01*
X75071428Y-79711904D01*
X75128571Y-79673809D01*
X75157142Y-79635714D01*
X75185714Y-79559523D01*
X75185714Y-78911904D01*
X75414285Y-78911904D02*
X75814285Y-78911904D01*
X75557142Y-79711904D01*
%TO.C,J4*%
X86100000Y-55511904D02*
X86100000Y-56083333D01*
X86071428Y-56197619D01*
X86014285Y-56273809D01*
X85928571Y-56311904D01*
X85871428Y-56311904D01*
X86642857Y-55778571D02*
X86642857Y-56311904D01*
X86500000Y-55473809D02*
X86357142Y-56045238D01*
X86728571Y-56045238D01*
%TO.C,U3*%
X88942857Y-79061904D02*
X88942857Y-79709523D01*
X88971428Y-79785714D01*
X89000000Y-79823809D01*
X89057142Y-79861904D01*
X89171428Y-79861904D01*
X89228571Y-79823809D01*
X89257142Y-79785714D01*
X89285714Y-79709523D01*
X89285714Y-79061904D01*
X89514285Y-79061904D02*
X89885714Y-79061904D01*
X89685714Y-79366666D01*
X89771428Y-79366666D01*
X89828571Y-79404761D01*
X89857142Y-79442857D01*
X89885714Y-79519047D01*
X89885714Y-79709523D01*
X89857142Y-79785714D01*
X89828571Y-79823809D01*
X89771428Y-79861904D01*
X89600000Y-79861904D01*
X89542857Y-79823809D01*
X89514285Y-79785714D01*
%TO.C,U11*%
X65632142Y-51511904D02*
X65632142Y-52159523D01*
X65660714Y-52235714D01*
X65689285Y-52273809D01*
X65746428Y-52311904D01*
X65860714Y-52311904D01*
X65917857Y-52273809D01*
X65946428Y-52235714D01*
X65975000Y-52159523D01*
X65975000Y-51511904D01*
X66575000Y-52311904D02*
X66232142Y-52311904D01*
X66403571Y-52311904D02*
X66403571Y-51511904D01*
X66346428Y-51626190D01*
X66289285Y-51702380D01*
X66232142Y-51740476D01*
X67146428Y-52311904D02*
X66803571Y-52311904D01*
X66975000Y-52311904D02*
X66975000Y-51511904D01*
X66917857Y-51626190D01*
X66860714Y-51702380D01*
X66803571Y-51740476D01*
%TO.C,R5*%
X49425000Y-63736904D02*
X49225000Y-63355952D01*
X49082142Y-63736904D02*
X49082142Y-62936904D01*
X49310714Y-62936904D01*
X49367857Y-62975000D01*
X49396428Y-63013095D01*
X49425000Y-63089285D01*
X49425000Y-63203571D01*
X49396428Y-63279761D01*
X49367857Y-63317857D01*
X49310714Y-63355952D01*
X49082142Y-63355952D01*
X49967857Y-62936904D02*
X49682142Y-62936904D01*
X49653571Y-63317857D01*
X49682142Y-63279761D01*
X49739285Y-63241666D01*
X49882142Y-63241666D01*
X49939285Y-63279761D01*
X49967857Y-63317857D01*
X49996428Y-63394047D01*
X49996428Y-63584523D01*
X49967857Y-63660714D01*
X49939285Y-63698809D01*
X49882142Y-63736904D01*
X49739285Y-63736904D01*
X49682142Y-63698809D01*
X49653571Y-63660714D01*
%TO.C,R3*%
X48411904Y-60350000D02*
X48030952Y-60550000D01*
X48411904Y-60692857D02*
X47611904Y-60692857D01*
X47611904Y-60464285D01*
X47650000Y-60407142D01*
X47688095Y-60378571D01*
X47764285Y-60350000D01*
X47878571Y-60350000D01*
X47954761Y-60378571D01*
X47992857Y-60407142D01*
X48030952Y-60464285D01*
X48030952Y-60692857D01*
X47611904Y-60150000D02*
X47611904Y-59778571D01*
X47916666Y-59978571D01*
X47916666Y-59892857D01*
X47954761Y-59835714D01*
X47992857Y-59807142D01*
X48069047Y-59778571D01*
X48259523Y-59778571D01*
X48335714Y-59807142D01*
X48373809Y-59835714D01*
X48411904Y-59892857D01*
X48411904Y-60064285D01*
X48373809Y-60121428D01*
X48335714Y-60150000D01*
%TO.C,C2*%
X51185714Y-60860000D02*
X51223809Y-60888571D01*
X51261904Y-60974285D01*
X51261904Y-61031428D01*
X51223809Y-61117142D01*
X51147619Y-61174285D01*
X51071428Y-61202857D01*
X50919047Y-61231428D01*
X50804761Y-61231428D01*
X50652380Y-61202857D01*
X50576190Y-61174285D01*
X50500000Y-61117142D01*
X50461904Y-61031428D01*
X50461904Y-60974285D01*
X50500000Y-60888571D01*
X50538095Y-60860000D01*
X50538095Y-60631428D02*
X50500000Y-60602857D01*
X50461904Y-60545714D01*
X50461904Y-60402857D01*
X50500000Y-60345714D01*
X50538095Y-60317142D01*
X50614285Y-60288571D01*
X50690476Y-60288571D01*
X50804761Y-60317142D01*
X51261904Y-60660000D01*
X51261904Y-60288571D01*
%TO.C,C1*%
X61535714Y-72000000D02*
X61573809Y-72028571D01*
X61611904Y-72114285D01*
X61611904Y-72171428D01*
X61573809Y-72257142D01*
X61497619Y-72314285D01*
X61421428Y-72342857D01*
X61269047Y-72371428D01*
X61154761Y-72371428D01*
X61002380Y-72342857D01*
X60926190Y-72314285D01*
X60850000Y-72257142D01*
X60811904Y-72171428D01*
X60811904Y-72114285D01*
X60850000Y-72028571D01*
X60888095Y-72000000D01*
X61611904Y-71428571D02*
X61611904Y-71771428D01*
X61611904Y-71600000D02*
X60811904Y-71600000D01*
X60926190Y-71657142D01*
X61002380Y-71714285D01*
X61040476Y-71771428D01*
%TO.C,C3*%
X58485714Y-79410000D02*
X58523809Y-79438571D01*
X58561904Y-79524285D01*
X58561904Y-79581428D01*
X58523809Y-79667142D01*
X58447619Y-79724285D01*
X58371428Y-79752857D01*
X58219047Y-79781428D01*
X58104761Y-79781428D01*
X57952380Y-79752857D01*
X57876190Y-79724285D01*
X57800000Y-79667142D01*
X57761904Y-79581428D01*
X57761904Y-79524285D01*
X57800000Y-79438571D01*
X57838095Y-79410000D01*
X57761904Y-79210000D02*
X57761904Y-78838571D01*
X58066666Y-79038571D01*
X58066666Y-78952857D01*
X58104761Y-78895714D01*
X58142857Y-78867142D01*
X58219047Y-78838571D01*
X58409523Y-78838571D01*
X58485714Y-78867142D01*
X58523809Y-78895714D01*
X58561904Y-78952857D01*
X58561904Y-79124285D01*
X58523809Y-79181428D01*
X58485714Y-79210000D01*
%TO.C,C4*%
X59535714Y-79410000D02*
X59573809Y-79438571D01*
X59611904Y-79524285D01*
X59611904Y-79581428D01*
X59573809Y-79667142D01*
X59497619Y-79724285D01*
X59421428Y-79752857D01*
X59269047Y-79781428D01*
X59154761Y-79781428D01*
X59002380Y-79752857D01*
X58926190Y-79724285D01*
X58850000Y-79667142D01*
X58811904Y-79581428D01*
X58811904Y-79524285D01*
X58850000Y-79438571D01*
X58888095Y-79410000D01*
X59078571Y-78895714D02*
X59611904Y-78895714D01*
X58773809Y-79038571D02*
X59345238Y-79181428D01*
X59345238Y-78810000D01*
%TO.C,C5*%
X57200000Y-71385714D02*
X57171428Y-71423809D01*
X57085714Y-71461904D01*
X57028571Y-71461904D01*
X56942857Y-71423809D01*
X56885714Y-71347619D01*
X56857142Y-71271428D01*
X56828571Y-71119047D01*
X56828571Y-71004761D01*
X56857142Y-70852380D01*
X56885714Y-70776190D01*
X56942857Y-70700000D01*
X57028571Y-70661904D01*
X57085714Y-70661904D01*
X57171428Y-70700000D01*
X57200000Y-70738095D01*
X57742857Y-70661904D02*
X57457142Y-70661904D01*
X57428571Y-71042857D01*
X57457142Y-71004761D01*
X57514285Y-70966666D01*
X57657142Y-70966666D01*
X57714285Y-71004761D01*
X57742857Y-71042857D01*
X57771428Y-71119047D01*
X57771428Y-71309523D01*
X57742857Y-71385714D01*
X57714285Y-71423809D01*
X57657142Y-71461904D01*
X57514285Y-71461904D01*
X57457142Y-71423809D01*
X57428571Y-71385714D01*
%TO.C,C6*%
X60750000Y-79135714D02*
X60721428Y-79173809D01*
X60635714Y-79211904D01*
X60578571Y-79211904D01*
X60492857Y-79173809D01*
X60435714Y-79097619D01*
X60407142Y-79021428D01*
X60378571Y-78869047D01*
X60378571Y-78754761D01*
X60407142Y-78602380D01*
X60435714Y-78526190D01*
X60492857Y-78450000D01*
X60578571Y-78411904D01*
X60635714Y-78411904D01*
X60721428Y-78450000D01*
X60750000Y-78488095D01*
X61264285Y-78411904D02*
X61150000Y-78411904D01*
X61092857Y-78450000D01*
X61064285Y-78488095D01*
X61007142Y-78602380D01*
X60978571Y-78754761D01*
X60978571Y-79059523D01*
X61007142Y-79135714D01*
X61035714Y-79173809D01*
X61092857Y-79211904D01*
X61207142Y-79211904D01*
X61264285Y-79173809D01*
X61292857Y-79135714D01*
X61321428Y-79059523D01*
X61321428Y-78869047D01*
X61292857Y-78792857D01*
X61264285Y-78754761D01*
X61207142Y-78716666D01*
X61092857Y-78716666D01*
X61035714Y-78754761D01*
X61007142Y-78792857D01*
X60978571Y-78869047D01*
%TO.C,C7*%
X59100000Y-83535714D02*
X59071428Y-83573809D01*
X58985714Y-83611904D01*
X58928571Y-83611904D01*
X58842857Y-83573809D01*
X58785714Y-83497619D01*
X58757142Y-83421428D01*
X58728571Y-83269047D01*
X58728571Y-83154761D01*
X58757142Y-83002380D01*
X58785714Y-82926190D01*
X58842857Y-82850000D01*
X58928571Y-82811904D01*
X58985714Y-82811904D01*
X59071428Y-82850000D01*
X59100000Y-82888095D01*
X59300000Y-82811904D02*
X59700000Y-82811904D01*
X59442857Y-83611904D01*
%TO.C,C8*%
X87500000Y-83985714D02*
X87471428Y-84023809D01*
X87385714Y-84061904D01*
X87328571Y-84061904D01*
X87242857Y-84023809D01*
X87185714Y-83947619D01*
X87157142Y-83871428D01*
X87128571Y-83719047D01*
X87128571Y-83604761D01*
X87157142Y-83452380D01*
X87185714Y-83376190D01*
X87242857Y-83300000D01*
X87328571Y-83261904D01*
X87385714Y-83261904D01*
X87471428Y-83300000D01*
X87500000Y-83338095D01*
X87842857Y-83604761D02*
X87785714Y-83566666D01*
X87757142Y-83528571D01*
X87728571Y-83452380D01*
X87728571Y-83414285D01*
X87757142Y-83338095D01*
X87785714Y-83300000D01*
X87842857Y-83261904D01*
X87957142Y-83261904D01*
X88014285Y-83300000D01*
X88042857Y-83338095D01*
X88071428Y-83414285D01*
X88071428Y-83452380D01*
X88042857Y-83528571D01*
X88014285Y-83566666D01*
X87957142Y-83604761D01*
X87842857Y-83604761D01*
X87785714Y-83642857D01*
X87757142Y-83680952D01*
X87728571Y-83757142D01*
X87728571Y-83909523D01*
X87757142Y-83985714D01*
X87785714Y-84023809D01*
X87842857Y-84061904D01*
X87957142Y-84061904D01*
X88014285Y-84023809D01*
X88042857Y-83985714D01*
X88071428Y-83909523D01*
X88071428Y-83757142D01*
X88042857Y-83680952D01*
X88014285Y-83642857D01*
X87957142Y-83604761D01*
%TO.C,C9*%
X84585714Y-79950000D02*
X84623809Y-79978571D01*
X84661904Y-80064285D01*
X84661904Y-80121428D01*
X84623809Y-80207142D01*
X84547619Y-80264285D01*
X84471428Y-80292857D01*
X84319047Y-80321428D01*
X84204761Y-80321428D01*
X84052380Y-80292857D01*
X83976190Y-80264285D01*
X83900000Y-80207142D01*
X83861904Y-80121428D01*
X83861904Y-80064285D01*
X83900000Y-79978571D01*
X83938095Y-79950000D01*
X84661904Y-79664285D02*
X84661904Y-79550000D01*
X84623809Y-79492857D01*
X84585714Y-79464285D01*
X84471428Y-79407142D01*
X84319047Y-79378571D01*
X84014285Y-79378571D01*
X83938095Y-79407142D01*
X83900000Y-79435714D01*
X83861904Y-79492857D01*
X83861904Y-79607142D01*
X83900000Y-79664285D01*
X83938095Y-79692857D01*
X84014285Y-79721428D01*
X84204761Y-79721428D01*
X84280952Y-79692857D01*
X84319047Y-79664285D01*
X84357142Y-79607142D01*
X84357142Y-79492857D01*
X84319047Y-79435714D01*
X84280952Y-79407142D01*
X84204761Y-79378571D01*
%TO.C,C10*%
X78935714Y-80735714D02*
X78973809Y-80764285D01*
X79011904Y-80850000D01*
X79011904Y-80907142D01*
X78973809Y-80992857D01*
X78897619Y-81050000D01*
X78821428Y-81078571D01*
X78669047Y-81107142D01*
X78554761Y-81107142D01*
X78402380Y-81078571D01*
X78326190Y-81050000D01*
X78250000Y-80992857D01*
X78211904Y-80907142D01*
X78211904Y-80850000D01*
X78250000Y-80764285D01*
X78288095Y-80735714D01*
X79011904Y-80164285D02*
X79011904Y-80507142D01*
X79011904Y-80335714D02*
X78211904Y-80335714D01*
X78326190Y-80392857D01*
X78402380Y-80450000D01*
X78440476Y-80507142D01*
X78211904Y-79792857D02*
X78211904Y-79735714D01*
X78250000Y-79678571D01*
X78288095Y-79650000D01*
X78364285Y-79621428D01*
X78516666Y-79592857D01*
X78707142Y-79592857D01*
X78859523Y-79621428D01*
X78935714Y-79650000D01*
X78973809Y-79678571D01*
X79011904Y-79735714D01*
X79011904Y-79792857D01*
X78973809Y-79850000D01*
X78935714Y-79878571D01*
X78859523Y-79907142D01*
X78707142Y-79935714D01*
X78516666Y-79935714D01*
X78364285Y-79907142D01*
X78288095Y-79878571D01*
X78250000Y-79850000D01*
X78211904Y-79792857D01*
%TO.C,C11*%
X68135714Y-64535714D02*
X68173809Y-64564285D01*
X68211904Y-64650000D01*
X68211904Y-64707142D01*
X68173809Y-64792857D01*
X68097619Y-64850000D01*
X68021428Y-64878571D01*
X67869047Y-64907142D01*
X67754761Y-64907142D01*
X67602380Y-64878571D01*
X67526190Y-64850000D01*
X67450000Y-64792857D01*
X67411904Y-64707142D01*
X67411904Y-64650000D01*
X67450000Y-64564285D01*
X67488095Y-64535714D01*
X68211904Y-63964285D02*
X68211904Y-64307142D01*
X68211904Y-64135714D02*
X67411904Y-64135714D01*
X67526190Y-64192857D01*
X67602380Y-64250000D01*
X67640476Y-64307142D01*
X68211904Y-63392857D02*
X68211904Y-63735714D01*
X68211904Y-63564285D02*
X67411904Y-63564285D01*
X67526190Y-63621428D01*
X67602380Y-63678571D01*
X67640476Y-63735714D01*
%TO.C,C12*%
X71274285Y-69835714D02*
X71245714Y-69873809D01*
X71160000Y-69911904D01*
X71102857Y-69911904D01*
X71017142Y-69873809D01*
X70960000Y-69797619D01*
X70931428Y-69721428D01*
X70902857Y-69569047D01*
X70902857Y-69454761D01*
X70931428Y-69302380D01*
X70960000Y-69226190D01*
X71017142Y-69150000D01*
X71102857Y-69111904D01*
X71160000Y-69111904D01*
X71245714Y-69150000D01*
X71274285Y-69188095D01*
X71845714Y-69911904D02*
X71502857Y-69911904D01*
X71674285Y-69911904D02*
X71674285Y-69111904D01*
X71617142Y-69226190D01*
X71560000Y-69302380D01*
X71502857Y-69340476D01*
X72074285Y-69188095D02*
X72102857Y-69150000D01*
X72160000Y-69111904D01*
X72302857Y-69111904D01*
X72360000Y-69150000D01*
X72388571Y-69188095D01*
X72417142Y-69264285D01*
X72417142Y-69340476D01*
X72388571Y-69454761D01*
X72045714Y-69911904D01*
X72417142Y-69911904D01*
%TO.C,C13*%
X67414285Y-69410714D02*
X67385714Y-69448809D01*
X67300000Y-69486904D01*
X67242857Y-69486904D01*
X67157142Y-69448809D01*
X67100000Y-69372619D01*
X67071428Y-69296428D01*
X67042857Y-69144047D01*
X67042857Y-69029761D01*
X67071428Y-68877380D01*
X67100000Y-68801190D01*
X67157142Y-68725000D01*
X67242857Y-68686904D01*
X67300000Y-68686904D01*
X67385714Y-68725000D01*
X67414285Y-68763095D01*
X67985714Y-69486904D02*
X67642857Y-69486904D01*
X67814285Y-69486904D02*
X67814285Y-68686904D01*
X67757142Y-68801190D01*
X67700000Y-68877380D01*
X67642857Y-68915476D01*
X68185714Y-68686904D02*
X68557142Y-68686904D01*
X68357142Y-68991666D01*
X68442857Y-68991666D01*
X68500000Y-69029761D01*
X68528571Y-69067857D01*
X68557142Y-69144047D01*
X68557142Y-69334523D01*
X68528571Y-69410714D01*
X68500000Y-69448809D01*
X68442857Y-69486904D01*
X68271428Y-69486904D01*
X68214285Y-69448809D01*
X68185714Y-69410714D01*
%TO.C,C14*%
X63014285Y-75385714D02*
X62985714Y-75423809D01*
X62900000Y-75461904D01*
X62842857Y-75461904D01*
X62757142Y-75423809D01*
X62700000Y-75347619D01*
X62671428Y-75271428D01*
X62642857Y-75119047D01*
X62642857Y-75004761D01*
X62671428Y-74852380D01*
X62700000Y-74776190D01*
X62757142Y-74700000D01*
X62842857Y-74661904D01*
X62900000Y-74661904D01*
X62985714Y-74700000D01*
X63014285Y-74738095D01*
X63585714Y-75461904D02*
X63242857Y-75461904D01*
X63414285Y-75461904D02*
X63414285Y-74661904D01*
X63357142Y-74776190D01*
X63300000Y-74852380D01*
X63242857Y-74890476D01*
X64100000Y-74928571D02*
X64100000Y-75461904D01*
X63957142Y-74623809D02*
X63814285Y-75195238D01*
X64185714Y-75195238D01*
%TO.C,C15*%
X63014285Y-72585714D02*
X62985714Y-72623809D01*
X62900000Y-72661904D01*
X62842857Y-72661904D01*
X62757142Y-72623809D01*
X62700000Y-72547619D01*
X62671428Y-72471428D01*
X62642857Y-72319047D01*
X62642857Y-72204761D01*
X62671428Y-72052380D01*
X62700000Y-71976190D01*
X62757142Y-71900000D01*
X62842857Y-71861904D01*
X62900000Y-71861904D01*
X62985714Y-71900000D01*
X63014285Y-71938095D01*
X63585714Y-72661904D02*
X63242857Y-72661904D01*
X63414285Y-72661904D02*
X63414285Y-71861904D01*
X63357142Y-71976190D01*
X63300000Y-72052380D01*
X63242857Y-72090476D01*
X64128571Y-71861904D02*
X63842857Y-71861904D01*
X63814285Y-72242857D01*
X63842857Y-72204761D01*
X63900000Y-72166666D01*
X64042857Y-72166666D01*
X64100000Y-72204761D01*
X64128571Y-72242857D01*
X64157142Y-72319047D01*
X64157142Y-72509523D01*
X64128571Y-72585714D01*
X64100000Y-72623809D01*
X64042857Y-72661904D01*
X63900000Y-72661904D01*
X63842857Y-72623809D01*
X63814285Y-72585714D01*
%TO.C,C16*%
X72685714Y-76335714D02*
X72723809Y-76364285D01*
X72761904Y-76450000D01*
X72761904Y-76507142D01*
X72723809Y-76592857D01*
X72647619Y-76650000D01*
X72571428Y-76678571D01*
X72419047Y-76707142D01*
X72304761Y-76707142D01*
X72152380Y-76678571D01*
X72076190Y-76650000D01*
X72000000Y-76592857D01*
X71961904Y-76507142D01*
X71961904Y-76450000D01*
X72000000Y-76364285D01*
X72038095Y-76335714D01*
X72761904Y-75764285D02*
X72761904Y-76107142D01*
X72761904Y-75935714D02*
X71961904Y-75935714D01*
X72076190Y-75992857D01*
X72152380Y-76050000D01*
X72190476Y-76107142D01*
X71961904Y-75250000D02*
X71961904Y-75364285D01*
X72000000Y-75421428D01*
X72038095Y-75450000D01*
X72152380Y-75507142D01*
X72304761Y-75535714D01*
X72609523Y-75535714D01*
X72685714Y-75507142D01*
X72723809Y-75478571D01*
X72761904Y-75421428D01*
X72761904Y-75307142D01*
X72723809Y-75250000D01*
X72685714Y-75221428D01*
X72609523Y-75192857D01*
X72419047Y-75192857D01*
X72342857Y-75221428D01*
X72304761Y-75250000D01*
X72266666Y-75307142D01*
X72266666Y-75421428D01*
X72304761Y-75478571D01*
X72342857Y-75507142D01*
X72419047Y-75535714D01*
%TO.C,C17*%
X64485714Y-78910714D02*
X64523809Y-78939285D01*
X64561904Y-79025000D01*
X64561904Y-79082142D01*
X64523809Y-79167857D01*
X64447619Y-79225000D01*
X64371428Y-79253571D01*
X64219047Y-79282142D01*
X64104761Y-79282142D01*
X63952380Y-79253571D01*
X63876190Y-79225000D01*
X63800000Y-79167857D01*
X63761904Y-79082142D01*
X63761904Y-79025000D01*
X63800000Y-78939285D01*
X63838095Y-78910714D01*
X64561904Y-78339285D02*
X64561904Y-78682142D01*
X64561904Y-78510714D02*
X63761904Y-78510714D01*
X63876190Y-78567857D01*
X63952380Y-78625000D01*
X63990476Y-78682142D01*
X63761904Y-78139285D02*
X63761904Y-77739285D01*
X64561904Y-77996428D01*
%TO.C,C18*%
X72114285Y-56435714D02*
X72085714Y-56473809D01*
X72000000Y-56511904D01*
X71942857Y-56511904D01*
X71857142Y-56473809D01*
X71800000Y-56397619D01*
X71771428Y-56321428D01*
X71742857Y-56169047D01*
X71742857Y-56054761D01*
X71771428Y-55902380D01*
X71800000Y-55826190D01*
X71857142Y-55750000D01*
X71942857Y-55711904D01*
X72000000Y-55711904D01*
X72085714Y-55750000D01*
X72114285Y-55788095D01*
X72685714Y-56511904D02*
X72342857Y-56511904D01*
X72514285Y-56511904D02*
X72514285Y-55711904D01*
X72457142Y-55826190D01*
X72400000Y-55902380D01*
X72342857Y-55940476D01*
X73028571Y-56054761D02*
X72971428Y-56016666D01*
X72942857Y-55978571D01*
X72914285Y-55902380D01*
X72914285Y-55864285D01*
X72942857Y-55788095D01*
X72971428Y-55750000D01*
X73028571Y-55711904D01*
X73142857Y-55711904D01*
X73200000Y-55750000D01*
X73228571Y-55788095D01*
X73257142Y-55864285D01*
X73257142Y-55902380D01*
X73228571Y-55978571D01*
X73200000Y-56016666D01*
X73142857Y-56054761D01*
X73028571Y-56054761D01*
X72971428Y-56092857D01*
X72942857Y-56130952D01*
X72914285Y-56207142D01*
X72914285Y-56359523D01*
X72942857Y-56435714D01*
X72971428Y-56473809D01*
X73028571Y-56511904D01*
X73142857Y-56511904D01*
X73200000Y-56473809D01*
X73228571Y-56435714D01*
X73257142Y-56359523D01*
X73257142Y-56207142D01*
X73228571Y-56130952D01*
X73200000Y-56092857D01*
X73142857Y-56054761D01*
%TO.C,C19*%
X64364285Y-59285714D02*
X64335714Y-59323809D01*
X64250000Y-59361904D01*
X64192857Y-59361904D01*
X64107142Y-59323809D01*
X64050000Y-59247619D01*
X64021428Y-59171428D01*
X63992857Y-59019047D01*
X63992857Y-58904761D01*
X64021428Y-58752380D01*
X64050000Y-58676190D01*
X64107142Y-58600000D01*
X64192857Y-58561904D01*
X64250000Y-58561904D01*
X64335714Y-58600000D01*
X64364285Y-58638095D01*
X64935714Y-59361904D02*
X64592857Y-59361904D01*
X64764285Y-59361904D02*
X64764285Y-58561904D01*
X64707142Y-58676190D01*
X64650000Y-58752380D01*
X64592857Y-58790476D01*
X65221428Y-59361904D02*
X65335714Y-59361904D01*
X65392857Y-59323809D01*
X65421428Y-59285714D01*
X65478571Y-59171428D01*
X65507142Y-59019047D01*
X65507142Y-58714285D01*
X65478571Y-58638095D01*
X65450000Y-58600000D01*
X65392857Y-58561904D01*
X65278571Y-58561904D01*
X65221428Y-58600000D01*
X65192857Y-58638095D01*
X65164285Y-58714285D01*
X65164285Y-58904761D01*
X65192857Y-58980952D01*
X65221428Y-59019047D01*
X65278571Y-59057142D01*
X65392857Y-59057142D01*
X65450000Y-59019047D01*
X65478571Y-58980952D01*
X65507142Y-58904761D01*
%TO.C,C20*%
X73864285Y-49485714D02*
X73835714Y-49523809D01*
X73750000Y-49561904D01*
X73692857Y-49561904D01*
X73607142Y-49523809D01*
X73550000Y-49447619D01*
X73521428Y-49371428D01*
X73492857Y-49219047D01*
X73492857Y-49104761D01*
X73521428Y-48952380D01*
X73550000Y-48876190D01*
X73607142Y-48800000D01*
X73692857Y-48761904D01*
X73750000Y-48761904D01*
X73835714Y-48800000D01*
X73864285Y-48838095D01*
X74092857Y-48838095D02*
X74121428Y-48800000D01*
X74178571Y-48761904D01*
X74321428Y-48761904D01*
X74378571Y-48800000D01*
X74407142Y-48838095D01*
X74435714Y-48914285D01*
X74435714Y-48990476D01*
X74407142Y-49104761D01*
X74064285Y-49561904D01*
X74435714Y-49561904D01*
X74807142Y-48761904D02*
X74864285Y-48761904D01*
X74921428Y-48800000D01*
X74950000Y-48838095D01*
X74978571Y-48914285D01*
X75007142Y-49066666D01*
X75007142Y-49257142D01*
X74978571Y-49409523D01*
X74950000Y-49485714D01*
X74921428Y-49523809D01*
X74864285Y-49561904D01*
X74807142Y-49561904D01*
X74750000Y-49523809D01*
X74721428Y-49485714D01*
X74692857Y-49409523D01*
X74664285Y-49257142D01*
X74664285Y-49066666D01*
X74692857Y-48914285D01*
X74721428Y-48838095D01*
X74750000Y-48800000D01*
X74807142Y-48761904D01*
%TO.C,C21*%
X69389285Y-50185714D02*
X69360714Y-50223809D01*
X69275000Y-50261904D01*
X69217857Y-50261904D01*
X69132142Y-50223809D01*
X69075000Y-50147619D01*
X69046428Y-50071428D01*
X69017857Y-49919047D01*
X69017857Y-49804761D01*
X69046428Y-49652380D01*
X69075000Y-49576190D01*
X69132142Y-49500000D01*
X69217857Y-49461904D01*
X69275000Y-49461904D01*
X69360714Y-49500000D01*
X69389285Y-49538095D01*
X69617857Y-49538095D02*
X69646428Y-49500000D01*
X69703571Y-49461904D01*
X69846428Y-49461904D01*
X69903571Y-49500000D01*
X69932142Y-49538095D01*
X69960714Y-49614285D01*
X69960714Y-49690476D01*
X69932142Y-49804761D01*
X69589285Y-50261904D01*
X69960714Y-50261904D01*
X70532142Y-50261904D02*
X70189285Y-50261904D01*
X70360714Y-50261904D02*
X70360714Y-49461904D01*
X70303571Y-49576190D01*
X70246428Y-49652380D01*
X70189285Y-49690476D01*
%TO.C,C22*%
X61964285Y-58785714D02*
X61935714Y-58823809D01*
X61850000Y-58861904D01*
X61792857Y-58861904D01*
X61707142Y-58823809D01*
X61650000Y-58747619D01*
X61621428Y-58671428D01*
X61592857Y-58519047D01*
X61592857Y-58404761D01*
X61621428Y-58252380D01*
X61650000Y-58176190D01*
X61707142Y-58100000D01*
X61792857Y-58061904D01*
X61850000Y-58061904D01*
X61935714Y-58100000D01*
X61964285Y-58138095D01*
X62192857Y-58138095D02*
X62221428Y-58100000D01*
X62278571Y-58061904D01*
X62421428Y-58061904D01*
X62478571Y-58100000D01*
X62507142Y-58138095D01*
X62535714Y-58214285D01*
X62535714Y-58290476D01*
X62507142Y-58404761D01*
X62164285Y-58861904D01*
X62535714Y-58861904D01*
X62764285Y-58138095D02*
X62792857Y-58100000D01*
X62850000Y-58061904D01*
X62992857Y-58061904D01*
X63050000Y-58100000D01*
X63078571Y-58138095D01*
X63107142Y-58214285D01*
X63107142Y-58290476D01*
X63078571Y-58404761D01*
X62735714Y-58861904D01*
X63107142Y-58861904D01*
%TO.C,C23*%
X63364285Y-66485714D02*
X63335714Y-66523809D01*
X63250000Y-66561904D01*
X63192857Y-66561904D01*
X63107142Y-66523809D01*
X63050000Y-66447619D01*
X63021428Y-66371428D01*
X62992857Y-66219047D01*
X62992857Y-66104761D01*
X63021428Y-65952380D01*
X63050000Y-65876190D01*
X63107142Y-65800000D01*
X63192857Y-65761904D01*
X63250000Y-65761904D01*
X63335714Y-65800000D01*
X63364285Y-65838095D01*
X63592857Y-65838095D02*
X63621428Y-65800000D01*
X63678571Y-65761904D01*
X63821428Y-65761904D01*
X63878571Y-65800000D01*
X63907142Y-65838095D01*
X63935714Y-65914285D01*
X63935714Y-65990476D01*
X63907142Y-66104761D01*
X63564285Y-66561904D01*
X63935714Y-66561904D01*
X64135714Y-65761904D02*
X64507142Y-65761904D01*
X64307142Y-66066666D01*
X64392857Y-66066666D01*
X64450000Y-66104761D01*
X64478571Y-66142857D01*
X64507142Y-66219047D01*
X64507142Y-66409523D01*
X64478571Y-66485714D01*
X64450000Y-66523809D01*
X64392857Y-66561904D01*
X64221428Y-66561904D01*
X64164285Y-66523809D01*
X64135714Y-66485714D01*
%TO.C,C24*%
X70185714Y-58985714D02*
X70223809Y-59014285D01*
X70261904Y-59100000D01*
X70261904Y-59157142D01*
X70223809Y-59242857D01*
X70147619Y-59300000D01*
X70071428Y-59328571D01*
X69919047Y-59357142D01*
X69804761Y-59357142D01*
X69652380Y-59328571D01*
X69576190Y-59300000D01*
X69500000Y-59242857D01*
X69461904Y-59157142D01*
X69461904Y-59100000D01*
X69500000Y-59014285D01*
X69538095Y-58985714D01*
X69538095Y-58757142D02*
X69500000Y-58728571D01*
X69461904Y-58671428D01*
X69461904Y-58528571D01*
X69500000Y-58471428D01*
X69538095Y-58442857D01*
X69614285Y-58414285D01*
X69690476Y-58414285D01*
X69804761Y-58442857D01*
X70261904Y-58785714D01*
X70261904Y-58414285D01*
X69728571Y-57900000D02*
X70261904Y-57900000D01*
X69423809Y-58042857D02*
X69995238Y-58185714D01*
X69995238Y-57814285D01*
%TO.C,C25*%
X56385714Y-51635714D02*
X56423809Y-51664285D01*
X56461904Y-51750000D01*
X56461904Y-51807142D01*
X56423809Y-51892857D01*
X56347619Y-51950000D01*
X56271428Y-51978571D01*
X56119047Y-52007142D01*
X56004761Y-52007142D01*
X55852380Y-51978571D01*
X55776190Y-51950000D01*
X55700000Y-51892857D01*
X55661904Y-51807142D01*
X55661904Y-51750000D01*
X55700000Y-51664285D01*
X55738095Y-51635714D01*
X55738095Y-51407142D02*
X55700000Y-51378571D01*
X55661904Y-51321428D01*
X55661904Y-51178571D01*
X55700000Y-51121428D01*
X55738095Y-51092857D01*
X55814285Y-51064285D01*
X55890476Y-51064285D01*
X56004761Y-51092857D01*
X56461904Y-51435714D01*
X56461904Y-51064285D01*
X55661904Y-50521428D02*
X55661904Y-50807142D01*
X56042857Y-50835714D01*
X56004761Y-50807142D01*
X55966666Y-50750000D01*
X55966666Y-50607142D01*
X56004761Y-50550000D01*
X56042857Y-50521428D01*
X56119047Y-50492857D01*
X56309523Y-50492857D01*
X56385714Y-50521428D01*
X56423809Y-50550000D01*
X56461904Y-50607142D01*
X56461904Y-50750000D01*
X56423809Y-50807142D01*
X56385714Y-50835714D01*
%TO.C,C26*%
X58614285Y-49585714D02*
X58585714Y-49623809D01*
X58500000Y-49661904D01*
X58442857Y-49661904D01*
X58357142Y-49623809D01*
X58300000Y-49547619D01*
X58271428Y-49471428D01*
X58242857Y-49319047D01*
X58242857Y-49204761D01*
X58271428Y-49052380D01*
X58300000Y-48976190D01*
X58357142Y-48900000D01*
X58442857Y-48861904D01*
X58500000Y-48861904D01*
X58585714Y-48900000D01*
X58614285Y-48938095D01*
X58842857Y-48938095D02*
X58871428Y-48900000D01*
X58928571Y-48861904D01*
X59071428Y-48861904D01*
X59128571Y-48900000D01*
X59157142Y-48938095D01*
X59185714Y-49014285D01*
X59185714Y-49090476D01*
X59157142Y-49204761D01*
X58814285Y-49661904D01*
X59185714Y-49661904D01*
X59700000Y-48861904D02*
X59585714Y-48861904D01*
X59528571Y-48900000D01*
X59500000Y-48938095D01*
X59442857Y-49052380D01*
X59414285Y-49204761D01*
X59414285Y-49509523D01*
X59442857Y-49585714D01*
X59471428Y-49623809D01*
X59528571Y-49661904D01*
X59642857Y-49661904D01*
X59700000Y-49623809D01*
X59728571Y-49585714D01*
X59757142Y-49509523D01*
X59757142Y-49319047D01*
X59728571Y-49242857D01*
X59700000Y-49204761D01*
X59642857Y-49166666D01*
X59528571Y-49166666D01*
X59471428Y-49204761D01*
X59442857Y-49242857D01*
X59414285Y-49319047D01*
%TO.C,D4*%
X60857142Y-50161904D02*
X60857142Y-49361904D01*
X61000000Y-49361904D01*
X61085714Y-49400000D01*
X61142857Y-49476190D01*
X61171428Y-49552380D01*
X61200000Y-49704761D01*
X61200000Y-49819047D01*
X61171428Y-49971428D01*
X61142857Y-50047619D01*
X61085714Y-50123809D01*
X61000000Y-50161904D01*
X60857142Y-50161904D01*
X61714285Y-49628571D02*
X61714285Y-50161904D01*
X61571428Y-49323809D02*
X61428571Y-49895238D01*
X61800000Y-49895238D01*
%TO.C,U1*%
X58102857Y-75831904D02*
X58102857Y-76479523D01*
X58131428Y-76555714D01*
X58160000Y-76593809D01*
X58217142Y-76631904D01*
X58331428Y-76631904D01*
X58388571Y-76593809D01*
X58417142Y-76555714D01*
X58445714Y-76479523D01*
X58445714Y-75831904D01*
X59045714Y-76631904D02*
X58702857Y-76631904D01*
X58874285Y-76631904D02*
X58874285Y-75831904D01*
X58817142Y-75946190D01*
X58760000Y-76022380D01*
X58702857Y-76060476D01*
%TO.C,J3*%
X44390000Y-71771904D02*
X44390000Y-72343333D01*
X44361428Y-72457619D01*
X44304285Y-72533809D01*
X44218571Y-72571904D01*
X44161428Y-72571904D01*
X44618571Y-71771904D02*
X44990000Y-71771904D01*
X44790000Y-72076666D01*
X44875714Y-72076666D01*
X44932857Y-72114761D01*
X44961428Y-72152857D01*
X44990000Y-72229047D01*
X44990000Y-72419523D01*
X44961428Y-72495714D01*
X44932857Y-72533809D01*
X44875714Y-72571904D01*
X44704285Y-72571904D01*
X44647142Y-72533809D01*
X44618571Y-72495714D01*
%TO.C,L1*%
X71850000Y-51361904D02*
X71564285Y-51361904D01*
X71564285Y-50561904D01*
X72364285Y-51361904D02*
X72021428Y-51361904D01*
X72192857Y-51361904D02*
X72192857Y-50561904D01*
X72135714Y-50676190D01*
X72078571Y-50752380D01*
X72021428Y-50790476D01*
%TO.C,L2*%
X64900000Y-57111904D02*
X64614285Y-57111904D01*
X64614285Y-56311904D01*
X65071428Y-56388095D02*
X65100000Y-56350000D01*
X65157142Y-56311904D01*
X65300000Y-56311904D01*
X65357142Y-56350000D01*
X65385714Y-56388095D01*
X65414285Y-56464285D01*
X65414285Y-56540476D01*
X65385714Y-56654761D01*
X65042857Y-57111904D01*
X65414285Y-57111904D01*
%TO.C,LS1*%
X61661904Y-68185714D02*
X61661904Y-68471428D01*
X60861904Y-68471428D01*
X61623809Y-68014285D02*
X61661904Y-67928571D01*
X61661904Y-67785714D01*
X61623809Y-67728571D01*
X61585714Y-67700000D01*
X61509523Y-67671428D01*
X61433333Y-67671428D01*
X61357142Y-67700000D01*
X61319047Y-67728571D01*
X61280952Y-67785714D01*
X61242857Y-67900000D01*
X61204761Y-67957142D01*
X61166666Y-67985714D01*
X61090476Y-68014285D01*
X61014285Y-68014285D01*
X60938095Y-67985714D01*
X60900000Y-67957142D01*
X60861904Y-67900000D01*
X60861904Y-67757142D01*
X60900000Y-67671428D01*
X61661904Y-67100000D02*
X61661904Y-67442857D01*
X61661904Y-67271428D02*
X60861904Y-67271428D01*
X60976190Y-67328571D01*
X61052380Y-67385714D01*
X61090476Y-67442857D01*
%TO.C,Q1*%
X47392857Y-51263095D02*
X47335714Y-51225000D01*
X47278571Y-51148809D01*
X47192857Y-51034523D01*
X47135714Y-50996428D01*
X47078571Y-50996428D01*
X47107142Y-51186904D02*
X47050000Y-51148809D01*
X46992857Y-51072619D01*
X46964285Y-50920238D01*
X46964285Y-50653571D01*
X46992857Y-50501190D01*
X47050000Y-50425000D01*
X47107142Y-50386904D01*
X47221428Y-50386904D01*
X47278571Y-50425000D01*
X47335714Y-50501190D01*
X47364285Y-50653571D01*
X47364285Y-50920238D01*
X47335714Y-51072619D01*
X47278571Y-51148809D01*
X47221428Y-51186904D01*
X47107142Y-51186904D01*
X47935714Y-51186904D02*
X47592857Y-51186904D01*
X47764285Y-51186904D02*
X47764285Y-50386904D01*
X47707142Y-50501190D01*
X47650000Y-50577380D01*
X47592857Y-50615476D01*
%TO.C,Q2*%
X54838095Y-52457142D02*
X54800000Y-52514285D01*
X54723809Y-52571428D01*
X54609523Y-52657142D01*
X54571428Y-52714285D01*
X54571428Y-52771428D01*
X54761904Y-52742857D02*
X54723809Y-52800000D01*
X54647619Y-52857142D01*
X54495238Y-52885714D01*
X54228571Y-52885714D01*
X54076190Y-52857142D01*
X54000000Y-52800000D01*
X53961904Y-52742857D01*
X53961904Y-52628571D01*
X54000000Y-52571428D01*
X54076190Y-52514285D01*
X54228571Y-52485714D01*
X54495238Y-52485714D01*
X54647619Y-52514285D01*
X54723809Y-52571428D01*
X54761904Y-52628571D01*
X54761904Y-52742857D01*
X54038095Y-52257142D02*
X54000000Y-52228571D01*
X53961904Y-52171428D01*
X53961904Y-52028571D01*
X54000000Y-51971428D01*
X54038095Y-51942857D01*
X54114285Y-51914285D01*
X54190476Y-51914285D01*
X54304761Y-51942857D01*
X54761904Y-52285714D01*
X54761904Y-51914285D01*
%TO.C,Q3*%
X54838095Y-56057142D02*
X54800000Y-56114285D01*
X54723809Y-56171428D01*
X54609523Y-56257142D01*
X54571428Y-56314285D01*
X54571428Y-56371428D01*
X54761904Y-56342857D02*
X54723809Y-56400000D01*
X54647619Y-56457142D01*
X54495238Y-56485714D01*
X54228571Y-56485714D01*
X54076190Y-56457142D01*
X54000000Y-56400000D01*
X53961904Y-56342857D01*
X53961904Y-56228571D01*
X54000000Y-56171428D01*
X54076190Y-56114285D01*
X54228571Y-56085714D01*
X54495238Y-56085714D01*
X54647619Y-56114285D01*
X54723809Y-56171428D01*
X54761904Y-56228571D01*
X54761904Y-56342857D01*
X53961904Y-55885714D02*
X53961904Y-55514285D01*
X54266666Y-55714285D01*
X54266666Y-55628571D01*
X54304761Y-55571428D01*
X54342857Y-55542857D01*
X54419047Y-55514285D01*
X54609523Y-55514285D01*
X54685714Y-55542857D01*
X54723809Y-55571428D01*
X54761904Y-55628571D01*
X54761904Y-55800000D01*
X54723809Y-55857142D01*
X54685714Y-55885714D01*
%TO.C,R1*%
X60651904Y-70550000D02*
X60270952Y-70750000D01*
X60651904Y-70892857D02*
X59851904Y-70892857D01*
X59851904Y-70664285D01*
X59890000Y-70607142D01*
X59928095Y-70578571D01*
X60004285Y-70550000D01*
X60118571Y-70550000D01*
X60194761Y-70578571D01*
X60232857Y-70607142D01*
X60270952Y-70664285D01*
X60270952Y-70892857D01*
X60651904Y-69978571D02*
X60651904Y-70321428D01*
X60651904Y-70150000D02*
X59851904Y-70150000D01*
X59966190Y-70207142D01*
X60042380Y-70264285D01*
X60080476Y-70321428D01*
%TO.C,R2*%
X60511904Y-75150000D02*
X60130952Y-75350000D01*
X60511904Y-75492857D02*
X59711904Y-75492857D01*
X59711904Y-75264285D01*
X59750000Y-75207142D01*
X59788095Y-75178571D01*
X59864285Y-75150000D01*
X59978571Y-75150000D01*
X60054761Y-75178571D01*
X60092857Y-75207142D01*
X60130952Y-75264285D01*
X60130952Y-75492857D01*
X59788095Y-74921428D02*
X59750000Y-74892857D01*
X59711904Y-74835714D01*
X59711904Y-74692857D01*
X59750000Y-74635714D01*
X59788095Y-74607142D01*
X59864285Y-74578571D01*
X59940476Y-74578571D01*
X60054761Y-74607142D01*
X60511904Y-74950000D01*
X60511904Y-74578571D01*
%TO.C,R4*%
X72261904Y-79500000D02*
X71880952Y-79700000D01*
X72261904Y-79842857D02*
X71461904Y-79842857D01*
X71461904Y-79614285D01*
X71500000Y-79557142D01*
X71538095Y-79528571D01*
X71614285Y-79500000D01*
X71728571Y-79500000D01*
X71804761Y-79528571D01*
X71842857Y-79557142D01*
X71880952Y-79614285D01*
X71880952Y-79842857D01*
X71728571Y-78985714D02*
X72261904Y-78985714D01*
X71423809Y-79128571D02*
X71995238Y-79271428D01*
X71995238Y-78900000D01*
%TO.C,R6*%
X49325000Y-50236904D02*
X49125000Y-49855952D01*
X48982142Y-50236904D02*
X48982142Y-49436904D01*
X49210714Y-49436904D01*
X49267857Y-49475000D01*
X49296428Y-49513095D01*
X49325000Y-49589285D01*
X49325000Y-49703571D01*
X49296428Y-49779761D01*
X49267857Y-49817857D01*
X49210714Y-49855952D01*
X48982142Y-49855952D01*
X49839285Y-49436904D02*
X49725000Y-49436904D01*
X49667857Y-49475000D01*
X49639285Y-49513095D01*
X49582142Y-49627380D01*
X49553571Y-49779761D01*
X49553571Y-50084523D01*
X49582142Y-50160714D01*
X49610714Y-50198809D01*
X49667857Y-50236904D01*
X49782142Y-50236904D01*
X49839285Y-50198809D01*
X49867857Y-50160714D01*
X49896428Y-50084523D01*
X49896428Y-49894047D01*
X49867857Y-49817857D01*
X49839285Y-49779761D01*
X49782142Y-49741666D01*
X49667857Y-49741666D01*
X49610714Y-49779761D01*
X49582142Y-49817857D01*
X49553571Y-49894047D01*
%TO.C,R7*%
X73361904Y-79500000D02*
X72980952Y-79700000D01*
X73361904Y-79842857D02*
X72561904Y-79842857D01*
X72561904Y-79614285D01*
X72600000Y-79557142D01*
X72638095Y-79528571D01*
X72714285Y-79500000D01*
X72828571Y-79500000D01*
X72904761Y-79528571D01*
X72942857Y-79557142D01*
X72980952Y-79614285D01*
X72980952Y-79842857D01*
X72561904Y-79300000D02*
X72561904Y-78900000D01*
X73361904Y-79157142D01*
%TO.C,R8*%
X52450000Y-50161904D02*
X52250000Y-49780952D01*
X52107142Y-50161904D02*
X52107142Y-49361904D01*
X52335714Y-49361904D01*
X52392857Y-49400000D01*
X52421428Y-49438095D01*
X52450000Y-49514285D01*
X52450000Y-49628571D01*
X52421428Y-49704761D01*
X52392857Y-49742857D01*
X52335714Y-49780952D01*
X52107142Y-49780952D01*
X52792857Y-49704761D02*
X52735714Y-49666666D01*
X52707142Y-49628571D01*
X52678571Y-49552380D01*
X52678571Y-49514285D01*
X52707142Y-49438095D01*
X52735714Y-49400000D01*
X52792857Y-49361904D01*
X52907142Y-49361904D01*
X52964285Y-49400000D01*
X52992857Y-49438095D01*
X53021428Y-49514285D01*
X53021428Y-49552380D01*
X52992857Y-49628571D01*
X52964285Y-49666666D01*
X52907142Y-49704761D01*
X52792857Y-49704761D01*
X52735714Y-49742857D01*
X52707142Y-49780952D01*
X52678571Y-49857142D01*
X52678571Y-50009523D01*
X52707142Y-50085714D01*
X52735714Y-50123809D01*
X52792857Y-50161904D01*
X52907142Y-50161904D01*
X52964285Y-50123809D01*
X52992857Y-50085714D01*
X53021428Y-50009523D01*
X53021428Y-49857142D01*
X52992857Y-49780952D01*
X52964285Y-49742857D01*
X52907142Y-49704761D01*
%TO.C,R9*%
X49461904Y-57350000D02*
X49080952Y-57550000D01*
X49461904Y-57692857D02*
X48661904Y-57692857D01*
X48661904Y-57464285D01*
X48700000Y-57407142D01*
X48738095Y-57378571D01*
X48814285Y-57350000D01*
X48928571Y-57350000D01*
X49004761Y-57378571D01*
X49042857Y-57407142D01*
X49080952Y-57464285D01*
X49080952Y-57692857D01*
X49461904Y-57064285D02*
X49461904Y-56950000D01*
X49423809Y-56892857D01*
X49385714Y-56864285D01*
X49271428Y-56807142D01*
X49119047Y-56778571D01*
X48814285Y-56778571D01*
X48738095Y-56807142D01*
X48700000Y-56835714D01*
X48661904Y-56892857D01*
X48661904Y-57007142D01*
X48700000Y-57064285D01*
X48738095Y-57092857D01*
X48814285Y-57121428D01*
X49004761Y-57121428D01*
X49080952Y-57092857D01*
X49119047Y-57064285D01*
X49157142Y-57007142D01*
X49157142Y-56892857D01*
X49119047Y-56835714D01*
X49080952Y-56807142D01*
X49004761Y-56778571D01*
%TO.C,R10*%
X65474285Y-84921904D02*
X65274285Y-84540952D01*
X65131428Y-84921904D02*
X65131428Y-84121904D01*
X65360000Y-84121904D01*
X65417142Y-84160000D01*
X65445714Y-84198095D01*
X65474285Y-84274285D01*
X65474285Y-84388571D01*
X65445714Y-84464761D01*
X65417142Y-84502857D01*
X65360000Y-84540952D01*
X65131428Y-84540952D01*
X66045714Y-84921904D02*
X65702857Y-84921904D01*
X65874285Y-84921904D02*
X65874285Y-84121904D01*
X65817142Y-84236190D01*
X65760000Y-84312380D01*
X65702857Y-84350476D01*
X66417142Y-84121904D02*
X66474285Y-84121904D01*
X66531428Y-84160000D01*
X66560000Y-84198095D01*
X66588571Y-84274285D01*
X66617142Y-84426666D01*
X66617142Y-84617142D01*
X66588571Y-84769523D01*
X66560000Y-84845714D01*
X66531428Y-84883809D01*
X66474285Y-84921904D01*
X66417142Y-84921904D01*
X66360000Y-84883809D01*
X66331428Y-84845714D01*
X66302857Y-84769523D01*
X66274285Y-84617142D01*
X66274285Y-84426666D01*
X66302857Y-84274285D01*
X66331428Y-84198095D01*
X66360000Y-84160000D01*
X66417142Y-84121904D01*
%TO.C,R11*%
X75464285Y-84911904D02*
X75264285Y-84530952D01*
X75121428Y-84911904D02*
X75121428Y-84111904D01*
X75350000Y-84111904D01*
X75407142Y-84150000D01*
X75435714Y-84188095D01*
X75464285Y-84264285D01*
X75464285Y-84378571D01*
X75435714Y-84454761D01*
X75407142Y-84492857D01*
X75350000Y-84530952D01*
X75121428Y-84530952D01*
X76035714Y-84911904D02*
X75692857Y-84911904D01*
X75864285Y-84911904D02*
X75864285Y-84111904D01*
X75807142Y-84226190D01*
X75750000Y-84302380D01*
X75692857Y-84340476D01*
X76607142Y-84911904D02*
X76264285Y-84911904D01*
X76435714Y-84911904D02*
X76435714Y-84111904D01*
X76378571Y-84226190D01*
X76321428Y-84302380D01*
X76264285Y-84340476D01*
%TO.C,R12*%
X85464285Y-84911904D02*
X85264285Y-84530952D01*
X85121428Y-84911904D02*
X85121428Y-84111904D01*
X85350000Y-84111904D01*
X85407142Y-84150000D01*
X85435714Y-84188095D01*
X85464285Y-84264285D01*
X85464285Y-84378571D01*
X85435714Y-84454761D01*
X85407142Y-84492857D01*
X85350000Y-84530952D01*
X85121428Y-84530952D01*
X86035714Y-84911904D02*
X85692857Y-84911904D01*
X85864285Y-84911904D02*
X85864285Y-84111904D01*
X85807142Y-84226190D01*
X85750000Y-84302380D01*
X85692857Y-84340476D01*
X86264285Y-84188095D02*
X86292857Y-84150000D01*
X86350000Y-84111904D01*
X86492857Y-84111904D01*
X86550000Y-84150000D01*
X86578571Y-84188095D01*
X86607142Y-84264285D01*
X86607142Y-84340476D01*
X86578571Y-84454761D01*
X86235714Y-84911904D01*
X86607142Y-84911904D01*
%TO.C,R13*%
X71014285Y-63136904D02*
X70814285Y-62755952D01*
X70671428Y-63136904D02*
X70671428Y-62336904D01*
X70900000Y-62336904D01*
X70957142Y-62375000D01*
X70985714Y-62413095D01*
X71014285Y-62489285D01*
X71014285Y-62603571D01*
X70985714Y-62679761D01*
X70957142Y-62717857D01*
X70900000Y-62755952D01*
X70671428Y-62755952D01*
X71585714Y-63136904D02*
X71242857Y-63136904D01*
X71414285Y-63136904D02*
X71414285Y-62336904D01*
X71357142Y-62451190D01*
X71300000Y-62527380D01*
X71242857Y-62565476D01*
X71785714Y-62336904D02*
X72157142Y-62336904D01*
X71957142Y-62641666D01*
X72042857Y-62641666D01*
X72100000Y-62679761D01*
X72128571Y-62717857D01*
X72157142Y-62794047D01*
X72157142Y-62984523D01*
X72128571Y-63060714D01*
X72100000Y-63098809D01*
X72042857Y-63136904D01*
X71871428Y-63136904D01*
X71814285Y-63098809D01*
X71785714Y-63060714D01*
%TO.C,R14*%
X69364285Y-69901904D02*
X69164285Y-69520952D01*
X69021428Y-69901904D02*
X69021428Y-69101904D01*
X69250000Y-69101904D01*
X69307142Y-69140000D01*
X69335714Y-69178095D01*
X69364285Y-69254285D01*
X69364285Y-69368571D01*
X69335714Y-69444761D01*
X69307142Y-69482857D01*
X69250000Y-69520952D01*
X69021428Y-69520952D01*
X69935714Y-69901904D02*
X69592857Y-69901904D01*
X69764285Y-69901904D02*
X69764285Y-69101904D01*
X69707142Y-69216190D01*
X69650000Y-69292380D01*
X69592857Y-69330476D01*
X70450000Y-69368571D02*
X70450000Y-69901904D01*
X70307142Y-69063809D02*
X70164285Y-69635238D01*
X70535714Y-69635238D01*
%TO.C,R15*%
X71636904Y-76135714D02*
X71255952Y-76335714D01*
X71636904Y-76478571D02*
X70836904Y-76478571D01*
X70836904Y-76250000D01*
X70875000Y-76192857D01*
X70913095Y-76164285D01*
X70989285Y-76135714D01*
X71103571Y-76135714D01*
X71179761Y-76164285D01*
X71217857Y-76192857D01*
X71255952Y-76250000D01*
X71255952Y-76478571D01*
X71636904Y-75564285D02*
X71636904Y-75907142D01*
X71636904Y-75735714D02*
X70836904Y-75735714D01*
X70951190Y-75792857D01*
X71027380Y-75850000D01*
X71065476Y-75907142D01*
X70836904Y-75021428D02*
X70836904Y-75307142D01*
X71217857Y-75335714D01*
X71179761Y-75307142D01*
X71141666Y-75250000D01*
X71141666Y-75107142D01*
X71179761Y-75050000D01*
X71217857Y-75021428D01*
X71294047Y-74992857D01*
X71484523Y-74992857D01*
X71560714Y-75021428D01*
X71598809Y-75050000D01*
X71636904Y-75107142D01*
X71636904Y-75250000D01*
X71598809Y-75307142D01*
X71560714Y-75335714D01*
%TO.C,R16*%
X72864285Y-71461904D02*
X72664285Y-71080952D01*
X72521428Y-71461904D02*
X72521428Y-70661904D01*
X72750000Y-70661904D01*
X72807142Y-70700000D01*
X72835714Y-70738095D01*
X72864285Y-70814285D01*
X72864285Y-70928571D01*
X72835714Y-71004761D01*
X72807142Y-71042857D01*
X72750000Y-71080952D01*
X72521428Y-71080952D01*
X73435714Y-71461904D02*
X73092857Y-71461904D01*
X73264285Y-71461904D02*
X73264285Y-70661904D01*
X73207142Y-70776190D01*
X73150000Y-70852380D01*
X73092857Y-70890476D01*
X73950000Y-70661904D02*
X73835714Y-70661904D01*
X73778571Y-70700000D01*
X73750000Y-70738095D01*
X73692857Y-70852380D01*
X73664285Y-71004761D01*
X73664285Y-71309523D01*
X73692857Y-71385714D01*
X73721428Y-71423809D01*
X73778571Y-71461904D01*
X73892857Y-71461904D01*
X73950000Y-71423809D01*
X73978571Y-71385714D01*
X74007142Y-71309523D01*
X74007142Y-71119047D01*
X73978571Y-71042857D01*
X73950000Y-71004761D01*
X73892857Y-70966666D01*
X73778571Y-70966666D01*
X73721428Y-71004761D01*
X73692857Y-71042857D01*
X73664285Y-71119047D01*
%TO.C,R17*%
X65889285Y-76111904D02*
X65689285Y-75730952D01*
X65546428Y-76111904D02*
X65546428Y-75311904D01*
X65775000Y-75311904D01*
X65832142Y-75350000D01*
X65860714Y-75388095D01*
X65889285Y-75464285D01*
X65889285Y-75578571D01*
X65860714Y-75654761D01*
X65832142Y-75692857D01*
X65775000Y-75730952D01*
X65546428Y-75730952D01*
X66460714Y-76111904D02*
X66117857Y-76111904D01*
X66289285Y-76111904D02*
X66289285Y-75311904D01*
X66232142Y-75426190D01*
X66175000Y-75502380D01*
X66117857Y-75540476D01*
X66660714Y-75311904D02*
X67060714Y-75311904D01*
X66803571Y-76111904D01*
%TO.C,R18*%
X79711904Y-55210714D02*
X79330952Y-55410714D01*
X79711904Y-55553571D02*
X78911904Y-55553571D01*
X78911904Y-55325000D01*
X78950000Y-55267857D01*
X78988095Y-55239285D01*
X79064285Y-55210714D01*
X79178571Y-55210714D01*
X79254761Y-55239285D01*
X79292857Y-55267857D01*
X79330952Y-55325000D01*
X79330952Y-55553571D01*
X79711904Y-54639285D02*
X79711904Y-54982142D01*
X79711904Y-54810714D02*
X78911904Y-54810714D01*
X79026190Y-54867857D01*
X79102380Y-54925000D01*
X79140476Y-54982142D01*
X79254761Y-54296428D02*
X79216666Y-54353571D01*
X79178571Y-54382142D01*
X79102380Y-54410714D01*
X79064285Y-54410714D01*
X78988095Y-54382142D01*
X78950000Y-54353571D01*
X78911904Y-54296428D01*
X78911904Y-54182142D01*
X78950000Y-54125000D01*
X78988095Y-54096428D01*
X79064285Y-54067857D01*
X79102380Y-54067857D01*
X79178571Y-54096428D01*
X79216666Y-54125000D01*
X79254761Y-54182142D01*
X79254761Y-54296428D01*
X79292857Y-54353571D01*
X79330952Y-54382142D01*
X79407142Y-54410714D01*
X79559523Y-54410714D01*
X79635714Y-54382142D01*
X79673809Y-54353571D01*
X79711904Y-54296428D01*
X79711904Y-54182142D01*
X79673809Y-54125000D01*
X79635714Y-54096428D01*
X79559523Y-54067857D01*
X79407142Y-54067857D01*
X79330952Y-54096428D01*
X79292857Y-54125000D01*
X79254761Y-54182142D01*
%TO.C,R19*%
X48439285Y-68911904D02*
X48239285Y-68530952D01*
X48096428Y-68911904D02*
X48096428Y-68111904D01*
X48325000Y-68111904D01*
X48382142Y-68150000D01*
X48410714Y-68188095D01*
X48439285Y-68264285D01*
X48439285Y-68378571D01*
X48410714Y-68454761D01*
X48382142Y-68492857D01*
X48325000Y-68530952D01*
X48096428Y-68530952D01*
X49010714Y-68911904D02*
X48667857Y-68911904D01*
X48839285Y-68911904D02*
X48839285Y-68111904D01*
X48782142Y-68226190D01*
X48725000Y-68302380D01*
X48667857Y-68340476D01*
X49296428Y-68911904D02*
X49410714Y-68911904D01*
X49467857Y-68873809D01*
X49496428Y-68835714D01*
X49553571Y-68721428D01*
X49582142Y-68569047D01*
X49582142Y-68264285D01*
X49553571Y-68188095D01*
X49525000Y-68150000D01*
X49467857Y-68111904D01*
X49353571Y-68111904D01*
X49296428Y-68150000D01*
X49267857Y-68188095D01*
X49239285Y-68264285D01*
X49239285Y-68454761D01*
X49267857Y-68530952D01*
X49296428Y-68569047D01*
X49353571Y-68607142D01*
X49467857Y-68607142D01*
X49525000Y-68569047D01*
X49553571Y-68530952D01*
X49582142Y-68454761D01*
%TO.C,R20*%
X48514285Y-65886904D02*
X48314285Y-65505952D01*
X48171428Y-65886904D02*
X48171428Y-65086904D01*
X48400000Y-65086904D01*
X48457142Y-65125000D01*
X48485714Y-65163095D01*
X48514285Y-65239285D01*
X48514285Y-65353571D01*
X48485714Y-65429761D01*
X48457142Y-65467857D01*
X48400000Y-65505952D01*
X48171428Y-65505952D01*
X48742857Y-65163095D02*
X48771428Y-65125000D01*
X48828571Y-65086904D01*
X48971428Y-65086904D01*
X49028571Y-65125000D01*
X49057142Y-65163095D01*
X49085714Y-65239285D01*
X49085714Y-65315476D01*
X49057142Y-65429761D01*
X48714285Y-65886904D01*
X49085714Y-65886904D01*
X49457142Y-65086904D02*
X49514285Y-65086904D01*
X49571428Y-65125000D01*
X49600000Y-65163095D01*
X49628571Y-65239285D01*
X49657142Y-65391666D01*
X49657142Y-65582142D01*
X49628571Y-65734523D01*
X49600000Y-65810714D01*
X49571428Y-65848809D01*
X49514285Y-65886904D01*
X49457142Y-65886904D01*
X49400000Y-65848809D01*
X49371428Y-65810714D01*
X49342857Y-65734523D01*
X49314285Y-65582142D01*
X49314285Y-65391666D01*
X49342857Y-65239285D01*
X49371428Y-65163095D01*
X49400000Y-65125000D01*
X49457142Y-65086904D01*
%TO.C,R21*%
X79761904Y-51185714D02*
X79380952Y-51385714D01*
X79761904Y-51528571D02*
X78961904Y-51528571D01*
X78961904Y-51300000D01*
X79000000Y-51242857D01*
X79038095Y-51214285D01*
X79114285Y-51185714D01*
X79228571Y-51185714D01*
X79304761Y-51214285D01*
X79342857Y-51242857D01*
X79380952Y-51300000D01*
X79380952Y-51528571D01*
X79038095Y-50957142D02*
X79000000Y-50928571D01*
X78961904Y-50871428D01*
X78961904Y-50728571D01*
X79000000Y-50671428D01*
X79038095Y-50642857D01*
X79114285Y-50614285D01*
X79190476Y-50614285D01*
X79304761Y-50642857D01*
X79761904Y-50985714D01*
X79761904Y-50614285D01*
X79761904Y-50042857D02*
X79761904Y-50385714D01*
X79761904Y-50214285D02*
X78961904Y-50214285D01*
X79076190Y-50271428D01*
X79152380Y-50328571D01*
X79190476Y-50385714D01*
%TO.C,R22*%
X80351904Y-52975714D02*
X79970952Y-53175714D01*
X80351904Y-53318571D02*
X79551904Y-53318571D01*
X79551904Y-53090000D01*
X79590000Y-53032857D01*
X79628095Y-53004285D01*
X79704285Y-52975714D01*
X79818571Y-52975714D01*
X79894761Y-53004285D01*
X79932857Y-53032857D01*
X79970952Y-53090000D01*
X79970952Y-53318571D01*
X79628095Y-52747142D02*
X79590000Y-52718571D01*
X79551904Y-52661428D01*
X79551904Y-52518571D01*
X79590000Y-52461428D01*
X79628095Y-52432857D01*
X79704285Y-52404285D01*
X79780476Y-52404285D01*
X79894761Y-52432857D01*
X80351904Y-52775714D01*
X80351904Y-52404285D01*
X79628095Y-52175714D02*
X79590000Y-52147142D01*
X79551904Y-52090000D01*
X79551904Y-51947142D01*
X79590000Y-51890000D01*
X79628095Y-51861428D01*
X79704285Y-51832857D01*
X79780476Y-51832857D01*
X79894761Y-51861428D01*
X80351904Y-52204285D01*
X80351904Y-51832857D01*
%TO.C,R23*%
X69161904Y-58585714D02*
X68780952Y-58785714D01*
X69161904Y-58928571D02*
X68361904Y-58928571D01*
X68361904Y-58700000D01*
X68400000Y-58642857D01*
X68438095Y-58614285D01*
X68514285Y-58585714D01*
X68628571Y-58585714D01*
X68704761Y-58614285D01*
X68742857Y-58642857D01*
X68780952Y-58700000D01*
X68780952Y-58928571D01*
X68438095Y-58357142D02*
X68400000Y-58328571D01*
X68361904Y-58271428D01*
X68361904Y-58128571D01*
X68400000Y-58071428D01*
X68438095Y-58042857D01*
X68514285Y-58014285D01*
X68590476Y-58014285D01*
X68704761Y-58042857D01*
X69161904Y-58385714D01*
X69161904Y-58014285D01*
X68361904Y-57814285D02*
X68361904Y-57442857D01*
X68666666Y-57642857D01*
X68666666Y-57557142D01*
X68704761Y-57500000D01*
X68742857Y-57471428D01*
X68819047Y-57442857D01*
X69009523Y-57442857D01*
X69085714Y-57471428D01*
X69123809Y-57500000D01*
X69161904Y-57557142D01*
X69161904Y-57728571D01*
X69123809Y-57785714D01*
X69085714Y-57814285D01*
%TO.C,R24*%
X68061904Y-58585714D02*
X67680952Y-58785714D01*
X68061904Y-58928571D02*
X67261904Y-58928571D01*
X67261904Y-58700000D01*
X67300000Y-58642857D01*
X67338095Y-58614285D01*
X67414285Y-58585714D01*
X67528571Y-58585714D01*
X67604761Y-58614285D01*
X67642857Y-58642857D01*
X67680952Y-58700000D01*
X67680952Y-58928571D01*
X67338095Y-58357142D02*
X67300000Y-58328571D01*
X67261904Y-58271428D01*
X67261904Y-58128571D01*
X67300000Y-58071428D01*
X67338095Y-58042857D01*
X67414285Y-58014285D01*
X67490476Y-58014285D01*
X67604761Y-58042857D01*
X68061904Y-58385714D01*
X68061904Y-58014285D01*
X67528571Y-57500000D02*
X68061904Y-57500000D01*
X67223809Y-57642857D02*
X67795238Y-57785714D01*
X67795238Y-57414285D01*
%TO.C,R25*%
X67011904Y-62935714D02*
X66630952Y-63135714D01*
X67011904Y-63278571D02*
X66211904Y-63278571D01*
X66211904Y-63050000D01*
X66250000Y-62992857D01*
X66288095Y-62964285D01*
X66364285Y-62935714D01*
X66478571Y-62935714D01*
X66554761Y-62964285D01*
X66592857Y-62992857D01*
X66630952Y-63050000D01*
X66630952Y-63278571D01*
X66288095Y-62707142D02*
X66250000Y-62678571D01*
X66211904Y-62621428D01*
X66211904Y-62478571D01*
X66250000Y-62421428D01*
X66288095Y-62392857D01*
X66364285Y-62364285D01*
X66440476Y-62364285D01*
X66554761Y-62392857D01*
X67011904Y-62735714D01*
X67011904Y-62364285D01*
X66211904Y-61821428D02*
X66211904Y-62107142D01*
X66592857Y-62135714D01*
X66554761Y-62107142D01*
X66516666Y-62050000D01*
X66516666Y-61907142D01*
X66554761Y-61850000D01*
X66592857Y-61821428D01*
X66669047Y-61792857D01*
X66859523Y-61792857D01*
X66935714Y-61821428D01*
X66973809Y-61850000D01*
X67011904Y-61907142D01*
X67011904Y-62050000D01*
X66973809Y-62107142D01*
X66935714Y-62135714D01*
%TO.C,R26*%
X60861904Y-59435714D02*
X60480952Y-59635714D01*
X60861904Y-59778571D02*
X60061904Y-59778571D01*
X60061904Y-59550000D01*
X60100000Y-59492857D01*
X60138095Y-59464285D01*
X60214285Y-59435714D01*
X60328571Y-59435714D01*
X60404761Y-59464285D01*
X60442857Y-59492857D01*
X60480952Y-59550000D01*
X60480952Y-59778571D01*
X60138095Y-59207142D02*
X60100000Y-59178571D01*
X60061904Y-59121428D01*
X60061904Y-58978571D01*
X60100000Y-58921428D01*
X60138095Y-58892857D01*
X60214285Y-58864285D01*
X60290476Y-58864285D01*
X60404761Y-58892857D01*
X60861904Y-59235714D01*
X60861904Y-58864285D01*
X60061904Y-58350000D02*
X60061904Y-58464285D01*
X60100000Y-58521428D01*
X60138095Y-58550000D01*
X60252380Y-58607142D01*
X60404761Y-58635714D01*
X60709523Y-58635714D01*
X60785714Y-58607142D01*
X60823809Y-58578571D01*
X60861904Y-58521428D01*
X60861904Y-58407142D01*
X60823809Y-58350000D01*
X60785714Y-58321428D01*
X60709523Y-58292857D01*
X60519047Y-58292857D01*
X60442857Y-58321428D01*
X60404761Y-58350000D01*
X60366666Y-58407142D01*
X60366666Y-58521428D01*
X60404761Y-58578571D01*
X60442857Y-58607142D01*
X60519047Y-58635714D01*
%TO.C,R27*%
X67439285Y-50161904D02*
X67239285Y-49780952D01*
X67096428Y-50161904D02*
X67096428Y-49361904D01*
X67325000Y-49361904D01*
X67382142Y-49400000D01*
X67410714Y-49438095D01*
X67439285Y-49514285D01*
X67439285Y-49628571D01*
X67410714Y-49704761D01*
X67382142Y-49742857D01*
X67325000Y-49780952D01*
X67096428Y-49780952D01*
X67667857Y-49438095D02*
X67696428Y-49400000D01*
X67753571Y-49361904D01*
X67896428Y-49361904D01*
X67953571Y-49400000D01*
X67982142Y-49438095D01*
X68010714Y-49514285D01*
X68010714Y-49590476D01*
X67982142Y-49704761D01*
X67639285Y-50161904D01*
X68010714Y-50161904D01*
X68210714Y-49361904D02*
X68610714Y-49361904D01*
X68353571Y-50161904D01*
%TO.C,R28*%
X58561904Y-53485714D02*
X58180952Y-53685714D01*
X58561904Y-53828571D02*
X57761904Y-53828571D01*
X57761904Y-53600000D01*
X57800000Y-53542857D01*
X57838095Y-53514285D01*
X57914285Y-53485714D01*
X58028571Y-53485714D01*
X58104761Y-53514285D01*
X58142857Y-53542857D01*
X58180952Y-53600000D01*
X58180952Y-53828571D01*
X57838095Y-53257142D02*
X57800000Y-53228571D01*
X57761904Y-53171428D01*
X57761904Y-53028571D01*
X57800000Y-52971428D01*
X57838095Y-52942857D01*
X57914285Y-52914285D01*
X57990476Y-52914285D01*
X58104761Y-52942857D01*
X58561904Y-53285714D01*
X58561904Y-52914285D01*
X58104761Y-52571428D02*
X58066666Y-52628571D01*
X58028571Y-52657142D01*
X57952380Y-52685714D01*
X57914285Y-52685714D01*
X57838095Y-52657142D01*
X57800000Y-52628571D01*
X57761904Y-52571428D01*
X57761904Y-52457142D01*
X57800000Y-52400000D01*
X57838095Y-52371428D01*
X57914285Y-52342857D01*
X57952380Y-52342857D01*
X58028571Y-52371428D01*
X58066666Y-52400000D01*
X58104761Y-52457142D01*
X58104761Y-52571428D01*
X58142857Y-52628571D01*
X58180952Y-52657142D01*
X58257142Y-52685714D01*
X58409523Y-52685714D01*
X58485714Y-52657142D01*
X58523809Y-52628571D01*
X58561904Y-52571428D01*
X58561904Y-52457142D01*
X58523809Y-52400000D01*
X58485714Y-52371428D01*
X58409523Y-52342857D01*
X58257142Y-52342857D01*
X58180952Y-52371428D01*
X58142857Y-52400000D01*
X58104761Y-52457142D01*
%TO.C,R29*%
X58561904Y-55485714D02*
X58180952Y-55685714D01*
X58561904Y-55828571D02*
X57761904Y-55828571D01*
X57761904Y-55600000D01*
X57800000Y-55542857D01*
X57838095Y-55514285D01*
X57914285Y-55485714D01*
X58028571Y-55485714D01*
X58104761Y-55514285D01*
X58142857Y-55542857D01*
X58180952Y-55600000D01*
X58180952Y-55828571D01*
X57838095Y-55257142D02*
X57800000Y-55228571D01*
X57761904Y-55171428D01*
X57761904Y-55028571D01*
X57800000Y-54971428D01*
X57838095Y-54942857D01*
X57914285Y-54914285D01*
X57990476Y-54914285D01*
X58104761Y-54942857D01*
X58561904Y-55285714D01*
X58561904Y-54914285D01*
X58561904Y-54628571D02*
X58561904Y-54514285D01*
X58523809Y-54457142D01*
X58485714Y-54428571D01*
X58371428Y-54371428D01*
X58219047Y-54342857D01*
X57914285Y-54342857D01*
X57838095Y-54371428D01*
X57800000Y-54400000D01*
X57761904Y-54457142D01*
X57761904Y-54571428D01*
X57800000Y-54628571D01*
X57838095Y-54657142D01*
X57914285Y-54685714D01*
X58104761Y-54685714D01*
X58180952Y-54657142D01*
X58219047Y-54628571D01*
X58257142Y-54571428D01*
X58257142Y-54457142D01*
X58219047Y-54400000D01*
X58180952Y-54371428D01*
X58104761Y-54342857D01*
%TO.C,U2*%
X55852857Y-73761904D02*
X55852857Y-74409523D01*
X55881428Y-74485714D01*
X55910000Y-74523809D01*
X55967142Y-74561904D01*
X56081428Y-74561904D01*
X56138571Y-74523809D01*
X56167142Y-74485714D01*
X56195714Y-74409523D01*
X56195714Y-73761904D01*
X56452857Y-73838095D02*
X56481428Y-73800000D01*
X56538571Y-73761904D01*
X56681428Y-73761904D01*
X56738571Y-73800000D01*
X56767142Y-73838095D01*
X56795714Y-73914285D01*
X56795714Y-73990476D01*
X56767142Y-74104761D01*
X56424285Y-74561904D01*
X56795714Y-74561904D01*
%TO.C,U5*%
X72042857Y-66461904D02*
X72042857Y-67109523D01*
X72071428Y-67185714D01*
X72100000Y-67223809D01*
X72157142Y-67261904D01*
X72271428Y-67261904D01*
X72328571Y-67223809D01*
X72357142Y-67185714D01*
X72385714Y-67109523D01*
X72385714Y-66461904D01*
X72957142Y-66461904D02*
X72671428Y-66461904D01*
X72642857Y-66842857D01*
X72671428Y-66804761D01*
X72728571Y-66766666D01*
X72871428Y-66766666D01*
X72928571Y-66804761D01*
X72957142Y-66842857D01*
X72985714Y-66919047D01*
X72985714Y-67109523D01*
X72957142Y-67185714D01*
X72928571Y-67223809D01*
X72871428Y-67261904D01*
X72728571Y-67261904D01*
X72671428Y-67223809D01*
X72642857Y-67185714D01*
%TO.C,U6*%
X69342857Y-75011904D02*
X69342857Y-75659523D01*
X69371428Y-75735714D01*
X69400000Y-75773809D01*
X69457142Y-75811904D01*
X69571428Y-75811904D01*
X69628571Y-75773809D01*
X69657142Y-75735714D01*
X69685714Y-75659523D01*
X69685714Y-75011904D01*
X70228571Y-75011904D02*
X70114285Y-75011904D01*
X70057142Y-75050000D01*
X70028571Y-75088095D01*
X69971428Y-75202380D01*
X69942857Y-75354761D01*
X69942857Y-75659523D01*
X69971428Y-75735714D01*
X70000000Y-75773809D01*
X70057142Y-75811904D01*
X70171428Y-75811904D01*
X70228571Y-75773809D01*
X70257142Y-75735714D01*
X70285714Y-75659523D01*
X70285714Y-75469047D01*
X70257142Y-75392857D01*
X70228571Y-75354761D01*
X70171428Y-75316666D01*
X70057142Y-75316666D01*
X70000000Y-75354761D01*
X69971428Y-75392857D01*
X69942857Y-75469047D01*
%TO.C,U8*%
X67542857Y-80011904D02*
X67542857Y-80659523D01*
X67571428Y-80735714D01*
X67600000Y-80773809D01*
X67657142Y-80811904D01*
X67771428Y-80811904D01*
X67828571Y-80773809D01*
X67857142Y-80735714D01*
X67885714Y-80659523D01*
X67885714Y-80011904D01*
X68257142Y-80354761D02*
X68200000Y-80316666D01*
X68171428Y-80278571D01*
X68142857Y-80202380D01*
X68142857Y-80164285D01*
X68171428Y-80088095D01*
X68200000Y-80050000D01*
X68257142Y-80011904D01*
X68371428Y-80011904D01*
X68428571Y-80050000D01*
X68457142Y-80088095D01*
X68485714Y-80164285D01*
X68485714Y-80202380D01*
X68457142Y-80278571D01*
X68428571Y-80316666D01*
X68371428Y-80354761D01*
X68257142Y-80354761D01*
X68200000Y-80392857D01*
X68171428Y-80430952D01*
X68142857Y-80507142D01*
X68142857Y-80659523D01*
X68171428Y-80735714D01*
X68200000Y-80773809D01*
X68257142Y-80811904D01*
X68371428Y-80811904D01*
X68428571Y-80773809D01*
X68457142Y-80735714D01*
X68485714Y-80659523D01*
X68485714Y-80507142D01*
X68457142Y-80430952D01*
X68428571Y-80392857D01*
X68371428Y-80354761D01*
%TO.C,U10*%
X60911904Y-62042857D02*
X61559523Y-62042857D01*
X61635714Y-62014285D01*
X61673809Y-61985714D01*
X61711904Y-61928571D01*
X61711904Y-61814285D01*
X61673809Y-61757142D01*
X61635714Y-61728571D01*
X61559523Y-61700000D01*
X60911904Y-61700000D01*
X61711904Y-61100000D02*
X61711904Y-61442857D01*
X61711904Y-61271428D02*
X60911904Y-61271428D01*
X61026190Y-61328571D01*
X61102380Y-61385714D01*
X61140476Y-61442857D01*
X60911904Y-60728571D02*
X60911904Y-60671428D01*
X60950000Y-60614285D01*
X60988095Y-60585714D01*
X61064285Y-60557142D01*
X61216666Y-60528571D01*
X61407142Y-60528571D01*
X61559523Y-60557142D01*
X61635714Y-60585714D01*
X61673809Y-60614285D01*
X61711904Y-60671428D01*
X61711904Y-60728571D01*
X61673809Y-60785714D01*
X61635714Y-60814285D01*
X61559523Y-60842857D01*
X61407142Y-60871428D01*
X61216666Y-60871428D01*
X61064285Y-60842857D01*
X60988095Y-60814285D01*
X60950000Y-60785714D01*
X60911904Y-60728571D01*
%TO.C,D1*%
X58661904Y-84992857D02*
X57861904Y-84992857D01*
X57861904Y-84850000D01*
X57900000Y-84764285D01*
X57976190Y-84707142D01*
X58052380Y-84678571D01*
X58204761Y-84650000D01*
X58319047Y-84650000D01*
X58471428Y-84678571D01*
X58547619Y-84707142D01*
X58623809Y-84764285D01*
X58661904Y-84850000D01*
X58661904Y-84992857D01*
X58661904Y-84078571D02*
X58661904Y-84421428D01*
X58661904Y-84250000D02*
X57861904Y-84250000D01*
X57976190Y-84307142D01*
X58052380Y-84364285D01*
X58090476Y-84421428D01*
%TO.C,D2*%
X68661904Y-84992857D02*
X67861904Y-84992857D01*
X67861904Y-84850000D01*
X67900000Y-84764285D01*
X67976190Y-84707142D01*
X68052380Y-84678571D01*
X68204761Y-84650000D01*
X68319047Y-84650000D01*
X68471428Y-84678571D01*
X68547619Y-84707142D01*
X68623809Y-84764285D01*
X68661904Y-84850000D01*
X68661904Y-84992857D01*
X67938095Y-84421428D02*
X67900000Y-84392857D01*
X67861904Y-84335714D01*
X67861904Y-84192857D01*
X67900000Y-84135714D01*
X67938095Y-84107142D01*
X68014285Y-84078571D01*
X68090476Y-84078571D01*
X68204761Y-84107142D01*
X68661904Y-84450000D01*
X68661904Y-84078571D01*
%TO.C,D3*%
X78661904Y-84942857D02*
X77861904Y-84942857D01*
X77861904Y-84800000D01*
X77900000Y-84714285D01*
X77976190Y-84657142D01*
X78052380Y-84628571D01*
X78204761Y-84600000D01*
X78319047Y-84600000D01*
X78471428Y-84628571D01*
X78547619Y-84657142D01*
X78623809Y-84714285D01*
X78661904Y-84800000D01*
X78661904Y-84942857D01*
X77861904Y-84400000D02*
X77861904Y-84028571D01*
X78166666Y-84228571D01*
X78166666Y-84142857D01*
X78204761Y-84085714D01*
X78242857Y-84057142D01*
X78319047Y-84028571D01*
X78509523Y-84028571D01*
X78585714Y-84057142D01*
X78623809Y-84085714D01*
X78661904Y-84142857D01*
X78661904Y-84314285D01*
X78623809Y-84371428D01*
X78585714Y-84400000D01*
%TD*%
M02*
