M48
INCH
T1C0.0118
T2C0.0157
T3C0.0236
T4C0.0256
%
G90
G05
T1
X1.7126Y-2.6732
X1.7724Y-2.1744
X1.8354Y-2.0146
X1.8941Y-2.1783
X1.8957Y-2.8996
X1.8996Y-3.0689
X1.8996Y-3.1417
X1.8996Y-3.2008
X1.8996Y-3.2736
X1.9055Y-2.4843
X1.926Y-2.9638
X1.937Y-2.3524
X1.937Y-3.2736
X1.9423Y-3.0663
X1.9681Y-3.1087
X1.9744Y-3.2736
X1.9921Y-2.0012
X2.0Y-3.1358
X2.0079Y-2.8563
X2.0079Y-2.8898
X2.0177Y-2.0224
X2.0177Y-2.9213
X2.0256Y-2.9685
X2.0492Y-3.065
X2.0551Y-3.1821
X2.0748Y-2.9685
X2.0817Y-3.2047
X2.0984Y-2.8681
X2.1024Y-2.9016
X2.1073Y-3.2283
X2.1073Y-3.2726
X2.1209Y-2.3543
X2.1516Y-2.7295
X2.1575Y-3.2323
X2.1732Y-3.0669
X2.1732Y-3.1496
X2.1732Y-3.2028
X2.1752Y-3.2776
X2.2047Y-1.9803
X2.2047Y-2.0236
X2.2323Y-2.9626
X2.248Y-1.9803
X2.2508Y-2.0701
X2.2657Y-2.4228
X2.2697Y-3.2835
X2.2717Y-3.3455
X2.2736Y-2.9852
X2.2736Y-3.0187
X2.287Y-2.4516
X2.2933Y-3.2598
X2.3091Y-3.1555
X2.313Y-2.6713
X2.315Y-3.0945
X2.3406Y-3.1555
X2.3406Y-3.3642
X2.3543Y-3.0433
X2.3819Y-1.9882
X2.4075Y-2.9528
X2.4173Y-2.1417
X2.4173Y-2.1732
X2.4173Y-2.2047
X2.4173Y-3.0217
X2.4173Y-3.063
X2.4248Y-2.513
X2.4252Y-2.5866
X2.4272Y-2.372
X2.4429Y-2.8228
X2.4508Y-3.1398
X2.4508Y-3.2776
X2.4567Y-2.5669
X2.4606Y-2.3602
X2.4646Y-2.4646
X2.4795Y-2.885
X2.4795Y-2.9189
X2.4961Y-2.4646
X2.4961Y-2.4961
X2.4961Y-2.5276
X2.5374Y-2.9488
X2.5433Y-3.3583
X2.5709Y-2.3622
X2.5709Y-2.3937
X2.5709Y-2.5315
X2.5709Y-2.563
X2.5728Y-2.9488
X2.5886Y-3.1457
X2.6004Y-3.0768
X2.6024Y-2.378
X2.6024Y-2.4094
X2.6024Y-2.5157
X2.6024Y-2.5472
X2.6161Y-2.6811
X2.624Y-3.1457
X2.626Y-2.002
X2.6339Y-2.7835
X2.6339Y-2.9409
X2.6358Y-2.2421
X2.6368Y-2.5581
X2.6398Y-2.6083
X2.6398Y-2.6417
X2.6457Y-3.3287
X2.6654Y-2.7835
X2.6654Y-2.9409
X2.6831Y-3.0768
X2.687Y-2.1063
X2.7008Y-2.5768
X2.7244Y-2.1063
X2.7618Y-2.5768
X2.7638Y-2.713
X2.7717Y-2.2539
X2.7953Y-2.8634
X2.7987Y-2.709
X2.7992Y-1.9705
X2.7992Y-2.003
X2.7992Y-2.5768
X2.8287Y-3.1634
X2.8327Y-3.2362
X2.8346Y-2.7614
X2.8701Y-3.2638
X2.878Y-1.9823
X2.878Y-2.0138
X2.8799Y-3.1634
X2.9075Y-1.9665
X2.937Y-3.3583
X2.939Y-1.9665
X2.9744Y-2.0827
X2.9744Y-2.128
X2.9764Y-1.9705
X2.9764Y-2.2421
X3.0157Y-1.9705
X3.0157Y-2.0069
X3.0394Y-3.3268
X3.0453Y-1.9882
X3.0787Y-1.9528
X3.0787Y-2.2067
X3.1004Y-3.2087
X3.1102Y-2.1417
X3.1142Y-2.0669
X3.1398Y-3.2362
X3.3307Y-3.3583
X3.3484Y-3.1772
X3.3484Y-3.2087
X3.3642Y-3.2638
X3.4094Y-1.937
X3.502Y-2.1417
X3.5079Y-3.2559
X3.5295Y-3.1909
X3.5295Y-3.2283
X3.5433Y-2.1417
X3.5984Y-1.937
X3.6299Y-2.1102
X3.6299Y-2.1575
X3.6386Y-2.3524
X3.6457Y-3.2126
X3.6457Y-3.2835
X3.6457Y-3.3543
X3.6535Y-2.1929
X3.6772Y-2.1575
X3.7008Y-2.1929
X3.7165Y-3.2126
X3.7244Y-2.1575
X3.748Y-2.1929
X3.7717Y-2.1575
X3.7874Y-3.2126
T2
X2.2146Y-2.7382
X2.2146Y-2.8602
T4
X2.1902Y-2.1236
X2.1902Y-2.1736
X2.1902Y-2.2236
X2.1902Y-2.2736
X2.1902Y-2.3236
X2.2402Y-2.1236
X2.2402Y-2.1736
X2.2402Y-2.2236
X2.2402Y-2.2736
X2.2402Y-2.3236
T3
G00X1.6949Y-2.4677
M15
G01X1.6713Y-2.4677
M16
G05
G00X1.6949Y-2.8079
M15
G01X1.6713Y-2.8079
M16
G05
G00X1.8445Y-2.4677
M15
G01X1.8209Y-2.4677
M16
G05
G00X1.8445Y-2.8079
M15
G01X1.8209Y-2.8079
M16
G05
T0
M30
